G04 #@! TF.FileFunction,Soldermask,Bot*
%FSLAX46Y46*%
G04 Gerber Fmt 4.6, Leading zero omitted, Abs format (unit mm)*
G04 Created by KiCad (PCBNEW no-vcs-found-undefined) date Mon Oct 24 11:28:01 2016*
%MOMM*%
%LPD*%
G01*
G04 APERTURE LIST*
%ADD10C,0.100000*%
%ADD11C,2.900000*%
%ADD12R,2.900000X2.900000*%
%ADD13O,2.127200X2.432000*%
%ADD14R,2.127200X2.432000*%
%ADD15R,2.432000X2.127200*%
%ADD16O,2.432000X2.127200*%
%ADD17R,2.400000X2.400000*%
%ADD18C,2.400000*%
%ADD19R,2.099260X2.099260*%
%ADD20C,2.099260*%
%ADD21C,2.398980*%
%ADD22O,1.901140X1.299160*%
%ADD23C,1.901140*%
G04 APERTURE END LIST*
D10*
D11*
X119380000Y-97710000D03*
D12*
X119380000Y-92710000D03*
X119380000Y-104140000D03*
D11*
X119380000Y-109140000D03*
X119380000Y-120570000D03*
D12*
X119380000Y-115570000D03*
X119380000Y-127000000D03*
D11*
X119380000Y-132000000D03*
D13*
X156210000Y-88900000D03*
X153670000Y-88900000D03*
X151130000Y-88900000D03*
X148590000Y-88900000D03*
X146050000Y-88900000D03*
X143510000Y-88900000D03*
X140970000Y-88900000D03*
D14*
X138430000Y-88900000D03*
X160020000Y-88900000D03*
D13*
X162560000Y-88900000D03*
X165100000Y-88900000D03*
X167640000Y-88900000D03*
X170180000Y-88900000D03*
X172720000Y-88900000D03*
X175260000Y-88900000D03*
X177800000Y-88900000D03*
X200660000Y-88900000D03*
X198120000Y-88900000D03*
X195580000Y-88900000D03*
X193040000Y-88900000D03*
X190500000Y-88900000D03*
X187960000Y-88900000D03*
X185420000Y-88900000D03*
D14*
X182880000Y-88900000D03*
X165100000Y-137160000D03*
D13*
X167640000Y-137160000D03*
X170180000Y-137160000D03*
X172720000Y-137160000D03*
X175260000Y-137160000D03*
X177800000Y-137160000D03*
X180340000Y-137160000D03*
X182880000Y-137160000D03*
X205740000Y-137160000D03*
X203200000Y-137160000D03*
X200660000Y-137160000D03*
X198120000Y-137160000D03*
X195580000Y-137160000D03*
X193040000Y-137160000D03*
X190500000Y-137160000D03*
D14*
X187960000Y-137160000D03*
D15*
X208280000Y-88900000D03*
D16*
X208280000Y-91440000D03*
X208280000Y-93980000D03*
X208280000Y-96520000D03*
X208280000Y-99060000D03*
X208280000Y-101600000D03*
X208280000Y-104140000D03*
X208280000Y-106680000D03*
X208280000Y-109220000D03*
X208280000Y-111760000D03*
X208280000Y-114300000D03*
X208280000Y-116840000D03*
X208280000Y-119380000D03*
X208280000Y-121920000D03*
X208280000Y-124460000D03*
X208280000Y-127000000D03*
X208280000Y-129540000D03*
X208280000Y-132080000D03*
X210820000Y-132080000D03*
X210820000Y-129540000D03*
X210820000Y-127000000D03*
X210820000Y-124460000D03*
X210820000Y-121920000D03*
X210820000Y-119380000D03*
X210820000Y-116840000D03*
X210820000Y-114300000D03*
X210820000Y-111760000D03*
X210820000Y-109220000D03*
X210820000Y-106680000D03*
X210820000Y-104140000D03*
X210820000Y-101600000D03*
X210820000Y-99060000D03*
X210820000Y-96520000D03*
X210820000Y-93980000D03*
X210820000Y-91440000D03*
D15*
X210820000Y-88900000D03*
D14*
X147320000Y-137160000D03*
D13*
X149860000Y-137160000D03*
X152400000Y-137160000D03*
X154940000Y-137160000D03*
X157480000Y-137160000D03*
X160020000Y-137160000D03*
D17*
X153670000Y-115570000D03*
D18*
X151130000Y-115570000D03*
D19*
X147322540Y-118110520D03*
D20*
X147322540Y-128270520D03*
D17*
X185420000Y-95250000D03*
D18*
X182880000Y-95250000D03*
D20*
X179072540Y-107950520D03*
D19*
X179072540Y-97790520D03*
D21*
X152400000Y-128270000D03*
X152400000Y-120650000D03*
D17*
X153670000Y-95250000D03*
D18*
X151130000Y-95250000D03*
D19*
X147322540Y-97790520D03*
D20*
X147322540Y-107950520D03*
D18*
X182880000Y-115570000D03*
D17*
X185420000Y-115570000D03*
D19*
X179072540Y-118110520D03*
D20*
X179072540Y-128270520D03*
D22*
X157480000Y-127000000D03*
X157480000Y-125730000D03*
X157480000Y-128270000D03*
X157480000Y-107950000D03*
X157480000Y-105410000D03*
X157480000Y-106680000D03*
X189230000Y-128270000D03*
X189230000Y-125730000D03*
X189230000Y-127000000D03*
X189230000Y-106680000D03*
X189230000Y-105410000D03*
X189230000Y-107950000D03*
D21*
X157480000Y-121920000D03*
X157480000Y-114300000D03*
X152400000Y-107950000D03*
X152400000Y-100330000D03*
X157480000Y-93980000D03*
X157480000Y-101600000D03*
X189230000Y-114300000D03*
X189230000Y-121920000D03*
X189230000Y-93980000D03*
X189230000Y-101600000D03*
X184150000Y-120650000D03*
X184150000Y-128270000D03*
X184150000Y-100330000D03*
X184150000Y-107950000D03*
D23*
X135890000Y-116840000D03*
X143510000Y-116840000D03*
X135890000Y-124460000D03*
X135890000Y-129540000D03*
X143510000Y-129540000D03*
X135890000Y-96520000D03*
X143510000Y-96520000D03*
X135890000Y-104140000D03*
X135890000Y-109220000D03*
X143510000Y-109220000D03*
X175260000Y-129540000D03*
X167640000Y-129540000D03*
X167640000Y-124460000D03*
X175260000Y-116840000D03*
X167640000Y-116840000D03*
X175260000Y-109220000D03*
X167640000Y-109220000D03*
X167640000Y-104140000D03*
X175260000Y-96520000D03*
X167640000Y-96520000D03*
M02*
