G04 #@! TF.FileFunction,Copper,L1,Top,Signal*
%FSLAX46Y46*%
G04 Gerber Fmt 4.6, Leading zero omitted, Abs format (unit mm)*
G04 Created by KiCad (PCBNEW no-vcs-found-undefined) date Sun Oct 23 11:40:43 2016*
%MOMM*%
%LPD*%
G01*
G04 APERTURE LIST*
%ADD10C,0.100000*%
%ADD11C,3.937000*%
%ADD12C,2.500000*%
%ADD13R,2.500000X2.500000*%
%ADD14O,1.727200X2.032000*%
%ADD15R,1.727200X2.032000*%
%ADD16R,2.032000X1.727200*%
%ADD17O,2.032000X1.727200*%
%ADD18R,2.000000X2.000000*%
%ADD19C,2.000000*%
%ADD20R,1.699260X1.699260*%
%ADD21C,1.699260*%
%ADD22C,1.998980*%
%ADD23O,1.501140X0.899160*%
%ADD24C,1.501140*%
%ADD25C,0.800000*%
%ADD26C,0.250000*%
%ADD27C,0.254000*%
G04 APERTURE END LIST*
D10*
D11*
X128270000Y-137160000D03*
X129540000Y-88900000D03*
X204470000Y-88900000D03*
X210820000Y-137160000D03*
D12*
X119380000Y-97710000D03*
D13*
X119380000Y-92710000D03*
X119380000Y-104140000D03*
D12*
X119380000Y-109140000D03*
X119380000Y-120570000D03*
D13*
X119380000Y-115570000D03*
X119380000Y-127000000D03*
D12*
X119380000Y-132000000D03*
D14*
X156210000Y-88900000D03*
X153670000Y-88900000D03*
X151130000Y-88900000D03*
X148590000Y-88900000D03*
X146050000Y-88900000D03*
X143510000Y-88900000D03*
X140970000Y-88900000D03*
D15*
X138430000Y-88900000D03*
X160020000Y-88900000D03*
D14*
X162560000Y-88900000D03*
X165100000Y-88900000D03*
X167640000Y-88900000D03*
X170180000Y-88900000D03*
X172720000Y-88900000D03*
X175260000Y-88900000D03*
X177800000Y-88900000D03*
X200660000Y-88900000D03*
X198120000Y-88900000D03*
X195580000Y-88900000D03*
X193040000Y-88900000D03*
X190500000Y-88900000D03*
X187960000Y-88900000D03*
X185420000Y-88900000D03*
D15*
X182880000Y-88900000D03*
X165100000Y-137160000D03*
D14*
X167640000Y-137160000D03*
X170180000Y-137160000D03*
X172720000Y-137160000D03*
X175260000Y-137160000D03*
X177800000Y-137160000D03*
X180340000Y-137160000D03*
X182880000Y-137160000D03*
X205740000Y-137160000D03*
X203200000Y-137160000D03*
X200660000Y-137160000D03*
X198120000Y-137160000D03*
X195580000Y-137160000D03*
X193040000Y-137160000D03*
X190500000Y-137160000D03*
D15*
X187960000Y-137160000D03*
D16*
X208280000Y-88900000D03*
D17*
X208280000Y-91440000D03*
X208280000Y-93980000D03*
X208280000Y-96520000D03*
X208280000Y-99060000D03*
X208280000Y-101600000D03*
X208280000Y-104140000D03*
X208280000Y-106680000D03*
X208280000Y-109220000D03*
X208280000Y-111760000D03*
X208280000Y-114300000D03*
X208280000Y-116840000D03*
X208280000Y-119380000D03*
X208280000Y-121920000D03*
X208280000Y-124460000D03*
X208280000Y-127000000D03*
X208280000Y-129540000D03*
X208280000Y-132080000D03*
X210820000Y-132080000D03*
X210820000Y-129540000D03*
X210820000Y-127000000D03*
X210820000Y-124460000D03*
X210820000Y-121920000D03*
X210820000Y-119380000D03*
X210820000Y-116840000D03*
X210820000Y-114300000D03*
X210820000Y-111760000D03*
X210820000Y-109220000D03*
X210820000Y-106680000D03*
X210820000Y-104140000D03*
X210820000Y-101600000D03*
X210820000Y-99060000D03*
X210820000Y-96520000D03*
X210820000Y-93980000D03*
X210820000Y-91440000D03*
D16*
X210820000Y-88900000D03*
D15*
X147320000Y-137160000D03*
D14*
X149860000Y-137160000D03*
X152400000Y-137160000D03*
X154940000Y-137160000D03*
X157480000Y-137160000D03*
X160020000Y-137160000D03*
D18*
X154940000Y-115570000D03*
D19*
X152400000Y-115570000D03*
D20*
X148592540Y-118110520D03*
D21*
X148592540Y-128270520D03*
D18*
X186690000Y-97790000D03*
D19*
X184150000Y-97790000D03*
D21*
X180342540Y-110490520D03*
D20*
X180342540Y-100330520D03*
D22*
X153670000Y-128270000D03*
X153670000Y-120650000D03*
D18*
X153670000Y-95250000D03*
D19*
X151130000Y-95250000D03*
D20*
X148592540Y-99060520D03*
D21*
X148592540Y-109220520D03*
D19*
X184150000Y-115570000D03*
D18*
X186690000Y-115570000D03*
D20*
X180342540Y-118110520D03*
D21*
X180342540Y-128270520D03*
D23*
X158750000Y-128270000D03*
X158750000Y-127000000D03*
X158750000Y-129540000D03*
X158750000Y-109220000D03*
X158750000Y-106680000D03*
X158750000Y-107950000D03*
X195580000Y-128270000D03*
X195580000Y-125730000D03*
X195580000Y-127000000D03*
X195580000Y-109220000D03*
X195580000Y-107950000D03*
X195580000Y-110490000D03*
D22*
X158750000Y-121920000D03*
X158750000Y-114300000D03*
X152400000Y-107950000D03*
X152400000Y-100330000D03*
X158750000Y-95250000D03*
X158750000Y-102870000D03*
X189230000Y-120650000D03*
X189230000Y-128270000D03*
X189230000Y-102870000D03*
X189230000Y-110490000D03*
X184150000Y-120650000D03*
X184150000Y-128270000D03*
X184150000Y-102870000D03*
X184150000Y-110490000D03*
D24*
X135890000Y-116840000D03*
X143510000Y-116840000D03*
X135890000Y-124460000D03*
X135890000Y-129540000D03*
X143510000Y-129540000D03*
X135890000Y-96520000D03*
X143510000Y-96520000D03*
X135890000Y-104140000D03*
X135890000Y-109220000D03*
X143510000Y-109220000D03*
X175260000Y-129540000D03*
X167640000Y-129540000D03*
X167640000Y-124460000D03*
X175260000Y-116840000D03*
X167640000Y-116840000D03*
X175260000Y-109220000D03*
X167640000Y-109220000D03*
X167640000Y-104140000D03*
X175260000Y-96520000D03*
X167640000Y-96520000D03*
D25*
X201930000Y-124460000D03*
X180340000Y-132080000D03*
X171450000Y-118110000D03*
X163830000Y-121920000D03*
X127000000Y-123190000D03*
X127000000Y-125730000D03*
X132080000Y-116840000D03*
X127000000Y-105410000D03*
X129540000Y-102870000D03*
D26*
X201930000Y-124460000D02*
X205740000Y-128270000D01*
X205740000Y-128270000D02*
X207010000Y-128270000D01*
X207010000Y-128270000D02*
X208280000Y-129540000D01*
X180340000Y-132080000D02*
X160020000Y-111760000D01*
X160020000Y-111760000D02*
X156210000Y-111760000D01*
X156210000Y-111760000D02*
X152400000Y-107950000D01*
X189230000Y-102870000D02*
X194310000Y-107950000D01*
X194310000Y-107950000D02*
X194310000Y-111760000D01*
X194310000Y-111760000D02*
X205740000Y-123190000D01*
X205740000Y-123190000D02*
X205740000Y-125730000D01*
X205740000Y-125730000D02*
X210820000Y-125730000D01*
X210820000Y-125730000D02*
X210820000Y-127000000D01*
X208280000Y-88900000D02*
X207010000Y-87630000D01*
X207010000Y-87630000D02*
X207010000Y-86360000D01*
X207010000Y-86360000D02*
X199390000Y-86360000D01*
X199390000Y-86360000D02*
X199390000Y-91440000D01*
X199390000Y-91440000D02*
X198120000Y-91440000D01*
X198120000Y-91440000D02*
X189230000Y-100330000D01*
X189230000Y-100330000D02*
X187960000Y-100330000D01*
X187960000Y-100330000D02*
X187960000Y-101600000D01*
X187960000Y-101600000D02*
X186690000Y-101600000D01*
X186690000Y-101600000D02*
X186690000Y-104140000D01*
X186690000Y-104140000D02*
X185420000Y-105410000D01*
X185420000Y-105410000D02*
X182880000Y-105410000D01*
X182880000Y-105410000D02*
X171450000Y-116840000D01*
X171450000Y-116840000D02*
X171450000Y-118110000D01*
X163830000Y-121920000D02*
X161290000Y-124460000D01*
X161290000Y-124460000D02*
X161290000Y-129540000D01*
X161290000Y-129540000D02*
X160020000Y-130810000D01*
X160020000Y-130810000D02*
X157480000Y-130810000D01*
X157480000Y-130810000D02*
X152400000Y-135890000D01*
X152400000Y-135890000D02*
X152400000Y-137160000D01*
X153670000Y-120650000D02*
X154940000Y-119380000D01*
X154940000Y-119380000D02*
X154940000Y-115570000D01*
X148592540Y-99060520D02*
X148590000Y-99060000D01*
X148590000Y-99060000D02*
X151130000Y-96520000D01*
X151130000Y-96520000D02*
X151130000Y-95250000D01*
X158750000Y-106680000D02*
X158750000Y-102870000D01*
X184150000Y-120650000D02*
X186690000Y-118110000D01*
X186690000Y-118110000D02*
X186690000Y-115570000D01*
X184150000Y-102870000D02*
X186690000Y-100330000D01*
X186690000Y-100330000D02*
X186690000Y-97790000D01*
X127000000Y-123190000D02*
X119380000Y-115570000D01*
X127000000Y-125730000D02*
X132080000Y-120650000D01*
X132080000Y-120650000D02*
X132080000Y-116840000D01*
X135890000Y-116840000D02*
X127000000Y-107950000D01*
X127000000Y-107950000D02*
X127000000Y-105410000D01*
X135890000Y-129540000D02*
X137160000Y-128270000D01*
X137160000Y-128270000D02*
X137160000Y-115570000D01*
X137160000Y-115570000D02*
X129540000Y-107950000D01*
X129540000Y-107950000D02*
X129540000Y-102870000D01*
X135890000Y-96520000D02*
X132080000Y-96520000D01*
X132080000Y-96520000D02*
X119380000Y-109220000D01*
X119380000Y-109220000D02*
X119380000Y-109140000D01*
X158750000Y-121920000D02*
X160020000Y-123190000D01*
X160020000Y-123190000D02*
X160020000Y-128270000D01*
X160020000Y-128270000D02*
X158750000Y-128270000D01*
X152400000Y-100330000D02*
X157480000Y-105410000D01*
X157480000Y-105410000D02*
X157480000Y-107950000D01*
X157480000Y-107950000D02*
X158750000Y-107950000D01*
D27*
G36*
X126936953Y-88379860D02*
X126936049Y-89415596D01*
X127331573Y-90372838D01*
X128063310Y-91105853D01*
X129019860Y-91503047D01*
X130055596Y-91503951D01*
X131012838Y-91108427D01*
X131745853Y-90376690D01*
X132143047Y-89420140D01*
X132143951Y-88384404D01*
X131884713Y-87757000D01*
X136944222Y-87757000D01*
X136918960Y-87884000D01*
X136918960Y-89916000D01*
X136968243Y-90163765D01*
X137108591Y-90373809D01*
X137318635Y-90514157D01*
X137566400Y-90563440D01*
X139293600Y-90563440D01*
X139541365Y-90514157D01*
X139751409Y-90373809D01*
X139891757Y-90163765D01*
X139898984Y-90127434D01*
X139910330Y-90144415D01*
X140396511Y-90469271D01*
X140970000Y-90583345D01*
X141543489Y-90469271D01*
X142029670Y-90144415D01*
X142240000Y-89829634D01*
X142450330Y-90144415D01*
X142936511Y-90469271D01*
X143510000Y-90583345D01*
X144083489Y-90469271D01*
X144569670Y-90144415D01*
X144780000Y-89829634D01*
X144990330Y-90144415D01*
X145476511Y-90469271D01*
X146050000Y-90583345D01*
X146623489Y-90469271D01*
X147109670Y-90144415D01*
X147320000Y-89829634D01*
X147530330Y-90144415D01*
X148016511Y-90469271D01*
X148590000Y-90583345D01*
X149163489Y-90469271D01*
X149649670Y-90144415D01*
X149860000Y-89829634D01*
X150070330Y-90144415D01*
X150556511Y-90469271D01*
X151130000Y-90583345D01*
X151703489Y-90469271D01*
X152189670Y-90144415D01*
X152400000Y-89829634D01*
X152610330Y-90144415D01*
X153096511Y-90469271D01*
X153670000Y-90583345D01*
X154243489Y-90469271D01*
X154729670Y-90144415D01*
X154940000Y-89829634D01*
X155150330Y-90144415D01*
X155636511Y-90469271D01*
X156210000Y-90583345D01*
X156783489Y-90469271D01*
X157269670Y-90144415D01*
X157594526Y-89658234D01*
X157708600Y-89084745D01*
X157708600Y-88715255D01*
X157594526Y-88141766D01*
X157337433Y-87757000D01*
X158534222Y-87757000D01*
X158508960Y-87884000D01*
X158508960Y-89916000D01*
X158558243Y-90163765D01*
X158698591Y-90373809D01*
X158908635Y-90514157D01*
X159156400Y-90563440D01*
X160883600Y-90563440D01*
X161131365Y-90514157D01*
X161341409Y-90373809D01*
X161481757Y-90163765D01*
X161488984Y-90127434D01*
X161500330Y-90144415D01*
X161986511Y-90469271D01*
X162560000Y-90583345D01*
X163133489Y-90469271D01*
X163619670Y-90144415D01*
X163830000Y-89829634D01*
X164040330Y-90144415D01*
X164526511Y-90469271D01*
X165100000Y-90583345D01*
X165673489Y-90469271D01*
X166159670Y-90144415D01*
X166370000Y-89829634D01*
X166580330Y-90144415D01*
X167066511Y-90469271D01*
X167640000Y-90583345D01*
X168213489Y-90469271D01*
X168699670Y-90144415D01*
X168910000Y-89829634D01*
X169120330Y-90144415D01*
X169606511Y-90469271D01*
X170180000Y-90583345D01*
X170753489Y-90469271D01*
X171239670Y-90144415D01*
X171450000Y-89829634D01*
X171660330Y-90144415D01*
X172146511Y-90469271D01*
X172720000Y-90583345D01*
X173293489Y-90469271D01*
X173779670Y-90144415D01*
X173990000Y-89829634D01*
X174200330Y-90144415D01*
X174686511Y-90469271D01*
X175260000Y-90583345D01*
X175833489Y-90469271D01*
X176319670Y-90144415D01*
X176530000Y-89829634D01*
X176740330Y-90144415D01*
X177226511Y-90469271D01*
X177800000Y-90583345D01*
X178373489Y-90469271D01*
X178859670Y-90144415D01*
X179184526Y-89658234D01*
X179298600Y-89084745D01*
X179298600Y-88715255D01*
X179184526Y-88141766D01*
X178927433Y-87757000D01*
X181394222Y-87757000D01*
X181368960Y-87884000D01*
X181368960Y-89916000D01*
X181418243Y-90163765D01*
X181558591Y-90373809D01*
X181768635Y-90514157D01*
X182016400Y-90563440D01*
X183743600Y-90563440D01*
X183991365Y-90514157D01*
X184201409Y-90373809D01*
X184341757Y-90163765D01*
X184348984Y-90127434D01*
X184360330Y-90144415D01*
X184846511Y-90469271D01*
X185420000Y-90583345D01*
X185993489Y-90469271D01*
X186479670Y-90144415D01*
X186690000Y-89829634D01*
X186900330Y-90144415D01*
X187386511Y-90469271D01*
X187960000Y-90583345D01*
X188533489Y-90469271D01*
X189019670Y-90144415D01*
X189230000Y-89829634D01*
X189440330Y-90144415D01*
X189926511Y-90469271D01*
X190500000Y-90583345D01*
X191073489Y-90469271D01*
X191559670Y-90144415D01*
X191770000Y-89829634D01*
X191980330Y-90144415D01*
X192466511Y-90469271D01*
X193040000Y-90583345D01*
X193613489Y-90469271D01*
X194099670Y-90144415D01*
X194310000Y-89829634D01*
X194520330Y-90144415D01*
X195006511Y-90469271D01*
X195580000Y-90583345D01*
X196153489Y-90469271D01*
X196639670Y-90144415D01*
X196850000Y-89829634D01*
X197060330Y-90144415D01*
X197546511Y-90469271D01*
X198120000Y-90583345D01*
X198693489Y-90469271D01*
X199179670Y-90144415D01*
X199390000Y-89829634D01*
X199600330Y-90144415D01*
X200086511Y-90469271D01*
X200660000Y-90583345D01*
X201233489Y-90469271D01*
X201719670Y-90144415D01*
X201996193Y-89730569D01*
X202261573Y-90372838D01*
X202993310Y-91105853D01*
X203949860Y-91503047D01*
X204985596Y-91503951D01*
X205942838Y-91108427D01*
X206675853Y-90376690D01*
X206764816Y-90162442D01*
X206904302Y-90301927D01*
X207057780Y-90365500D01*
X207035585Y-90380330D01*
X206710729Y-90866511D01*
X206596655Y-91440000D01*
X206710729Y-92013489D01*
X207035585Y-92499670D01*
X207350366Y-92710000D01*
X207035585Y-92920330D01*
X206710729Y-93406511D01*
X206596655Y-93980000D01*
X206710729Y-94553489D01*
X207035585Y-95039670D01*
X207350366Y-95250000D01*
X207035585Y-95460330D01*
X206710729Y-95946511D01*
X206596655Y-96520000D01*
X206710729Y-97093489D01*
X207035585Y-97579670D01*
X207350366Y-97790000D01*
X207035585Y-98000330D01*
X206710729Y-98486511D01*
X206596655Y-99060000D01*
X206710729Y-99633489D01*
X207035585Y-100119670D01*
X207350366Y-100330000D01*
X207035585Y-100540330D01*
X206710729Y-101026511D01*
X206596655Y-101600000D01*
X206710729Y-102173489D01*
X207035585Y-102659670D01*
X207350366Y-102870000D01*
X207035585Y-103080330D01*
X206710729Y-103566511D01*
X206596655Y-104140000D01*
X206710729Y-104713489D01*
X207035585Y-105199670D01*
X207350366Y-105410000D01*
X207035585Y-105620330D01*
X206710729Y-106106511D01*
X206596655Y-106680000D01*
X206710729Y-107253489D01*
X207035585Y-107739670D01*
X207350366Y-107950000D01*
X207035585Y-108160330D01*
X206710729Y-108646511D01*
X206596655Y-109220000D01*
X206710729Y-109793489D01*
X207035585Y-110279670D01*
X207350366Y-110490000D01*
X207035585Y-110700330D01*
X206710729Y-111186511D01*
X206596655Y-111760000D01*
X206710729Y-112333489D01*
X207035585Y-112819670D01*
X207350366Y-113030000D01*
X207035585Y-113240330D01*
X206710729Y-113726511D01*
X206596655Y-114300000D01*
X206710729Y-114873489D01*
X207035585Y-115359670D01*
X207350366Y-115570000D01*
X207035585Y-115780330D01*
X206710729Y-116266511D01*
X206596655Y-116840000D01*
X206710729Y-117413489D01*
X207035585Y-117899670D01*
X207350366Y-118110000D01*
X207035585Y-118320330D01*
X206710729Y-118806511D01*
X206596655Y-119380000D01*
X206710729Y-119953489D01*
X207035585Y-120439670D01*
X207350366Y-120650000D01*
X207035585Y-120860330D01*
X206710729Y-121346511D01*
X206596655Y-121920000D01*
X206710729Y-122493489D01*
X207035585Y-122979670D01*
X207350366Y-123190000D01*
X207035585Y-123400330D01*
X206710729Y-123886511D01*
X206596655Y-124460000D01*
X206698100Y-124970000D01*
X206500000Y-124970000D01*
X206500000Y-123190000D01*
X206442148Y-122899161D01*
X206277401Y-122652599D01*
X195186350Y-111561548D01*
X195251865Y-111574580D01*
X195908135Y-111574580D01*
X196323186Y-111492021D01*
X196675049Y-111256914D01*
X196910156Y-110905051D01*
X196992715Y-110490000D01*
X196910156Y-110074949D01*
X196763191Y-109855000D01*
X196910156Y-109635051D01*
X196992715Y-109220000D01*
X196910156Y-108804949D01*
X196763191Y-108585000D01*
X196910156Y-108365051D01*
X196992715Y-107950000D01*
X196910156Y-107534949D01*
X196675049Y-107183086D01*
X196323186Y-106947979D01*
X195908135Y-106865420D01*
X195251865Y-106865420D01*
X194836814Y-106947979D01*
X194564641Y-107129839D01*
X190795885Y-103361083D01*
X190864206Y-103196547D01*
X190864774Y-102546306D01*
X190616462Y-101945345D01*
X190157073Y-101485154D01*
X189556547Y-101235794D01*
X188906306Y-101235226D01*
X188305345Y-101483538D01*
X187845154Y-101942927D01*
X187595794Y-102543453D01*
X187595226Y-103193694D01*
X187843538Y-103794655D01*
X188302927Y-104254846D01*
X188903453Y-104504206D01*
X189553694Y-104504774D01*
X189720889Y-104435691D01*
X193550000Y-108264802D01*
X193550000Y-111760000D01*
X193607852Y-112050839D01*
X193772599Y-112297401D01*
X204980000Y-123504802D01*
X204980000Y-125730000D01*
X205037852Y-126020839D01*
X205202599Y-126267401D01*
X205449161Y-126432148D01*
X205740000Y-126490000D01*
X206698100Y-126490000D01*
X206596655Y-127000000D01*
X206698100Y-127510000D01*
X206054802Y-127510000D01*
X202965035Y-124420233D01*
X202965179Y-124255029D01*
X202807942Y-123874485D01*
X202517046Y-123583081D01*
X202136777Y-123425180D01*
X201725029Y-123424821D01*
X201344485Y-123582058D01*
X201053081Y-123872954D01*
X200895180Y-124253223D01*
X200894821Y-124664971D01*
X201052058Y-125045515D01*
X201342954Y-125336919D01*
X201723223Y-125494820D01*
X201890164Y-125494966D01*
X205202599Y-128807401D01*
X205449161Y-128972148D01*
X205740000Y-129030000D01*
X206695198Y-129030000D01*
X206697619Y-129032421D01*
X206596655Y-129540000D01*
X206710729Y-130113489D01*
X207035585Y-130599670D01*
X207350366Y-130810000D01*
X207035585Y-131020330D01*
X206710729Y-131506511D01*
X206596655Y-132080000D01*
X206710729Y-132653489D01*
X207035585Y-133139670D01*
X207521766Y-133464526D01*
X208095255Y-133578600D01*
X208464745Y-133578600D01*
X209038234Y-133464526D01*
X209524415Y-133139670D01*
X209550000Y-133101379D01*
X209575585Y-133139670D01*
X210061766Y-133464526D01*
X210635255Y-133578600D01*
X211004745Y-133578600D01*
X211578234Y-133464526D01*
X212064415Y-133139670D01*
X212389271Y-132653489D01*
X212503345Y-132080000D01*
X212389271Y-131506511D01*
X212064415Y-131020330D01*
X211749634Y-130810000D01*
X212064415Y-130599670D01*
X212389271Y-130113489D01*
X212503345Y-129540000D01*
X212389271Y-128966511D01*
X212064415Y-128480330D01*
X211749634Y-128270000D01*
X212064415Y-128059670D01*
X212389271Y-127573489D01*
X212503345Y-127000000D01*
X212389271Y-126426511D01*
X212064415Y-125940330D01*
X211749634Y-125730000D01*
X212064415Y-125519670D01*
X212389271Y-125033489D01*
X212503345Y-124460000D01*
X212389271Y-123886511D01*
X212064415Y-123400330D01*
X211749634Y-123190000D01*
X212064415Y-122979670D01*
X212389271Y-122493489D01*
X212503345Y-121920000D01*
X212389271Y-121346511D01*
X212064415Y-120860330D01*
X211749634Y-120650000D01*
X212064415Y-120439670D01*
X212389271Y-119953489D01*
X212503345Y-119380000D01*
X212389271Y-118806511D01*
X212064415Y-118320330D01*
X211749634Y-118110000D01*
X212064415Y-117899670D01*
X212389271Y-117413489D01*
X212503345Y-116840000D01*
X212389271Y-116266511D01*
X212064415Y-115780330D01*
X211749634Y-115570000D01*
X212064415Y-115359670D01*
X212389271Y-114873489D01*
X212503345Y-114300000D01*
X212389271Y-113726511D01*
X212064415Y-113240330D01*
X211749634Y-113030000D01*
X212064415Y-112819670D01*
X212389271Y-112333489D01*
X212503345Y-111760000D01*
X212389271Y-111186511D01*
X212064415Y-110700330D01*
X211749634Y-110490000D01*
X212064415Y-110279670D01*
X212389271Y-109793489D01*
X212503345Y-109220000D01*
X212389271Y-108646511D01*
X212064415Y-108160330D01*
X211749634Y-107950000D01*
X212064415Y-107739670D01*
X212389271Y-107253489D01*
X212503345Y-106680000D01*
X212389271Y-106106511D01*
X212064415Y-105620330D01*
X211749634Y-105410000D01*
X212064415Y-105199670D01*
X212389271Y-104713489D01*
X212503345Y-104140000D01*
X212389271Y-103566511D01*
X212064415Y-103080330D01*
X211749634Y-102870000D01*
X212064415Y-102659670D01*
X212389271Y-102173489D01*
X212503345Y-101600000D01*
X212389271Y-101026511D01*
X212064415Y-100540330D01*
X211749634Y-100330000D01*
X211963000Y-100187433D01*
X211963000Y-100330000D01*
X211972667Y-100378601D01*
X212000197Y-100419803D01*
X212041399Y-100447333D01*
X212090000Y-100457000D01*
X213307394Y-100457000D01*
X214503000Y-101652606D01*
X214503000Y-134567394D01*
X213132166Y-135938228D01*
X213028427Y-135687162D01*
X212296690Y-134954147D01*
X211340140Y-134556953D01*
X210304404Y-134556049D01*
X209347162Y-134951573D01*
X208614147Y-135683310D01*
X208216953Y-136639860D01*
X208216049Y-137675596D01*
X208475287Y-138303000D01*
X206867433Y-138303000D01*
X207124526Y-137918234D01*
X207238600Y-137344745D01*
X207238600Y-136975255D01*
X207124526Y-136401766D01*
X206799670Y-135915585D01*
X206313489Y-135590729D01*
X205740000Y-135476655D01*
X205166511Y-135590729D01*
X204680330Y-135915585D01*
X204470000Y-136230366D01*
X204259670Y-135915585D01*
X203773489Y-135590729D01*
X203200000Y-135476655D01*
X202626511Y-135590729D01*
X202140330Y-135915585D01*
X201930000Y-136230366D01*
X201719670Y-135915585D01*
X201233489Y-135590729D01*
X200660000Y-135476655D01*
X200086511Y-135590729D01*
X199600330Y-135915585D01*
X199390000Y-136230366D01*
X199179670Y-135915585D01*
X198693489Y-135590729D01*
X198120000Y-135476655D01*
X197546511Y-135590729D01*
X197060330Y-135915585D01*
X196850000Y-136230366D01*
X196639670Y-135915585D01*
X196153489Y-135590729D01*
X195580000Y-135476655D01*
X195006511Y-135590729D01*
X194520330Y-135915585D01*
X194310000Y-136230366D01*
X194099670Y-135915585D01*
X193613489Y-135590729D01*
X193040000Y-135476655D01*
X192466511Y-135590729D01*
X191980330Y-135915585D01*
X191770000Y-136230366D01*
X191559670Y-135915585D01*
X191073489Y-135590729D01*
X190500000Y-135476655D01*
X189926511Y-135590729D01*
X189440330Y-135915585D01*
X189428984Y-135932566D01*
X189421757Y-135896235D01*
X189281409Y-135686191D01*
X189071365Y-135545843D01*
X188823600Y-135496560D01*
X187096400Y-135496560D01*
X186848635Y-135545843D01*
X186638591Y-135686191D01*
X186498243Y-135896235D01*
X186448960Y-136144000D01*
X186448960Y-138176000D01*
X186474222Y-138303000D01*
X184007433Y-138303000D01*
X184264526Y-137918234D01*
X184378600Y-137344745D01*
X184378600Y-136975255D01*
X184264526Y-136401766D01*
X183939670Y-135915585D01*
X183453489Y-135590729D01*
X182880000Y-135476655D01*
X182306511Y-135590729D01*
X181820330Y-135915585D01*
X181610000Y-136230366D01*
X181399670Y-135915585D01*
X180913489Y-135590729D01*
X180340000Y-135476655D01*
X179766511Y-135590729D01*
X179280330Y-135915585D01*
X179070000Y-136230366D01*
X178859670Y-135915585D01*
X178373489Y-135590729D01*
X177800000Y-135476655D01*
X177226511Y-135590729D01*
X176740330Y-135915585D01*
X176530000Y-136230366D01*
X176319670Y-135915585D01*
X175833489Y-135590729D01*
X175260000Y-135476655D01*
X174686511Y-135590729D01*
X174200330Y-135915585D01*
X173990000Y-136230366D01*
X173779670Y-135915585D01*
X173293489Y-135590729D01*
X172720000Y-135476655D01*
X172146511Y-135590729D01*
X171660330Y-135915585D01*
X171450000Y-136230366D01*
X171239670Y-135915585D01*
X170753489Y-135590729D01*
X170180000Y-135476655D01*
X169606511Y-135590729D01*
X169120330Y-135915585D01*
X168910000Y-136230366D01*
X168699670Y-135915585D01*
X168213489Y-135590729D01*
X167640000Y-135476655D01*
X167066511Y-135590729D01*
X166580330Y-135915585D01*
X166568984Y-135932566D01*
X166561757Y-135896235D01*
X166421409Y-135686191D01*
X166211365Y-135545843D01*
X165963600Y-135496560D01*
X164236400Y-135496560D01*
X163988635Y-135545843D01*
X163778591Y-135686191D01*
X163638243Y-135896235D01*
X163588960Y-136144000D01*
X163588960Y-138176000D01*
X163614222Y-138303000D01*
X161147433Y-138303000D01*
X161404526Y-137918234D01*
X161518600Y-137344745D01*
X161518600Y-136975255D01*
X161404526Y-136401766D01*
X161079670Y-135915585D01*
X160593489Y-135590729D01*
X160020000Y-135476655D01*
X159446511Y-135590729D01*
X158960330Y-135915585D01*
X158750000Y-136230366D01*
X158539670Y-135915585D01*
X158053489Y-135590729D01*
X157480000Y-135476655D01*
X156906511Y-135590729D01*
X156420330Y-135915585D01*
X156210000Y-136230366D01*
X155999670Y-135915585D01*
X155513489Y-135590729D01*
X154940000Y-135476655D01*
X154366511Y-135590729D01*
X153880330Y-135915585D01*
X153673539Y-136225069D01*
X153302036Y-135809268D01*
X152774791Y-135555291D01*
X152759026Y-135552642D01*
X152527000Y-135673783D01*
X152527000Y-137033000D01*
X152547000Y-137033000D01*
X152547000Y-137287000D01*
X152527000Y-137287000D01*
X152527000Y-137307000D01*
X152273000Y-137307000D01*
X152273000Y-137287000D01*
X152253000Y-137287000D01*
X152253000Y-137033000D01*
X152273000Y-137033000D01*
X152273000Y-135673783D01*
X152040974Y-135552642D01*
X152025209Y-135555291D01*
X151497964Y-135809268D01*
X151126461Y-136225069D01*
X150919670Y-135915585D01*
X150433489Y-135590729D01*
X149860000Y-135476655D01*
X149286511Y-135590729D01*
X148800330Y-135915585D01*
X148788984Y-135932566D01*
X148781757Y-135896235D01*
X148641409Y-135686191D01*
X148431365Y-135545843D01*
X148183600Y-135496560D01*
X146456400Y-135496560D01*
X146208635Y-135545843D01*
X145998591Y-135686191D01*
X145858243Y-135896235D01*
X145808960Y-136144000D01*
X145808960Y-138176000D01*
X145834222Y-138303000D01*
X130614413Y-138303000D01*
X130873047Y-137680140D01*
X130873951Y-136644404D01*
X130478427Y-135687162D01*
X129746690Y-134954147D01*
X128790140Y-134556953D01*
X127754404Y-134556049D01*
X126797162Y-134951573D01*
X126064147Y-135683310D01*
X125666953Y-136639860D01*
X125666049Y-137675596D01*
X125925287Y-138303000D01*
X115697000Y-138303000D01*
X115697000Y-132373305D01*
X117494674Y-132373305D01*
X117781043Y-133066372D01*
X118310839Y-133597093D01*
X119003405Y-133884672D01*
X119753305Y-133885326D01*
X120446372Y-133598957D01*
X120977093Y-133069161D01*
X121264672Y-132376595D01*
X121265326Y-131626695D01*
X120978957Y-130933628D01*
X120449161Y-130402907D01*
X119756595Y-130115328D01*
X119006695Y-130114674D01*
X118313628Y-130401043D01*
X117782907Y-130930839D01*
X117495328Y-131623405D01*
X117494674Y-132373305D01*
X115697000Y-132373305D01*
X115697000Y-125750000D01*
X117482560Y-125750000D01*
X117482560Y-128250000D01*
X117531843Y-128497765D01*
X117672191Y-128707809D01*
X117882235Y-128848157D01*
X118130000Y-128897440D01*
X120630000Y-128897440D01*
X120877765Y-128848157D01*
X121087809Y-128707809D01*
X121228157Y-128497765D01*
X121277440Y-128250000D01*
X121277440Y-125934971D01*
X125964821Y-125934971D01*
X126122058Y-126315515D01*
X126412954Y-126606919D01*
X126793223Y-126764820D01*
X127204971Y-126765179D01*
X127585515Y-126607942D01*
X127876919Y-126317046D01*
X128034820Y-125936777D01*
X128034966Y-125769836D01*
X132617401Y-121187401D01*
X132782148Y-120940839D01*
X132840000Y-120650000D01*
X132840000Y-117543761D01*
X132956919Y-117427046D01*
X133114820Y-117046777D01*
X133115179Y-116635029D01*
X132957942Y-116254485D01*
X132667046Y-115963081D01*
X132286777Y-115805180D01*
X131875029Y-115804821D01*
X131494485Y-115962058D01*
X131203081Y-116252954D01*
X131045180Y-116633223D01*
X131044821Y-117044971D01*
X131202058Y-117425515D01*
X131320000Y-117543663D01*
X131320000Y-120335198D01*
X126960233Y-124694965D01*
X126795029Y-124694821D01*
X126414485Y-124852058D01*
X126123081Y-125142954D01*
X125965180Y-125523223D01*
X125964821Y-125934971D01*
X121277440Y-125934971D01*
X121277440Y-125750000D01*
X121228157Y-125502235D01*
X121087809Y-125292191D01*
X120877765Y-125151843D01*
X120630000Y-125102560D01*
X118130000Y-125102560D01*
X117882235Y-125151843D01*
X117672191Y-125292191D01*
X117531843Y-125502235D01*
X117482560Y-125750000D01*
X115697000Y-125750000D01*
X115697000Y-120943305D01*
X117494674Y-120943305D01*
X117781043Y-121636372D01*
X118310839Y-122167093D01*
X119003405Y-122454672D01*
X119753305Y-122455326D01*
X120446372Y-122168957D01*
X120977093Y-121639161D01*
X121264672Y-120946595D01*
X121265326Y-120196695D01*
X120978957Y-119503628D01*
X120449161Y-118972907D01*
X119756595Y-118685328D01*
X119006695Y-118684674D01*
X118313628Y-118971043D01*
X117782907Y-119500839D01*
X117495328Y-120193405D01*
X117494674Y-120943305D01*
X115697000Y-120943305D01*
X115697000Y-114320000D01*
X117482560Y-114320000D01*
X117482560Y-116820000D01*
X117531843Y-117067765D01*
X117672191Y-117277809D01*
X117882235Y-117418157D01*
X118130000Y-117467440D01*
X120202638Y-117467440D01*
X125964965Y-123229767D01*
X125964821Y-123394971D01*
X126122058Y-123775515D01*
X126412954Y-124066919D01*
X126793223Y-124224820D01*
X127204971Y-124225179D01*
X127585515Y-124067942D01*
X127876919Y-123777046D01*
X128034820Y-123396777D01*
X128035179Y-122985029D01*
X127877942Y-122604485D01*
X127587046Y-122313081D01*
X127206777Y-122155180D01*
X127039836Y-122155034D01*
X121277440Y-116392638D01*
X121277440Y-114320000D01*
X121228157Y-114072235D01*
X121087809Y-113862191D01*
X120877765Y-113721843D01*
X120630000Y-113672560D01*
X118130000Y-113672560D01*
X117882235Y-113721843D01*
X117672191Y-113862191D01*
X117531843Y-114072235D01*
X117482560Y-114320000D01*
X115697000Y-114320000D01*
X115697000Y-109513305D01*
X117494674Y-109513305D01*
X117781043Y-110206372D01*
X118310839Y-110737093D01*
X119003405Y-111024672D01*
X119753305Y-111025326D01*
X120446372Y-110738957D01*
X120977093Y-110209161D01*
X121264672Y-109516595D01*
X121265326Y-108766695D01*
X121160882Y-108513920D01*
X124059831Y-105614971D01*
X125964821Y-105614971D01*
X126122058Y-105995515D01*
X126240000Y-106113663D01*
X126240000Y-107950000D01*
X126297852Y-108240839D01*
X126462599Y-108487401D01*
X134514562Y-116539364D01*
X134504671Y-116563184D01*
X134504190Y-117114398D01*
X134714686Y-117623837D01*
X135104113Y-118013944D01*
X135613184Y-118225329D01*
X136164398Y-118225810D01*
X136400000Y-118128461D01*
X136400000Y-123171498D01*
X136166816Y-123074671D01*
X135615602Y-123074190D01*
X135106163Y-123284686D01*
X134716056Y-123674113D01*
X134504671Y-124183184D01*
X134504190Y-124734398D01*
X134714686Y-125243837D01*
X135104113Y-125633944D01*
X135613184Y-125845329D01*
X136164398Y-125845810D01*
X136400000Y-125748461D01*
X136400000Y-127955198D01*
X136190636Y-128164562D01*
X136166816Y-128154671D01*
X135615602Y-128154190D01*
X135106163Y-128364686D01*
X134716056Y-128754113D01*
X134504671Y-129263184D01*
X134504190Y-129814398D01*
X134714686Y-130323837D01*
X135104113Y-130713944D01*
X135613184Y-130925329D01*
X136164398Y-130925810D01*
X136673837Y-130715314D01*
X137063944Y-130325887D01*
X137275329Y-129816816D01*
X137275331Y-129814398D01*
X142124190Y-129814398D01*
X142334686Y-130323837D01*
X142724113Y-130713944D01*
X143233184Y-130925329D01*
X143784398Y-130925810D01*
X144293837Y-130715314D01*
X144683944Y-130325887D01*
X144895329Y-129816816D01*
X144895810Y-129265602D01*
X144685314Y-128756163D01*
X144494022Y-128564536D01*
X147107652Y-128564536D01*
X147333198Y-129110397D01*
X147750466Y-129528394D01*
X148295933Y-129754892D01*
X148886556Y-129755408D01*
X149432417Y-129529862D01*
X149850414Y-129112594D01*
X150065880Y-128593694D01*
X152035226Y-128593694D01*
X152283538Y-129194655D01*
X152742927Y-129654846D01*
X153343453Y-129904206D01*
X153993694Y-129904774D01*
X154594655Y-129656462D01*
X155054846Y-129197073D01*
X155304206Y-128596547D01*
X155304774Y-127946306D01*
X155056462Y-127345345D01*
X154597073Y-126885154D01*
X153996547Y-126635794D01*
X153346306Y-126635226D01*
X152745345Y-126883538D01*
X152285154Y-127342927D01*
X152035794Y-127943453D01*
X152035226Y-128593694D01*
X150065880Y-128593694D01*
X150076912Y-128567127D01*
X150077428Y-127976504D01*
X149851882Y-127430643D01*
X149434614Y-127012646D01*
X148889147Y-126786148D01*
X148298524Y-126785632D01*
X147752663Y-127011178D01*
X147334666Y-127428446D01*
X147108168Y-127973913D01*
X147107652Y-128564536D01*
X144494022Y-128564536D01*
X144295887Y-128366056D01*
X143786816Y-128154671D01*
X143235602Y-128154190D01*
X142726163Y-128364686D01*
X142336056Y-128754113D01*
X142124671Y-129263184D01*
X142124190Y-129814398D01*
X137275331Y-129814398D01*
X137275810Y-129265602D01*
X137265106Y-129239696D01*
X137697401Y-128807401D01*
X137862148Y-128560840D01*
X137920000Y-128270000D01*
X137920000Y-117114398D01*
X142124190Y-117114398D01*
X142334686Y-117623837D01*
X142724113Y-118013944D01*
X143233184Y-118225329D01*
X143784398Y-118225810D01*
X144293837Y-118015314D01*
X144683944Y-117625887D01*
X144835504Y-117260890D01*
X147095470Y-117260890D01*
X147095470Y-118960150D01*
X147144753Y-119207915D01*
X147285101Y-119417959D01*
X147495145Y-119558307D01*
X147742910Y-119607590D01*
X149442170Y-119607590D01*
X149689935Y-119558307D01*
X149899979Y-119417959D01*
X150040327Y-119207915D01*
X150089610Y-118960150D01*
X150089610Y-117260890D01*
X150040327Y-117013125D01*
X149899979Y-116803081D01*
X149689935Y-116662733D01*
X149442170Y-116613450D01*
X147742910Y-116613450D01*
X147495145Y-116662733D01*
X147285101Y-116803081D01*
X147144753Y-117013125D01*
X147095470Y-117260890D01*
X144835504Y-117260890D01*
X144895329Y-117116816D01*
X144895810Y-116565602D01*
X144685314Y-116056163D01*
X144523230Y-115893795D01*
X150764716Y-115893795D01*
X151013106Y-116494943D01*
X151472637Y-116955278D01*
X152073352Y-117204716D01*
X152723795Y-117205284D01*
X153324943Y-116956894D01*
X153390847Y-116891105D01*
X153482191Y-117027809D01*
X153692235Y-117168157D01*
X153940000Y-117217440D01*
X154180000Y-117217440D01*
X154180000Y-119065198D01*
X154161083Y-119084115D01*
X153996547Y-119015794D01*
X153346306Y-119015226D01*
X152745345Y-119263538D01*
X152285154Y-119722927D01*
X152035794Y-120323453D01*
X152035226Y-120973694D01*
X152283538Y-121574655D01*
X152742927Y-122034846D01*
X153343453Y-122284206D01*
X153993694Y-122284774D01*
X154093115Y-122243694D01*
X157115226Y-122243694D01*
X157363538Y-122844655D01*
X157822927Y-123304846D01*
X158423453Y-123554206D01*
X159073694Y-123554774D01*
X159240889Y-123485691D01*
X159260000Y-123504802D01*
X159260000Y-125951595D01*
X159078135Y-125915420D01*
X158421865Y-125915420D01*
X158006814Y-125997979D01*
X157654951Y-126233086D01*
X157419844Y-126584949D01*
X157337285Y-127000000D01*
X157419844Y-127415051D01*
X157566809Y-127635000D01*
X157419844Y-127854949D01*
X157337285Y-128270000D01*
X157419844Y-128685051D01*
X157566809Y-128905000D01*
X157419844Y-129124949D01*
X157337285Y-129540000D01*
X157419844Y-129955051D01*
X157654951Y-130306914D01*
X158006814Y-130542021D01*
X158421865Y-130624580D01*
X159078135Y-130624580D01*
X159493186Y-130542021D01*
X159845049Y-130306914D01*
X160080156Y-129955051D01*
X160108133Y-129814398D01*
X166254190Y-129814398D01*
X166464686Y-130323837D01*
X166854113Y-130713944D01*
X167363184Y-130925329D01*
X167914398Y-130925810D01*
X168423837Y-130715314D01*
X168813944Y-130325887D01*
X169025329Y-129816816D01*
X169025810Y-129265602D01*
X168815314Y-128756163D01*
X168425887Y-128366056D01*
X167916816Y-128154671D01*
X167365602Y-128154190D01*
X166856163Y-128364686D01*
X166466056Y-128754113D01*
X166254671Y-129263184D01*
X166254190Y-129814398D01*
X160108133Y-129814398D01*
X160162715Y-129540000D01*
X160080156Y-129124949D01*
X160016713Y-129030000D01*
X160020000Y-129030000D01*
X160310839Y-128972148D01*
X160557401Y-128807401D01*
X160722148Y-128560839D01*
X160780000Y-128270000D01*
X160780000Y-124734398D01*
X166254190Y-124734398D01*
X166464686Y-125243837D01*
X166854113Y-125633944D01*
X167363184Y-125845329D01*
X167914398Y-125845810D01*
X168423837Y-125635314D01*
X168813944Y-125245887D01*
X169025329Y-124736816D01*
X169025810Y-124185602D01*
X168815314Y-123676163D01*
X168425887Y-123286056D01*
X167916816Y-123074671D01*
X167365602Y-123074190D01*
X166856163Y-123284686D01*
X166466056Y-123674113D01*
X166254671Y-124183184D01*
X166254190Y-124734398D01*
X160780000Y-124734398D01*
X160780000Y-123190000D01*
X160757219Y-123075474D01*
X160722148Y-122899160D01*
X160557401Y-122652599D01*
X160315885Y-122411083D01*
X160384206Y-122246547D01*
X160384774Y-121596306D01*
X160136462Y-120995345D01*
X159677073Y-120535154D01*
X159076547Y-120285794D01*
X158426306Y-120285226D01*
X157825345Y-120533538D01*
X157365154Y-120992927D01*
X157115794Y-121593453D01*
X157115226Y-122243694D01*
X154093115Y-122243694D01*
X154594655Y-122036462D01*
X155054846Y-121577073D01*
X155304206Y-120976547D01*
X155304774Y-120326306D01*
X155235691Y-120159111D01*
X155477401Y-119917401D01*
X155642148Y-119670840D01*
X155700000Y-119380000D01*
X155700000Y-117217440D01*
X155940000Y-117217440D01*
X156187765Y-117168157D01*
X156397809Y-117027809D01*
X156538157Y-116817765D01*
X156587440Y-116570000D01*
X156587440Y-114623694D01*
X157115226Y-114623694D01*
X157363538Y-115224655D01*
X157822927Y-115684846D01*
X158423453Y-115934206D01*
X159073694Y-115934774D01*
X159674655Y-115686462D01*
X160134846Y-115227073D01*
X160384206Y-114626547D01*
X160384774Y-113976306D01*
X160136462Y-113375345D01*
X159677073Y-112915154D01*
X159076547Y-112665794D01*
X158426306Y-112665226D01*
X157825345Y-112913538D01*
X157365154Y-113372927D01*
X157115794Y-113973453D01*
X157115226Y-114623694D01*
X156587440Y-114623694D01*
X156587440Y-114570000D01*
X156538157Y-114322235D01*
X156397809Y-114112191D01*
X156187765Y-113971843D01*
X155940000Y-113922560D01*
X153940000Y-113922560D01*
X153692235Y-113971843D01*
X153482191Y-114112191D01*
X153391079Y-114248549D01*
X153327363Y-114184722D01*
X152726648Y-113935284D01*
X152076205Y-113934716D01*
X151475057Y-114183106D01*
X151014722Y-114642637D01*
X150765284Y-115243352D01*
X150764716Y-115893795D01*
X144523230Y-115893795D01*
X144295887Y-115666056D01*
X143786816Y-115454671D01*
X143235602Y-115454190D01*
X142726163Y-115664686D01*
X142336056Y-116054113D01*
X142124671Y-116563184D01*
X142124190Y-117114398D01*
X137920000Y-117114398D01*
X137920000Y-115570000D01*
X137897219Y-115455474D01*
X137862148Y-115279160D01*
X137697401Y-115032599D01*
X132159200Y-109494398D01*
X134504190Y-109494398D01*
X134714686Y-110003837D01*
X135104113Y-110393944D01*
X135613184Y-110605329D01*
X136164398Y-110605810D01*
X136673837Y-110395314D01*
X137063944Y-110005887D01*
X137275329Y-109496816D01*
X137275331Y-109494398D01*
X142124190Y-109494398D01*
X142334686Y-110003837D01*
X142724113Y-110393944D01*
X143233184Y-110605329D01*
X143784398Y-110605810D01*
X144293837Y-110395314D01*
X144683944Y-110005887D01*
X144887971Y-109514536D01*
X147107652Y-109514536D01*
X147333198Y-110060397D01*
X147750466Y-110478394D01*
X148295933Y-110704892D01*
X148886556Y-110705408D01*
X149432417Y-110479862D01*
X149850414Y-110062594D01*
X150076912Y-109517127D01*
X150077428Y-108926504D01*
X149851882Y-108380643D01*
X149745120Y-108273694D01*
X150765226Y-108273694D01*
X151013538Y-108874655D01*
X151472927Y-109334846D01*
X152073453Y-109584206D01*
X152723694Y-109584774D01*
X152890889Y-109515691D01*
X155672599Y-112297401D01*
X155919161Y-112462148D01*
X156210000Y-112520000D01*
X159705198Y-112520000D01*
X175339697Y-128154499D01*
X174985602Y-128154190D01*
X174476163Y-128364686D01*
X174086056Y-128754113D01*
X173874671Y-129263184D01*
X173874190Y-129814398D01*
X174084686Y-130323837D01*
X174474113Y-130713944D01*
X174983184Y-130925329D01*
X175534398Y-130925810D01*
X176043837Y-130715314D01*
X176433944Y-130325887D01*
X176645329Y-129816816D01*
X176645640Y-129460442D01*
X179304965Y-132119767D01*
X179304821Y-132284971D01*
X179462058Y-132665515D01*
X179752954Y-132956919D01*
X180133223Y-133114820D01*
X180544971Y-133115179D01*
X180925515Y-132957942D01*
X181216919Y-132667046D01*
X181374820Y-132286777D01*
X181375179Y-131875029D01*
X181217942Y-131494485D01*
X180927046Y-131203081D01*
X180546777Y-131045180D01*
X180379836Y-131045034D01*
X177899338Y-128564536D01*
X178857652Y-128564536D01*
X179083198Y-129110397D01*
X179500466Y-129528394D01*
X180045933Y-129754892D01*
X180636556Y-129755408D01*
X181182417Y-129529862D01*
X181600414Y-129112594D01*
X181815880Y-128593694D01*
X182515226Y-128593694D01*
X182763538Y-129194655D01*
X183222927Y-129654846D01*
X183823453Y-129904206D01*
X184473694Y-129904774D01*
X185074655Y-129656462D01*
X185534846Y-129197073D01*
X185784206Y-128596547D01*
X185784208Y-128593694D01*
X187595226Y-128593694D01*
X187843538Y-129194655D01*
X188302927Y-129654846D01*
X188903453Y-129904206D01*
X189553694Y-129904774D01*
X190154655Y-129656462D01*
X190614846Y-129197073D01*
X190864206Y-128596547D01*
X190864774Y-127946306D01*
X190616462Y-127345345D01*
X190157073Y-126885154D01*
X189556547Y-126635794D01*
X188906306Y-126635226D01*
X188305345Y-126883538D01*
X187845154Y-127342927D01*
X187595794Y-127943453D01*
X187595226Y-128593694D01*
X185784208Y-128593694D01*
X185784774Y-127946306D01*
X185536462Y-127345345D01*
X185077073Y-126885154D01*
X184476547Y-126635794D01*
X183826306Y-126635226D01*
X183225345Y-126883538D01*
X182765154Y-127342927D01*
X182515794Y-127943453D01*
X182515226Y-128593694D01*
X181815880Y-128593694D01*
X181826912Y-128567127D01*
X181827428Y-127976504D01*
X181601882Y-127430643D01*
X181184614Y-127012646D01*
X180639147Y-126786148D01*
X180048524Y-126785632D01*
X179502663Y-127011178D01*
X179084666Y-127428446D01*
X178858168Y-127973913D01*
X178857652Y-128564536D01*
X177899338Y-128564536D01*
X175064802Y-125730000D01*
X194167285Y-125730000D01*
X194249844Y-126145051D01*
X194396809Y-126365000D01*
X194249844Y-126584949D01*
X194167285Y-127000000D01*
X194249844Y-127415051D01*
X194396809Y-127635000D01*
X194249844Y-127854949D01*
X194167285Y-128270000D01*
X194249844Y-128685051D01*
X194484951Y-129036914D01*
X194836814Y-129272021D01*
X195251865Y-129354580D01*
X195908135Y-129354580D01*
X196323186Y-129272021D01*
X196675049Y-129036914D01*
X196910156Y-128685051D01*
X196992715Y-128270000D01*
X196910156Y-127854949D01*
X196763191Y-127635000D01*
X196910156Y-127415051D01*
X196992715Y-127000000D01*
X196910156Y-126584949D01*
X196763191Y-126365000D01*
X196910156Y-126145051D01*
X196992715Y-125730000D01*
X196910156Y-125314949D01*
X196675049Y-124963086D01*
X196323186Y-124727979D01*
X195908135Y-124645420D01*
X195251865Y-124645420D01*
X194836814Y-124727979D01*
X194484951Y-124963086D01*
X194249844Y-125314949D01*
X194167285Y-125730000D01*
X175064802Y-125730000D01*
X167560303Y-118225501D01*
X167914398Y-118225810D01*
X168423837Y-118015314D01*
X168813944Y-117625887D01*
X169025329Y-117116816D01*
X169025331Y-117114398D01*
X173874190Y-117114398D01*
X174084686Y-117623837D01*
X174474113Y-118013944D01*
X174983184Y-118225329D01*
X175534398Y-118225810D01*
X176043837Y-118015314D01*
X176433944Y-117625887D01*
X176585504Y-117260890D01*
X178845470Y-117260890D01*
X178845470Y-118960150D01*
X178894753Y-119207915D01*
X179035101Y-119417959D01*
X179245145Y-119558307D01*
X179492910Y-119607590D01*
X181192170Y-119607590D01*
X181439935Y-119558307D01*
X181649979Y-119417959D01*
X181790327Y-119207915D01*
X181839610Y-118960150D01*
X181839610Y-117260890D01*
X181790327Y-117013125D01*
X181649979Y-116803081D01*
X181439935Y-116662733D01*
X181192170Y-116613450D01*
X179492910Y-116613450D01*
X179245145Y-116662733D01*
X179035101Y-116803081D01*
X178894753Y-117013125D01*
X178845470Y-117260890D01*
X176585504Y-117260890D01*
X176645329Y-117116816D01*
X176645810Y-116565602D01*
X176435314Y-116056163D01*
X176273230Y-115893795D01*
X182514716Y-115893795D01*
X182763106Y-116494943D01*
X183222637Y-116955278D01*
X183823352Y-117204716D01*
X184473795Y-117205284D01*
X185074943Y-116956894D01*
X185140847Y-116891105D01*
X185232191Y-117027809D01*
X185442235Y-117168157D01*
X185690000Y-117217440D01*
X185930000Y-117217440D01*
X185930000Y-117795198D01*
X184641083Y-119084115D01*
X184476547Y-119015794D01*
X183826306Y-119015226D01*
X183225345Y-119263538D01*
X182765154Y-119722927D01*
X182515794Y-120323453D01*
X182515226Y-120973694D01*
X182763538Y-121574655D01*
X183222927Y-122034846D01*
X183823453Y-122284206D01*
X184473694Y-122284774D01*
X185074655Y-122036462D01*
X185534846Y-121577073D01*
X185784206Y-120976547D01*
X185784208Y-120973694D01*
X187595226Y-120973694D01*
X187843538Y-121574655D01*
X188302927Y-122034846D01*
X188903453Y-122284206D01*
X189553694Y-122284774D01*
X190154655Y-122036462D01*
X190614846Y-121577073D01*
X190864206Y-120976547D01*
X190864774Y-120326306D01*
X190616462Y-119725345D01*
X190157073Y-119265154D01*
X189556547Y-119015794D01*
X188906306Y-119015226D01*
X188305345Y-119263538D01*
X187845154Y-119722927D01*
X187595794Y-120323453D01*
X187595226Y-120973694D01*
X185784208Y-120973694D01*
X185784774Y-120326306D01*
X185715691Y-120159111D01*
X187227401Y-118647401D01*
X187392148Y-118400840D01*
X187408162Y-118320330D01*
X187450000Y-118110000D01*
X187450000Y-117217440D01*
X187690000Y-117217440D01*
X187937765Y-117168157D01*
X188147809Y-117027809D01*
X188288157Y-116817765D01*
X188337440Y-116570000D01*
X188337440Y-114570000D01*
X188288157Y-114322235D01*
X188147809Y-114112191D01*
X187937765Y-113971843D01*
X187690000Y-113922560D01*
X185690000Y-113922560D01*
X185442235Y-113971843D01*
X185232191Y-114112191D01*
X185141079Y-114248549D01*
X185077363Y-114184722D01*
X184476648Y-113935284D01*
X183826205Y-113934716D01*
X183225057Y-114183106D01*
X182764722Y-114642637D01*
X182515284Y-115243352D01*
X182514716Y-115893795D01*
X176273230Y-115893795D01*
X176045887Y-115666056D01*
X175536816Y-115454671D01*
X174985602Y-115454190D01*
X174476163Y-115664686D01*
X174086056Y-116054113D01*
X173874671Y-116563184D01*
X173874190Y-117114398D01*
X169025331Y-117114398D01*
X169025810Y-116565602D01*
X168815314Y-116056163D01*
X168425887Y-115666056D01*
X167916816Y-115454671D01*
X167365602Y-115454190D01*
X166856163Y-115664686D01*
X166466056Y-116054113D01*
X166254671Y-116563184D01*
X166254360Y-116919558D01*
X160557401Y-111222599D01*
X160310839Y-111057852D01*
X160020000Y-111000000D01*
X156524802Y-111000000D01*
X156309338Y-110784536D01*
X178857652Y-110784536D01*
X179083198Y-111330397D01*
X179500466Y-111748394D01*
X180045933Y-111974892D01*
X180636556Y-111975408D01*
X181182417Y-111749862D01*
X181600414Y-111332594D01*
X181815880Y-110813694D01*
X182515226Y-110813694D01*
X182763538Y-111414655D01*
X183222927Y-111874846D01*
X183823453Y-112124206D01*
X184473694Y-112124774D01*
X185074655Y-111876462D01*
X185534846Y-111417073D01*
X185784206Y-110816547D01*
X185784208Y-110813694D01*
X187595226Y-110813694D01*
X187843538Y-111414655D01*
X188302927Y-111874846D01*
X188903453Y-112124206D01*
X189553694Y-112124774D01*
X190154655Y-111876462D01*
X190614846Y-111417073D01*
X190864206Y-110816547D01*
X190864774Y-110166306D01*
X190616462Y-109565345D01*
X190157073Y-109105154D01*
X189556547Y-108855794D01*
X188906306Y-108855226D01*
X188305345Y-109103538D01*
X187845154Y-109562927D01*
X187595794Y-110163453D01*
X187595226Y-110813694D01*
X185784208Y-110813694D01*
X185784774Y-110166306D01*
X185536462Y-109565345D01*
X185077073Y-109105154D01*
X184476547Y-108855794D01*
X183826306Y-108855226D01*
X183225345Y-109103538D01*
X182765154Y-109562927D01*
X182515794Y-110163453D01*
X182515226Y-110813694D01*
X181815880Y-110813694D01*
X181826912Y-110787127D01*
X181827428Y-110196504D01*
X181601882Y-109650643D01*
X181184614Y-109232646D01*
X180639147Y-109006148D01*
X180048524Y-109005632D01*
X179502663Y-109231178D01*
X179084666Y-109648446D01*
X178858168Y-110193913D01*
X178857652Y-110784536D01*
X156309338Y-110784536D01*
X153965885Y-108441083D01*
X154034206Y-108276547D01*
X154034774Y-107626306D01*
X153786462Y-107025345D01*
X153327073Y-106565154D01*
X152726547Y-106315794D01*
X152076306Y-106315226D01*
X151475345Y-106563538D01*
X151015154Y-107022927D01*
X150765794Y-107623453D01*
X150765226Y-108273694D01*
X149745120Y-108273694D01*
X149434614Y-107962646D01*
X148889147Y-107736148D01*
X148298524Y-107735632D01*
X147752663Y-107961178D01*
X147334666Y-108378446D01*
X147108168Y-108923913D01*
X147107652Y-109514536D01*
X144887971Y-109514536D01*
X144895329Y-109496816D01*
X144895810Y-108945602D01*
X144685314Y-108436163D01*
X144295887Y-108046056D01*
X143786816Y-107834671D01*
X143235602Y-107834190D01*
X142726163Y-108044686D01*
X142336056Y-108434113D01*
X142124671Y-108943184D01*
X142124190Y-109494398D01*
X137275331Y-109494398D01*
X137275810Y-108945602D01*
X137065314Y-108436163D01*
X136675887Y-108046056D01*
X136166816Y-107834671D01*
X135615602Y-107834190D01*
X135106163Y-108044686D01*
X134716056Y-108434113D01*
X134504671Y-108943184D01*
X134504190Y-109494398D01*
X132159200Y-109494398D01*
X130300000Y-107635198D01*
X130300000Y-104414398D01*
X134504190Y-104414398D01*
X134714686Y-104923837D01*
X135104113Y-105313944D01*
X135613184Y-105525329D01*
X136164398Y-105525810D01*
X136673837Y-105315314D01*
X137063944Y-104925887D01*
X137275329Y-104416816D01*
X137275810Y-103865602D01*
X137065314Y-103356163D01*
X136675887Y-102966056D01*
X136166816Y-102754671D01*
X135615602Y-102754190D01*
X135106163Y-102964686D01*
X134716056Y-103354113D01*
X134504671Y-103863184D01*
X134504190Y-104414398D01*
X130300000Y-104414398D01*
X130300000Y-103573761D01*
X130416919Y-103457046D01*
X130574820Y-103076777D01*
X130575179Y-102665029D01*
X130417942Y-102284485D01*
X130127046Y-101993081D01*
X129746777Y-101835180D01*
X129335029Y-101834821D01*
X128954485Y-101992058D01*
X128663081Y-102282954D01*
X128505180Y-102663223D01*
X128504821Y-103074971D01*
X128662058Y-103455515D01*
X128780000Y-103573663D01*
X128780000Y-107950000D01*
X128837852Y-108240839D01*
X129002599Y-108487401D01*
X135969697Y-115454499D01*
X135615602Y-115454190D01*
X135589696Y-115464894D01*
X127760000Y-107635198D01*
X127760000Y-106113761D01*
X127876919Y-105997046D01*
X128034820Y-105616777D01*
X128035179Y-105205029D01*
X127877942Y-104824485D01*
X127587046Y-104533081D01*
X127206777Y-104375180D01*
X126795029Y-104374821D01*
X126414485Y-104532058D01*
X126123081Y-104822954D01*
X125965180Y-105203223D01*
X125964821Y-105614971D01*
X124059831Y-105614971D01*
X129021108Y-100653694D01*
X150765226Y-100653694D01*
X151013538Y-101254655D01*
X151472927Y-101714846D01*
X152073453Y-101964206D01*
X152723694Y-101964774D01*
X152890889Y-101895691D01*
X156720000Y-105724802D01*
X156720000Y-107950000D01*
X156777852Y-108240839D01*
X156942599Y-108487401D01*
X157189161Y-108652148D01*
X157480000Y-108710000D01*
X157483287Y-108710000D01*
X157419844Y-108804949D01*
X157337285Y-109220000D01*
X157419844Y-109635051D01*
X157654951Y-109986914D01*
X158006814Y-110222021D01*
X158421865Y-110304580D01*
X159078135Y-110304580D01*
X159493186Y-110222021D01*
X159845049Y-109986914D01*
X160080156Y-109635051D01*
X160108133Y-109494398D01*
X166254190Y-109494398D01*
X166464686Y-110003837D01*
X166854113Y-110393944D01*
X167363184Y-110605329D01*
X167914398Y-110605810D01*
X168423837Y-110395314D01*
X168813944Y-110005887D01*
X169025329Y-109496816D01*
X169025331Y-109494398D01*
X173874190Y-109494398D01*
X174084686Y-110003837D01*
X174474113Y-110393944D01*
X174983184Y-110605329D01*
X175534398Y-110605810D01*
X176043837Y-110395314D01*
X176433944Y-110005887D01*
X176645329Y-109496816D01*
X176645810Y-108945602D01*
X176435314Y-108436163D01*
X176045887Y-108046056D01*
X175536816Y-107834671D01*
X174985602Y-107834190D01*
X174476163Y-108044686D01*
X174086056Y-108434113D01*
X173874671Y-108943184D01*
X173874190Y-109494398D01*
X169025331Y-109494398D01*
X169025810Y-108945602D01*
X168815314Y-108436163D01*
X168425887Y-108046056D01*
X167916816Y-107834671D01*
X167365602Y-107834190D01*
X166856163Y-108044686D01*
X166466056Y-108434113D01*
X166254671Y-108943184D01*
X166254190Y-109494398D01*
X160108133Y-109494398D01*
X160162715Y-109220000D01*
X160080156Y-108804949D01*
X159933191Y-108585000D01*
X160080156Y-108365051D01*
X160162715Y-107950000D01*
X160080156Y-107534949D01*
X159933191Y-107315000D01*
X160080156Y-107095051D01*
X160162715Y-106680000D01*
X160080156Y-106264949D01*
X159845049Y-105913086D01*
X159510000Y-105689214D01*
X159510000Y-104414398D01*
X166254190Y-104414398D01*
X166464686Y-104923837D01*
X166854113Y-105313944D01*
X167363184Y-105525329D01*
X167914398Y-105525810D01*
X168423837Y-105315314D01*
X168813944Y-104925887D01*
X169025329Y-104416816D01*
X169025810Y-103865602D01*
X168815314Y-103356163D01*
X168425887Y-102966056D01*
X167916816Y-102754671D01*
X167365602Y-102754190D01*
X166856163Y-102964686D01*
X166466056Y-103354113D01*
X166254671Y-103863184D01*
X166254190Y-104414398D01*
X159510000Y-104414398D01*
X159510000Y-104324496D01*
X159674655Y-104256462D01*
X160134846Y-103797073D01*
X160384206Y-103196547D01*
X160384774Y-102546306D01*
X160136462Y-101945345D01*
X159677073Y-101485154D01*
X159076547Y-101235794D01*
X158426306Y-101235226D01*
X157825345Y-101483538D01*
X157365154Y-101942927D01*
X157115794Y-102543453D01*
X157115226Y-103193694D01*
X157363538Y-103794655D01*
X157822927Y-104254846D01*
X157990000Y-104324221D01*
X157990000Y-104845198D01*
X153965885Y-100821083D01*
X154034206Y-100656547D01*
X154034774Y-100006306D01*
X153817677Y-99480890D01*
X178845470Y-99480890D01*
X178845470Y-101180150D01*
X178894753Y-101427915D01*
X179035101Y-101637959D01*
X179245145Y-101778307D01*
X179492910Y-101827590D01*
X181192170Y-101827590D01*
X181439935Y-101778307D01*
X181649979Y-101637959D01*
X181790327Y-101427915D01*
X181839610Y-101180150D01*
X181839610Y-99480890D01*
X181790327Y-99233125D01*
X181649979Y-99023081D01*
X181439935Y-98882733D01*
X181192170Y-98833450D01*
X179492910Y-98833450D01*
X179245145Y-98882733D01*
X179035101Y-99023081D01*
X178894753Y-99233125D01*
X178845470Y-99480890D01*
X153817677Y-99480890D01*
X153786462Y-99405345D01*
X153327073Y-98945154D01*
X152726547Y-98695794D01*
X152076306Y-98695226D01*
X151475345Y-98943538D01*
X151015154Y-99402927D01*
X150765794Y-100003453D01*
X150765226Y-100653694D01*
X129021108Y-100653694D01*
X131463912Y-98210890D01*
X147095470Y-98210890D01*
X147095470Y-99910150D01*
X147144753Y-100157915D01*
X147285101Y-100367959D01*
X147495145Y-100508307D01*
X147742910Y-100557590D01*
X149442170Y-100557590D01*
X149689935Y-100508307D01*
X149899979Y-100367959D01*
X150040327Y-100157915D01*
X150089610Y-99910150D01*
X150089610Y-98635192D01*
X150611007Y-98113795D01*
X182514716Y-98113795D01*
X182763106Y-98714943D01*
X183222637Y-99175278D01*
X183823352Y-99424716D01*
X184473795Y-99425284D01*
X185074943Y-99176894D01*
X185140847Y-99111105D01*
X185232191Y-99247809D01*
X185442235Y-99388157D01*
X185690000Y-99437440D01*
X185930000Y-99437440D01*
X185930000Y-100015198D01*
X184641083Y-101304115D01*
X184476547Y-101235794D01*
X183826306Y-101235226D01*
X183225345Y-101483538D01*
X182765154Y-101942927D01*
X182515794Y-102543453D01*
X182515226Y-103193694D01*
X182763538Y-103794655D01*
X183222927Y-104254846D01*
X183823453Y-104504206D01*
X184473694Y-104504774D01*
X185074655Y-104256462D01*
X185534846Y-103797073D01*
X185784206Y-103196547D01*
X185784774Y-102546306D01*
X185715691Y-102379111D01*
X187227401Y-100867401D01*
X187392148Y-100620840D01*
X187442449Y-100367959D01*
X187450000Y-100330000D01*
X187450000Y-99437440D01*
X187690000Y-99437440D01*
X187937765Y-99388157D01*
X188147809Y-99247809D01*
X188288157Y-99037765D01*
X188337440Y-98790000D01*
X188337440Y-96790000D01*
X188288157Y-96542235D01*
X188147809Y-96332191D01*
X187937765Y-96191843D01*
X187690000Y-96142560D01*
X185690000Y-96142560D01*
X185442235Y-96191843D01*
X185232191Y-96332191D01*
X185141079Y-96468549D01*
X185077363Y-96404722D01*
X184476648Y-96155284D01*
X183826205Y-96154716D01*
X183225057Y-96403106D01*
X182764722Y-96862637D01*
X182515284Y-97463352D01*
X182514716Y-98113795D01*
X150611007Y-98113795D01*
X151667401Y-97057401D01*
X151832148Y-96810840D01*
X151849895Y-96721618D01*
X152054943Y-96636894D01*
X152120847Y-96571105D01*
X152212191Y-96707809D01*
X152422235Y-96848157D01*
X152670000Y-96897440D01*
X154670000Y-96897440D01*
X154917765Y-96848157D01*
X155127809Y-96707809D01*
X155268157Y-96497765D01*
X155317440Y-96250000D01*
X155317440Y-95573694D01*
X157115226Y-95573694D01*
X157363538Y-96174655D01*
X157822927Y-96634846D01*
X158423453Y-96884206D01*
X159073694Y-96884774D01*
X159292420Y-96794398D01*
X166254190Y-96794398D01*
X166464686Y-97303837D01*
X166854113Y-97693944D01*
X167363184Y-97905329D01*
X167914398Y-97905810D01*
X168423837Y-97695314D01*
X168813944Y-97305887D01*
X169025329Y-96796816D01*
X169025331Y-96794398D01*
X173874190Y-96794398D01*
X174084686Y-97303837D01*
X174474113Y-97693944D01*
X174983184Y-97905329D01*
X175534398Y-97905810D01*
X176043837Y-97695314D01*
X176433944Y-97305887D01*
X176645329Y-96796816D01*
X176645810Y-96245602D01*
X176435314Y-95736163D01*
X176045887Y-95346056D01*
X175536816Y-95134671D01*
X174985602Y-95134190D01*
X174476163Y-95344686D01*
X174086056Y-95734113D01*
X173874671Y-96243184D01*
X173874190Y-96794398D01*
X169025331Y-96794398D01*
X169025810Y-96245602D01*
X168815314Y-95736163D01*
X168425887Y-95346056D01*
X167916816Y-95134671D01*
X167365602Y-95134190D01*
X166856163Y-95344686D01*
X166466056Y-95734113D01*
X166254671Y-96243184D01*
X166254190Y-96794398D01*
X159292420Y-96794398D01*
X159674655Y-96636462D01*
X160134846Y-96177073D01*
X160384206Y-95576547D01*
X160384774Y-94926306D01*
X160136462Y-94325345D01*
X159677073Y-93865154D01*
X159076547Y-93615794D01*
X158426306Y-93615226D01*
X157825345Y-93863538D01*
X157365154Y-94322927D01*
X157115794Y-94923453D01*
X157115226Y-95573694D01*
X155317440Y-95573694D01*
X155317440Y-94250000D01*
X155268157Y-94002235D01*
X155127809Y-93792191D01*
X154917765Y-93651843D01*
X154670000Y-93602560D01*
X152670000Y-93602560D01*
X152422235Y-93651843D01*
X152212191Y-93792191D01*
X152121079Y-93928549D01*
X152057363Y-93864722D01*
X151456648Y-93615284D01*
X150806205Y-93614716D01*
X150205057Y-93863106D01*
X149744722Y-94322637D01*
X149495284Y-94923352D01*
X149494716Y-95573795D01*
X149743106Y-96174943D01*
X150071393Y-96503805D01*
X149011748Y-97563450D01*
X147742910Y-97563450D01*
X147495145Y-97612733D01*
X147285101Y-97753081D01*
X147144753Y-97963125D01*
X147095470Y-98210890D01*
X131463912Y-98210890D01*
X132394802Y-97280000D01*
X134704837Y-97280000D01*
X134714686Y-97303837D01*
X135104113Y-97693944D01*
X135613184Y-97905329D01*
X136164398Y-97905810D01*
X136673837Y-97695314D01*
X137063944Y-97305887D01*
X137275329Y-96796816D01*
X137275331Y-96794398D01*
X142124190Y-96794398D01*
X142334686Y-97303837D01*
X142724113Y-97693944D01*
X143233184Y-97905329D01*
X143784398Y-97905810D01*
X144293837Y-97695314D01*
X144683944Y-97305887D01*
X144895329Y-96796816D01*
X144895810Y-96245602D01*
X144685314Y-95736163D01*
X144295887Y-95346056D01*
X143786816Y-95134671D01*
X143235602Y-95134190D01*
X142726163Y-95344686D01*
X142336056Y-95734113D01*
X142124671Y-96243184D01*
X142124190Y-96794398D01*
X137275331Y-96794398D01*
X137275810Y-96245602D01*
X137065314Y-95736163D01*
X136675887Y-95346056D01*
X136166816Y-95134671D01*
X135615602Y-95134190D01*
X135106163Y-95344686D01*
X134716056Y-95734113D01*
X134705307Y-95760000D01*
X132080000Y-95760000D01*
X131789160Y-95817852D01*
X131542599Y-95982599D01*
X120119273Y-107405925D01*
X119756595Y-107255328D01*
X119006695Y-107254674D01*
X118313628Y-107541043D01*
X117782907Y-108070839D01*
X117495328Y-108763405D01*
X117494674Y-109513305D01*
X115697000Y-109513305D01*
X115697000Y-102890000D01*
X117482560Y-102890000D01*
X117482560Y-105390000D01*
X117531843Y-105637765D01*
X117672191Y-105847809D01*
X117882235Y-105988157D01*
X118130000Y-106037440D01*
X120630000Y-106037440D01*
X120877765Y-105988157D01*
X121087809Y-105847809D01*
X121228157Y-105637765D01*
X121277440Y-105390000D01*
X121277440Y-102890000D01*
X121228157Y-102642235D01*
X121087809Y-102432191D01*
X120877765Y-102291843D01*
X120630000Y-102242560D01*
X118130000Y-102242560D01*
X117882235Y-102291843D01*
X117672191Y-102432191D01*
X117531843Y-102642235D01*
X117482560Y-102890000D01*
X115697000Y-102890000D01*
X115697000Y-98083305D01*
X117494674Y-98083305D01*
X117781043Y-98776372D01*
X118310839Y-99307093D01*
X119003405Y-99594672D01*
X119753305Y-99595326D01*
X120446372Y-99308957D01*
X120977093Y-98779161D01*
X121264672Y-98086595D01*
X121265326Y-97336695D01*
X120978957Y-96643628D01*
X120449161Y-96112907D01*
X119756595Y-95825328D01*
X119006695Y-95824674D01*
X118313628Y-96111043D01*
X117782907Y-96640839D01*
X117495328Y-97333405D01*
X117494674Y-98083305D01*
X115697000Y-98083305D01*
X115697000Y-91460000D01*
X117482560Y-91460000D01*
X117482560Y-93960000D01*
X117531843Y-94207765D01*
X117672191Y-94417809D01*
X117882235Y-94558157D01*
X118130000Y-94607440D01*
X120630000Y-94607440D01*
X120877765Y-94558157D01*
X121087809Y-94417809D01*
X121228157Y-94207765D01*
X121277440Y-93960000D01*
X121277440Y-91460000D01*
X121228157Y-91212235D01*
X121087809Y-91002191D01*
X120877765Y-90861843D01*
X120630000Y-90812560D01*
X118130000Y-90812560D01*
X117882235Y-90861843D01*
X117672191Y-91002191D01*
X117531843Y-91212235D01*
X117482560Y-91460000D01*
X115697000Y-91460000D01*
X115697000Y-87757000D01*
X127195587Y-87757000D01*
X126936953Y-88379860D01*
X126936953Y-88379860D01*
G37*
X126936953Y-88379860D02*
X126936049Y-89415596D01*
X127331573Y-90372838D01*
X128063310Y-91105853D01*
X129019860Y-91503047D01*
X130055596Y-91503951D01*
X131012838Y-91108427D01*
X131745853Y-90376690D01*
X132143047Y-89420140D01*
X132143951Y-88384404D01*
X131884713Y-87757000D01*
X136944222Y-87757000D01*
X136918960Y-87884000D01*
X136918960Y-89916000D01*
X136968243Y-90163765D01*
X137108591Y-90373809D01*
X137318635Y-90514157D01*
X137566400Y-90563440D01*
X139293600Y-90563440D01*
X139541365Y-90514157D01*
X139751409Y-90373809D01*
X139891757Y-90163765D01*
X139898984Y-90127434D01*
X139910330Y-90144415D01*
X140396511Y-90469271D01*
X140970000Y-90583345D01*
X141543489Y-90469271D01*
X142029670Y-90144415D01*
X142240000Y-89829634D01*
X142450330Y-90144415D01*
X142936511Y-90469271D01*
X143510000Y-90583345D01*
X144083489Y-90469271D01*
X144569670Y-90144415D01*
X144780000Y-89829634D01*
X144990330Y-90144415D01*
X145476511Y-90469271D01*
X146050000Y-90583345D01*
X146623489Y-90469271D01*
X147109670Y-90144415D01*
X147320000Y-89829634D01*
X147530330Y-90144415D01*
X148016511Y-90469271D01*
X148590000Y-90583345D01*
X149163489Y-90469271D01*
X149649670Y-90144415D01*
X149860000Y-89829634D01*
X150070330Y-90144415D01*
X150556511Y-90469271D01*
X151130000Y-90583345D01*
X151703489Y-90469271D01*
X152189670Y-90144415D01*
X152400000Y-89829634D01*
X152610330Y-90144415D01*
X153096511Y-90469271D01*
X153670000Y-90583345D01*
X154243489Y-90469271D01*
X154729670Y-90144415D01*
X154940000Y-89829634D01*
X155150330Y-90144415D01*
X155636511Y-90469271D01*
X156210000Y-90583345D01*
X156783489Y-90469271D01*
X157269670Y-90144415D01*
X157594526Y-89658234D01*
X157708600Y-89084745D01*
X157708600Y-88715255D01*
X157594526Y-88141766D01*
X157337433Y-87757000D01*
X158534222Y-87757000D01*
X158508960Y-87884000D01*
X158508960Y-89916000D01*
X158558243Y-90163765D01*
X158698591Y-90373809D01*
X158908635Y-90514157D01*
X159156400Y-90563440D01*
X160883600Y-90563440D01*
X161131365Y-90514157D01*
X161341409Y-90373809D01*
X161481757Y-90163765D01*
X161488984Y-90127434D01*
X161500330Y-90144415D01*
X161986511Y-90469271D01*
X162560000Y-90583345D01*
X163133489Y-90469271D01*
X163619670Y-90144415D01*
X163830000Y-89829634D01*
X164040330Y-90144415D01*
X164526511Y-90469271D01*
X165100000Y-90583345D01*
X165673489Y-90469271D01*
X166159670Y-90144415D01*
X166370000Y-89829634D01*
X166580330Y-90144415D01*
X167066511Y-90469271D01*
X167640000Y-90583345D01*
X168213489Y-90469271D01*
X168699670Y-90144415D01*
X168910000Y-89829634D01*
X169120330Y-90144415D01*
X169606511Y-90469271D01*
X170180000Y-90583345D01*
X170753489Y-90469271D01*
X171239670Y-90144415D01*
X171450000Y-89829634D01*
X171660330Y-90144415D01*
X172146511Y-90469271D01*
X172720000Y-90583345D01*
X173293489Y-90469271D01*
X173779670Y-90144415D01*
X173990000Y-89829634D01*
X174200330Y-90144415D01*
X174686511Y-90469271D01*
X175260000Y-90583345D01*
X175833489Y-90469271D01*
X176319670Y-90144415D01*
X176530000Y-89829634D01*
X176740330Y-90144415D01*
X177226511Y-90469271D01*
X177800000Y-90583345D01*
X178373489Y-90469271D01*
X178859670Y-90144415D01*
X179184526Y-89658234D01*
X179298600Y-89084745D01*
X179298600Y-88715255D01*
X179184526Y-88141766D01*
X178927433Y-87757000D01*
X181394222Y-87757000D01*
X181368960Y-87884000D01*
X181368960Y-89916000D01*
X181418243Y-90163765D01*
X181558591Y-90373809D01*
X181768635Y-90514157D01*
X182016400Y-90563440D01*
X183743600Y-90563440D01*
X183991365Y-90514157D01*
X184201409Y-90373809D01*
X184341757Y-90163765D01*
X184348984Y-90127434D01*
X184360330Y-90144415D01*
X184846511Y-90469271D01*
X185420000Y-90583345D01*
X185993489Y-90469271D01*
X186479670Y-90144415D01*
X186690000Y-89829634D01*
X186900330Y-90144415D01*
X187386511Y-90469271D01*
X187960000Y-90583345D01*
X188533489Y-90469271D01*
X189019670Y-90144415D01*
X189230000Y-89829634D01*
X189440330Y-90144415D01*
X189926511Y-90469271D01*
X190500000Y-90583345D01*
X191073489Y-90469271D01*
X191559670Y-90144415D01*
X191770000Y-89829634D01*
X191980330Y-90144415D01*
X192466511Y-90469271D01*
X193040000Y-90583345D01*
X193613489Y-90469271D01*
X194099670Y-90144415D01*
X194310000Y-89829634D01*
X194520330Y-90144415D01*
X195006511Y-90469271D01*
X195580000Y-90583345D01*
X196153489Y-90469271D01*
X196639670Y-90144415D01*
X196850000Y-89829634D01*
X197060330Y-90144415D01*
X197546511Y-90469271D01*
X198120000Y-90583345D01*
X198693489Y-90469271D01*
X199179670Y-90144415D01*
X199390000Y-89829634D01*
X199600330Y-90144415D01*
X200086511Y-90469271D01*
X200660000Y-90583345D01*
X201233489Y-90469271D01*
X201719670Y-90144415D01*
X201996193Y-89730569D01*
X202261573Y-90372838D01*
X202993310Y-91105853D01*
X203949860Y-91503047D01*
X204985596Y-91503951D01*
X205942838Y-91108427D01*
X206675853Y-90376690D01*
X206764816Y-90162442D01*
X206904302Y-90301927D01*
X207057780Y-90365500D01*
X207035585Y-90380330D01*
X206710729Y-90866511D01*
X206596655Y-91440000D01*
X206710729Y-92013489D01*
X207035585Y-92499670D01*
X207350366Y-92710000D01*
X207035585Y-92920330D01*
X206710729Y-93406511D01*
X206596655Y-93980000D01*
X206710729Y-94553489D01*
X207035585Y-95039670D01*
X207350366Y-95250000D01*
X207035585Y-95460330D01*
X206710729Y-95946511D01*
X206596655Y-96520000D01*
X206710729Y-97093489D01*
X207035585Y-97579670D01*
X207350366Y-97790000D01*
X207035585Y-98000330D01*
X206710729Y-98486511D01*
X206596655Y-99060000D01*
X206710729Y-99633489D01*
X207035585Y-100119670D01*
X207350366Y-100330000D01*
X207035585Y-100540330D01*
X206710729Y-101026511D01*
X206596655Y-101600000D01*
X206710729Y-102173489D01*
X207035585Y-102659670D01*
X207350366Y-102870000D01*
X207035585Y-103080330D01*
X206710729Y-103566511D01*
X206596655Y-104140000D01*
X206710729Y-104713489D01*
X207035585Y-105199670D01*
X207350366Y-105410000D01*
X207035585Y-105620330D01*
X206710729Y-106106511D01*
X206596655Y-106680000D01*
X206710729Y-107253489D01*
X207035585Y-107739670D01*
X207350366Y-107950000D01*
X207035585Y-108160330D01*
X206710729Y-108646511D01*
X206596655Y-109220000D01*
X206710729Y-109793489D01*
X207035585Y-110279670D01*
X207350366Y-110490000D01*
X207035585Y-110700330D01*
X206710729Y-111186511D01*
X206596655Y-111760000D01*
X206710729Y-112333489D01*
X207035585Y-112819670D01*
X207350366Y-113030000D01*
X207035585Y-113240330D01*
X206710729Y-113726511D01*
X206596655Y-114300000D01*
X206710729Y-114873489D01*
X207035585Y-115359670D01*
X207350366Y-115570000D01*
X207035585Y-115780330D01*
X206710729Y-116266511D01*
X206596655Y-116840000D01*
X206710729Y-117413489D01*
X207035585Y-117899670D01*
X207350366Y-118110000D01*
X207035585Y-118320330D01*
X206710729Y-118806511D01*
X206596655Y-119380000D01*
X206710729Y-119953489D01*
X207035585Y-120439670D01*
X207350366Y-120650000D01*
X207035585Y-120860330D01*
X206710729Y-121346511D01*
X206596655Y-121920000D01*
X206710729Y-122493489D01*
X207035585Y-122979670D01*
X207350366Y-123190000D01*
X207035585Y-123400330D01*
X206710729Y-123886511D01*
X206596655Y-124460000D01*
X206698100Y-124970000D01*
X206500000Y-124970000D01*
X206500000Y-123190000D01*
X206442148Y-122899161D01*
X206277401Y-122652599D01*
X195186350Y-111561548D01*
X195251865Y-111574580D01*
X195908135Y-111574580D01*
X196323186Y-111492021D01*
X196675049Y-111256914D01*
X196910156Y-110905051D01*
X196992715Y-110490000D01*
X196910156Y-110074949D01*
X196763191Y-109855000D01*
X196910156Y-109635051D01*
X196992715Y-109220000D01*
X196910156Y-108804949D01*
X196763191Y-108585000D01*
X196910156Y-108365051D01*
X196992715Y-107950000D01*
X196910156Y-107534949D01*
X196675049Y-107183086D01*
X196323186Y-106947979D01*
X195908135Y-106865420D01*
X195251865Y-106865420D01*
X194836814Y-106947979D01*
X194564641Y-107129839D01*
X190795885Y-103361083D01*
X190864206Y-103196547D01*
X190864774Y-102546306D01*
X190616462Y-101945345D01*
X190157073Y-101485154D01*
X189556547Y-101235794D01*
X188906306Y-101235226D01*
X188305345Y-101483538D01*
X187845154Y-101942927D01*
X187595794Y-102543453D01*
X187595226Y-103193694D01*
X187843538Y-103794655D01*
X188302927Y-104254846D01*
X188903453Y-104504206D01*
X189553694Y-104504774D01*
X189720889Y-104435691D01*
X193550000Y-108264802D01*
X193550000Y-111760000D01*
X193607852Y-112050839D01*
X193772599Y-112297401D01*
X204980000Y-123504802D01*
X204980000Y-125730000D01*
X205037852Y-126020839D01*
X205202599Y-126267401D01*
X205449161Y-126432148D01*
X205740000Y-126490000D01*
X206698100Y-126490000D01*
X206596655Y-127000000D01*
X206698100Y-127510000D01*
X206054802Y-127510000D01*
X202965035Y-124420233D01*
X202965179Y-124255029D01*
X202807942Y-123874485D01*
X202517046Y-123583081D01*
X202136777Y-123425180D01*
X201725029Y-123424821D01*
X201344485Y-123582058D01*
X201053081Y-123872954D01*
X200895180Y-124253223D01*
X200894821Y-124664971D01*
X201052058Y-125045515D01*
X201342954Y-125336919D01*
X201723223Y-125494820D01*
X201890164Y-125494966D01*
X205202599Y-128807401D01*
X205449161Y-128972148D01*
X205740000Y-129030000D01*
X206695198Y-129030000D01*
X206697619Y-129032421D01*
X206596655Y-129540000D01*
X206710729Y-130113489D01*
X207035585Y-130599670D01*
X207350366Y-130810000D01*
X207035585Y-131020330D01*
X206710729Y-131506511D01*
X206596655Y-132080000D01*
X206710729Y-132653489D01*
X207035585Y-133139670D01*
X207521766Y-133464526D01*
X208095255Y-133578600D01*
X208464745Y-133578600D01*
X209038234Y-133464526D01*
X209524415Y-133139670D01*
X209550000Y-133101379D01*
X209575585Y-133139670D01*
X210061766Y-133464526D01*
X210635255Y-133578600D01*
X211004745Y-133578600D01*
X211578234Y-133464526D01*
X212064415Y-133139670D01*
X212389271Y-132653489D01*
X212503345Y-132080000D01*
X212389271Y-131506511D01*
X212064415Y-131020330D01*
X211749634Y-130810000D01*
X212064415Y-130599670D01*
X212389271Y-130113489D01*
X212503345Y-129540000D01*
X212389271Y-128966511D01*
X212064415Y-128480330D01*
X211749634Y-128270000D01*
X212064415Y-128059670D01*
X212389271Y-127573489D01*
X212503345Y-127000000D01*
X212389271Y-126426511D01*
X212064415Y-125940330D01*
X211749634Y-125730000D01*
X212064415Y-125519670D01*
X212389271Y-125033489D01*
X212503345Y-124460000D01*
X212389271Y-123886511D01*
X212064415Y-123400330D01*
X211749634Y-123190000D01*
X212064415Y-122979670D01*
X212389271Y-122493489D01*
X212503345Y-121920000D01*
X212389271Y-121346511D01*
X212064415Y-120860330D01*
X211749634Y-120650000D01*
X212064415Y-120439670D01*
X212389271Y-119953489D01*
X212503345Y-119380000D01*
X212389271Y-118806511D01*
X212064415Y-118320330D01*
X211749634Y-118110000D01*
X212064415Y-117899670D01*
X212389271Y-117413489D01*
X212503345Y-116840000D01*
X212389271Y-116266511D01*
X212064415Y-115780330D01*
X211749634Y-115570000D01*
X212064415Y-115359670D01*
X212389271Y-114873489D01*
X212503345Y-114300000D01*
X212389271Y-113726511D01*
X212064415Y-113240330D01*
X211749634Y-113030000D01*
X212064415Y-112819670D01*
X212389271Y-112333489D01*
X212503345Y-111760000D01*
X212389271Y-111186511D01*
X212064415Y-110700330D01*
X211749634Y-110490000D01*
X212064415Y-110279670D01*
X212389271Y-109793489D01*
X212503345Y-109220000D01*
X212389271Y-108646511D01*
X212064415Y-108160330D01*
X211749634Y-107950000D01*
X212064415Y-107739670D01*
X212389271Y-107253489D01*
X212503345Y-106680000D01*
X212389271Y-106106511D01*
X212064415Y-105620330D01*
X211749634Y-105410000D01*
X212064415Y-105199670D01*
X212389271Y-104713489D01*
X212503345Y-104140000D01*
X212389271Y-103566511D01*
X212064415Y-103080330D01*
X211749634Y-102870000D01*
X212064415Y-102659670D01*
X212389271Y-102173489D01*
X212503345Y-101600000D01*
X212389271Y-101026511D01*
X212064415Y-100540330D01*
X211749634Y-100330000D01*
X211963000Y-100187433D01*
X211963000Y-100330000D01*
X211972667Y-100378601D01*
X212000197Y-100419803D01*
X212041399Y-100447333D01*
X212090000Y-100457000D01*
X213307394Y-100457000D01*
X214503000Y-101652606D01*
X214503000Y-134567394D01*
X213132166Y-135938228D01*
X213028427Y-135687162D01*
X212296690Y-134954147D01*
X211340140Y-134556953D01*
X210304404Y-134556049D01*
X209347162Y-134951573D01*
X208614147Y-135683310D01*
X208216953Y-136639860D01*
X208216049Y-137675596D01*
X208475287Y-138303000D01*
X206867433Y-138303000D01*
X207124526Y-137918234D01*
X207238600Y-137344745D01*
X207238600Y-136975255D01*
X207124526Y-136401766D01*
X206799670Y-135915585D01*
X206313489Y-135590729D01*
X205740000Y-135476655D01*
X205166511Y-135590729D01*
X204680330Y-135915585D01*
X204470000Y-136230366D01*
X204259670Y-135915585D01*
X203773489Y-135590729D01*
X203200000Y-135476655D01*
X202626511Y-135590729D01*
X202140330Y-135915585D01*
X201930000Y-136230366D01*
X201719670Y-135915585D01*
X201233489Y-135590729D01*
X200660000Y-135476655D01*
X200086511Y-135590729D01*
X199600330Y-135915585D01*
X199390000Y-136230366D01*
X199179670Y-135915585D01*
X198693489Y-135590729D01*
X198120000Y-135476655D01*
X197546511Y-135590729D01*
X197060330Y-135915585D01*
X196850000Y-136230366D01*
X196639670Y-135915585D01*
X196153489Y-135590729D01*
X195580000Y-135476655D01*
X195006511Y-135590729D01*
X194520330Y-135915585D01*
X194310000Y-136230366D01*
X194099670Y-135915585D01*
X193613489Y-135590729D01*
X193040000Y-135476655D01*
X192466511Y-135590729D01*
X191980330Y-135915585D01*
X191770000Y-136230366D01*
X191559670Y-135915585D01*
X191073489Y-135590729D01*
X190500000Y-135476655D01*
X189926511Y-135590729D01*
X189440330Y-135915585D01*
X189428984Y-135932566D01*
X189421757Y-135896235D01*
X189281409Y-135686191D01*
X189071365Y-135545843D01*
X188823600Y-135496560D01*
X187096400Y-135496560D01*
X186848635Y-135545843D01*
X186638591Y-135686191D01*
X186498243Y-135896235D01*
X186448960Y-136144000D01*
X186448960Y-138176000D01*
X186474222Y-138303000D01*
X184007433Y-138303000D01*
X184264526Y-137918234D01*
X184378600Y-137344745D01*
X184378600Y-136975255D01*
X184264526Y-136401766D01*
X183939670Y-135915585D01*
X183453489Y-135590729D01*
X182880000Y-135476655D01*
X182306511Y-135590729D01*
X181820330Y-135915585D01*
X181610000Y-136230366D01*
X181399670Y-135915585D01*
X180913489Y-135590729D01*
X180340000Y-135476655D01*
X179766511Y-135590729D01*
X179280330Y-135915585D01*
X179070000Y-136230366D01*
X178859670Y-135915585D01*
X178373489Y-135590729D01*
X177800000Y-135476655D01*
X177226511Y-135590729D01*
X176740330Y-135915585D01*
X176530000Y-136230366D01*
X176319670Y-135915585D01*
X175833489Y-135590729D01*
X175260000Y-135476655D01*
X174686511Y-135590729D01*
X174200330Y-135915585D01*
X173990000Y-136230366D01*
X173779670Y-135915585D01*
X173293489Y-135590729D01*
X172720000Y-135476655D01*
X172146511Y-135590729D01*
X171660330Y-135915585D01*
X171450000Y-136230366D01*
X171239670Y-135915585D01*
X170753489Y-135590729D01*
X170180000Y-135476655D01*
X169606511Y-135590729D01*
X169120330Y-135915585D01*
X168910000Y-136230366D01*
X168699670Y-135915585D01*
X168213489Y-135590729D01*
X167640000Y-135476655D01*
X167066511Y-135590729D01*
X166580330Y-135915585D01*
X166568984Y-135932566D01*
X166561757Y-135896235D01*
X166421409Y-135686191D01*
X166211365Y-135545843D01*
X165963600Y-135496560D01*
X164236400Y-135496560D01*
X163988635Y-135545843D01*
X163778591Y-135686191D01*
X163638243Y-135896235D01*
X163588960Y-136144000D01*
X163588960Y-138176000D01*
X163614222Y-138303000D01*
X161147433Y-138303000D01*
X161404526Y-137918234D01*
X161518600Y-137344745D01*
X161518600Y-136975255D01*
X161404526Y-136401766D01*
X161079670Y-135915585D01*
X160593489Y-135590729D01*
X160020000Y-135476655D01*
X159446511Y-135590729D01*
X158960330Y-135915585D01*
X158750000Y-136230366D01*
X158539670Y-135915585D01*
X158053489Y-135590729D01*
X157480000Y-135476655D01*
X156906511Y-135590729D01*
X156420330Y-135915585D01*
X156210000Y-136230366D01*
X155999670Y-135915585D01*
X155513489Y-135590729D01*
X154940000Y-135476655D01*
X154366511Y-135590729D01*
X153880330Y-135915585D01*
X153673539Y-136225069D01*
X153302036Y-135809268D01*
X152774791Y-135555291D01*
X152759026Y-135552642D01*
X152527000Y-135673783D01*
X152527000Y-137033000D01*
X152547000Y-137033000D01*
X152547000Y-137287000D01*
X152527000Y-137287000D01*
X152527000Y-137307000D01*
X152273000Y-137307000D01*
X152273000Y-137287000D01*
X152253000Y-137287000D01*
X152253000Y-137033000D01*
X152273000Y-137033000D01*
X152273000Y-135673783D01*
X152040974Y-135552642D01*
X152025209Y-135555291D01*
X151497964Y-135809268D01*
X151126461Y-136225069D01*
X150919670Y-135915585D01*
X150433489Y-135590729D01*
X149860000Y-135476655D01*
X149286511Y-135590729D01*
X148800330Y-135915585D01*
X148788984Y-135932566D01*
X148781757Y-135896235D01*
X148641409Y-135686191D01*
X148431365Y-135545843D01*
X148183600Y-135496560D01*
X146456400Y-135496560D01*
X146208635Y-135545843D01*
X145998591Y-135686191D01*
X145858243Y-135896235D01*
X145808960Y-136144000D01*
X145808960Y-138176000D01*
X145834222Y-138303000D01*
X130614413Y-138303000D01*
X130873047Y-137680140D01*
X130873951Y-136644404D01*
X130478427Y-135687162D01*
X129746690Y-134954147D01*
X128790140Y-134556953D01*
X127754404Y-134556049D01*
X126797162Y-134951573D01*
X126064147Y-135683310D01*
X125666953Y-136639860D01*
X125666049Y-137675596D01*
X125925287Y-138303000D01*
X115697000Y-138303000D01*
X115697000Y-132373305D01*
X117494674Y-132373305D01*
X117781043Y-133066372D01*
X118310839Y-133597093D01*
X119003405Y-133884672D01*
X119753305Y-133885326D01*
X120446372Y-133598957D01*
X120977093Y-133069161D01*
X121264672Y-132376595D01*
X121265326Y-131626695D01*
X120978957Y-130933628D01*
X120449161Y-130402907D01*
X119756595Y-130115328D01*
X119006695Y-130114674D01*
X118313628Y-130401043D01*
X117782907Y-130930839D01*
X117495328Y-131623405D01*
X117494674Y-132373305D01*
X115697000Y-132373305D01*
X115697000Y-125750000D01*
X117482560Y-125750000D01*
X117482560Y-128250000D01*
X117531843Y-128497765D01*
X117672191Y-128707809D01*
X117882235Y-128848157D01*
X118130000Y-128897440D01*
X120630000Y-128897440D01*
X120877765Y-128848157D01*
X121087809Y-128707809D01*
X121228157Y-128497765D01*
X121277440Y-128250000D01*
X121277440Y-125934971D01*
X125964821Y-125934971D01*
X126122058Y-126315515D01*
X126412954Y-126606919D01*
X126793223Y-126764820D01*
X127204971Y-126765179D01*
X127585515Y-126607942D01*
X127876919Y-126317046D01*
X128034820Y-125936777D01*
X128034966Y-125769836D01*
X132617401Y-121187401D01*
X132782148Y-120940839D01*
X132840000Y-120650000D01*
X132840000Y-117543761D01*
X132956919Y-117427046D01*
X133114820Y-117046777D01*
X133115179Y-116635029D01*
X132957942Y-116254485D01*
X132667046Y-115963081D01*
X132286777Y-115805180D01*
X131875029Y-115804821D01*
X131494485Y-115962058D01*
X131203081Y-116252954D01*
X131045180Y-116633223D01*
X131044821Y-117044971D01*
X131202058Y-117425515D01*
X131320000Y-117543663D01*
X131320000Y-120335198D01*
X126960233Y-124694965D01*
X126795029Y-124694821D01*
X126414485Y-124852058D01*
X126123081Y-125142954D01*
X125965180Y-125523223D01*
X125964821Y-125934971D01*
X121277440Y-125934971D01*
X121277440Y-125750000D01*
X121228157Y-125502235D01*
X121087809Y-125292191D01*
X120877765Y-125151843D01*
X120630000Y-125102560D01*
X118130000Y-125102560D01*
X117882235Y-125151843D01*
X117672191Y-125292191D01*
X117531843Y-125502235D01*
X117482560Y-125750000D01*
X115697000Y-125750000D01*
X115697000Y-120943305D01*
X117494674Y-120943305D01*
X117781043Y-121636372D01*
X118310839Y-122167093D01*
X119003405Y-122454672D01*
X119753305Y-122455326D01*
X120446372Y-122168957D01*
X120977093Y-121639161D01*
X121264672Y-120946595D01*
X121265326Y-120196695D01*
X120978957Y-119503628D01*
X120449161Y-118972907D01*
X119756595Y-118685328D01*
X119006695Y-118684674D01*
X118313628Y-118971043D01*
X117782907Y-119500839D01*
X117495328Y-120193405D01*
X117494674Y-120943305D01*
X115697000Y-120943305D01*
X115697000Y-114320000D01*
X117482560Y-114320000D01*
X117482560Y-116820000D01*
X117531843Y-117067765D01*
X117672191Y-117277809D01*
X117882235Y-117418157D01*
X118130000Y-117467440D01*
X120202638Y-117467440D01*
X125964965Y-123229767D01*
X125964821Y-123394971D01*
X126122058Y-123775515D01*
X126412954Y-124066919D01*
X126793223Y-124224820D01*
X127204971Y-124225179D01*
X127585515Y-124067942D01*
X127876919Y-123777046D01*
X128034820Y-123396777D01*
X128035179Y-122985029D01*
X127877942Y-122604485D01*
X127587046Y-122313081D01*
X127206777Y-122155180D01*
X127039836Y-122155034D01*
X121277440Y-116392638D01*
X121277440Y-114320000D01*
X121228157Y-114072235D01*
X121087809Y-113862191D01*
X120877765Y-113721843D01*
X120630000Y-113672560D01*
X118130000Y-113672560D01*
X117882235Y-113721843D01*
X117672191Y-113862191D01*
X117531843Y-114072235D01*
X117482560Y-114320000D01*
X115697000Y-114320000D01*
X115697000Y-109513305D01*
X117494674Y-109513305D01*
X117781043Y-110206372D01*
X118310839Y-110737093D01*
X119003405Y-111024672D01*
X119753305Y-111025326D01*
X120446372Y-110738957D01*
X120977093Y-110209161D01*
X121264672Y-109516595D01*
X121265326Y-108766695D01*
X121160882Y-108513920D01*
X124059831Y-105614971D01*
X125964821Y-105614971D01*
X126122058Y-105995515D01*
X126240000Y-106113663D01*
X126240000Y-107950000D01*
X126297852Y-108240839D01*
X126462599Y-108487401D01*
X134514562Y-116539364D01*
X134504671Y-116563184D01*
X134504190Y-117114398D01*
X134714686Y-117623837D01*
X135104113Y-118013944D01*
X135613184Y-118225329D01*
X136164398Y-118225810D01*
X136400000Y-118128461D01*
X136400000Y-123171498D01*
X136166816Y-123074671D01*
X135615602Y-123074190D01*
X135106163Y-123284686D01*
X134716056Y-123674113D01*
X134504671Y-124183184D01*
X134504190Y-124734398D01*
X134714686Y-125243837D01*
X135104113Y-125633944D01*
X135613184Y-125845329D01*
X136164398Y-125845810D01*
X136400000Y-125748461D01*
X136400000Y-127955198D01*
X136190636Y-128164562D01*
X136166816Y-128154671D01*
X135615602Y-128154190D01*
X135106163Y-128364686D01*
X134716056Y-128754113D01*
X134504671Y-129263184D01*
X134504190Y-129814398D01*
X134714686Y-130323837D01*
X135104113Y-130713944D01*
X135613184Y-130925329D01*
X136164398Y-130925810D01*
X136673837Y-130715314D01*
X137063944Y-130325887D01*
X137275329Y-129816816D01*
X137275331Y-129814398D01*
X142124190Y-129814398D01*
X142334686Y-130323837D01*
X142724113Y-130713944D01*
X143233184Y-130925329D01*
X143784398Y-130925810D01*
X144293837Y-130715314D01*
X144683944Y-130325887D01*
X144895329Y-129816816D01*
X144895810Y-129265602D01*
X144685314Y-128756163D01*
X144494022Y-128564536D01*
X147107652Y-128564536D01*
X147333198Y-129110397D01*
X147750466Y-129528394D01*
X148295933Y-129754892D01*
X148886556Y-129755408D01*
X149432417Y-129529862D01*
X149850414Y-129112594D01*
X150065880Y-128593694D01*
X152035226Y-128593694D01*
X152283538Y-129194655D01*
X152742927Y-129654846D01*
X153343453Y-129904206D01*
X153993694Y-129904774D01*
X154594655Y-129656462D01*
X155054846Y-129197073D01*
X155304206Y-128596547D01*
X155304774Y-127946306D01*
X155056462Y-127345345D01*
X154597073Y-126885154D01*
X153996547Y-126635794D01*
X153346306Y-126635226D01*
X152745345Y-126883538D01*
X152285154Y-127342927D01*
X152035794Y-127943453D01*
X152035226Y-128593694D01*
X150065880Y-128593694D01*
X150076912Y-128567127D01*
X150077428Y-127976504D01*
X149851882Y-127430643D01*
X149434614Y-127012646D01*
X148889147Y-126786148D01*
X148298524Y-126785632D01*
X147752663Y-127011178D01*
X147334666Y-127428446D01*
X147108168Y-127973913D01*
X147107652Y-128564536D01*
X144494022Y-128564536D01*
X144295887Y-128366056D01*
X143786816Y-128154671D01*
X143235602Y-128154190D01*
X142726163Y-128364686D01*
X142336056Y-128754113D01*
X142124671Y-129263184D01*
X142124190Y-129814398D01*
X137275331Y-129814398D01*
X137275810Y-129265602D01*
X137265106Y-129239696D01*
X137697401Y-128807401D01*
X137862148Y-128560840D01*
X137920000Y-128270000D01*
X137920000Y-117114398D01*
X142124190Y-117114398D01*
X142334686Y-117623837D01*
X142724113Y-118013944D01*
X143233184Y-118225329D01*
X143784398Y-118225810D01*
X144293837Y-118015314D01*
X144683944Y-117625887D01*
X144835504Y-117260890D01*
X147095470Y-117260890D01*
X147095470Y-118960150D01*
X147144753Y-119207915D01*
X147285101Y-119417959D01*
X147495145Y-119558307D01*
X147742910Y-119607590D01*
X149442170Y-119607590D01*
X149689935Y-119558307D01*
X149899979Y-119417959D01*
X150040327Y-119207915D01*
X150089610Y-118960150D01*
X150089610Y-117260890D01*
X150040327Y-117013125D01*
X149899979Y-116803081D01*
X149689935Y-116662733D01*
X149442170Y-116613450D01*
X147742910Y-116613450D01*
X147495145Y-116662733D01*
X147285101Y-116803081D01*
X147144753Y-117013125D01*
X147095470Y-117260890D01*
X144835504Y-117260890D01*
X144895329Y-117116816D01*
X144895810Y-116565602D01*
X144685314Y-116056163D01*
X144523230Y-115893795D01*
X150764716Y-115893795D01*
X151013106Y-116494943D01*
X151472637Y-116955278D01*
X152073352Y-117204716D01*
X152723795Y-117205284D01*
X153324943Y-116956894D01*
X153390847Y-116891105D01*
X153482191Y-117027809D01*
X153692235Y-117168157D01*
X153940000Y-117217440D01*
X154180000Y-117217440D01*
X154180000Y-119065198D01*
X154161083Y-119084115D01*
X153996547Y-119015794D01*
X153346306Y-119015226D01*
X152745345Y-119263538D01*
X152285154Y-119722927D01*
X152035794Y-120323453D01*
X152035226Y-120973694D01*
X152283538Y-121574655D01*
X152742927Y-122034846D01*
X153343453Y-122284206D01*
X153993694Y-122284774D01*
X154093115Y-122243694D01*
X157115226Y-122243694D01*
X157363538Y-122844655D01*
X157822927Y-123304846D01*
X158423453Y-123554206D01*
X159073694Y-123554774D01*
X159240889Y-123485691D01*
X159260000Y-123504802D01*
X159260000Y-125951595D01*
X159078135Y-125915420D01*
X158421865Y-125915420D01*
X158006814Y-125997979D01*
X157654951Y-126233086D01*
X157419844Y-126584949D01*
X157337285Y-127000000D01*
X157419844Y-127415051D01*
X157566809Y-127635000D01*
X157419844Y-127854949D01*
X157337285Y-128270000D01*
X157419844Y-128685051D01*
X157566809Y-128905000D01*
X157419844Y-129124949D01*
X157337285Y-129540000D01*
X157419844Y-129955051D01*
X157654951Y-130306914D01*
X158006814Y-130542021D01*
X158421865Y-130624580D01*
X159078135Y-130624580D01*
X159493186Y-130542021D01*
X159845049Y-130306914D01*
X160080156Y-129955051D01*
X160108133Y-129814398D01*
X166254190Y-129814398D01*
X166464686Y-130323837D01*
X166854113Y-130713944D01*
X167363184Y-130925329D01*
X167914398Y-130925810D01*
X168423837Y-130715314D01*
X168813944Y-130325887D01*
X169025329Y-129816816D01*
X169025810Y-129265602D01*
X168815314Y-128756163D01*
X168425887Y-128366056D01*
X167916816Y-128154671D01*
X167365602Y-128154190D01*
X166856163Y-128364686D01*
X166466056Y-128754113D01*
X166254671Y-129263184D01*
X166254190Y-129814398D01*
X160108133Y-129814398D01*
X160162715Y-129540000D01*
X160080156Y-129124949D01*
X160016713Y-129030000D01*
X160020000Y-129030000D01*
X160310839Y-128972148D01*
X160557401Y-128807401D01*
X160722148Y-128560839D01*
X160780000Y-128270000D01*
X160780000Y-124734398D01*
X166254190Y-124734398D01*
X166464686Y-125243837D01*
X166854113Y-125633944D01*
X167363184Y-125845329D01*
X167914398Y-125845810D01*
X168423837Y-125635314D01*
X168813944Y-125245887D01*
X169025329Y-124736816D01*
X169025810Y-124185602D01*
X168815314Y-123676163D01*
X168425887Y-123286056D01*
X167916816Y-123074671D01*
X167365602Y-123074190D01*
X166856163Y-123284686D01*
X166466056Y-123674113D01*
X166254671Y-124183184D01*
X166254190Y-124734398D01*
X160780000Y-124734398D01*
X160780000Y-123190000D01*
X160757219Y-123075474D01*
X160722148Y-122899160D01*
X160557401Y-122652599D01*
X160315885Y-122411083D01*
X160384206Y-122246547D01*
X160384774Y-121596306D01*
X160136462Y-120995345D01*
X159677073Y-120535154D01*
X159076547Y-120285794D01*
X158426306Y-120285226D01*
X157825345Y-120533538D01*
X157365154Y-120992927D01*
X157115794Y-121593453D01*
X157115226Y-122243694D01*
X154093115Y-122243694D01*
X154594655Y-122036462D01*
X155054846Y-121577073D01*
X155304206Y-120976547D01*
X155304774Y-120326306D01*
X155235691Y-120159111D01*
X155477401Y-119917401D01*
X155642148Y-119670840D01*
X155700000Y-119380000D01*
X155700000Y-117217440D01*
X155940000Y-117217440D01*
X156187765Y-117168157D01*
X156397809Y-117027809D01*
X156538157Y-116817765D01*
X156587440Y-116570000D01*
X156587440Y-114623694D01*
X157115226Y-114623694D01*
X157363538Y-115224655D01*
X157822927Y-115684846D01*
X158423453Y-115934206D01*
X159073694Y-115934774D01*
X159674655Y-115686462D01*
X160134846Y-115227073D01*
X160384206Y-114626547D01*
X160384774Y-113976306D01*
X160136462Y-113375345D01*
X159677073Y-112915154D01*
X159076547Y-112665794D01*
X158426306Y-112665226D01*
X157825345Y-112913538D01*
X157365154Y-113372927D01*
X157115794Y-113973453D01*
X157115226Y-114623694D01*
X156587440Y-114623694D01*
X156587440Y-114570000D01*
X156538157Y-114322235D01*
X156397809Y-114112191D01*
X156187765Y-113971843D01*
X155940000Y-113922560D01*
X153940000Y-113922560D01*
X153692235Y-113971843D01*
X153482191Y-114112191D01*
X153391079Y-114248549D01*
X153327363Y-114184722D01*
X152726648Y-113935284D01*
X152076205Y-113934716D01*
X151475057Y-114183106D01*
X151014722Y-114642637D01*
X150765284Y-115243352D01*
X150764716Y-115893795D01*
X144523230Y-115893795D01*
X144295887Y-115666056D01*
X143786816Y-115454671D01*
X143235602Y-115454190D01*
X142726163Y-115664686D01*
X142336056Y-116054113D01*
X142124671Y-116563184D01*
X142124190Y-117114398D01*
X137920000Y-117114398D01*
X137920000Y-115570000D01*
X137897219Y-115455474D01*
X137862148Y-115279160D01*
X137697401Y-115032599D01*
X132159200Y-109494398D01*
X134504190Y-109494398D01*
X134714686Y-110003837D01*
X135104113Y-110393944D01*
X135613184Y-110605329D01*
X136164398Y-110605810D01*
X136673837Y-110395314D01*
X137063944Y-110005887D01*
X137275329Y-109496816D01*
X137275331Y-109494398D01*
X142124190Y-109494398D01*
X142334686Y-110003837D01*
X142724113Y-110393944D01*
X143233184Y-110605329D01*
X143784398Y-110605810D01*
X144293837Y-110395314D01*
X144683944Y-110005887D01*
X144887971Y-109514536D01*
X147107652Y-109514536D01*
X147333198Y-110060397D01*
X147750466Y-110478394D01*
X148295933Y-110704892D01*
X148886556Y-110705408D01*
X149432417Y-110479862D01*
X149850414Y-110062594D01*
X150076912Y-109517127D01*
X150077428Y-108926504D01*
X149851882Y-108380643D01*
X149745120Y-108273694D01*
X150765226Y-108273694D01*
X151013538Y-108874655D01*
X151472927Y-109334846D01*
X152073453Y-109584206D01*
X152723694Y-109584774D01*
X152890889Y-109515691D01*
X155672599Y-112297401D01*
X155919161Y-112462148D01*
X156210000Y-112520000D01*
X159705198Y-112520000D01*
X175339697Y-128154499D01*
X174985602Y-128154190D01*
X174476163Y-128364686D01*
X174086056Y-128754113D01*
X173874671Y-129263184D01*
X173874190Y-129814398D01*
X174084686Y-130323837D01*
X174474113Y-130713944D01*
X174983184Y-130925329D01*
X175534398Y-130925810D01*
X176043837Y-130715314D01*
X176433944Y-130325887D01*
X176645329Y-129816816D01*
X176645640Y-129460442D01*
X179304965Y-132119767D01*
X179304821Y-132284971D01*
X179462058Y-132665515D01*
X179752954Y-132956919D01*
X180133223Y-133114820D01*
X180544971Y-133115179D01*
X180925515Y-132957942D01*
X181216919Y-132667046D01*
X181374820Y-132286777D01*
X181375179Y-131875029D01*
X181217942Y-131494485D01*
X180927046Y-131203081D01*
X180546777Y-131045180D01*
X180379836Y-131045034D01*
X177899338Y-128564536D01*
X178857652Y-128564536D01*
X179083198Y-129110397D01*
X179500466Y-129528394D01*
X180045933Y-129754892D01*
X180636556Y-129755408D01*
X181182417Y-129529862D01*
X181600414Y-129112594D01*
X181815880Y-128593694D01*
X182515226Y-128593694D01*
X182763538Y-129194655D01*
X183222927Y-129654846D01*
X183823453Y-129904206D01*
X184473694Y-129904774D01*
X185074655Y-129656462D01*
X185534846Y-129197073D01*
X185784206Y-128596547D01*
X185784208Y-128593694D01*
X187595226Y-128593694D01*
X187843538Y-129194655D01*
X188302927Y-129654846D01*
X188903453Y-129904206D01*
X189553694Y-129904774D01*
X190154655Y-129656462D01*
X190614846Y-129197073D01*
X190864206Y-128596547D01*
X190864774Y-127946306D01*
X190616462Y-127345345D01*
X190157073Y-126885154D01*
X189556547Y-126635794D01*
X188906306Y-126635226D01*
X188305345Y-126883538D01*
X187845154Y-127342927D01*
X187595794Y-127943453D01*
X187595226Y-128593694D01*
X185784208Y-128593694D01*
X185784774Y-127946306D01*
X185536462Y-127345345D01*
X185077073Y-126885154D01*
X184476547Y-126635794D01*
X183826306Y-126635226D01*
X183225345Y-126883538D01*
X182765154Y-127342927D01*
X182515794Y-127943453D01*
X182515226Y-128593694D01*
X181815880Y-128593694D01*
X181826912Y-128567127D01*
X181827428Y-127976504D01*
X181601882Y-127430643D01*
X181184614Y-127012646D01*
X180639147Y-126786148D01*
X180048524Y-126785632D01*
X179502663Y-127011178D01*
X179084666Y-127428446D01*
X178858168Y-127973913D01*
X178857652Y-128564536D01*
X177899338Y-128564536D01*
X175064802Y-125730000D01*
X194167285Y-125730000D01*
X194249844Y-126145051D01*
X194396809Y-126365000D01*
X194249844Y-126584949D01*
X194167285Y-127000000D01*
X194249844Y-127415051D01*
X194396809Y-127635000D01*
X194249844Y-127854949D01*
X194167285Y-128270000D01*
X194249844Y-128685051D01*
X194484951Y-129036914D01*
X194836814Y-129272021D01*
X195251865Y-129354580D01*
X195908135Y-129354580D01*
X196323186Y-129272021D01*
X196675049Y-129036914D01*
X196910156Y-128685051D01*
X196992715Y-128270000D01*
X196910156Y-127854949D01*
X196763191Y-127635000D01*
X196910156Y-127415051D01*
X196992715Y-127000000D01*
X196910156Y-126584949D01*
X196763191Y-126365000D01*
X196910156Y-126145051D01*
X196992715Y-125730000D01*
X196910156Y-125314949D01*
X196675049Y-124963086D01*
X196323186Y-124727979D01*
X195908135Y-124645420D01*
X195251865Y-124645420D01*
X194836814Y-124727979D01*
X194484951Y-124963086D01*
X194249844Y-125314949D01*
X194167285Y-125730000D01*
X175064802Y-125730000D01*
X167560303Y-118225501D01*
X167914398Y-118225810D01*
X168423837Y-118015314D01*
X168813944Y-117625887D01*
X169025329Y-117116816D01*
X169025331Y-117114398D01*
X173874190Y-117114398D01*
X174084686Y-117623837D01*
X174474113Y-118013944D01*
X174983184Y-118225329D01*
X175534398Y-118225810D01*
X176043837Y-118015314D01*
X176433944Y-117625887D01*
X176585504Y-117260890D01*
X178845470Y-117260890D01*
X178845470Y-118960150D01*
X178894753Y-119207915D01*
X179035101Y-119417959D01*
X179245145Y-119558307D01*
X179492910Y-119607590D01*
X181192170Y-119607590D01*
X181439935Y-119558307D01*
X181649979Y-119417959D01*
X181790327Y-119207915D01*
X181839610Y-118960150D01*
X181839610Y-117260890D01*
X181790327Y-117013125D01*
X181649979Y-116803081D01*
X181439935Y-116662733D01*
X181192170Y-116613450D01*
X179492910Y-116613450D01*
X179245145Y-116662733D01*
X179035101Y-116803081D01*
X178894753Y-117013125D01*
X178845470Y-117260890D01*
X176585504Y-117260890D01*
X176645329Y-117116816D01*
X176645810Y-116565602D01*
X176435314Y-116056163D01*
X176273230Y-115893795D01*
X182514716Y-115893795D01*
X182763106Y-116494943D01*
X183222637Y-116955278D01*
X183823352Y-117204716D01*
X184473795Y-117205284D01*
X185074943Y-116956894D01*
X185140847Y-116891105D01*
X185232191Y-117027809D01*
X185442235Y-117168157D01*
X185690000Y-117217440D01*
X185930000Y-117217440D01*
X185930000Y-117795198D01*
X184641083Y-119084115D01*
X184476547Y-119015794D01*
X183826306Y-119015226D01*
X183225345Y-119263538D01*
X182765154Y-119722927D01*
X182515794Y-120323453D01*
X182515226Y-120973694D01*
X182763538Y-121574655D01*
X183222927Y-122034846D01*
X183823453Y-122284206D01*
X184473694Y-122284774D01*
X185074655Y-122036462D01*
X185534846Y-121577073D01*
X185784206Y-120976547D01*
X185784208Y-120973694D01*
X187595226Y-120973694D01*
X187843538Y-121574655D01*
X188302927Y-122034846D01*
X188903453Y-122284206D01*
X189553694Y-122284774D01*
X190154655Y-122036462D01*
X190614846Y-121577073D01*
X190864206Y-120976547D01*
X190864774Y-120326306D01*
X190616462Y-119725345D01*
X190157073Y-119265154D01*
X189556547Y-119015794D01*
X188906306Y-119015226D01*
X188305345Y-119263538D01*
X187845154Y-119722927D01*
X187595794Y-120323453D01*
X187595226Y-120973694D01*
X185784208Y-120973694D01*
X185784774Y-120326306D01*
X185715691Y-120159111D01*
X187227401Y-118647401D01*
X187392148Y-118400840D01*
X187408162Y-118320330D01*
X187450000Y-118110000D01*
X187450000Y-117217440D01*
X187690000Y-117217440D01*
X187937765Y-117168157D01*
X188147809Y-117027809D01*
X188288157Y-116817765D01*
X188337440Y-116570000D01*
X188337440Y-114570000D01*
X188288157Y-114322235D01*
X188147809Y-114112191D01*
X187937765Y-113971843D01*
X187690000Y-113922560D01*
X185690000Y-113922560D01*
X185442235Y-113971843D01*
X185232191Y-114112191D01*
X185141079Y-114248549D01*
X185077363Y-114184722D01*
X184476648Y-113935284D01*
X183826205Y-113934716D01*
X183225057Y-114183106D01*
X182764722Y-114642637D01*
X182515284Y-115243352D01*
X182514716Y-115893795D01*
X176273230Y-115893795D01*
X176045887Y-115666056D01*
X175536816Y-115454671D01*
X174985602Y-115454190D01*
X174476163Y-115664686D01*
X174086056Y-116054113D01*
X173874671Y-116563184D01*
X173874190Y-117114398D01*
X169025331Y-117114398D01*
X169025810Y-116565602D01*
X168815314Y-116056163D01*
X168425887Y-115666056D01*
X167916816Y-115454671D01*
X167365602Y-115454190D01*
X166856163Y-115664686D01*
X166466056Y-116054113D01*
X166254671Y-116563184D01*
X166254360Y-116919558D01*
X160557401Y-111222599D01*
X160310839Y-111057852D01*
X160020000Y-111000000D01*
X156524802Y-111000000D01*
X156309338Y-110784536D01*
X178857652Y-110784536D01*
X179083198Y-111330397D01*
X179500466Y-111748394D01*
X180045933Y-111974892D01*
X180636556Y-111975408D01*
X181182417Y-111749862D01*
X181600414Y-111332594D01*
X181815880Y-110813694D01*
X182515226Y-110813694D01*
X182763538Y-111414655D01*
X183222927Y-111874846D01*
X183823453Y-112124206D01*
X184473694Y-112124774D01*
X185074655Y-111876462D01*
X185534846Y-111417073D01*
X185784206Y-110816547D01*
X185784208Y-110813694D01*
X187595226Y-110813694D01*
X187843538Y-111414655D01*
X188302927Y-111874846D01*
X188903453Y-112124206D01*
X189553694Y-112124774D01*
X190154655Y-111876462D01*
X190614846Y-111417073D01*
X190864206Y-110816547D01*
X190864774Y-110166306D01*
X190616462Y-109565345D01*
X190157073Y-109105154D01*
X189556547Y-108855794D01*
X188906306Y-108855226D01*
X188305345Y-109103538D01*
X187845154Y-109562927D01*
X187595794Y-110163453D01*
X187595226Y-110813694D01*
X185784208Y-110813694D01*
X185784774Y-110166306D01*
X185536462Y-109565345D01*
X185077073Y-109105154D01*
X184476547Y-108855794D01*
X183826306Y-108855226D01*
X183225345Y-109103538D01*
X182765154Y-109562927D01*
X182515794Y-110163453D01*
X182515226Y-110813694D01*
X181815880Y-110813694D01*
X181826912Y-110787127D01*
X181827428Y-110196504D01*
X181601882Y-109650643D01*
X181184614Y-109232646D01*
X180639147Y-109006148D01*
X180048524Y-109005632D01*
X179502663Y-109231178D01*
X179084666Y-109648446D01*
X178858168Y-110193913D01*
X178857652Y-110784536D01*
X156309338Y-110784536D01*
X153965885Y-108441083D01*
X154034206Y-108276547D01*
X154034774Y-107626306D01*
X153786462Y-107025345D01*
X153327073Y-106565154D01*
X152726547Y-106315794D01*
X152076306Y-106315226D01*
X151475345Y-106563538D01*
X151015154Y-107022927D01*
X150765794Y-107623453D01*
X150765226Y-108273694D01*
X149745120Y-108273694D01*
X149434614Y-107962646D01*
X148889147Y-107736148D01*
X148298524Y-107735632D01*
X147752663Y-107961178D01*
X147334666Y-108378446D01*
X147108168Y-108923913D01*
X147107652Y-109514536D01*
X144887971Y-109514536D01*
X144895329Y-109496816D01*
X144895810Y-108945602D01*
X144685314Y-108436163D01*
X144295887Y-108046056D01*
X143786816Y-107834671D01*
X143235602Y-107834190D01*
X142726163Y-108044686D01*
X142336056Y-108434113D01*
X142124671Y-108943184D01*
X142124190Y-109494398D01*
X137275331Y-109494398D01*
X137275810Y-108945602D01*
X137065314Y-108436163D01*
X136675887Y-108046056D01*
X136166816Y-107834671D01*
X135615602Y-107834190D01*
X135106163Y-108044686D01*
X134716056Y-108434113D01*
X134504671Y-108943184D01*
X134504190Y-109494398D01*
X132159200Y-109494398D01*
X130300000Y-107635198D01*
X130300000Y-104414398D01*
X134504190Y-104414398D01*
X134714686Y-104923837D01*
X135104113Y-105313944D01*
X135613184Y-105525329D01*
X136164398Y-105525810D01*
X136673837Y-105315314D01*
X137063944Y-104925887D01*
X137275329Y-104416816D01*
X137275810Y-103865602D01*
X137065314Y-103356163D01*
X136675887Y-102966056D01*
X136166816Y-102754671D01*
X135615602Y-102754190D01*
X135106163Y-102964686D01*
X134716056Y-103354113D01*
X134504671Y-103863184D01*
X134504190Y-104414398D01*
X130300000Y-104414398D01*
X130300000Y-103573761D01*
X130416919Y-103457046D01*
X130574820Y-103076777D01*
X130575179Y-102665029D01*
X130417942Y-102284485D01*
X130127046Y-101993081D01*
X129746777Y-101835180D01*
X129335029Y-101834821D01*
X128954485Y-101992058D01*
X128663081Y-102282954D01*
X128505180Y-102663223D01*
X128504821Y-103074971D01*
X128662058Y-103455515D01*
X128780000Y-103573663D01*
X128780000Y-107950000D01*
X128837852Y-108240839D01*
X129002599Y-108487401D01*
X135969697Y-115454499D01*
X135615602Y-115454190D01*
X135589696Y-115464894D01*
X127760000Y-107635198D01*
X127760000Y-106113761D01*
X127876919Y-105997046D01*
X128034820Y-105616777D01*
X128035179Y-105205029D01*
X127877942Y-104824485D01*
X127587046Y-104533081D01*
X127206777Y-104375180D01*
X126795029Y-104374821D01*
X126414485Y-104532058D01*
X126123081Y-104822954D01*
X125965180Y-105203223D01*
X125964821Y-105614971D01*
X124059831Y-105614971D01*
X129021108Y-100653694D01*
X150765226Y-100653694D01*
X151013538Y-101254655D01*
X151472927Y-101714846D01*
X152073453Y-101964206D01*
X152723694Y-101964774D01*
X152890889Y-101895691D01*
X156720000Y-105724802D01*
X156720000Y-107950000D01*
X156777852Y-108240839D01*
X156942599Y-108487401D01*
X157189161Y-108652148D01*
X157480000Y-108710000D01*
X157483287Y-108710000D01*
X157419844Y-108804949D01*
X157337285Y-109220000D01*
X157419844Y-109635051D01*
X157654951Y-109986914D01*
X158006814Y-110222021D01*
X158421865Y-110304580D01*
X159078135Y-110304580D01*
X159493186Y-110222021D01*
X159845049Y-109986914D01*
X160080156Y-109635051D01*
X160108133Y-109494398D01*
X166254190Y-109494398D01*
X166464686Y-110003837D01*
X166854113Y-110393944D01*
X167363184Y-110605329D01*
X167914398Y-110605810D01*
X168423837Y-110395314D01*
X168813944Y-110005887D01*
X169025329Y-109496816D01*
X169025331Y-109494398D01*
X173874190Y-109494398D01*
X174084686Y-110003837D01*
X174474113Y-110393944D01*
X174983184Y-110605329D01*
X175534398Y-110605810D01*
X176043837Y-110395314D01*
X176433944Y-110005887D01*
X176645329Y-109496816D01*
X176645810Y-108945602D01*
X176435314Y-108436163D01*
X176045887Y-108046056D01*
X175536816Y-107834671D01*
X174985602Y-107834190D01*
X174476163Y-108044686D01*
X174086056Y-108434113D01*
X173874671Y-108943184D01*
X173874190Y-109494398D01*
X169025331Y-109494398D01*
X169025810Y-108945602D01*
X168815314Y-108436163D01*
X168425887Y-108046056D01*
X167916816Y-107834671D01*
X167365602Y-107834190D01*
X166856163Y-108044686D01*
X166466056Y-108434113D01*
X166254671Y-108943184D01*
X166254190Y-109494398D01*
X160108133Y-109494398D01*
X160162715Y-109220000D01*
X160080156Y-108804949D01*
X159933191Y-108585000D01*
X160080156Y-108365051D01*
X160162715Y-107950000D01*
X160080156Y-107534949D01*
X159933191Y-107315000D01*
X160080156Y-107095051D01*
X160162715Y-106680000D01*
X160080156Y-106264949D01*
X159845049Y-105913086D01*
X159510000Y-105689214D01*
X159510000Y-104414398D01*
X166254190Y-104414398D01*
X166464686Y-104923837D01*
X166854113Y-105313944D01*
X167363184Y-105525329D01*
X167914398Y-105525810D01*
X168423837Y-105315314D01*
X168813944Y-104925887D01*
X169025329Y-104416816D01*
X169025810Y-103865602D01*
X168815314Y-103356163D01*
X168425887Y-102966056D01*
X167916816Y-102754671D01*
X167365602Y-102754190D01*
X166856163Y-102964686D01*
X166466056Y-103354113D01*
X166254671Y-103863184D01*
X166254190Y-104414398D01*
X159510000Y-104414398D01*
X159510000Y-104324496D01*
X159674655Y-104256462D01*
X160134846Y-103797073D01*
X160384206Y-103196547D01*
X160384774Y-102546306D01*
X160136462Y-101945345D01*
X159677073Y-101485154D01*
X159076547Y-101235794D01*
X158426306Y-101235226D01*
X157825345Y-101483538D01*
X157365154Y-101942927D01*
X157115794Y-102543453D01*
X157115226Y-103193694D01*
X157363538Y-103794655D01*
X157822927Y-104254846D01*
X157990000Y-104324221D01*
X157990000Y-104845198D01*
X153965885Y-100821083D01*
X154034206Y-100656547D01*
X154034774Y-100006306D01*
X153817677Y-99480890D01*
X178845470Y-99480890D01*
X178845470Y-101180150D01*
X178894753Y-101427915D01*
X179035101Y-101637959D01*
X179245145Y-101778307D01*
X179492910Y-101827590D01*
X181192170Y-101827590D01*
X181439935Y-101778307D01*
X181649979Y-101637959D01*
X181790327Y-101427915D01*
X181839610Y-101180150D01*
X181839610Y-99480890D01*
X181790327Y-99233125D01*
X181649979Y-99023081D01*
X181439935Y-98882733D01*
X181192170Y-98833450D01*
X179492910Y-98833450D01*
X179245145Y-98882733D01*
X179035101Y-99023081D01*
X178894753Y-99233125D01*
X178845470Y-99480890D01*
X153817677Y-99480890D01*
X153786462Y-99405345D01*
X153327073Y-98945154D01*
X152726547Y-98695794D01*
X152076306Y-98695226D01*
X151475345Y-98943538D01*
X151015154Y-99402927D01*
X150765794Y-100003453D01*
X150765226Y-100653694D01*
X129021108Y-100653694D01*
X131463912Y-98210890D01*
X147095470Y-98210890D01*
X147095470Y-99910150D01*
X147144753Y-100157915D01*
X147285101Y-100367959D01*
X147495145Y-100508307D01*
X147742910Y-100557590D01*
X149442170Y-100557590D01*
X149689935Y-100508307D01*
X149899979Y-100367959D01*
X150040327Y-100157915D01*
X150089610Y-99910150D01*
X150089610Y-98635192D01*
X150611007Y-98113795D01*
X182514716Y-98113795D01*
X182763106Y-98714943D01*
X183222637Y-99175278D01*
X183823352Y-99424716D01*
X184473795Y-99425284D01*
X185074943Y-99176894D01*
X185140847Y-99111105D01*
X185232191Y-99247809D01*
X185442235Y-99388157D01*
X185690000Y-99437440D01*
X185930000Y-99437440D01*
X185930000Y-100015198D01*
X184641083Y-101304115D01*
X184476547Y-101235794D01*
X183826306Y-101235226D01*
X183225345Y-101483538D01*
X182765154Y-101942927D01*
X182515794Y-102543453D01*
X182515226Y-103193694D01*
X182763538Y-103794655D01*
X183222927Y-104254846D01*
X183823453Y-104504206D01*
X184473694Y-104504774D01*
X185074655Y-104256462D01*
X185534846Y-103797073D01*
X185784206Y-103196547D01*
X185784774Y-102546306D01*
X185715691Y-102379111D01*
X187227401Y-100867401D01*
X187392148Y-100620840D01*
X187442449Y-100367959D01*
X187450000Y-100330000D01*
X187450000Y-99437440D01*
X187690000Y-99437440D01*
X187937765Y-99388157D01*
X188147809Y-99247809D01*
X188288157Y-99037765D01*
X188337440Y-98790000D01*
X188337440Y-96790000D01*
X188288157Y-96542235D01*
X188147809Y-96332191D01*
X187937765Y-96191843D01*
X187690000Y-96142560D01*
X185690000Y-96142560D01*
X185442235Y-96191843D01*
X185232191Y-96332191D01*
X185141079Y-96468549D01*
X185077363Y-96404722D01*
X184476648Y-96155284D01*
X183826205Y-96154716D01*
X183225057Y-96403106D01*
X182764722Y-96862637D01*
X182515284Y-97463352D01*
X182514716Y-98113795D01*
X150611007Y-98113795D01*
X151667401Y-97057401D01*
X151832148Y-96810840D01*
X151849895Y-96721618D01*
X152054943Y-96636894D01*
X152120847Y-96571105D01*
X152212191Y-96707809D01*
X152422235Y-96848157D01*
X152670000Y-96897440D01*
X154670000Y-96897440D01*
X154917765Y-96848157D01*
X155127809Y-96707809D01*
X155268157Y-96497765D01*
X155317440Y-96250000D01*
X155317440Y-95573694D01*
X157115226Y-95573694D01*
X157363538Y-96174655D01*
X157822927Y-96634846D01*
X158423453Y-96884206D01*
X159073694Y-96884774D01*
X159292420Y-96794398D01*
X166254190Y-96794398D01*
X166464686Y-97303837D01*
X166854113Y-97693944D01*
X167363184Y-97905329D01*
X167914398Y-97905810D01*
X168423837Y-97695314D01*
X168813944Y-97305887D01*
X169025329Y-96796816D01*
X169025331Y-96794398D01*
X173874190Y-96794398D01*
X174084686Y-97303837D01*
X174474113Y-97693944D01*
X174983184Y-97905329D01*
X175534398Y-97905810D01*
X176043837Y-97695314D01*
X176433944Y-97305887D01*
X176645329Y-96796816D01*
X176645810Y-96245602D01*
X176435314Y-95736163D01*
X176045887Y-95346056D01*
X175536816Y-95134671D01*
X174985602Y-95134190D01*
X174476163Y-95344686D01*
X174086056Y-95734113D01*
X173874671Y-96243184D01*
X173874190Y-96794398D01*
X169025331Y-96794398D01*
X169025810Y-96245602D01*
X168815314Y-95736163D01*
X168425887Y-95346056D01*
X167916816Y-95134671D01*
X167365602Y-95134190D01*
X166856163Y-95344686D01*
X166466056Y-95734113D01*
X166254671Y-96243184D01*
X166254190Y-96794398D01*
X159292420Y-96794398D01*
X159674655Y-96636462D01*
X160134846Y-96177073D01*
X160384206Y-95576547D01*
X160384774Y-94926306D01*
X160136462Y-94325345D01*
X159677073Y-93865154D01*
X159076547Y-93615794D01*
X158426306Y-93615226D01*
X157825345Y-93863538D01*
X157365154Y-94322927D01*
X157115794Y-94923453D01*
X157115226Y-95573694D01*
X155317440Y-95573694D01*
X155317440Y-94250000D01*
X155268157Y-94002235D01*
X155127809Y-93792191D01*
X154917765Y-93651843D01*
X154670000Y-93602560D01*
X152670000Y-93602560D01*
X152422235Y-93651843D01*
X152212191Y-93792191D01*
X152121079Y-93928549D01*
X152057363Y-93864722D01*
X151456648Y-93615284D01*
X150806205Y-93614716D01*
X150205057Y-93863106D01*
X149744722Y-94322637D01*
X149495284Y-94923352D01*
X149494716Y-95573795D01*
X149743106Y-96174943D01*
X150071393Y-96503805D01*
X149011748Y-97563450D01*
X147742910Y-97563450D01*
X147495145Y-97612733D01*
X147285101Y-97753081D01*
X147144753Y-97963125D01*
X147095470Y-98210890D01*
X131463912Y-98210890D01*
X132394802Y-97280000D01*
X134704837Y-97280000D01*
X134714686Y-97303837D01*
X135104113Y-97693944D01*
X135613184Y-97905329D01*
X136164398Y-97905810D01*
X136673837Y-97695314D01*
X137063944Y-97305887D01*
X137275329Y-96796816D01*
X137275331Y-96794398D01*
X142124190Y-96794398D01*
X142334686Y-97303837D01*
X142724113Y-97693944D01*
X143233184Y-97905329D01*
X143784398Y-97905810D01*
X144293837Y-97695314D01*
X144683944Y-97305887D01*
X144895329Y-96796816D01*
X144895810Y-96245602D01*
X144685314Y-95736163D01*
X144295887Y-95346056D01*
X143786816Y-95134671D01*
X143235602Y-95134190D01*
X142726163Y-95344686D01*
X142336056Y-95734113D01*
X142124671Y-96243184D01*
X142124190Y-96794398D01*
X137275331Y-96794398D01*
X137275810Y-96245602D01*
X137065314Y-95736163D01*
X136675887Y-95346056D01*
X136166816Y-95134671D01*
X135615602Y-95134190D01*
X135106163Y-95344686D01*
X134716056Y-95734113D01*
X134705307Y-95760000D01*
X132080000Y-95760000D01*
X131789160Y-95817852D01*
X131542599Y-95982599D01*
X120119273Y-107405925D01*
X119756595Y-107255328D01*
X119006695Y-107254674D01*
X118313628Y-107541043D01*
X117782907Y-108070839D01*
X117495328Y-108763405D01*
X117494674Y-109513305D01*
X115697000Y-109513305D01*
X115697000Y-102890000D01*
X117482560Y-102890000D01*
X117482560Y-105390000D01*
X117531843Y-105637765D01*
X117672191Y-105847809D01*
X117882235Y-105988157D01*
X118130000Y-106037440D01*
X120630000Y-106037440D01*
X120877765Y-105988157D01*
X121087809Y-105847809D01*
X121228157Y-105637765D01*
X121277440Y-105390000D01*
X121277440Y-102890000D01*
X121228157Y-102642235D01*
X121087809Y-102432191D01*
X120877765Y-102291843D01*
X120630000Y-102242560D01*
X118130000Y-102242560D01*
X117882235Y-102291843D01*
X117672191Y-102432191D01*
X117531843Y-102642235D01*
X117482560Y-102890000D01*
X115697000Y-102890000D01*
X115697000Y-98083305D01*
X117494674Y-98083305D01*
X117781043Y-98776372D01*
X118310839Y-99307093D01*
X119003405Y-99594672D01*
X119753305Y-99595326D01*
X120446372Y-99308957D01*
X120977093Y-98779161D01*
X121264672Y-98086595D01*
X121265326Y-97336695D01*
X120978957Y-96643628D01*
X120449161Y-96112907D01*
X119756595Y-95825328D01*
X119006695Y-95824674D01*
X118313628Y-96111043D01*
X117782907Y-96640839D01*
X117495328Y-97333405D01*
X117494674Y-98083305D01*
X115697000Y-98083305D01*
X115697000Y-91460000D01*
X117482560Y-91460000D01*
X117482560Y-93960000D01*
X117531843Y-94207765D01*
X117672191Y-94417809D01*
X117882235Y-94558157D01*
X118130000Y-94607440D01*
X120630000Y-94607440D01*
X120877765Y-94558157D01*
X121087809Y-94417809D01*
X121228157Y-94207765D01*
X121277440Y-93960000D01*
X121277440Y-91460000D01*
X121228157Y-91212235D01*
X121087809Y-91002191D01*
X120877765Y-90861843D01*
X120630000Y-90812560D01*
X118130000Y-90812560D01*
X117882235Y-90861843D01*
X117672191Y-91002191D01*
X117531843Y-91212235D01*
X117482560Y-91460000D01*
X115697000Y-91460000D01*
X115697000Y-87757000D01*
X127195587Y-87757000D01*
X126936953Y-88379860D01*
G36*
X208407000Y-88773000D02*
X210693000Y-88773000D01*
X210693000Y-88753000D01*
X210947000Y-88753000D01*
X210947000Y-88773000D01*
X210967000Y-88773000D01*
X210967000Y-89027000D01*
X210947000Y-89027000D01*
X210947000Y-89047000D01*
X210693000Y-89047000D01*
X210693000Y-89027000D01*
X208407000Y-89027000D01*
X208407000Y-89047000D01*
X208153000Y-89047000D01*
X208153000Y-89027000D01*
X208133000Y-89027000D01*
X208133000Y-88773000D01*
X208153000Y-88773000D01*
X208153000Y-88753000D01*
X208407000Y-88753000D01*
X208407000Y-88773000D01*
X208407000Y-88773000D01*
G37*
X208407000Y-88773000D02*
X210693000Y-88773000D01*
X210693000Y-88753000D01*
X210947000Y-88753000D01*
X210947000Y-88773000D01*
X210967000Y-88773000D01*
X210967000Y-89027000D01*
X210947000Y-89027000D01*
X210947000Y-89047000D01*
X210693000Y-89047000D01*
X210693000Y-89027000D01*
X208407000Y-89027000D01*
X208407000Y-89047000D01*
X208153000Y-89047000D01*
X208153000Y-89027000D01*
X208133000Y-89027000D01*
X208133000Y-88773000D01*
X208153000Y-88773000D01*
X208153000Y-88753000D01*
X208407000Y-88753000D01*
X208407000Y-88773000D01*
M02*
