M48
;DRILL file {KiCad no-vcs-found-undefined} date Mon Oct 24 11:27:49 2016
;FORMAT={3:3/ absolute / metric / keep zeros}
FMAT,2
METRIC,TZ
T1C0.400
T2C0.600
T3C0.701
T4C0.800
T5C1.001
T6C1.016
T7C1.300
%
G90
G05
M71
T1
X127000Y-123190
X130810Y-101600
X138430Y-127000
X147320Y-114300
X147320Y-132080
T2
X157480Y-105410
X157480Y-106680
X157480Y-107950
X157480Y-125730
X157480Y-127000
X157480Y-128270
X189230Y-105410
X189230Y-106680
X189230Y-107950
X189230Y-125730
X189230Y-127000
X189230Y-128270
T3
X147323Y-097791
X147323Y-107951
X147323Y-118111
X147323Y-128271
X179073Y-097791
X179073Y-107951
X179073Y-118111
X179073Y-128271
T4
X135890Y-096520
X135890Y-104140
X135890Y-109220
X135890Y-116840
X135890Y-124460
X135890Y-129540
X143510Y-096520
X143510Y-109220
X143510Y-116840
X143510Y-129540
X167640Y-096520
X167640Y-104140
X167640Y-109220
X167640Y-116840
X167640Y-124460
X167640Y-129540
X175260Y-096520
X175260Y-109220
X175260Y-116840
X175260Y-129540
T5
X151130Y-095250
X151130Y-115570
X152400Y-100330
X152400Y-107950
X152400Y-120650
X152400Y-128270
X153670Y-095250
X153670Y-115570
X157480Y-093980
X157480Y-101600
X157480Y-114300
X157480Y-121920
X182880Y-095250
X182880Y-115570
X184150Y-100330
X184150Y-107950
X184150Y-120650
X184150Y-128270
X185420Y-095250
X185420Y-115570
X189230Y-093980
X189230Y-101600
X189230Y-114300
X189230Y-121920
T6
X138430Y-088900
X140970Y-088900
X143510Y-088900
X146050Y-088900
X147320Y-137160
X148590Y-088900
X149860Y-137160
X151130Y-088900
X152400Y-137160
X153670Y-088900
X154940Y-137160
X156210Y-088900
X157480Y-137160
X160020Y-088900
X160020Y-137160
X162560Y-088900
X165100Y-088900
X165100Y-137160
X167640Y-088900
X167640Y-137160
X170180Y-088900
X170180Y-137160
X172720Y-088900
X172720Y-137160
X175260Y-088900
X175260Y-137160
X177800Y-088900
X177800Y-137160
X180340Y-137160
X182880Y-088900
X182880Y-137160
X185420Y-088900
X187960Y-088900
X187960Y-137160
X190500Y-088900
X190500Y-137160
X193040Y-088900
X193040Y-137160
X195580Y-088900
X195580Y-137160
X198120Y-088900
X198120Y-137160
X200660Y-088900
X200660Y-137160
X203200Y-137160
X205740Y-137160
X208280Y-088900
X208280Y-091440
X208280Y-093980
X208280Y-096520
X208280Y-099060
X208280Y-101600
X208280Y-104140
X208280Y-106680
X208280Y-109220
X208280Y-111760
X208280Y-114300
X208280Y-116840
X208280Y-119380
X208280Y-121920
X208280Y-124460
X208280Y-127000
X208280Y-129540
X208280Y-132080
X210820Y-088900
X210820Y-091440
X210820Y-093980
X210820Y-096520
X210820Y-099060
X210820Y-101600
X210820Y-104140
X210820Y-106680
X210820Y-109220
X210820Y-111760
X210820Y-114300
X210820Y-116840
X210820Y-119380
X210820Y-121920
X210820Y-124460
X210820Y-127000
X210820Y-129540
X210820Y-132080
T7
X119380Y-092710
X119380Y-097710
X119380Y-104140
X119380Y-109140
X119380Y-115570
X119380Y-120570
X119380Y-127000
X119380Y-132000
T0
M30
