G04 #@! TF.FileFunction,Soldermask,Bot*
%FSLAX46Y46*%
G04 Gerber Fmt 4.6, Leading zero omitted, Abs format (unit mm)*
G04 Created by KiCad (PCBNEW no-vcs-found-undefined) date Sun Oct 16 17:26:44 2016*
%MOMM*%
%LPD*%
G01*
G04 APERTURE LIST*
%ADD10C,0.100000*%
%ADD11C,1.924000*%
%ADD12C,4.337000*%
%ADD13O,1.924000X2.940000*%
%ADD14C,2.900000*%
%ADD15R,2.900000X2.900000*%
G04 APERTURE END LIST*
D10*
D11*
X210820000Y-132080000D03*
X208280000Y-132080000D03*
X210820000Y-129540000D03*
X208280000Y-129540000D03*
X210820000Y-127000000D03*
X208280000Y-127000000D03*
X210820000Y-124460000D03*
X208280000Y-124460000D03*
X210820000Y-121920000D03*
X208280000Y-121920000D03*
X210820000Y-119380000D03*
X208280000Y-119380000D03*
X210820000Y-116840000D03*
X208280000Y-116840000D03*
X210820000Y-114300000D03*
X208280000Y-114300000D03*
X210820000Y-111760000D03*
X208280000Y-111760000D03*
X210820000Y-109220000D03*
X208280000Y-109220000D03*
X210820000Y-106680000D03*
X208280000Y-106680000D03*
X210820000Y-104140000D03*
X208280000Y-104140000D03*
X208280000Y-101600000D03*
X210820000Y-101600000D03*
X210820000Y-88900000D03*
X208280000Y-88900000D03*
X210820000Y-99060000D03*
X208280000Y-99060000D03*
X210820000Y-96520000D03*
X208280000Y-96520000D03*
X210820000Y-93980000D03*
X208280000Y-93980000D03*
X210820000Y-91440000D03*
X208280000Y-91440000D03*
D12*
X128270000Y-137160000D03*
X129540000Y-88900000D03*
X204470000Y-88900000D03*
X210820000Y-137160000D03*
D13*
X152400000Y-137160000D03*
X138176000Y-88900000D03*
X140716000Y-88900000D03*
X143256000Y-88900000D03*
X145796000Y-88900000D03*
X148336000Y-88900000D03*
X150876000Y-88900000D03*
X153416000Y-88900000D03*
X155956000Y-88900000D03*
X160020000Y-88900000D03*
X162560000Y-88900000D03*
X165100000Y-88900000D03*
X167640000Y-88900000D03*
X170180000Y-88900000D03*
X172720000Y-88900000D03*
X175260000Y-88900000D03*
X177800000Y-88900000D03*
X147320000Y-137160000D03*
X149860000Y-137160000D03*
X154940000Y-137160000D03*
X157480000Y-137160000D03*
X160020000Y-137160000D03*
X170180000Y-137160000D03*
X167640000Y-137160000D03*
X165100000Y-137160000D03*
X172720000Y-137160000D03*
X175260000Y-137160000D03*
X177800000Y-137160000D03*
X195580000Y-137160000D03*
X193040000Y-137160000D03*
X190500000Y-137160000D03*
X180340000Y-137160000D03*
X182880000Y-137160000D03*
X187960000Y-137160000D03*
X198120000Y-137160000D03*
X200660000Y-137160000D03*
X203200000Y-137160000D03*
X205740000Y-137160000D03*
X200660000Y-88900000D03*
X198120000Y-88900000D03*
X195580000Y-88900000D03*
X193040000Y-88900000D03*
X190500000Y-88900000D03*
X187960000Y-88900000D03*
X185420000Y-88900000D03*
X182880000Y-88900000D03*
D14*
X119380000Y-97710000D03*
D15*
X119380000Y-92710000D03*
X119380000Y-104140000D03*
D14*
X119380000Y-109140000D03*
X119380000Y-120570000D03*
D15*
X119380000Y-115570000D03*
X119380000Y-127000000D03*
D14*
X119380000Y-132000000D03*
M02*
