G04 #@! TF.FileFunction,Legend,Top*
%FSLAX46Y46*%
G04 Gerber Fmt 4.6, Leading zero omitted, Abs format (unit mm)*
G04 Created by KiCad (PCBNEW no-vcs-found-undefined) date Mon Oct 24 11:28:01 2016*
%MOMM*%
%LPD*%
G01*
G04 APERTURE LIST*
%ADD10C,0.100000*%
%ADD11C,0.300000*%
%ADD12C,0.150000*%
%ADD13C,0.010000*%
G04 APERTURE END LIST*
D10*
D11*
X157233660Y-132758571D02*
X156822946Y-132044285D01*
X156376517Y-132758571D02*
X156564017Y-131258571D01*
X157135446Y-131258571D01*
X157269375Y-131330000D01*
X157331875Y-131401428D01*
X157385446Y-131544285D01*
X157358660Y-131758571D01*
X157269375Y-131901428D01*
X157189017Y-131972857D01*
X157037232Y-132044285D01*
X156465803Y-132044285D01*
X158456875Y-132687142D02*
X158305089Y-132758571D01*
X158019375Y-132758571D01*
X157885446Y-132687142D01*
X157831875Y-132544285D01*
X157903303Y-131972857D01*
X157992589Y-131830000D01*
X158144375Y-131758571D01*
X158430089Y-131758571D01*
X158564017Y-131830000D01*
X158617589Y-131972857D01*
X158599732Y-132115714D01*
X157867589Y-132258571D01*
X159376517Y-132758571D02*
X159242589Y-132687142D01*
X159189017Y-132544285D01*
X159349732Y-131258571D01*
X160590803Y-132758571D02*
X160689017Y-131972857D01*
X160635446Y-131830000D01*
X160501517Y-131758571D01*
X160215803Y-131758571D01*
X160064017Y-131830000D01*
X160599732Y-132687142D02*
X160447946Y-132758571D01*
X160090803Y-132758571D01*
X159956875Y-132687142D01*
X159903303Y-132544285D01*
X159921160Y-132401428D01*
X160010446Y-132258571D01*
X160162232Y-132187142D01*
X160519375Y-132187142D01*
X160671160Y-132115714D01*
X161287232Y-131758571D02*
X161519375Y-132758571D01*
X162001517Y-131758571D02*
X161519375Y-132758571D01*
X161331875Y-133115714D01*
X161251517Y-133187142D01*
X161099732Y-133258571D01*
X164465803Y-132615714D02*
X164385446Y-132687142D01*
X164162232Y-132758571D01*
X164019375Y-132758571D01*
X163814017Y-132687142D01*
X163689017Y-132544285D01*
X163635446Y-132401428D01*
X163599732Y-132115714D01*
X163626517Y-131901428D01*
X163733660Y-131615714D01*
X163822946Y-131472857D01*
X163983660Y-131330000D01*
X164206875Y-131258571D01*
X164349732Y-131258571D01*
X164555089Y-131330000D01*
X164617589Y-131401428D01*
X165305089Y-132758571D02*
X165171160Y-132687142D01*
X165108660Y-132615714D01*
X165055089Y-132472857D01*
X165108660Y-132044285D01*
X165197946Y-131901428D01*
X165278303Y-131830000D01*
X165430089Y-131758571D01*
X165644375Y-131758571D01*
X165778303Y-131830000D01*
X165840803Y-131901428D01*
X165894375Y-132044285D01*
X165840803Y-132472857D01*
X165751517Y-132615714D01*
X165671160Y-132687142D01*
X165519375Y-132758571D01*
X165305089Y-132758571D01*
X166572946Y-131758571D02*
X166447946Y-132758571D01*
X166555089Y-131901428D02*
X166635446Y-131830000D01*
X166787232Y-131758571D01*
X167001517Y-131758571D01*
X167135446Y-131830000D01*
X167189017Y-131972857D01*
X167090803Y-132758571D01*
X167715803Y-131758571D02*
X168287232Y-131758571D01*
X167992589Y-131258571D02*
X167831875Y-132544285D01*
X167885446Y-132687142D01*
X168019375Y-132758571D01*
X168162232Y-132758571D01*
X168662232Y-132758571D02*
X168787232Y-131758571D01*
X168751517Y-132044285D02*
X168840803Y-131901428D01*
X168921160Y-131830000D01*
X169072946Y-131758571D01*
X169215803Y-131758571D01*
X169805089Y-132758571D02*
X169671160Y-132687142D01*
X169608660Y-132615714D01*
X169555089Y-132472857D01*
X169608660Y-132044285D01*
X169697946Y-131901428D01*
X169778303Y-131830000D01*
X169930089Y-131758571D01*
X170144375Y-131758571D01*
X170278303Y-131830000D01*
X170340803Y-131901428D01*
X170394375Y-132044285D01*
X170340803Y-132472857D01*
X170251517Y-132615714D01*
X170171160Y-132687142D01*
X170019375Y-132758571D01*
X169805089Y-132758571D01*
X171162232Y-132758571D02*
X171028303Y-132687142D01*
X170974732Y-132544285D01*
X171135446Y-131258571D01*
X173733660Y-132758571D02*
X173322946Y-132044285D01*
X172876517Y-132758571D02*
X173064017Y-131258571D01*
X173635446Y-131258571D01*
X173769375Y-131330000D01*
X173831875Y-131401428D01*
X173885446Y-131544285D01*
X173858660Y-131758571D01*
X173769375Y-131901428D01*
X173689017Y-131972857D01*
X173537232Y-132044285D01*
X172965803Y-132044285D01*
X174956875Y-132687142D02*
X174805089Y-132758571D01*
X174519375Y-132758571D01*
X174385446Y-132687142D01*
X174331875Y-132544285D01*
X174403303Y-131972857D01*
X174492589Y-131830000D01*
X174644375Y-131758571D01*
X174930089Y-131758571D01*
X175064017Y-131830000D01*
X175117589Y-131972857D01*
X175099732Y-132115714D01*
X174367589Y-132258571D01*
X175876517Y-132758571D02*
X175742589Y-132687142D01*
X175689017Y-132544285D01*
X175849732Y-131258571D01*
X177090803Y-132758571D02*
X177189017Y-131972857D01*
X177135446Y-131830000D01*
X177001517Y-131758571D01*
X176715803Y-131758571D01*
X176564017Y-131830000D01*
X177099732Y-132687142D02*
X176947946Y-132758571D01*
X176590803Y-132758571D01*
X176456875Y-132687142D01*
X176403303Y-132544285D01*
X176421160Y-132401428D01*
X176510446Y-132258571D01*
X176662232Y-132187142D01*
X177019375Y-132187142D01*
X177171160Y-132115714D01*
X177787232Y-131758571D02*
X178019375Y-132758571D01*
X178501517Y-131758571D02*
X178019375Y-132758571D01*
X177831875Y-133115714D01*
X177751517Y-133187142D01*
X177599732Y-133258571D01*
X180028303Y-132687142D02*
X180233660Y-132758571D01*
X180590803Y-132758571D01*
X180742589Y-132687142D01*
X180822946Y-132615714D01*
X180912232Y-132472857D01*
X180930089Y-132330000D01*
X180876517Y-132187142D01*
X180814017Y-132115714D01*
X180680089Y-132044285D01*
X180403303Y-131972857D01*
X180269375Y-131901428D01*
X180206875Y-131830000D01*
X180153303Y-131687142D01*
X180171160Y-131544285D01*
X180260446Y-131401428D01*
X180340803Y-131330000D01*
X180492589Y-131258571D01*
X180849732Y-131258571D01*
X181055089Y-131330000D01*
X181519375Y-132758571D02*
X181706875Y-131258571D01*
X182162232Y-132758571D02*
X182260446Y-131972857D01*
X182206875Y-131830000D01*
X182072946Y-131758571D01*
X181858660Y-131758571D01*
X181706875Y-131830000D01*
X181626517Y-131901428D01*
X182876517Y-132758571D02*
X183001517Y-131758571D01*
X183064017Y-131258571D02*
X182983660Y-131330000D01*
X183046160Y-131401428D01*
X183126517Y-131330000D01*
X183064017Y-131258571D01*
X183046160Y-131401428D01*
X184171160Y-132687142D02*
X184019375Y-132758571D01*
X183733660Y-132758571D01*
X183599732Y-132687142D01*
X183546160Y-132544285D01*
X183617589Y-131972857D01*
X183706875Y-131830000D01*
X183858660Y-131758571D01*
X184144375Y-131758571D01*
X184278303Y-131830000D01*
X184331875Y-131972857D01*
X184314017Y-132115714D01*
X183581875Y-132258571D01*
X185090803Y-132758571D02*
X184956875Y-132687142D01*
X184903303Y-132544285D01*
X185064017Y-131258571D01*
X186305089Y-132758571D02*
X186492589Y-131258571D01*
X186314017Y-132687142D02*
X186162232Y-132758571D01*
X185876517Y-132758571D01*
X185742589Y-132687142D01*
X185680089Y-132615714D01*
X185626517Y-132472857D01*
X185680089Y-132044285D01*
X185769375Y-131901428D01*
X185849732Y-131830000D01*
X186001517Y-131758571D01*
X186287232Y-131758571D01*
X186421160Y-131830000D01*
X117165714Y-89435714D02*
X117094285Y-89507142D01*
X116880000Y-89578571D01*
X116737142Y-89578571D01*
X116522857Y-89507142D01*
X116380000Y-89364285D01*
X116308571Y-89221428D01*
X116237142Y-88935714D01*
X116237142Y-88721428D01*
X116308571Y-88435714D01*
X116380000Y-88292857D01*
X116522857Y-88150000D01*
X116737142Y-88078571D01*
X116880000Y-88078571D01*
X117094285Y-88150000D01*
X117165714Y-88221428D01*
X118022857Y-89578571D02*
X117880000Y-89507142D01*
X117808571Y-89435714D01*
X117737142Y-89292857D01*
X117737142Y-88864285D01*
X117808571Y-88721428D01*
X117880000Y-88650000D01*
X118022857Y-88578571D01*
X118237142Y-88578571D01*
X118380000Y-88650000D01*
X118451428Y-88721428D01*
X118522857Y-88864285D01*
X118522857Y-89292857D01*
X118451428Y-89435714D01*
X118380000Y-89507142D01*
X118237142Y-89578571D01*
X118022857Y-89578571D01*
X119165714Y-89578571D02*
X119165714Y-88578571D01*
X119165714Y-88721428D02*
X119237142Y-88650000D01*
X119380000Y-88578571D01*
X119594285Y-88578571D01*
X119737142Y-88650000D01*
X119808571Y-88792857D01*
X119808571Y-89578571D01*
X119808571Y-88792857D02*
X119880000Y-88650000D01*
X120022857Y-88578571D01*
X120237142Y-88578571D01*
X120380000Y-88650000D01*
X120451428Y-88792857D01*
X120451428Y-89578571D01*
X121165714Y-89578571D02*
X121165714Y-88578571D01*
X121165714Y-88721428D02*
X121237142Y-88650000D01*
X121380000Y-88578571D01*
X121594285Y-88578571D01*
X121737142Y-88650000D01*
X121808571Y-88792857D01*
X121808571Y-89578571D01*
X121808571Y-88792857D02*
X121880000Y-88650000D01*
X122022857Y-88578571D01*
X122237142Y-88578571D01*
X122380000Y-88650000D01*
X122451428Y-88792857D01*
X122451428Y-89578571D01*
D12*
X124580000Y-90210000D02*
X114780000Y-90210000D01*
X124580000Y-100210000D02*
X124580000Y-90210000D01*
X114780000Y-100210000D02*
X124580000Y-100210000D01*
X114780000Y-90210000D02*
X114780000Y-100210000D01*
X115280000Y-90210000D02*
X115280000Y-100210000D01*
X121680000Y-90210000D02*
X121680000Y-100210000D01*
X116780000Y-90210000D02*
X116780000Y-100210000D01*
X121280000Y-92710000D02*
G75*
G03X121280000Y-92710000I-2000000J0D01*
G01*
X121280000Y-97710000D02*
G75*
G03X121280000Y-97710000I-2000000J0D01*
G01*
X115280000Y-95210000D02*
X114780000Y-95210000D01*
X115280000Y-106640000D02*
X114780000Y-106640000D01*
X121280000Y-109140000D02*
G75*
G03X121280000Y-109140000I-2000000J0D01*
G01*
X121280000Y-104140000D02*
G75*
G03X121280000Y-104140000I-2000000J0D01*
G01*
X116780000Y-101640000D02*
X116780000Y-111640000D01*
X121680000Y-101640000D02*
X121680000Y-111640000D01*
X115280000Y-101640000D02*
X115280000Y-111640000D01*
X114780000Y-101640000D02*
X114780000Y-111640000D01*
X114780000Y-111640000D02*
X124580000Y-111640000D01*
X124580000Y-111640000D02*
X124580000Y-101640000D01*
X124580000Y-101640000D02*
X114780000Y-101640000D01*
X124580000Y-113070000D02*
X114780000Y-113070000D01*
X124580000Y-123070000D02*
X124580000Y-113070000D01*
X114780000Y-123070000D02*
X124580000Y-123070000D01*
X114780000Y-113070000D02*
X114780000Y-123070000D01*
X115280000Y-113070000D02*
X115280000Y-123070000D01*
X121680000Y-113070000D02*
X121680000Y-123070000D01*
X116780000Y-113070000D02*
X116780000Y-123070000D01*
X121280000Y-115570000D02*
G75*
G03X121280000Y-115570000I-2000000J0D01*
G01*
X121280000Y-120570000D02*
G75*
G03X121280000Y-120570000I-2000000J0D01*
G01*
X115280000Y-118070000D02*
X114780000Y-118070000D01*
X115280000Y-129500000D02*
X114780000Y-129500000D01*
X121280000Y-132000000D02*
G75*
G03X121280000Y-132000000I-2000000J0D01*
G01*
X121280000Y-127000000D02*
G75*
G03X121280000Y-127000000I-2000000J0D01*
G01*
X116780000Y-124500000D02*
X116780000Y-134500000D01*
X121680000Y-124500000D02*
X121680000Y-134500000D01*
X115280000Y-124500000D02*
X115280000Y-134500000D01*
X114780000Y-124500000D02*
X114780000Y-134500000D01*
X114780000Y-134500000D02*
X124580000Y-134500000D01*
X124580000Y-134500000D02*
X124580000Y-124500000D01*
X124580000Y-124500000D02*
X114780000Y-124500000D01*
X136880000Y-90450000D02*
X136880000Y-87350000D01*
X138430000Y-90450000D02*
X136880000Y-90450000D01*
X139700000Y-87630000D02*
X139700000Y-90170000D01*
X136880000Y-87350000D02*
X138430000Y-87350000D01*
X157480000Y-90170000D02*
X139700000Y-90170000D01*
X157480000Y-87630000D02*
X157480000Y-90170000D01*
X139700000Y-87630000D02*
X157480000Y-87630000D01*
X161290000Y-87630000D02*
X179070000Y-87630000D01*
X179070000Y-87630000D02*
X179070000Y-90170000D01*
X179070000Y-90170000D02*
X161290000Y-90170000D01*
X158470000Y-87350000D02*
X160020000Y-87350000D01*
X161290000Y-87630000D02*
X161290000Y-90170000D01*
X160020000Y-90450000D02*
X158470000Y-90450000D01*
X158470000Y-90450000D02*
X158470000Y-87350000D01*
X181330000Y-90450000D02*
X181330000Y-87350000D01*
X182880000Y-90450000D02*
X181330000Y-90450000D01*
X184150000Y-87630000D02*
X184150000Y-90170000D01*
X181330000Y-87350000D02*
X182880000Y-87350000D01*
X201930000Y-90170000D02*
X184150000Y-90170000D01*
X201930000Y-87630000D02*
X201930000Y-90170000D01*
X184150000Y-87630000D02*
X201930000Y-87630000D01*
X166370000Y-135890000D02*
X184150000Y-135890000D01*
X184150000Y-135890000D02*
X184150000Y-138430000D01*
X184150000Y-138430000D02*
X166370000Y-138430000D01*
X163550000Y-135610000D02*
X165100000Y-135610000D01*
X166370000Y-135890000D02*
X166370000Y-138430000D01*
X165100000Y-138710000D02*
X163550000Y-138710000D01*
X163550000Y-138710000D02*
X163550000Y-135610000D01*
X186410000Y-138710000D02*
X186410000Y-135610000D01*
X187960000Y-138710000D02*
X186410000Y-138710000D01*
X189230000Y-135890000D02*
X189230000Y-138430000D01*
X186410000Y-135610000D02*
X187960000Y-135610000D01*
X207010000Y-138430000D02*
X189230000Y-138430000D01*
X207010000Y-135890000D02*
X207010000Y-138430000D01*
X189230000Y-135890000D02*
X207010000Y-135890000D01*
X206730000Y-87350000D02*
X209830000Y-87350000D01*
X206730000Y-88900000D02*
X206730000Y-87350000D01*
X209550000Y-90170000D02*
X207010000Y-90170000D01*
X209830000Y-87350000D02*
X209830000Y-88900000D01*
X207010000Y-133350000D02*
X207010000Y-90170000D01*
X209550000Y-133350000D02*
X207010000Y-133350000D01*
X209550000Y-90170000D02*
X209550000Y-133350000D01*
X212090000Y-90170000D02*
X212090000Y-133350000D01*
X212090000Y-133350000D02*
X209550000Y-133350000D01*
X209550000Y-133350000D02*
X209550000Y-90170000D01*
X212370000Y-87350000D02*
X212370000Y-88900000D01*
X212090000Y-90170000D02*
X209550000Y-90170000D01*
X209270000Y-88900000D02*
X209270000Y-87350000D01*
X209270000Y-87350000D02*
X212370000Y-87350000D01*
X145770000Y-138710000D02*
X145770000Y-135610000D01*
X147320000Y-138710000D02*
X145770000Y-138710000D01*
X148590000Y-135890000D02*
X148590000Y-138430000D01*
X145770000Y-135610000D02*
X147320000Y-135610000D01*
X161290000Y-138430000D02*
X148590000Y-138430000D01*
X161290000Y-135890000D02*
X161290000Y-138430000D01*
X148590000Y-135890000D02*
X161290000Y-135890000D01*
X153869000Y-114256000D02*
X153869000Y-114456000D01*
X153869000Y-116850000D02*
X153869000Y-116670000D01*
X150641256Y-116539643D02*
G75*
G03X153869000Y-116856000I1727744J1003643D01*
G01*
X151316994Y-116669068D02*
G75*
G03X153420000Y-116670000I1052006J1133068D01*
G01*
X153856220Y-114229274D02*
G75*
G03X150619000Y-114576000I-1497220J-1306726D01*
G01*
X153382889Y-114456747D02*
G75*
G03X151335000Y-114476000I-1013889J-1079253D01*
G01*
X148084540Y-120904520D02*
X147322540Y-120904520D01*
X148084540Y-125476520D02*
X148084540Y-120904520D01*
X146560540Y-125476520D02*
X148084540Y-125476520D01*
X146560540Y-120904520D02*
X146560540Y-125476520D01*
X147322540Y-120904520D02*
X146560540Y-120904520D01*
X148084540Y-121158520D02*
X146560540Y-121158520D01*
X148084540Y-121412520D02*
X146560540Y-121412520D01*
X147322540Y-121031520D02*
X147322540Y-119507520D01*
X147322540Y-125476520D02*
X147322540Y-126873520D01*
X185619000Y-93936000D02*
X185619000Y-94136000D01*
X185619000Y-96530000D02*
X185619000Y-96350000D01*
X182391256Y-96219643D02*
G75*
G03X185619000Y-96536000I1727744J1003643D01*
G01*
X183066994Y-96349068D02*
G75*
G03X185170000Y-96350000I1052006J1133068D01*
G01*
X185606220Y-93909274D02*
G75*
G03X182369000Y-94256000I-1497220J-1306726D01*
G01*
X185132889Y-94136747D02*
G75*
G03X183085000Y-94156000I-1013889J-1079253D01*
G01*
X179072540Y-105156520D02*
X179072540Y-106553520D01*
X179072540Y-100711520D02*
X179072540Y-99187520D01*
X179834540Y-101092520D02*
X178310540Y-101092520D01*
X179834540Y-100838520D02*
X178310540Y-100838520D01*
X179072540Y-100584520D02*
X178310540Y-100584520D01*
X178310540Y-100584520D02*
X178310540Y-105156520D01*
X178310540Y-105156520D02*
X179834540Y-105156520D01*
X179834540Y-105156520D02*
X179834540Y-100584520D01*
X179834540Y-100584520D02*
X179072540Y-100584520D01*
X151130000Y-121920000D02*
X153670000Y-121920000D01*
X151130000Y-127000000D02*
X151130000Y-121920000D01*
X153670000Y-127000000D02*
X151130000Y-127000000D01*
X153670000Y-121920000D02*
X153670000Y-127000000D01*
X153869000Y-93936000D02*
X153869000Y-94136000D01*
X153869000Y-96530000D02*
X153869000Y-96350000D01*
X150641256Y-96219643D02*
G75*
G03X153869000Y-96536000I1727744J1003643D01*
G01*
X151316994Y-96349068D02*
G75*
G03X153420000Y-96350000I1052006J1133068D01*
G01*
X153856220Y-93909274D02*
G75*
G03X150619000Y-94256000I-1497220J-1306726D01*
G01*
X153382889Y-94136747D02*
G75*
G03X151335000Y-94156000I-1013889J-1079253D01*
G01*
X148084540Y-100584520D02*
X147322540Y-100584520D01*
X148084540Y-105156520D02*
X148084540Y-100584520D01*
X146560540Y-105156520D02*
X148084540Y-105156520D01*
X146560540Y-100584520D02*
X146560540Y-105156520D01*
X147322540Y-100584520D02*
X146560540Y-100584520D01*
X148084540Y-100838520D02*
X146560540Y-100838520D01*
X148084540Y-101092520D02*
X146560540Y-101092520D01*
X147322540Y-100711520D02*
X147322540Y-99187520D01*
X147322540Y-105156520D02*
X147322540Y-106553520D01*
X185132889Y-114456747D02*
G75*
G03X183085000Y-114476000I-1013889J-1079253D01*
G01*
X185606220Y-114229274D02*
G75*
G03X182369000Y-114576000I-1497220J-1306726D01*
G01*
X183066994Y-116669068D02*
G75*
G03X185170000Y-116670000I1052006J1133068D01*
G01*
X182391256Y-116539643D02*
G75*
G03X185619000Y-116856000I1727744J1003643D01*
G01*
X185619000Y-116850000D02*
X185619000Y-116670000D01*
X185619000Y-114256000D02*
X185619000Y-114456000D01*
X179834540Y-120904520D02*
X179072540Y-120904520D01*
X179834540Y-125476520D02*
X179834540Y-120904520D01*
X178310540Y-125476520D02*
X179834540Y-125476520D01*
X178310540Y-120904520D02*
X178310540Y-125476520D01*
X179072540Y-120904520D02*
X178310540Y-120904520D01*
X179834540Y-121158520D02*
X178310540Y-121158520D01*
X179834540Y-121412520D02*
X178310540Y-121412520D01*
X179072540Y-121031520D02*
X179072540Y-119507520D01*
X179072540Y-125476520D02*
X179072540Y-126873520D01*
X159180000Y-128700000D02*
X159180000Y-125300000D01*
X159177056Y-128697056D02*
G75*
G02X155080000Y-127000000I-1697056J1697056D01*
G01*
X159177056Y-125302944D02*
G75*
G03X155080000Y-127000000I-1697056J-1697056D01*
G01*
X159177056Y-104982944D02*
G75*
G03X155080000Y-106680000I-1697056J-1697056D01*
G01*
X159177056Y-108377056D02*
G75*
G02X155080000Y-106680000I-1697056J1697056D01*
G01*
X159180000Y-108380000D02*
X159180000Y-104980000D01*
X190927056Y-125302944D02*
G75*
G03X186830000Y-127000000I-1697056J-1697056D01*
G01*
X190927056Y-128697056D02*
G75*
G02X186830000Y-127000000I-1697056J1697056D01*
G01*
X190930000Y-128700000D02*
X190930000Y-125300000D01*
X190930000Y-108380000D02*
X190930000Y-104980000D01*
X190927056Y-108377056D02*
G75*
G02X186830000Y-106680000I-1697056J1697056D01*
G01*
X190927056Y-104982944D02*
G75*
G03X186830000Y-106680000I-1697056J-1697056D01*
G01*
X156210000Y-120650000D02*
X156210000Y-115570000D01*
X156210000Y-115570000D02*
X158750000Y-115570000D01*
X158750000Y-115570000D02*
X158750000Y-120650000D01*
X158750000Y-120650000D02*
X156210000Y-120650000D01*
X151130000Y-101600000D02*
X153670000Y-101600000D01*
X151130000Y-106680000D02*
X151130000Y-101600000D01*
X153670000Y-106680000D02*
X151130000Y-106680000D01*
X153670000Y-101600000D02*
X153670000Y-106680000D01*
X158750000Y-95250000D02*
X158750000Y-100330000D01*
X158750000Y-100330000D02*
X156210000Y-100330000D01*
X156210000Y-100330000D02*
X156210000Y-95250000D01*
X156210000Y-95250000D02*
X158750000Y-95250000D01*
X190500000Y-120650000D02*
X187960000Y-120650000D01*
X190500000Y-115570000D02*
X190500000Y-120650000D01*
X187960000Y-115570000D02*
X190500000Y-115570000D01*
X187960000Y-120650000D02*
X187960000Y-115570000D01*
X190500000Y-100330000D02*
X187960000Y-100330000D01*
X190500000Y-95250000D02*
X190500000Y-100330000D01*
X187960000Y-95250000D02*
X190500000Y-95250000D01*
X187960000Y-100330000D02*
X187960000Y-95250000D01*
X185420000Y-121920000D02*
X185420000Y-127000000D01*
X185420000Y-127000000D02*
X182880000Y-127000000D01*
X182880000Y-127000000D02*
X182880000Y-121920000D01*
X182880000Y-121920000D02*
X185420000Y-121920000D01*
X185420000Y-101600000D02*
X185420000Y-106680000D01*
X185420000Y-106680000D02*
X182880000Y-106680000D01*
X182880000Y-106680000D02*
X182880000Y-101600000D01*
X182880000Y-101600000D02*
X185420000Y-101600000D01*
X134620000Y-115570000D02*
X134620000Y-130810000D01*
X144780000Y-115570000D02*
X134620000Y-115570000D01*
X144780000Y-130810000D02*
X144780000Y-115570000D01*
X134620000Y-130810000D02*
X144780000Y-130810000D01*
X142494000Y-121666000D02*
X142494000Y-125603000D01*
X141224000Y-121666000D02*
X142494000Y-121666000D01*
X141224000Y-125603000D02*
X141224000Y-121666000D01*
X142494000Y-125603000D02*
X141224000Y-125603000D01*
X142367000Y-124206000D02*
X141224000Y-123063000D01*
X141859000Y-116967000D02*
X142113000Y-116967000D01*
X141859000Y-121666000D02*
X141859000Y-116967000D01*
X141859000Y-129540000D02*
X142240000Y-129540000D01*
X141859000Y-125730000D02*
X141859000Y-129540000D01*
X134620000Y-95250000D02*
X134620000Y-110490000D01*
X144780000Y-95250000D02*
X134620000Y-95250000D01*
X144780000Y-110490000D02*
X144780000Y-95250000D01*
X134620000Y-110490000D02*
X144780000Y-110490000D01*
X142494000Y-101346000D02*
X142494000Y-105283000D01*
X141224000Y-101346000D02*
X142494000Y-101346000D01*
X141224000Y-105283000D02*
X141224000Y-101346000D01*
X142494000Y-105283000D02*
X141224000Y-105283000D01*
X142367000Y-103886000D02*
X141224000Y-102743000D01*
X141859000Y-96647000D02*
X142113000Y-96647000D01*
X141859000Y-101346000D02*
X141859000Y-96647000D01*
X141859000Y-109220000D02*
X142240000Y-109220000D01*
X141859000Y-105410000D02*
X141859000Y-109220000D01*
X173609000Y-125730000D02*
X173609000Y-129540000D01*
X173609000Y-129540000D02*
X173990000Y-129540000D01*
X173609000Y-121666000D02*
X173609000Y-116967000D01*
X173609000Y-116967000D02*
X173863000Y-116967000D01*
X174117000Y-124206000D02*
X172974000Y-123063000D01*
X174244000Y-125603000D02*
X172974000Y-125603000D01*
X172974000Y-125603000D02*
X172974000Y-121666000D01*
X172974000Y-121666000D02*
X174244000Y-121666000D01*
X174244000Y-121666000D02*
X174244000Y-125603000D01*
X166370000Y-130810000D02*
X176530000Y-130810000D01*
X176530000Y-130810000D02*
X176530000Y-115570000D01*
X176530000Y-115570000D02*
X166370000Y-115570000D01*
X166370000Y-115570000D02*
X166370000Y-130810000D01*
X173609000Y-105410000D02*
X173609000Y-109220000D01*
X173609000Y-109220000D02*
X173990000Y-109220000D01*
X173609000Y-101346000D02*
X173609000Y-96647000D01*
X173609000Y-96647000D02*
X173863000Y-96647000D01*
X174117000Y-103886000D02*
X172974000Y-102743000D01*
X174244000Y-105283000D02*
X172974000Y-105283000D01*
X172974000Y-105283000D02*
X172974000Y-101346000D01*
X172974000Y-101346000D02*
X174244000Y-101346000D01*
X174244000Y-101346000D02*
X174244000Y-105283000D01*
X166370000Y-110490000D02*
X176530000Y-110490000D01*
X176530000Y-110490000D02*
X176530000Y-95250000D01*
X176530000Y-95250000D02*
X166370000Y-95250000D01*
X166370000Y-95250000D02*
X166370000Y-110490000D01*
D13*
G36*
X191998629Y-96249066D02*
X192038111Y-96249467D01*
X192153800Y-96252259D01*
X192250689Y-96260550D01*
X192332081Y-96275232D01*
X192401277Y-96297193D01*
X192461580Y-96327322D01*
X192516292Y-96366510D01*
X192535833Y-96383532D01*
X192568250Y-96423363D01*
X192597480Y-96477413D01*
X192620009Y-96537323D01*
X192632321Y-96594739D01*
X192633600Y-96615956D01*
X192625583Y-96674769D01*
X192604101Y-96739013D01*
X192573001Y-96799821D01*
X192536134Y-96848330D01*
X192530146Y-96854182D01*
X192479421Y-96895321D01*
X192423875Y-96927435D01*
X192360304Y-96951365D01*
X192285506Y-96967953D01*
X192196278Y-96978041D01*
X192089418Y-96982469D01*
X192040472Y-96982845D01*
X191978238Y-96982545D01*
X191934472Y-96981292D01*
X191905069Y-96978554D01*
X191885921Y-96973801D01*
X191872923Y-96966501D01*
X191865955Y-96960267D01*
X191859374Y-96952694D01*
X191854212Y-96942924D01*
X191850297Y-96928340D01*
X191847457Y-96906326D01*
X191845520Y-96874264D01*
X191844316Y-96829536D01*
X191843672Y-96769526D01*
X191843417Y-96691617D01*
X191843378Y-96615956D01*
X191843130Y-96515041D01*
X191843183Y-96434427D01*
X191844143Y-96395822D01*
X191990133Y-96395822D01*
X191990133Y-96836089D01*
X192083266Y-96836004D01*
X192139307Y-96834396D01*
X192198001Y-96830256D01*
X192246972Y-96824464D01*
X192248462Y-96824226D01*
X192327608Y-96805090D01*
X192388998Y-96775287D01*
X192435695Y-96732878D01*
X192465365Y-96686961D01*
X192483647Y-96636026D01*
X192482229Y-96588200D01*
X192461012Y-96536933D01*
X192419511Y-96483899D01*
X192362002Y-96444600D01*
X192287250Y-96418331D01*
X192237292Y-96409035D01*
X192180584Y-96402507D01*
X192120481Y-96397782D01*
X192069361Y-96395817D01*
X192066333Y-96395808D01*
X191990133Y-96395822D01*
X191844143Y-96395822D01*
X191844740Y-96371851D01*
X191849002Y-96325055D01*
X191857170Y-96291778D01*
X191870444Y-96269759D01*
X191890026Y-96256739D01*
X191917117Y-96250457D01*
X191952918Y-96248653D01*
X191998629Y-96249066D01*
X191998629Y-96249066D01*
G37*
X191998629Y-96249066D02*
X192038111Y-96249467D01*
X192153800Y-96252259D01*
X192250689Y-96260550D01*
X192332081Y-96275232D01*
X192401277Y-96297193D01*
X192461580Y-96327322D01*
X192516292Y-96366510D01*
X192535833Y-96383532D01*
X192568250Y-96423363D01*
X192597480Y-96477413D01*
X192620009Y-96537323D01*
X192632321Y-96594739D01*
X192633600Y-96615956D01*
X192625583Y-96674769D01*
X192604101Y-96739013D01*
X192573001Y-96799821D01*
X192536134Y-96848330D01*
X192530146Y-96854182D01*
X192479421Y-96895321D01*
X192423875Y-96927435D01*
X192360304Y-96951365D01*
X192285506Y-96967953D01*
X192196278Y-96978041D01*
X192089418Y-96982469D01*
X192040472Y-96982845D01*
X191978238Y-96982545D01*
X191934472Y-96981292D01*
X191905069Y-96978554D01*
X191885921Y-96973801D01*
X191872923Y-96966501D01*
X191865955Y-96960267D01*
X191859374Y-96952694D01*
X191854212Y-96942924D01*
X191850297Y-96928340D01*
X191847457Y-96906326D01*
X191845520Y-96874264D01*
X191844316Y-96829536D01*
X191843672Y-96769526D01*
X191843417Y-96691617D01*
X191843378Y-96615956D01*
X191843130Y-96515041D01*
X191843183Y-96434427D01*
X191844143Y-96395822D01*
X191990133Y-96395822D01*
X191990133Y-96836089D01*
X192083266Y-96836004D01*
X192139307Y-96834396D01*
X192198001Y-96830256D01*
X192246972Y-96824464D01*
X192248462Y-96824226D01*
X192327608Y-96805090D01*
X192388998Y-96775287D01*
X192435695Y-96732878D01*
X192465365Y-96686961D01*
X192483647Y-96636026D01*
X192482229Y-96588200D01*
X192461012Y-96536933D01*
X192419511Y-96483899D01*
X192362002Y-96444600D01*
X192287250Y-96418331D01*
X192237292Y-96409035D01*
X192180584Y-96402507D01*
X192120481Y-96397782D01*
X192069361Y-96395817D01*
X192066333Y-96395808D01*
X191990133Y-96395822D01*
X191844143Y-96395822D01*
X191844740Y-96371851D01*
X191849002Y-96325055D01*
X191857170Y-96291778D01*
X191870444Y-96269759D01*
X191890026Y-96256739D01*
X191917117Y-96250457D01*
X191952918Y-96248653D01*
X191998629Y-96249066D01*
G36*
X193407206Y-96249146D02*
X193476614Y-96249518D01*
X193529003Y-96250385D01*
X193567153Y-96251946D01*
X193593841Y-96254403D01*
X193611847Y-96257957D01*
X193623951Y-96262810D01*
X193632931Y-96269161D01*
X193636182Y-96272084D01*
X193655957Y-96303142D01*
X193659518Y-96338828D01*
X193646509Y-96370510D01*
X193640494Y-96376913D01*
X193630765Y-96383121D01*
X193615099Y-96387910D01*
X193590592Y-96391514D01*
X193554339Y-96394164D01*
X193503435Y-96396095D01*
X193434974Y-96397539D01*
X193372383Y-96398418D01*
X193124666Y-96401467D01*
X193121281Y-96466378D01*
X193117895Y-96531289D01*
X193286042Y-96531289D01*
X193359041Y-96531919D01*
X193412483Y-96534553D01*
X193449372Y-96540309D01*
X193472712Y-96550304D01*
X193485506Y-96565656D01*
X193490758Y-96587482D01*
X193491555Y-96607738D01*
X193489077Y-96632592D01*
X193479723Y-96650906D01*
X193460617Y-96663637D01*
X193428882Y-96671741D01*
X193381641Y-96676176D01*
X193316017Y-96677899D01*
X193280199Y-96678045D01*
X193119022Y-96678045D01*
X193119022Y-96836089D01*
X193367378Y-96836089D01*
X193448787Y-96836202D01*
X193510658Y-96836712D01*
X193556032Y-96837870D01*
X193587946Y-96839930D01*
X193609441Y-96843146D01*
X193623557Y-96847772D01*
X193633332Y-96854059D01*
X193638311Y-96858667D01*
X193655390Y-96885560D01*
X193660889Y-96909467D01*
X193653037Y-96938667D01*
X193638311Y-96960267D01*
X193630454Y-96967066D01*
X193620312Y-96972346D01*
X193605156Y-96976298D01*
X193582259Y-96979113D01*
X193548891Y-96980982D01*
X193502325Y-96982098D01*
X193439833Y-96982651D01*
X193358686Y-96982833D01*
X193316578Y-96982845D01*
X193226402Y-96982765D01*
X193156076Y-96982398D01*
X193102871Y-96981552D01*
X193064060Y-96980036D01*
X193036913Y-96977659D01*
X193018702Y-96974229D01*
X193006700Y-96969554D01*
X192998178Y-96963444D01*
X192994844Y-96960267D01*
X192988245Y-96952670D01*
X192983073Y-96942870D01*
X192979154Y-96928239D01*
X192976316Y-96906152D01*
X192974385Y-96873982D01*
X192973188Y-96829103D01*
X192972552Y-96768889D01*
X192972303Y-96690713D01*
X192972266Y-96617923D01*
X192972300Y-96524707D01*
X192972535Y-96451431D01*
X192973170Y-96395458D01*
X192974406Y-96354151D01*
X192976444Y-96324872D01*
X192979483Y-96304984D01*
X192983723Y-96291850D01*
X192989365Y-96282832D01*
X192996609Y-96275293D01*
X192998394Y-96273612D01*
X193007055Y-96266172D01*
X193017118Y-96260409D01*
X193031375Y-96256112D01*
X193052617Y-96253064D01*
X193083636Y-96251051D01*
X193127223Y-96249860D01*
X193186169Y-96249275D01*
X193263266Y-96249083D01*
X193317999Y-96249067D01*
X193407206Y-96249146D01*
X193407206Y-96249146D01*
G37*
X193407206Y-96249146D02*
X193476614Y-96249518D01*
X193529003Y-96250385D01*
X193567153Y-96251946D01*
X193593841Y-96254403D01*
X193611847Y-96257957D01*
X193623951Y-96262810D01*
X193632931Y-96269161D01*
X193636182Y-96272084D01*
X193655957Y-96303142D01*
X193659518Y-96338828D01*
X193646509Y-96370510D01*
X193640494Y-96376913D01*
X193630765Y-96383121D01*
X193615099Y-96387910D01*
X193590592Y-96391514D01*
X193554339Y-96394164D01*
X193503435Y-96396095D01*
X193434974Y-96397539D01*
X193372383Y-96398418D01*
X193124666Y-96401467D01*
X193121281Y-96466378D01*
X193117895Y-96531289D01*
X193286042Y-96531289D01*
X193359041Y-96531919D01*
X193412483Y-96534553D01*
X193449372Y-96540309D01*
X193472712Y-96550304D01*
X193485506Y-96565656D01*
X193490758Y-96587482D01*
X193491555Y-96607738D01*
X193489077Y-96632592D01*
X193479723Y-96650906D01*
X193460617Y-96663637D01*
X193428882Y-96671741D01*
X193381641Y-96676176D01*
X193316017Y-96677899D01*
X193280199Y-96678045D01*
X193119022Y-96678045D01*
X193119022Y-96836089D01*
X193367378Y-96836089D01*
X193448787Y-96836202D01*
X193510658Y-96836712D01*
X193556032Y-96837870D01*
X193587946Y-96839930D01*
X193609441Y-96843146D01*
X193623557Y-96847772D01*
X193633332Y-96854059D01*
X193638311Y-96858667D01*
X193655390Y-96885560D01*
X193660889Y-96909467D01*
X193653037Y-96938667D01*
X193638311Y-96960267D01*
X193630454Y-96967066D01*
X193620312Y-96972346D01*
X193605156Y-96976298D01*
X193582259Y-96979113D01*
X193548891Y-96980982D01*
X193502325Y-96982098D01*
X193439833Y-96982651D01*
X193358686Y-96982833D01*
X193316578Y-96982845D01*
X193226402Y-96982765D01*
X193156076Y-96982398D01*
X193102871Y-96981552D01*
X193064060Y-96980036D01*
X193036913Y-96977659D01*
X193018702Y-96974229D01*
X193006700Y-96969554D01*
X192998178Y-96963444D01*
X192994844Y-96960267D01*
X192988245Y-96952670D01*
X192983073Y-96942870D01*
X192979154Y-96928239D01*
X192976316Y-96906152D01*
X192974385Y-96873982D01*
X192973188Y-96829103D01*
X192972552Y-96768889D01*
X192972303Y-96690713D01*
X192972266Y-96617923D01*
X192972300Y-96524707D01*
X192972535Y-96451431D01*
X192973170Y-96395458D01*
X192974406Y-96354151D01*
X192976444Y-96324872D01*
X192979483Y-96304984D01*
X192983723Y-96291850D01*
X192989365Y-96282832D01*
X192996609Y-96275293D01*
X192998394Y-96273612D01*
X193007055Y-96266172D01*
X193017118Y-96260409D01*
X193031375Y-96256112D01*
X193052617Y-96253064D01*
X193083636Y-96251051D01*
X193127223Y-96249860D01*
X193186169Y-96249275D01*
X193263266Y-96249083D01*
X193317999Y-96249067D01*
X193407206Y-96249146D01*
G36*
X194428297Y-96250351D02*
X194503112Y-96255581D01*
X194572694Y-96263750D01*
X194632998Y-96274550D01*
X194679980Y-96287673D01*
X194709594Y-96302813D01*
X194714140Y-96307269D01*
X194729946Y-96341850D01*
X194725153Y-96377351D01*
X194700636Y-96407725D01*
X194699466Y-96408596D01*
X194685046Y-96417954D01*
X194669992Y-96422876D01*
X194648995Y-96423473D01*
X194616743Y-96419861D01*
X194567927Y-96412154D01*
X194564000Y-96411505D01*
X194491261Y-96402569D01*
X194412783Y-96398161D01*
X194334073Y-96398119D01*
X194260639Y-96402279D01*
X194197989Y-96410479D01*
X194151630Y-96422557D01*
X194148584Y-96423771D01*
X194114952Y-96442615D01*
X194103136Y-96461685D01*
X194112386Y-96480439D01*
X194141953Y-96498337D01*
X194191089Y-96514837D01*
X194259043Y-96529396D01*
X194304355Y-96536406D01*
X194398544Y-96549889D01*
X194473456Y-96562214D01*
X194532283Y-96574449D01*
X194578215Y-96587661D01*
X194614445Y-96602917D01*
X194644162Y-96621285D01*
X194670558Y-96643831D01*
X194691770Y-96665971D01*
X194716935Y-96696819D01*
X194729319Y-96723345D01*
X194733192Y-96756026D01*
X194733333Y-96767995D01*
X194730424Y-96807712D01*
X194718798Y-96837259D01*
X194698677Y-96863486D01*
X194657784Y-96903576D01*
X194612183Y-96934149D01*
X194558487Y-96956203D01*
X194493308Y-96970735D01*
X194413256Y-96978741D01*
X194314943Y-96981218D01*
X194298711Y-96981177D01*
X194233151Y-96979818D01*
X194168134Y-96976730D01*
X194110748Y-96972356D01*
X194068078Y-96967140D01*
X194064628Y-96966541D01*
X194022204Y-96956491D01*
X193986220Y-96943796D01*
X193965850Y-96932190D01*
X193946893Y-96901572D01*
X193945573Y-96865918D01*
X193961915Y-96834144D01*
X193965571Y-96830551D01*
X193980685Y-96819876D01*
X193999585Y-96815276D01*
X194028838Y-96816059D01*
X194064349Y-96820127D01*
X194104030Y-96823762D01*
X194159655Y-96826828D01*
X194224594Y-96829053D01*
X194292215Y-96830164D01*
X194310000Y-96830237D01*
X194377872Y-96829964D01*
X194427546Y-96828646D01*
X194463390Y-96825827D01*
X194489776Y-96821050D01*
X194511074Y-96813857D01*
X194523874Y-96807867D01*
X194552000Y-96791233D01*
X194569932Y-96776168D01*
X194572553Y-96771897D01*
X194567024Y-96754263D01*
X194540740Y-96737192D01*
X194495522Y-96721458D01*
X194433192Y-96707838D01*
X194414829Y-96704804D01*
X194318910Y-96689738D01*
X194242359Y-96677146D01*
X194182220Y-96666111D01*
X194135540Y-96655720D01*
X194099363Y-96645056D01*
X194070735Y-96633205D01*
X194046702Y-96619251D01*
X194024308Y-96602281D01*
X194000598Y-96581378D01*
X193992620Y-96574049D01*
X193964647Y-96546699D01*
X193949840Y-96525029D01*
X193944048Y-96500232D01*
X193943111Y-96468983D01*
X193953425Y-96407705D01*
X193984248Y-96355640D01*
X194035405Y-96312958D01*
X194106717Y-96279825D01*
X194157600Y-96264964D01*
X194212900Y-96255366D01*
X194279147Y-96249936D01*
X194352294Y-96248367D01*
X194428297Y-96250351D01*
X194428297Y-96250351D01*
G37*
X194428297Y-96250351D02*
X194503112Y-96255581D01*
X194572694Y-96263750D01*
X194632998Y-96274550D01*
X194679980Y-96287673D01*
X194709594Y-96302813D01*
X194714140Y-96307269D01*
X194729946Y-96341850D01*
X194725153Y-96377351D01*
X194700636Y-96407725D01*
X194699466Y-96408596D01*
X194685046Y-96417954D01*
X194669992Y-96422876D01*
X194648995Y-96423473D01*
X194616743Y-96419861D01*
X194567927Y-96412154D01*
X194564000Y-96411505D01*
X194491261Y-96402569D01*
X194412783Y-96398161D01*
X194334073Y-96398119D01*
X194260639Y-96402279D01*
X194197989Y-96410479D01*
X194151630Y-96422557D01*
X194148584Y-96423771D01*
X194114952Y-96442615D01*
X194103136Y-96461685D01*
X194112386Y-96480439D01*
X194141953Y-96498337D01*
X194191089Y-96514837D01*
X194259043Y-96529396D01*
X194304355Y-96536406D01*
X194398544Y-96549889D01*
X194473456Y-96562214D01*
X194532283Y-96574449D01*
X194578215Y-96587661D01*
X194614445Y-96602917D01*
X194644162Y-96621285D01*
X194670558Y-96643831D01*
X194691770Y-96665971D01*
X194716935Y-96696819D01*
X194729319Y-96723345D01*
X194733192Y-96756026D01*
X194733333Y-96767995D01*
X194730424Y-96807712D01*
X194718798Y-96837259D01*
X194698677Y-96863486D01*
X194657784Y-96903576D01*
X194612183Y-96934149D01*
X194558487Y-96956203D01*
X194493308Y-96970735D01*
X194413256Y-96978741D01*
X194314943Y-96981218D01*
X194298711Y-96981177D01*
X194233151Y-96979818D01*
X194168134Y-96976730D01*
X194110748Y-96972356D01*
X194068078Y-96967140D01*
X194064628Y-96966541D01*
X194022204Y-96956491D01*
X193986220Y-96943796D01*
X193965850Y-96932190D01*
X193946893Y-96901572D01*
X193945573Y-96865918D01*
X193961915Y-96834144D01*
X193965571Y-96830551D01*
X193980685Y-96819876D01*
X193999585Y-96815276D01*
X194028838Y-96816059D01*
X194064349Y-96820127D01*
X194104030Y-96823762D01*
X194159655Y-96826828D01*
X194224594Y-96829053D01*
X194292215Y-96830164D01*
X194310000Y-96830237D01*
X194377872Y-96829964D01*
X194427546Y-96828646D01*
X194463390Y-96825827D01*
X194489776Y-96821050D01*
X194511074Y-96813857D01*
X194523874Y-96807867D01*
X194552000Y-96791233D01*
X194569932Y-96776168D01*
X194572553Y-96771897D01*
X194567024Y-96754263D01*
X194540740Y-96737192D01*
X194495522Y-96721458D01*
X194433192Y-96707838D01*
X194414829Y-96704804D01*
X194318910Y-96689738D01*
X194242359Y-96677146D01*
X194182220Y-96666111D01*
X194135540Y-96655720D01*
X194099363Y-96645056D01*
X194070735Y-96633205D01*
X194046702Y-96619251D01*
X194024308Y-96602281D01*
X194000598Y-96581378D01*
X193992620Y-96574049D01*
X193964647Y-96546699D01*
X193949840Y-96525029D01*
X193944048Y-96500232D01*
X193943111Y-96468983D01*
X193953425Y-96407705D01*
X193984248Y-96355640D01*
X194035405Y-96312958D01*
X194106717Y-96279825D01*
X194157600Y-96264964D01*
X194212900Y-96255366D01*
X194279147Y-96249936D01*
X194352294Y-96248367D01*
X194428297Y-96250351D01*
G36*
X195196178Y-96271645D02*
X195202758Y-96279218D01*
X195207921Y-96288987D01*
X195211836Y-96303571D01*
X195214676Y-96325585D01*
X195216613Y-96357648D01*
X195217817Y-96402375D01*
X195218461Y-96462385D01*
X195218716Y-96540294D01*
X195218755Y-96615956D01*
X195218686Y-96709802D01*
X195218362Y-96783689D01*
X195217614Y-96840232D01*
X195216268Y-96882049D01*
X195214154Y-96911757D01*
X195211100Y-96931973D01*
X195206934Y-96945314D01*
X195201484Y-96954398D01*
X195196178Y-96960267D01*
X195163174Y-96979947D01*
X195128009Y-96978181D01*
X195096545Y-96956717D01*
X195089316Y-96948337D01*
X195083666Y-96938614D01*
X195079401Y-96924861D01*
X195076327Y-96904389D01*
X195074248Y-96874512D01*
X195072970Y-96832541D01*
X195072299Y-96775789D01*
X195072041Y-96701567D01*
X195072000Y-96617537D01*
X195072000Y-96304485D01*
X195099709Y-96276776D01*
X195133863Y-96253463D01*
X195166994Y-96252623D01*
X195196178Y-96271645D01*
X195196178Y-96271645D01*
G37*
X195196178Y-96271645D02*
X195202758Y-96279218D01*
X195207921Y-96288987D01*
X195211836Y-96303571D01*
X195214676Y-96325585D01*
X195216613Y-96357648D01*
X195217817Y-96402375D01*
X195218461Y-96462385D01*
X195218716Y-96540294D01*
X195218755Y-96615956D01*
X195218686Y-96709802D01*
X195218362Y-96783689D01*
X195217614Y-96840232D01*
X195216268Y-96882049D01*
X195214154Y-96911757D01*
X195211100Y-96931973D01*
X195206934Y-96945314D01*
X195201484Y-96954398D01*
X195196178Y-96960267D01*
X195163174Y-96979947D01*
X195128009Y-96978181D01*
X195096545Y-96956717D01*
X195089316Y-96948337D01*
X195083666Y-96938614D01*
X195079401Y-96924861D01*
X195076327Y-96904389D01*
X195074248Y-96874512D01*
X195072970Y-96832541D01*
X195072299Y-96775789D01*
X195072041Y-96701567D01*
X195072000Y-96617537D01*
X195072000Y-96304485D01*
X195099709Y-96276776D01*
X195133863Y-96253463D01*
X195166994Y-96252623D01*
X195196178Y-96271645D01*
G36*
X196169919Y-96254599D02*
X196238435Y-96266095D01*
X196291057Y-96283967D01*
X196325292Y-96307499D01*
X196334621Y-96320924D01*
X196344107Y-96352148D01*
X196337723Y-96380395D01*
X196317570Y-96407182D01*
X196286255Y-96419713D01*
X196240817Y-96418696D01*
X196205674Y-96411906D01*
X196127581Y-96398971D01*
X196047774Y-96397742D01*
X195958445Y-96408241D01*
X195933771Y-96412690D01*
X195850709Y-96436108D01*
X195785727Y-96470945D01*
X195739539Y-96516604D01*
X195712855Y-96572494D01*
X195707337Y-96601388D01*
X195710949Y-96660012D01*
X195734271Y-96711879D01*
X195775176Y-96755978D01*
X195831541Y-96791299D01*
X195901240Y-96816829D01*
X195982148Y-96831559D01*
X196072140Y-96834478D01*
X196169090Y-96824575D01*
X196174564Y-96823641D01*
X196213125Y-96816459D01*
X196234506Y-96809521D01*
X196243773Y-96799227D01*
X196245994Y-96781976D01*
X196246044Y-96772841D01*
X196246044Y-96734489D01*
X196177569Y-96734489D01*
X196117100Y-96730347D01*
X196075835Y-96717147D01*
X196051825Y-96693730D01*
X196043123Y-96658936D01*
X196043017Y-96654394D01*
X196048108Y-96624654D01*
X196065567Y-96603419D01*
X196098061Y-96589366D01*
X196148257Y-96581173D01*
X196196877Y-96578161D01*
X196267544Y-96576433D01*
X196318802Y-96579070D01*
X196353761Y-96588800D01*
X196375530Y-96608353D01*
X196387220Y-96640456D01*
X196391940Y-96687838D01*
X196392800Y-96750071D01*
X196391391Y-96819535D01*
X196387152Y-96866786D01*
X196380064Y-96892012D01*
X196378689Y-96893988D01*
X196339772Y-96925508D01*
X196282714Y-96950470D01*
X196211131Y-96968340D01*
X196128642Y-96978586D01*
X196038861Y-96980673D01*
X195945408Y-96974068D01*
X195890444Y-96965956D01*
X195804234Y-96941554D01*
X195724108Y-96901662D01*
X195657023Y-96849887D01*
X195646827Y-96839539D01*
X195613698Y-96796035D01*
X195583806Y-96742118D01*
X195560643Y-96685592D01*
X195547702Y-96634259D01*
X195546142Y-96614544D01*
X195552782Y-96573419D01*
X195570432Y-96522252D01*
X195595703Y-96468394D01*
X195625211Y-96419195D01*
X195651281Y-96386334D01*
X195712235Y-96337452D01*
X195791031Y-96298545D01*
X195884843Y-96270494D01*
X195990850Y-96254179D01*
X196088000Y-96250192D01*
X196169919Y-96254599D01*
X196169919Y-96254599D01*
G37*
X196169919Y-96254599D02*
X196238435Y-96266095D01*
X196291057Y-96283967D01*
X196325292Y-96307499D01*
X196334621Y-96320924D01*
X196344107Y-96352148D01*
X196337723Y-96380395D01*
X196317570Y-96407182D01*
X196286255Y-96419713D01*
X196240817Y-96418696D01*
X196205674Y-96411906D01*
X196127581Y-96398971D01*
X196047774Y-96397742D01*
X195958445Y-96408241D01*
X195933771Y-96412690D01*
X195850709Y-96436108D01*
X195785727Y-96470945D01*
X195739539Y-96516604D01*
X195712855Y-96572494D01*
X195707337Y-96601388D01*
X195710949Y-96660012D01*
X195734271Y-96711879D01*
X195775176Y-96755978D01*
X195831541Y-96791299D01*
X195901240Y-96816829D01*
X195982148Y-96831559D01*
X196072140Y-96834478D01*
X196169090Y-96824575D01*
X196174564Y-96823641D01*
X196213125Y-96816459D01*
X196234506Y-96809521D01*
X196243773Y-96799227D01*
X196245994Y-96781976D01*
X196246044Y-96772841D01*
X196246044Y-96734489D01*
X196177569Y-96734489D01*
X196117100Y-96730347D01*
X196075835Y-96717147D01*
X196051825Y-96693730D01*
X196043123Y-96658936D01*
X196043017Y-96654394D01*
X196048108Y-96624654D01*
X196065567Y-96603419D01*
X196098061Y-96589366D01*
X196148257Y-96581173D01*
X196196877Y-96578161D01*
X196267544Y-96576433D01*
X196318802Y-96579070D01*
X196353761Y-96588800D01*
X196375530Y-96608353D01*
X196387220Y-96640456D01*
X196391940Y-96687838D01*
X196392800Y-96750071D01*
X196391391Y-96819535D01*
X196387152Y-96866786D01*
X196380064Y-96892012D01*
X196378689Y-96893988D01*
X196339772Y-96925508D01*
X196282714Y-96950470D01*
X196211131Y-96968340D01*
X196128642Y-96978586D01*
X196038861Y-96980673D01*
X195945408Y-96974068D01*
X195890444Y-96965956D01*
X195804234Y-96941554D01*
X195724108Y-96901662D01*
X195657023Y-96849887D01*
X195646827Y-96839539D01*
X195613698Y-96796035D01*
X195583806Y-96742118D01*
X195560643Y-96685592D01*
X195547702Y-96634259D01*
X195546142Y-96614544D01*
X195552782Y-96573419D01*
X195570432Y-96522252D01*
X195595703Y-96468394D01*
X195625211Y-96419195D01*
X195651281Y-96386334D01*
X195712235Y-96337452D01*
X195791031Y-96298545D01*
X195884843Y-96270494D01*
X195990850Y-96254179D01*
X196088000Y-96250192D01*
X196169919Y-96254599D01*
G36*
X196819886Y-96253448D02*
X196843452Y-96267273D01*
X196874265Y-96289881D01*
X196913922Y-96322338D01*
X196964020Y-96365708D01*
X197026157Y-96421058D01*
X197101928Y-96489451D01*
X197188666Y-96568084D01*
X197369289Y-96731878D01*
X197374933Y-96512029D01*
X197376971Y-96436351D01*
X197378937Y-96379994D01*
X197381266Y-96339706D01*
X197384394Y-96312235D01*
X197388755Y-96294329D01*
X197394784Y-96282737D01*
X197402916Y-96274208D01*
X197407228Y-96270623D01*
X197441759Y-96251670D01*
X197474617Y-96254441D01*
X197500682Y-96270633D01*
X197527333Y-96292199D01*
X197530648Y-96607151D01*
X197531565Y-96699779D01*
X197532032Y-96772544D01*
X197531887Y-96828161D01*
X197530968Y-96869342D01*
X197529113Y-96898803D01*
X197526161Y-96919255D01*
X197521950Y-96933413D01*
X197516318Y-96943991D01*
X197510073Y-96952474D01*
X197496561Y-96968207D01*
X197483117Y-96978636D01*
X197467876Y-96982639D01*
X197448974Y-96979094D01*
X197424545Y-96966879D01*
X197392727Y-96944871D01*
X197351652Y-96911949D01*
X197299458Y-96866991D01*
X197234278Y-96808875D01*
X197160444Y-96742099D01*
X196895155Y-96501458D01*
X196889511Y-96720589D01*
X196887469Y-96796128D01*
X196885498Y-96852354D01*
X196883161Y-96892524D01*
X196880019Y-96919896D01*
X196875636Y-96937728D01*
X196869576Y-96949279D01*
X196861400Y-96957807D01*
X196857216Y-96961282D01*
X196820235Y-96980372D01*
X196785292Y-96977493D01*
X196754864Y-96953100D01*
X196747903Y-96943286D01*
X196742477Y-96931826D01*
X196738397Y-96915968D01*
X196735471Y-96892963D01*
X196733508Y-96860062D01*
X196732317Y-96814516D01*
X196731708Y-96753573D01*
X196731489Y-96674486D01*
X196731466Y-96615956D01*
X196731540Y-96524407D01*
X196731887Y-96452687D01*
X196732699Y-96398045D01*
X196734167Y-96357732D01*
X196736481Y-96328998D01*
X196739833Y-96309093D01*
X196744412Y-96295268D01*
X196750411Y-96284772D01*
X196754864Y-96278811D01*
X196766150Y-96264691D01*
X196776699Y-96254029D01*
X196788107Y-96247892D01*
X196801970Y-96247343D01*
X196819886Y-96253448D01*
X196819886Y-96253448D01*
G37*
X196819886Y-96253448D02*
X196843452Y-96267273D01*
X196874265Y-96289881D01*
X196913922Y-96322338D01*
X196964020Y-96365708D01*
X197026157Y-96421058D01*
X197101928Y-96489451D01*
X197188666Y-96568084D01*
X197369289Y-96731878D01*
X197374933Y-96512029D01*
X197376971Y-96436351D01*
X197378937Y-96379994D01*
X197381266Y-96339706D01*
X197384394Y-96312235D01*
X197388755Y-96294329D01*
X197394784Y-96282737D01*
X197402916Y-96274208D01*
X197407228Y-96270623D01*
X197441759Y-96251670D01*
X197474617Y-96254441D01*
X197500682Y-96270633D01*
X197527333Y-96292199D01*
X197530648Y-96607151D01*
X197531565Y-96699779D01*
X197532032Y-96772544D01*
X197531887Y-96828161D01*
X197530968Y-96869342D01*
X197529113Y-96898803D01*
X197526161Y-96919255D01*
X197521950Y-96933413D01*
X197516318Y-96943991D01*
X197510073Y-96952474D01*
X197496561Y-96968207D01*
X197483117Y-96978636D01*
X197467876Y-96982639D01*
X197448974Y-96979094D01*
X197424545Y-96966879D01*
X197392727Y-96944871D01*
X197351652Y-96911949D01*
X197299458Y-96866991D01*
X197234278Y-96808875D01*
X197160444Y-96742099D01*
X196895155Y-96501458D01*
X196889511Y-96720589D01*
X196887469Y-96796128D01*
X196885498Y-96852354D01*
X196883161Y-96892524D01*
X196880019Y-96919896D01*
X196875636Y-96937728D01*
X196869576Y-96949279D01*
X196861400Y-96957807D01*
X196857216Y-96961282D01*
X196820235Y-96980372D01*
X196785292Y-96977493D01*
X196754864Y-96953100D01*
X196747903Y-96943286D01*
X196742477Y-96931826D01*
X196738397Y-96915968D01*
X196735471Y-96892963D01*
X196733508Y-96860062D01*
X196732317Y-96814516D01*
X196731708Y-96753573D01*
X196731489Y-96674486D01*
X196731466Y-96615956D01*
X196731540Y-96524407D01*
X196731887Y-96452687D01*
X196732699Y-96398045D01*
X196734167Y-96357732D01*
X196736481Y-96328998D01*
X196739833Y-96309093D01*
X196744412Y-96295268D01*
X196750411Y-96284772D01*
X196754864Y-96278811D01*
X196766150Y-96264691D01*
X196776699Y-96254029D01*
X196788107Y-96247892D01*
X196801970Y-96247343D01*
X196819886Y-96253448D01*
G36*
X198350343Y-96249260D02*
X198426701Y-96250174D01*
X198485217Y-96252311D01*
X198528255Y-96256175D01*
X198558183Y-96262267D01*
X198577368Y-96271090D01*
X198588176Y-96283146D01*
X198592973Y-96298939D01*
X198594127Y-96318970D01*
X198594133Y-96321335D01*
X198593131Y-96343992D01*
X198588396Y-96361503D01*
X198577333Y-96374574D01*
X198557348Y-96383913D01*
X198525846Y-96390227D01*
X198480232Y-96394222D01*
X198417913Y-96396606D01*
X198336293Y-96398086D01*
X198311277Y-96398414D01*
X198069200Y-96401467D01*
X198065814Y-96466378D01*
X198062429Y-96531289D01*
X198230576Y-96531289D01*
X198296266Y-96531531D01*
X198343172Y-96532556D01*
X198375083Y-96534811D01*
X198395791Y-96538742D01*
X198409084Y-96544798D01*
X198418755Y-96553424D01*
X198418817Y-96553493D01*
X198436356Y-96587112D01*
X198435722Y-96623448D01*
X198417314Y-96654423D01*
X198413671Y-96657607D01*
X198400741Y-96665812D01*
X198383024Y-96671521D01*
X198356570Y-96675162D01*
X198317432Y-96677167D01*
X198261662Y-96677964D01*
X198225994Y-96678045D01*
X198063555Y-96678045D01*
X198063555Y-96836089D01*
X198310161Y-96836089D01*
X198391580Y-96836231D01*
X198453410Y-96836814D01*
X198498637Y-96838068D01*
X198530248Y-96840227D01*
X198551231Y-96843523D01*
X198564573Y-96848189D01*
X198573261Y-96854457D01*
X198575450Y-96856733D01*
X198591614Y-96888280D01*
X198592797Y-96924168D01*
X198579536Y-96955285D01*
X198569043Y-96965271D01*
X198558129Y-96970769D01*
X198541217Y-96975022D01*
X198515633Y-96978180D01*
X198478701Y-96980392D01*
X198427746Y-96981806D01*
X198360094Y-96982572D01*
X198273069Y-96982838D01*
X198253394Y-96982845D01*
X198164911Y-96982787D01*
X198096227Y-96982467D01*
X198044564Y-96981667D01*
X198007145Y-96980167D01*
X197981190Y-96977749D01*
X197963922Y-96974194D01*
X197952562Y-96969282D01*
X197944332Y-96962795D01*
X197939817Y-96958138D01*
X197933021Y-96949889D01*
X197927712Y-96939669D01*
X197923706Y-96924800D01*
X197920821Y-96902602D01*
X197918874Y-96870393D01*
X197917681Y-96825496D01*
X197917061Y-96765228D01*
X197916829Y-96686911D01*
X197916800Y-96620994D01*
X197916871Y-96528628D01*
X197917208Y-96456117D01*
X197917998Y-96400737D01*
X197919426Y-96359765D01*
X197921679Y-96330478D01*
X197924943Y-96310153D01*
X197929404Y-96296066D01*
X197935248Y-96285495D01*
X197940197Y-96278811D01*
X197963594Y-96249067D01*
X198253774Y-96249067D01*
X198350343Y-96249260D01*
X198350343Y-96249260D01*
G37*
X198350343Y-96249260D02*
X198426701Y-96250174D01*
X198485217Y-96252311D01*
X198528255Y-96256175D01*
X198558183Y-96262267D01*
X198577368Y-96271090D01*
X198588176Y-96283146D01*
X198592973Y-96298939D01*
X198594127Y-96318970D01*
X198594133Y-96321335D01*
X198593131Y-96343992D01*
X198588396Y-96361503D01*
X198577333Y-96374574D01*
X198557348Y-96383913D01*
X198525846Y-96390227D01*
X198480232Y-96394222D01*
X198417913Y-96396606D01*
X198336293Y-96398086D01*
X198311277Y-96398414D01*
X198069200Y-96401467D01*
X198065814Y-96466378D01*
X198062429Y-96531289D01*
X198230576Y-96531289D01*
X198296266Y-96531531D01*
X198343172Y-96532556D01*
X198375083Y-96534811D01*
X198395791Y-96538742D01*
X198409084Y-96544798D01*
X198418755Y-96553424D01*
X198418817Y-96553493D01*
X198436356Y-96587112D01*
X198435722Y-96623448D01*
X198417314Y-96654423D01*
X198413671Y-96657607D01*
X198400741Y-96665812D01*
X198383024Y-96671521D01*
X198356570Y-96675162D01*
X198317432Y-96677167D01*
X198261662Y-96677964D01*
X198225994Y-96678045D01*
X198063555Y-96678045D01*
X198063555Y-96836089D01*
X198310161Y-96836089D01*
X198391580Y-96836231D01*
X198453410Y-96836814D01*
X198498637Y-96838068D01*
X198530248Y-96840227D01*
X198551231Y-96843523D01*
X198564573Y-96848189D01*
X198573261Y-96854457D01*
X198575450Y-96856733D01*
X198591614Y-96888280D01*
X198592797Y-96924168D01*
X198579536Y-96955285D01*
X198569043Y-96965271D01*
X198558129Y-96970769D01*
X198541217Y-96975022D01*
X198515633Y-96978180D01*
X198478701Y-96980392D01*
X198427746Y-96981806D01*
X198360094Y-96982572D01*
X198273069Y-96982838D01*
X198253394Y-96982845D01*
X198164911Y-96982787D01*
X198096227Y-96982467D01*
X198044564Y-96981667D01*
X198007145Y-96980167D01*
X197981190Y-96977749D01*
X197963922Y-96974194D01*
X197952562Y-96969282D01*
X197944332Y-96962795D01*
X197939817Y-96958138D01*
X197933021Y-96949889D01*
X197927712Y-96939669D01*
X197923706Y-96924800D01*
X197920821Y-96902602D01*
X197918874Y-96870393D01*
X197917681Y-96825496D01*
X197917061Y-96765228D01*
X197916829Y-96686911D01*
X197916800Y-96620994D01*
X197916871Y-96528628D01*
X197917208Y-96456117D01*
X197917998Y-96400737D01*
X197919426Y-96359765D01*
X197921679Y-96330478D01*
X197924943Y-96310153D01*
X197929404Y-96296066D01*
X197935248Y-96285495D01*
X197940197Y-96278811D01*
X197963594Y-96249067D01*
X198253774Y-96249067D01*
X198350343Y-96249260D01*
G36*
X199138309Y-96249275D02*
X199267288Y-96253636D01*
X199376991Y-96266861D01*
X199469226Y-96289741D01*
X199545802Y-96323070D01*
X199608527Y-96367638D01*
X199659212Y-96424236D01*
X199699663Y-96493658D01*
X199700459Y-96495351D01*
X199724601Y-96557483D01*
X199733203Y-96612509D01*
X199726231Y-96667887D01*
X199703654Y-96731073D01*
X199699372Y-96740689D01*
X199670172Y-96796966D01*
X199637356Y-96840451D01*
X199595002Y-96877417D01*
X199537190Y-96914135D01*
X199533831Y-96916052D01*
X199483504Y-96940227D01*
X199426621Y-96958282D01*
X199359527Y-96970839D01*
X199278565Y-96978522D01*
X199180082Y-96981953D01*
X199145286Y-96982251D01*
X198979594Y-96982845D01*
X198956197Y-96953100D01*
X198949257Y-96943319D01*
X198943842Y-96931897D01*
X198939765Y-96916095D01*
X198936837Y-96893175D01*
X198934867Y-96860396D01*
X198934225Y-96836089D01*
X199090844Y-96836089D01*
X199184726Y-96836089D01*
X199239664Y-96834483D01*
X199296060Y-96830255D01*
X199342345Y-96824292D01*
X199345139Y-96823790D01*
X199427348Y-96801736D01*
X199491114Y-96768600D01*
X199538452Y-96722847D01*
X199571382Y-96662939D01*
X199577108Y-96647061D01*
X199582721Y-96622333D01*
X199580291Y-96597902D01*
X199568467Y-96565400D01*
X199561340Y-96549434D01*
X199538000Y-96507006D01*
X199509880Y-96477240D01*
X199478940Y-96456511D01*
X199416966Y-96429537D01*
X199337651Y-96409998D01*
X199245253Y-96398746D01*
X199178333Y-96396270D01*
X199090844Y-96395822D01*
X199090844Y-96836089D01*
X198934225Y-96836089D01*
X198933668Y-96815021D01*
X198933050Y-96754311D01*
X198932825Y-96675526D01*
X198932800Y-96613920D01*
X198932800Y-96304485D01*
X198960509Y-96276776D01*
X198972806Y-96265544D01*
X198986103Y-96257853D01*
X199004672Y-96253040D01*
X199032786Y-96250446D01*
X199074717Y-96249410D01*
X199134737Y-96249270D01*
X199138309Y-96249275D01*
X199138309Y-96249275D01*
G37*
X199138309Y-96249275D02*
X199267288Y-96253636D01*
X199376991Y-96266861D01*
X199469226Y-96289741D01*
X199545802Y-96323070D01*
X199608527Y-96367638D01*
X199659212Y-96424236D01*
X199699663Y-96493658D01*
X199700459Y-96495351D01*
X199724601Y-96557483D01*
X199733203Y-96612509D01*
X199726231Y-96667887D01*
X199703654Y-96731073D01*
X199699372Y-96740689D01*
X199670172Y-96796966D01*
X199637356Y-96840451D01*
X199595002Y-96877417D01*
X199537190Y-96914135D01*
X199533831Y-96916052D01*
X199483504Y-96940227D01*
X199426621Y-96958282D01*
X199359527Y-96970839D01*
X199278565Y-96978522D01*
X199180082Y-96981953D01*
X199145286Y-96982251D01*
X198979594Y-96982845D01*
X198956197Y-96953100D01*
X198949257Y-96943319D01*
X198943842Y-96931897D01*
X198939765Y-96916095D01*
X198936837Y-96893175D01*
X198934867Y-96860396D01*
X198934225Y-96836089D01*
X199090844Y-96836089D01*
X199184726Y-96836089D01*
X199239664Y-96834483D01*
X199296060Y-96830255D01*
X199342345Y-96824292D01*
X199345139Y-96823790D01*
X199427348Y-96801736D01*
X199491114Y-96768600D01*
X199538452Y-96722847D01*
X199571382Y-96662939D01*
X199577108Y-96647061D01*
X199582721Y-96622333D01*
X199580291Y-96597902D01*
X199568467Y-96565400D01*
X199561340Y-96549434D01*
X199538000Y-96507006D01*
X199509880Y-96477240D01*
X199478940Y-96456511D01*
X199416966Y-96429537D01*
X199337651Y-96409998D01*
X199245253Y-96398746D01*
X199178333Y-96396270D01*
X199090844Y-96395822D01*
X199090844Y-96836089D01*
X198934225Y-96836089D01*
X198933668Y-96815021D01*
X198933050Y-96754311D01*
X198932825Y-96675526D01*
X198932800Y-96613920D01*
X198932800Y-96304485D01*
X198960509Y-96276776D01*
X198972806Y-96265544D01*
X198986103Y-96257853D01*
X199004672Y-96253040D01*
X199032786Y-96250446D01*
X199074717Y-96249410D01*
X199134737Y-96249270D01*
X199138309Y-96249275D01*
G36*
X201864665Y-96251034D02*
X201884255Y-96258035D01*
X201885010Y-96258377D01*
X201911613Y-96278678D01*
X201926270Y-96299561D01*
X201929138Y-96309352D01*
X201928996Y-96322361D01*
X201924961Y-96340895D01*
X201916146Y-96367257D01*
X201901669Y-96403752D01*
X201880645Y-96452687D01*
X201852188Y-96516365D01*
X201815415Y-96597093D01*
X201795175Y-96641216D01*
X201758625Y-96719985D01*
X201724315Y-96792423D01*
X201693552Y-96855880D01*
X201667648Y-96907708D01*
X201647910Y-96945259D01*
X201635650Y-96965884D01*
X201633224Y-96968733D01*
X201602183Y-96981302D01*
X201567121Y-96979619D01*
X201539000Y-96964332D01*
X201537854Y-96963089D01*
X201526668Y-96946154D01*
X201507904Y-96913170D01*
X201483875Y-96868380D01*
X201456897Y-96816032D01*
X201447201Y-96796742D01*
X201374014Y-96650150D01*
X201294240Y-96809393D01*
X201265767Y-96864415D01*
X201239350Y-96912132D01*
X201217148Y-96948893D01*
X201201319Y-96971044D01*
X201195954Y-96975741D01*
X201154257Y-96982102D01*
X201119849Y-96968733D01*
X201109728Y-96954446D01*
X201092214Y-96922692D01*
X201068735Y-96876597D01*
X201040720Y-96819285D01*
X201009599Y-96753880D01*
X200976799Y-96683507D01*
X200943750Y-96611291D01*
X200911881Y-96540355D01*
X200882619Y-96473825D01*
X200857395Y-96414826D01*
X200837636Y-96366481D01*
X200824772Y-96331915D01*
X200820231Y-96314253D01*
X200820277Y-96313613D01*
X200831326Y-96291388D01*
X200853410Y-96268753D01*
X200854710Y-96267768D01*
X200881853Y-96252425D01*
X200906958Y-96252574D01*
X200916368Y-96255466D01*
X200927834Y-96261718D01*
X200940010Y-96274014D01*
X200954357Y-96294908D01*
X200972336Y-96326949D01*
X200995407Y-96372688D01*
X201025030Y-96434677D01*
X201051745Y-96491898D01*
X201082480Y-96558226D01*
X201110021Y-96617874D01*
X201132938Y-96667725D01*
X201149798Y-96704664D01*
X201159173Y-96725573D01*
X201160540Y-96728845D01*
X201166689Y-96723497D01*
X201180822Y-96701109D01*
X201201057Y-96664946D01*
X201225515Y-96618277D01*
X201235248Y-96599022D01*
X201268217Y-96534004D01*
X201293643Y-96486654D01*
X201313612Y-96454219D01*
X201330210Y-96433946D01*
X201345524Y-96423082D01*
X201361640Y-96418875D01*
X201372143Y-96418400D01*
X201390670Y-96420042D01*
X201406904Y-96426831D01*
X201423035Y-96441566D01*
X201441251Y-96467044D01*
X201463739Y-96506061D01*
X201492689Y-96561414D01*
X201508662Y-96592903D01*
X201534570Y-96643087D01*
X201557167Y-96684704D01*
X201574458Y-96714242D01*
X201584450Y-96728189D01*
X201585809Y-96728770D01*
X201592261Y-96717793D01*
X201606708Y-96689290D01*
X201627703Y-96646244D01*
X201653797Y-96591638D01*
X201683546Y-96528454D01*
X201698180Y-96497071D01*
X201736250Y-96416078D01*
X201766905Y-96353756D01*
X201791737Y-96308071D01*
X201812337Y-96276989D01*
X201830298Y-96258478D01*
X201847210Y-96250504D01*
X201864665Y-96251034D01*
X201864665Y-96251034D01*
G37*
X201864665Y-96251034D02*
X201884255Y-96258035D01*
X201885010Y-96258377D01*
X201911613Y-96278678D01*
X201926270Y-96299561D01*
X201929138Y-96309352D01*
X201928996Y-96322361D01*
X201924961Y-96340895D01*
X201916146Y-96367257D01*
X201901669Y-96403752D01*
X201880645Y-96452687D01*
X201852188Y-96516365D01*
X201815415Y-96597093D01*
X201795175Y-96641216D01*
X201758625Y-96719985D01*
X201724315Y-96792423D01*
X201693552Y-96855880D01*
X201667648Y-96907708D01*
X201647910Y-96945259D01*
X201635650Y-96965884D01*
X201633224Y-96968733D01*
X201602183Y-96981302D01*
X201567121Y-96979619D01*
X201539000Y-96964332D01*
X201537854Y-96963089D01*
X201526668Y-96946154D01*
X201507904Y-96913170D01*
X201483875Y-96868380D01*
X201456897Y-96816032D01*
X201447201Y-96796742D01*
X201374014Y-96650150D01*
X201294240Y-96809393D01*
X201265767Y-96864415D01*
X201239350Y-96912132D01*
X201217148Y-96948893D01*
X201201319Y-96971044D01*
X201195954Y-96975741D01*
X201154257Y-96982102D01*
X201119849Y-96968733D01*
X201109728Y-96954446D01*
X201092214Y-96922692D01*
X201068735Y-96876597D01*
X201040720Y-96819285D01*
X201009599Y-96753880D01*
X200976799Y-96683507D01*
X200943750Y-96611291D01*
X200911881Y-96540355D01*
X200882619Y-96473825D01*
X200857395Y-96414826D01*
X200837636Y-96366481D01*
X200824772Y-96331915D01*
X200820231Y-96314253D01*
X200820277Y-96313613D01*
X200831326Y-96291388D01*
X200853410Y-96268753D01*
X200854710Y-96267768D01*
X200881853Y-96252425D01*
X200906958Y-96252574D01*
X200916368Y-96255466D01*
X200927834Y-96261718D01*
X200940010Y-96274014D01*
X200954357Y-96294908D01*
X200972336Y-96326949D01*
X200995407Y-96372688D01*
X201025030Y-96434677D01*
X201051745Y-96491898D01*
X201082480Y-96558226D01*
X201110021Y-96617874D01*
X201132938Y-96667725D01*
X201149798Y-96704664D01*
X201159173Y-96725573D01*
X201160540Y-96728845D01*
X201166689Y-96723497D01*
X201180822Y-96701109D01*
X201201057Y-96664946D01*
X201225515Y-96618277D01*
X201235248Y-96599022D01*
X201268217Y-96534004D01*
X201293643Y-96486654D01*
X201313612Y-96454219D01*
X201330210Y-96433946D01*
X201345524Y-96423082D01*
X201361640Y-96418875D01*
X201372143Y-96418400D01*
X201390670Y-96420042D01*
X201406904Y-96426831D01*
X201423035Y-96441566D01*
X201441251Y-96467044D01*
X201463739Y-96506061D01*
X201492689Y-96561414D01*
X201508662Y-96592903D01*
X201534570Y-96643087D01*
X201557167Y-96684704D01*
X201574458Y-96714242D01*
X201584450Y-96728189D01*
X201585809Y-96728770D01*
X201592261Y-96717793D01*
X201606708Y-96689290D01*
X201627703Y-96646244D01*
X201653797Y-96591638D01*
X201683546Y-96528454D01*
X201698180Y-96497071D01*
X201736250Y-96416078D01*
X201766905Y-96353756D01*
X201791737Y-96308071D01*
X201812337Y-96276989D01*
X201830298Y-96258478D01*
X201847210Y-96250504D01*
X201864665Y-96251034D01*
G36*
X202308614Y-96255877D02*
X202332327Y-96270647D01*
X202358978Y-96292227D01*
X202358978Y-96613773D01*
X202358893Y-96707830D01*
X202358529Y-96781932D01*
X202357724Y-96838704D01*
X202356313Y-96880768D01*
X202354133Y-96910748D01*
X202351021Y-96931267D01*
X202346814Y-96944949D01*
X202341348Y-96954416D01*
X202337472Y-96959082D01*
X202306034Y-96979575D01*
X202270233Y-96978739D01*
X202238873Y-96961264D01*
X202212222Y-96939684D01*
X202212222Y-96292227D01*
X202238873Y-96270647D01*
X202264594Y-96254949D01*
X202285600Y-96249067D01*
X202308614Y-96255877D01*
X202308614Y-96255877D01*
G37*
X202308614Y-96255877D02*
X202332327Y-96270647D01*
X202358978Y-96292227D01*
X202358978Y-96613773D01*
X202358893Y-96707830D01*
X202358529Y-96781932D01*
X202357724Y-96838704D01*
X202356313Y-96880768D01*
X202354133Y-96910748D01*
X202351021Y-96931267D01*
X202346814Y-96944949D01*
X202341348Y-96954416D01*
X202337472Y-96959082D01*
X202306034Y-96979575D01*
X202270233Y-96978739D01*
X202238873Y-96961264D01*
X202212222Y-96939684D01*
X202212222Y-96292227D01*
X202238873Y-96270647D01*
X202264594Y-96254949D01*
X202285600Y-96249067D01*
X202308614Y-96255877D01*
G36*
X203083065Y-96249163D02*
X203161772Y-96249542D01*
X203222863Y-96250333D01*
X203268817Y-96251670D01*
X203302114Y-96253683D01*
X203325236Y-96256506D01*
X203340662Y-96260269D01*
X203350871Y-96265105D01*
X203355813Y-96268822D01*
X203381457Y-96301358D01*
X203384559Y-96335138D01*
X203368711Y-96365826D01*
X203358348Y-96378089D01*
X203347196Y-96386450D01*
X203331035Y-96391657D01*
X203305642Y-96394457D01*
X203266798Y-96395596D01*
X203210280Y-96395821D01*
X203199180Y-96395822D01*
X203053244Y-96395822D01*
X203053244Y-96666756D01*
X203053148Y-96752154D01*
X203052711Y-96817864D01*
X203051712Y-96866774D01*
X203049928Y-96901773D01*
X203047137Y-96925749D01*
X203043117Y-96941593D01*
X203037645Y-96952191D01*
X203030666Y-96960267D01*
X202997734Y-96980112D01*
X202963354Y-96978548D01*
X202932176Y-96955906D01*
X202929886Y-96953100D01*
X202922429Y-96942492D01*
X202916747Y-96930081D01*
X202912601Y-96912850D01*
X202909750Y-96887784D01*
X202907954Y-96851867D01*
X202906972Y-96802083D01*
X202906564Y-96735417D01*
X202906489Y-96659589D01*
X202906489Y-96395822D01*
X202767127Y-96395822D01*
X202707322Y-96395418D01*
X202665918Y-96393840D01*
X202638748Y-96390547D01*
X202621646Y-96384992D01*
X202610443Y-96376631D01*
X202609083Y-96375178D01*
X202592725Y-96341939D01*
X202594172Y-96304362D01*
X202612978Y-96271645D01*
X202620250Y-96265298D01*
X202629627Y-96260266D01*
X202643609Y-96256396D01*
X202664696Y-96253537D01*
X202695389Y-96251535D01*
X202738189Y-96250239D01*
X202795595Y-96249498D01*
X202870110Y-96249158D01*
X202964233Y-96249068D01*
X202984260Y-96249067D01*
X203083065Y-96249163D01*
X203083065Y-96249163D01*
G37*
X203083065Y-96249163D02*
X203161772Y-96249542D01*
X203222863Y-96250333D01*
X203268817Y-96251670D01*
X203302114Y-96253683D01*
X203325236Y-96256506D01*
X203340662Y-96260269D01*
X203350871Y-96265105D01*
X203355813Y-96268822D01*
X203381457Y-96301358D01*
X203384559Y-96335138D01*
X203368711Y-96365826D01*
X203358348Y-96378089D01*
X203347196Y-96386450D01*
X203331035Y-96391657D01*
X203305642Y-96394457D01*
X203266798Y-96395596D01*
X203210280Y-96395821D01*
X203199180Y-96395822D01*
X203053244Y-96395822D01*
X203053244Y-96666756D01*
X203053148Y-96752154D01*
X203052711Y-96817864D01*
X203051712Y-96866774D01*
X203049928Y-96901773D01*
X203047137Y-96925749D01*
X203043117Y-96941593D01*
X203037645Y-96952191D01*
X203030666Y-96960267D01*
X202997734Y-96980112D01*
X202963354Y-96978548D01*
X202932176Y-96955906D01*
X202929886Y-96953100D01*
X202922429Y-96942492D01*
X202916747Y-96930081D01*
X202912601Y-96912850D01*
X202909750Y-96887784D01*
X202907954Y-96851867D01*
X202906972Y-96802083D01*
X202906564Y-96735417D01*
X202906489Y-96659589D01*
X202906489Y-96395822D01*
X202767127Y-96395822D01*
X202707322Y-96395418D01*
X202665918Y-96393840D01*
X202638748Y-96390547D01*
X202621646Y-96384992D01*
X202610443Y-96376631D01*
X202609083Y-96375178D01*
X202592725Y-96341939D01*
X202594172Y-96304362D01*
X202612978Y-96271645D01*
X202620250Y-96265298D01*
X202629627Y-96260266D01*
X202643609Y-96256396D01*
X202664696Y-96253537D01*
X202695389Y-96251535D01*
X202738189Y-96250239D01*
X202795595Y-96249498D01*
X202870110Y-96249158D01*
X202964233Y-96249068D01*
X202984260Y-96249067D01*
X203083065Y-96249163D01*
G36*
X204348823Y-96254533D02*
X204380202Y-96276776D01*
X204407911Y-96304485D01*
X204407911Y-96613920D01*
X204407838Y-96705799D01*
X204407495Y-96777840D01*
X204406692Y-96832780D01*
X204405241Y-96873360D01*
X204402952Y-96902317D01*
X204399636Y-96922391D01*
X204395105Y-96936321D01*
X204389169Y-96946845D01*
X204384514Y-96953100D01*
X204353783Y-96977673D01*
X204318496Y-96980341D01*
X204286245Y-96965271D01*
X204275588Y-96956374D01*
X204268464Y-96944557D01*
X204264167Y-96925526D01*
X204261991Y-96894992D01*
X204261228Y-96848662D01*
X204261155Y-96812871D01*
X204261155Y-96678045D01*
X203764444Y-96678045D01*
X203764444Y-96800700D01*
X203763931Y-96856787D01*
X203761876Y-96895333D01*
X203757508Y-96921361D01*
X203750056Y-96939897D01*
X203741047Y-96953100D01*
X203710144Y-96977604D01*
X203675196Y-96980506D01*
X203641738Y-96963089D01*
X203632604Y-96953959D01*
X203626152Y-96941855D01*
X203621897Y-96923001D01*
X203619352Y-96893620D01*
X203618029Y-96849937D01*
X203617443Y-96788175D01*
X203617375Y-96774000D01*
X203616891Y-96657631D01*
X203616641Y-96561727D01*
X203616723Y-96484177D01*
X203617231Y-96422869D01*
X203618262Y-96375690D01*
X203619913Y-96340530D01*
X203622279Y-96315276D01*
X203625457Y-96297817D01*
X203629544Y-96286041D01*
X203634634Y-96277835D01*
X203640266Y-96271645D01*
X203672128Y-96251844D01*
X203705357Y-96254533D01*
X203736735Y-96276776D01*
X203749433Y-96291126D01*
X203757526Y-96306978D01*
X203762042Y-96329554D01*
X203764006Y-96364078D01*
X203764444Y-96415776D01*
X203764444Y-96531289D01*
X204261155Y-96531289D01*
X204261155Y-96412756D01*
X204261662Y-96358148D01*
X204263698Y-96321275D01*
X204268035Y-96297307D01*
X204275447Y-96281415D01*
X204283733Y-96271645D01*
X204315594Y-96251844D01*
X204348823Y-96254533D01*
X204348823Y-96254533D01*
G37*
X204348823Y-96254533D02*
X204380202Y-96276776D01*
X204407911Y-96304485D01*
X204407911Y-96613920D01*
X204407838Y-96705799D01*
X204407495Y-96777840D01*
X204406692Y-96832780D01*
X204405241Y-96873360D01*
X204402952Y-96902317D01*
X204399636Y-96922391D01*
X204395105Y-96936321D01*
X204389169Y-96946845D01*
X204384514Y-96953100D01*
X204353783Y-96977673D01*
X204318496Y-96980341D01*
X204286245Y-96965271D01*
X204275588Y-96956374D01*
X204268464Y-96944557D01*
X204264167Y-96925526D01*
X204261991Y-96894992D01*
X204261228Y-96848662D01*
X204261155Y-96812871D01*
X204261155Y-96678045D01*
X203764444Y-96678045D01*
X203764444Y-96800700D01*
X203763931Y-96856787D01*
X203761876Y-96895333D01*
X203757508Y-96921361D01*
X203750056Y-96939897D01*
X203741047Y-96953100D01*
X203710144Y-96977604D01*
X203675196Y-96980506D01*
X203641738Y-96963089D01*
X203632604Y-96953959D01*
X203626152Y-96941855D01*
X203621897Y-96923001D01*
X203619352Y-96893620D01*
X203618029Y-96849937D01*
X203617443Y-96788175D01*
X203617375Y-96774000D01*
X203616891Y-96657631D01*
X203616641Y-96561727D01*
X203616723Y-96484177D01*
X203617231Y-96422869D01*
X203618262Y-96375690D01*
X203619913Y-96340530D01*
X203622279Y-96315276D01*
X203625457Y-96297817D01*
X203629544Y-96286041D01*
X203634634Y-96277835D01*
X203640266Y-96271645D01*
X203672128Y-96251844D01*
X203705357Y-96254533D01*
X203736735Y-96276776D01*
X203749433Y-96291126D01*
X203757526Y-96306978D01*
X203762042Y-96329554D01*
X203764006Y-96364078D01*
X203764444Y-96415776D01*
X203764444Y-96531289D01*
X204261155Y-96531289D01*
X204261155Y-96412756D01*
X204261662Y-96358148D01*
X204263698Y-96321275D01*
X204268035Y-96297307D01*
X204275447Y-96281415D01*
X204283733Y-96271645D01*
X204315594Y-96251844D01*
X204348823Y-96254533D01*
G36*
X195173600Y-91469054D02*
X195184465Y-91582993D01*
X195216082Y-91690616D01*
X195266985Y-91789615D01*
X195335707Y-91877684D01*
X195420781Y-91952516D01*
X195517768Y-92010384D01*
X195624036Y-92050005D01*
X195731050Y-92068573D01*
X195836700Y-92067434D01*
X195938875Y-92047930D01*
X196035466Y-92011406D01*
X196124362Y-91959205D01*
X196203454Y-91892673D01*
X196270631Y-91813152D01*
X196323783Y-91721987D01*
X196360801Y-91620523D01*
X196379573Y-91510102D01*
X196381511Y-91460206D01*
X196381511Y-91372267D01*
X196433440Y-91372267D01*
X196469747Y-91375111D01*
X196496645Y-91386911D01*
X196523751Y-91410649D01*
X196562133Y-91449031D01*
X196562133Y-93640602D01*
X196562124Y-93902739D01*
X196562092Y-94143241D01*
X196562028Y-94363048D01*
X196561924Y-94563101D01*
X196561773Y-94744344D01*
X196561566Y-94907716D01*
X196561294Y-95054160D01*
X196560950Y-95184617D01*
X196560526Y-95300029D01*
X196560013Y-95401338D01*
X196559403Y-95489484D01*
X196558688Y-95565410D01*
X196557860Y-95630057D01*
X196556911Y-95684367D01*
X196555833Y-95729280D01*
X196554617Y-95765740D01*
X196553255Y-95794687D01*
X196551739Y-95817063D01*
X196550062Y-95833809D01*
X196548214Y-95845868D01*
X196546187Y-95854180D01*
X196543975Y-95859687D01*
X196542892Y-95861537D01*
X196538729Y-95868549D01*
X196535195Y-95874996D01*
X196531365Y-95880900D01*
X196526318Y-95886286D01*
X196519129Y-95891178D01*
X196508877Y-95895598D01*
X196494636Y-95899572D01*
X196475486Y-95903121D01*
X196450501Y-95906270D01*
X196418760Y-95909042D01*
X196379338Y-95911461D01*
X196331314Y-95913551D01*
X196273763Y-95915335D01*
X196205763Y-95916837D01*
X196126390Y-95918080D01*
X196034721Y-95919089D01*
X195929834Y-95919885D01*
X195810804Y-95920494D01*
X195676710Y-95920939D01*
X195526627Y-95921243D01*
X195359633Y-95921430D01*
X195174804Y-95921524D01*
X194971217Y-95921548D01*
X194747950Y-95921525D01*
X194504078Y-95921480D01*
X194238679Y-95921437D01*
X194200296Y-95921432D01*
X193933318Y-95921389D01*
X193687998Y-95921318D01*
X193463417Y-95921213D01*
X193258655Y-95921066D01*
X193072794Y-95920869D01*
X192904912Y-95920616D01*
X192754092Y-95920300D01*
X192619413Y-95919913D01*
X192499956Y-95919447D01*
X192394801Y-95918897D01*
X192303029Y-95918253D01*
X192223721Y-95917511D01*
X192155957Y-95916661D01*
X192098818Y-95915697D01*
X192051383Y-95914611D01*
X192012734Y-95913397D01*
X191981951Y-95912047D01*
X191958115Y-95910555D01*
X191940306Y-95908911D01*
X191927605Y-95907111D01*
X191919092Y-95905145D01*
X191914734Y-95903477D01*
X191906272Y-95899906D01*
X191898503Y-95897270D01*
X191891398Y-95894634D01*
X191884927Y-95891062D01*
X191879061Y-95885621D01*
X191873771Y-95877375D01*
X191869026Y-95865390D01*
X191864798Y-95848731D01*
X191861057Y-95826463D01*
X191857773Y-95797652D01*
X191854917Y-95761363D01*
X191852460Y-95716661D01*
X191850371Y-95662611D01*
X191848622Y-95598279D01*
X191847183Y-95522730D01*
X191846024Y-95435030D01*
X191845117Y-95334243D01*
X191844431Y-95219434D01*
X191843937Y-95089670D01*
X191843605Y-94944015D01*
X191843407Y-94781535D01*
X191843313Y-94601295D01*
X191843292Y-94402360D01*
X191843315Y-94183796D01*
X191843354Y-93944668D01*
X191843378Y-93684040D01*
X191843378Y-93641889D01*
X191843364Y-93378992D01*
X191843339Y-93137732D01*
X191843329Y-92917165D01*
X191843358Y-92716352D01*
X191843452Y-92534349D01*
X191843638Y-92370216D01*
X191843941Y-92223011D01*
X191844386Y-92091792D01*
X191844966Y-91981867D01*
X192147803Y-91981867D01*
X192187593Y-92039711D01*
X192198764Y-92055479D01*
X192208834Y-92069441D01*
X192217862Y-92082784D01*
X192225903Y-92096693D01*
X192233014Y-92112356D01*
X192239253Y-92130958D01*
X192244675Y-92153686D01*
X192249338Y-92181727D01*
X192253299Y-92216267D01*
X192256615Y-92258492D01*
X192259341Y-92309589D01*
X192261536Y-92370744D01*
X192263255Y-92443144D01*
X192264556Y-92527975D01*
X192265495Y-92626422D01*
X192266130Y-92739674D01*
X192266516Y-92868916D01*
X192266712Y-93015334D01*
X192266773Y-93180116D01*
X192266757Y-93364447D01*
X192266720Y-93569513D01*
X192266711Y-93692133D01*
X192266735Y-93909082D01*
X192266769Y-94104642D01*
X192266757Y-94279999D01*
X192266642Y-94436341D01*
X192266370Y-94574857D01*
X192265882Y-94696734D01*
X192265124Y-94803160D01*
X192264038Y-94895322D01*
X192262569Y-94974409D01*
X192260660Y-95041608D01*
X192258256Y-95098107D01*
X192255299Y-95145093D01*
X192251734Y-95183755D01*
X192247505Y-95215280D01*
X192242554Y-95240855D01*
X192236827Y-95261670D01*
X192230267Y-95278911D01*
X192222817Y-95293765D01*
X192214421Y-95307422D01*
X192205024Y-95321069D01*
X192194568Y-95335893D01*
X192188477Y-95344783D01*
X192149704Y-95402400D01*
X192681268Y-95402400D01*
X192804517Y-95402365D01*
X192907013Y-95402215D01*
X192990580Y-95401878D01*
X193057044Y-95401286D01*
X193108229Y-95400367D01*
X193145959Y-95399051D01*
X193172060Y-95397269D01*
X193188356Y-95394951D01*
X193196672Y-95392026D01*
X193198832Y-95388424D01*
X193196661Y-95384075D01*
X193195465Y-95382645D01*
X193170315Y-95345573D01*
X193144417Y-95292772D01*
X193120808Y-95230770D01*
X193112539Y-95204357D01*
X193107922Y-95186416D01*
X193104021Y-95165355D01*
X193100752Y-95139089D01*
X193098034Y-95105532D01*
X193095785Y-95062599D01*
X193093923Y-95008204D01*
X193092364Y-94940262D01*
X193091028Y-94856688D01*
X193089831Y-94755395D01*
X193088692Y-94634300D01*
X193088315Y-94589600D01*
X193087298Y-94464449D01*
X193086540Y-94360082D01*
X193086097Y-94274707D01*
X193086030Y-94206533D01*
X193086395Y-94153765D01*
X193087252Y-94114614D01*
X193088659Y-94087285D01*
X193090675Y-94069986D01*
X193093357Y-94060926D01*
X193096764Y-94058312D01*
X193100956Y-94060351D01*
X193105429Y-94064667D01*
X193115784Y-94077602D01*
X193137842Y-94106676D01*
X193170043Y-94149759D01*
X193210826Y-94204718D01*
X193258630Y-94269423D01*
X193311895Y-94341742D01*
X193369060Y-94419544D01*
X193428563Y-94500698D01*
X193488845Y-94583072D01*
X193548345Y-94664536D01*
X193605502Y-94742957D01*
X193658755Y-94816204D01*
X193706543Y-94882147D01*
X193747307Y-94938654D01*
X193779484Y-94983593D01*
X193801515Y-95014834D01*
X193806083Y-95021466D01*
X193829004Y-95058369D01*
X193855812Y-95106359D01*
X193881211Y-95155897D01*
X193884432Y-95162577D01*
X193906110Y-95210772D01*
X193918696Y-95248334D01*
X193924426Y-95284160D01*
X193925544Y-95326200D01*
X193924910Y-95402400D01*
X195079349Y-95402400D01*
X194988185Y-95308669D01*
X194941388Y-95258775D01*
X194891101Y-95202295D01*
X194845056Y-95148026D01*
X194824631Y-95122673D01*
X194794193Y-95083128D01*
X194754138Y-95029916D01*
X194705639Y-94964667D01*
X194649865Y-94889011D01*
X194587989Y-94804577D01*
X194521181Y-94712994D01*
X194450613Y-94615892D01*
X194377455Y-94514901D01*
X194302879Y-94411650D01*
X194228056Y-94307768D01*
X194154157Y-94204885D01*
X194082354Y-94104631D01*
X194013816Y-94008636D01*
X193949716Y-93918527D01*
X193891225Y-93835936D01*
X193839514Y-93762492D01*
X193795753Y-93699824D01*
X193761115Y-93649561D01*
X193736770Y-93613334D01*
X193723889Y-93592771D01*
X193722131Y-93588668D01*
X193730090Y-93577342D01*
X193750885Y-93550162D01*
X193783153Y-93508829D01*
X193825530Y-93455044D01*
X193876653Y-93390506D01*
X193935159Y-93316918D01*
X193999686Y-93235978D01*
X194068869Y-93149388D01*
X194141347Y-93058848D01*
X194215754Y-92966060D01*
X194275483Y-92891702D01*
X195286489Y-92891702D01*
X195292398Y-92904659D01*
X195306728Y-92926908D01*
X195307775Y-92928391D01*
X195326562Y-92958544D01*
X195346209Y-92995375D01*
X195350108Y-93003511D01*
X195353644Y-93011940D01*
X195356770Y-93022059D01*
X195359514Y-93035260D01*
X195361908Y-93052938D01*
X195363981Y-93076484D01*
X195365765Y-93107293D01*
X195367288Y-93146757D01*
X195368581Y-93196269D01*
X195369674Y-93257223D01*
X195370597Y-93331011D01*
X195371381Y-93419028D01*
X195372055Y-93522665D01*
X195372650Y-93643316D01*
X195373195Y-93782374D01*
X195373721Y-93941232D01*
X195374255Y-94120089D01*
X195374794Y-94305207D01*
X195375228Y-94469145D01*
X195375491Y-94613303D01*
X195375516Y-94739079D01*
X195375235Y-94847871D01*
X195374581Y-94941077D01*
X195373486Y-95020097D01*
X195371882Y-95086328D01*
X195369703Y-95141170D01*
X195366881Y-95186021D01*
X195363349Y-95222278D01*
X195359039Y-95251341D01*
X195353883Y-95274609D01*
X195347815Y-95293479D01*
X195340767Y-95309351D01*
X195332671Y-95323622D01*
X195323460Y-95337691D01*
X195314960Y-95350158D01*
X195297824Y-95376452D01*
X195287678Y-95394037D01*
X195286489Y-95397257D01*
X195297396Y-95398334D01*
X195328589Y-95399335D01*
X195377777Y-95400235D01*
X195442667Y-95401010D01*
X195520970Y-95401637D01*
X195610393Y-95402091D01*
X195708644Y-95402349D01*
X195777555Y-95402400D01*
X195882548Y-95402180D01*
X195979390Y-95401548D01*
X196065893Y-95400549D01*
X196139868Y-95399227D01*
X196199126Y-95397626D01*
X196241480Y-95395791D01*
X196264740Y-95393765D01*
X196268622Y-95392493D01*
X196260924Y-95377591D01*
X196252926Y-95369560D01*
X196239754Y-95352434D01*
X196222515Y-95322183D01*
X196210593Y-95297622D01*
X196183955Y-95238711D01*
X196180880Y-94061845D01*
X196177805Y-92884978D01*
X195732147Y-92884978D01*
X195634330Y-92885142D01*
X195543936Y-92885611D01*
X195463370Y-92886347D01*
X195395038Y-92887316D01*
X195341344Y-92888480D01*
X195304695Y-92889803D01*
X195287496Y-92891249D01*
X195286489Y-92891702D01*
X194275483Y-92891702D01*
X194290730Y-92872722D01*
X194364910Y-92780537D01*
X194436931Y-92691204D01*
X194505431Y-92606424D01*
X194569045Y-92527898D01*
X194626412Y-92457326D01*
X194676167Y-92396409D01*
X194716948Y-92346847D01*
X194734112Y-92326178D01*
X194820404Y-92225516D01*
X194897003Y-92142259D01*
X194965817Y-92074438D01*
X195028752Y-92020089D01*
X195038133Y-92012722D01*
X195077644Y-91982117D01*
X193945884Y-91981867D01*
X193951173Y-92029844D01*
X193947870Y-92087188D01*
X193926339Y-92155463D01*
X193886365Y-92235212D01*
X193841057Y-92307495D01*
X193824839Y-92330140D01*
X193796786Y-92367696D01*
X193758570Y-92418021D01*
X193711863Y-92478973D01*
X193658339Y-92548411D01*
X193599669Y-92624194D01*
X193537525Y-92704180D01*
X193473579Y-92786228D01*
X193409505Y-92868196D01*
X193346973Y-92947943D01*
X193287657Y-93023327D01*
X193233229Y-93092207D01*
X193185361Y-93152442D01*
X193145725Y-93201889D01*
X193115994Y-93238408D01*
X193097839Y-93259858D01*
X193094780Y-93263156D01*
X193091921Y-93255149D01*
X193089707Y-93224855D01*
X193088143Y-93172556D01*
X193087233Y-93098531D01*
X193086980Y-93003063D01*
X193087387Y-92886434D01*
X193088296Y-92766445D01*
X193089618Y-92634333D01*
X193091143Y-92522594D01*
X193093119Y-92429025D01*
X193095794Y-92351419D01*
X193099418Y-92287574D01*
X193104239Y-92235283D01*
X193110506Y-92192344D01*
X193118468Y-92156551D01*
X193128373Y-92125700D01*
X193140469Y-92097586D01*
X193155007Y-92070005D01*
X193169689Y-92044966D01*
X193207686Y-91981867D01*
X192147803Y-91981867D01*
X191844966Y-91981867D01*
X191844999Y-91975617D01*
X191845805Y-91873544D01*
X191846830Y-91784633D01*
X191848100Y-91707941D01*
X191849640Y-91642527D01*
X191851476Y-91587449D01*
X191853633Y-91541765D01*
X191856137Y-91504534D01*
X191859013Y-91474813D01*
X191862287Y-91451662D01*
X191865985Y-91434139D01*
X191870131Y-91421301D01*
X191874753Y-91412208D01*
X191879874Y-91405918D01*
X191885522Y-91401488D01*
X191891721Y-91397978D01*
X191898496Y-91394445D01*
X191904492Y-91390876D01*
X191909725Y-91388300D01*
X191917901Y-91385972D01*
X191930114Y-91383878D01*
X191947459Y-91382007D01*
X191971031Y-91380347D01*
X192001923Y-91378884D01*
X192041232Y-91377608D01*
X192090050Y-91376504D01*
X192149473Y-91375561D01*
X192220596Y-91374767D01*
X192304512Y-91374109D01*
X192402317Y-91373575D01*
X192515106Y-91373153D01*
X192643971Y-91372829D01*
X192790009Y-91372592D01*
X192954314Y-91372430D01*
X193137980Y-91372330D01*
X193342103Y-91372280D01*
X193553247Y-91372267D01*
X195173600Y-91372267D01*
X195173600Y-91469054D01*
X195173600Y-91469054D01*
G37*
X195173600Y-91469054D02*
X195184465Y-91582993D01*
X195216082Y-91690616D01*
X195266985Y-91789615D01*
X195335707Y-91877684D01*
X195420781Y-91952516D01*
X195517768Y-92010384D01*
X195624036Y-92050005D01*
X195731050Y-92068573D01*
X195836700Y-92067434D01*
X195938875Y-92047930D01*
X196035466Y-92011406D01*
X196124362Y-91959205D01*
X196203454Y-91892673D01*
X196270631Y-91813152D01*
X196323783Y-91721987D01*
X196360801Y-91620523D01*
X196379573Y-91510102D01*
X196381511Y-91460206D01*
X196381511Y-91372267D01*
X196433440Y-91372267D01*
X196469747Y-91375111D01*
X196496645Y-91386911D01*
X196523751Y-91410649D01*
X196562133Y-91449031D01*
X196562133Y-93640602D01*
X196562124Y-93902739D01*
X196562092Y-94143241D01*
X196562028Y-94363048D01*
X196561924Y-94563101D01*
X196561773Y-94744344D01*
X196561566Y-94907716D01*
X196561294Y-95054160D01*
X196560950Y-95184617D01*
X196560526Y-95300029D01*
X196560013Y-95401338D01*
X196559403Y-95489484D01*
X196558688Y-95565410D01*
X196557860Y-95630057D01*
X196556911Y-95684367D01*
X196555833Y-95729280D01*
X196554617Y-95765740D01*
X196553255Y-95794687D01*
X196551739Y-95817063D01*
X196550062Y-95833809D01*
X196548214Y-95845868D01*
X196546187Y-95854180D01*
X196543975Y-95859687D01*
X196542892Y-95861537D01*
X196538729Y-95868549D01*
X196535195Y-95874996D01*
X196531365Y-95880900D01*
X196526318Y-95886286D01*
X196519129Y-95891178D01*
X196508877Y-95895598D01*
X196494636Y-95899572D01*
X196475486Y-95903121D01*
X196450501Y-95906270D01*
X196418760Y-95909042D01*
X196379338Y-95911461D01*
X196331314Y-95913551D01*
X196273763Y-95915335D01*
X196205763Y-95916837D01*
X196126390Y-95918080D01*
X196034721Y-95919089D01*
X195929834Y-95919885D01*
X195810804Y-95920494D01*
X195676710Y-95920939D01*
X195526627Y-95921243D01*
X195359633Y-95921430D01*
X195174804Y-95921524D01*
X194971217Y-95921548D01*
X194747950Y-95921525D01*
X194504078Y-95921480D01*
X194238679Y-95921437D01*
X194200296Y-95921432D01*
X193933318Y-95921389D01*
X193687998Y-95921318D01*
X193463417Y-95921213D01*
X193258655Y-95921066D01*
X193072794Y-95920869D01*
X192904912Y-95920616D01*
X192754092Y-95920300D01*
X192619413Y-95919913D01*
X192499956Y-95919447D01*
X192394801Y-95918897D01*
X192303029Y-95918253D01*
X192223721Y-95917511D01*
X192155957Y-95916661D01*
X192098818Y-95915697D01*
X192051383Y-95914611D01*
X192012734Y-95913397D01*
X191981951Y-95912047D01*
X191958115Y-95910555D01*
X191940306Y-95908911D01*
X191927605Y-95907111D01*
X191919092Y-95905145D01*
X191914734Y-95903477D01*
X191906272Y-95899906D01*
X191898503Y-95897270D01*
X191891398Y-95894634D01*
X191884927Y-95891062D01*
X191879061Y-95885621D01*
X191873771Y-95877375D01*
X191869026Y-95865390D01*
X191864798Y-95848731D01*
X191861057Y-95826463D01*
X191857773Y-95797652D01*
X191854917Y-95761363D01*
X191852460Y-95716661D01*
X191850371Y-95662611D01*
X191848622Y-95598279D01*
X191847183Y-95522730D01*
X191846024Y-95435030D01*
X191845117Y-95334243D01*
X191844431Y-95219434D01*
X191843937Y-95089670D01*
X191843605Y-94944015D01*
X191843407Y-94781535D01*
X191843313Y-94601295D01*
X191843292Y-94402360D01*
X191843315Y-94183796D01*
X191843354Y-93944668D01*
X191843378Y-93684040D01*
X191843378Y-93641889D01*
X191843364Y-93378992D01*
X191843339Y-93137732D01*
X191843329Y-92917165D01*
X191843358Y-92716352D01*
X191843452Y-92534349D01*
X191843638Y-92370216D01*
X191843941Y-92223011D01*
X191844386Y-92091792D01*
X191844966Y-91981867D01*
X192147803Y-91981867D01*
X192187593Y-92039711D01*
X192198764Y-92055479D01*
X192208834Y-92069441D01*
X192217862Y-92082784D01*
X192225903Y-92096693D01*
X192233014Y-92112356D01*
X192239253Y-92130958D01*
X192244675Y-92153686D01*
X192249338Y-92181727D01*
X192253299Y-92216267D01*
X192256615Y-92258492D01*
X192259341Y-92309589D01*
X192261536Y-92370744D01*
X192263255Y-92443144D01*
X192264556Y-92527975D01*
X192265495Y-92626422D01*
X192266130Y-92739674D01*
X192266516Y-92868916D01*
X192266712Y-93015334D01*
X192266773Y-93180116D01*
X192266757Y-93364447D01*
X192266720Y-93569513D01*
X192266711Y-93692133D01*
X192266735Y-93909082D01*
X192266769Y-94104642D01*
X192266757Y-94279999D01*
X192266642Y-94436341D01*
X192266370Y-94574857D01*
X192265882Y-94696734D01*
X192265124Y-94803160D01*
X192264038Y-94895322D01*
X192262569Y-94974409D01*
X192260660Y-95041608D01*
X192258256Y-95098107D01*
X192255299Y-95145093D01*
X192251734Y-95183755D01*
X192247505Y-95215280D01*
X192242554Y-95240855D01*
X192236827Y-95261670D01*
X192230267Y-95278911D01*
X192222817Y-95293765D01*
X192214421Y-95307422D01*
X192205024Y-95321069D01*
X192194568Y-95335893D01*
X192188477Y-95344783D01*
X192149704Y-95402400D01*
X192681268Y-95402400D01*
X192804517Y-95402365D01*
X192907013Y-95402215D01*
X192990580Y-95401878D01*
X193057044Y-95401286D01*
X193108229Y-95400367D01*
X193145959Y-95399051D01*
X193172060Y-95397269D01*
X193188356Y-95394951D01*
X193196672Y-95392026D01*
X193198832Y-95388424D01*
X193196661Y-95384075D01*
X193195465Y-95382645D01*
X193170315Y-95345573D01*
X193144417Y-95292772D01*
X193120808Y-95230770D01*
X193112539Y-95204357D01*
X193107922Y-95186416D01*
X193104021Y-95165355D01*
X193100752Y-95139089D01*
X193098034Y-95105532D01*
X193095785Y-95062599D01*
X193093923Y-95008204D01*
X193092364Y-94940262D01*
X193091028Y-94856688D01*
X193089831Y-94755395D01*
X193088692Y-94634300D01*
X193088315Y-94589600D01*
X193087298Y-94464449D01*
X193086540Y-94360082D01*
X193086097Y-94274707D01*
X193086030Y-94206533D01*
X193086395Y-94153765D01*
X193087252Y-94114614D01*
X193088659Y-94087285D01*
X193090675Y-94069986D01*
X193093357Y-94060926D01*
X193096764Y-94058312D01*
X193100956Y-94060351D01*
X193105429Y-94064667D01*
X193115784Y-94077602D01*
X193137842Y-94106676D01*
X193170043Y-94149759D01*
X193210826Y-94204718D01*
X193258630Y-94269423D01*
X193311895Y-94341742D01*
X193369060Y-94419544D01*
X193428563Y-94500698D01*
X193488845Y-94583072D01*
X193548345Y-94664536D01*
X193605502Y-94742957D01*
X193658755Y-94816204D01*
X193706543Y-94882147D01*
X193747307Y-94938654D01*
X193779484Y-94983593D01*
X193801515Y-95014834D01*
X193806083Y-95021466D01*
X193829004Y-95058369D01*
X193855812Y-95106359D01*
X193881211Y-95155897D01*
X193884432Y-95162577D01*
X193906110Y-95210772D01*
X193918696Y-95248334D01*
X193924426Y-95284160D01*
X193925544Y-95326200D01*
X193924910Y-95402400D01*
X195079349Y-95402400D01*
X194988185Y-95308669D01*
X194941388Y-95258775D01*
X194891101Y-95202295D01*
X194845056Y-95148026D01*
X194824631Y-95122673D01*
X194794193Y-95083128D01*
X194754138Y-95029916D01*
X194705639Y-94964667D01*
X194649865Y-94889011D01*
X194587989Y-94804577D01*
X194521181Y-94712994D01*
X194450613Y-94615892D01*
X194377455Y-94514901D01*
X194302879Y-94411650D01*
X194228056Y-94307768D01*
X194154157Y-94204885D01*
X194082354Y-94104631D01*
X194013816Y-94008636D01*
X193949716Y-93918527D01*
X193891225Y-93835936D01*
X193839514Y-93762492D01*
X193795753Y-93699824D01*
X193761115Y-93649561D01*
X193736770Y-93613334D01*
X193723889Y-93592771D01*
X193722131Y-93588668D01*
X193730090Y-93577342D01*
X193750885Y-93550162D01*
X193783153Y-93508829D01*
X193825530Y-93455044D01*
X193876653Y-93390506D01*
X193935159Y-93316918D01*
X193999686Y-93235978D01*
X194068869Y-93149388D01*
X194141347Y-93058848D01*
X194215754Y-92966060D01*
X194275483Y-92891702D01*
X195286489Y-92891702D01*
X195292398Y-92904659D01*
X195306728Y-92926908D01*
X195307775Y-92928391D01*
X195326562Y-92958544D01*
X195346209Y-92995375D01*
X195350108Y-93003511D01*
X195353644Y-93011940D01*
X195356770Y-93022059D01*
X195359514Y-93035260D01*
X195361908Y-93052938D01*
X195363981Y-93076484D01*
X195365765Y-93107293D01*
X195367288Y-93146757D01*
X195368581Y-93196269D01*
X195369674Y-93257223D01*
X195370597Y-93331011D01*
X195371381Y-93419028D01*
X195372055Y-93522665D01*
X195372650Y-93643316D01*
X195373195Y-93782374D01*
X195373721Y-93941232D01*
X195374255Y-94120089D01*
X195374794Y-94305207D01*
X195375228Y-94469145D01*
X195375491Y-94613303D01*
X195375516Y-94739079D01*
X195375235Y-94847871D01*
X195374581Y-94941077D01*
X195373486Y-95020097D01*
X195371882Y-95086328D01*
X195369703Y-95141170D01*
X195366881Y-95186021D01*
X195363349Y-95222278D01*
X195359039Y-95251341D01*
X195353883Y-95274609D01*
X195347815Y-95293479D01*
X195340767Y-95309351D01*
X195332671Y-95323622D01*
X195323460Y-95337691D01*
X195314960Y-95350158D01*
X195297824Y-95376452D01*
X195287678Y-95394037D01*
X195286489Y-95397257D01*
X195297396Y-95398334D01*
X195328589Y-95399335D01*
X195377777Y-95400235D01*
X195442667Y-95401010D01*
X195520970Y-95401637D01*
X195610393Y-95402091D01*
X195708644Y-95402349D01*
X195777555Y-95402400D01*
X195882548Y-95402180D01*
X195979390Y-95401548D01*
X196065893Y-95400549D01*
X196139868Y-95399227D01*
X196199126Y-95397626D01*
X196241480Y-95395791D01*
X196264740Y-95393765D01*
X196268622Y-95392493D01*
X196260924Y-95377591D01*
X196252926Y-95369560D01*
X196239754Y-95352434D01*
X196222515Y-95322183D01*
X196210593Y-95297622D01*
X196183955Y-95238711D01*
X196180880Y-94061845D01*
X196177805Y-92884978D01*
X195732147Y-92884978D01*
X195634330Y-92885142D01*
X195543936Y-92885611D01*
X195463370Y-92886347D01*
X195395038Y-92887316D01*
X195341344Y-92888480D01*
X195304695Y-92889803D01*
X195287496Y-92891249D01*
X195286489Y-92891702D01*
X194275483Y-92891702D01*
X194290730Y-92872722D01*
X194364910Y-92780537D01*
X194436931Y-92691204D01*
X194505431Y-92606424D01*
X194569045Y-92527898D01*
X194626412Y-92457326D01*
X194676167Y-92396409D01*
X194716948Y-92346847D01*
X194734112Y-92326178D01*
X194820404Y-92225516D01*
X194897003Y-92142259D01*
X194965817Y-92074438D01*
X195028752Y-92020089D01*
X195038133Y-92012722D01*
X195077644Y-91982117D01*
X193945884Y-91981867D01*
X193951173Y-92029844D01*
X193947870Y-92087188D01*
X193926339Y-92155463D01*
X193886365Y-92235212D01*
X193841057Y-92307495D01*
X193824839Y-92330140D01*
X193796786Y-92367696D01*
X193758570Y-92418021D01*
X193711863Y-92478973D01*
X193658339Y-92548411D01*
X193599669Y-92624194D01*
X193537525Y-92704180D01*
X193473579Y-92786228D01*
X193409505Y-92868196D01*
X193346973Y-92947943D01*
X193287657Y-93023327D01*
X193233229Y-93092207D01*
X193185361Y-93152442D01*
X193145725Y-93201889D01*
X193115994Y-93238408D01*
X193097839Y-93259858D01*
X193094780Y-93263156D01*
X193091921Y-93255149D01*
X193089707Y-93224855D01*
X193088143Y-93172556D01*
X193087233Y-93098531D01*
X193086980Y-93003063D01*
X193087387Y-92886434D01*
X193088296Y-92766445D01*
X193089618Y-92634333D01*
X193091143Y-92522594D01*
X193093119Y-92429025D01*
X193095794Y-92351419D01*
X193099418Y-92287574D01*
X193104239Y-92235283D01*
X193110506Y-92192344D01*
X193118468Y-92156551D01*
X193128373Y-92125700D01*
X193140469Y-92097586D01*
X193155007Y-92070005D01*
X193169689Y-92044966D01*
X193207686Y-91981867D01*
X192147803Y-91981867D01*
X191844966Y-91981867D01*
X191844999Y-91975617D01*
X191845805Y-91873544D01*
X191846830Y-91784633D01*
X191848100Y-91707941D01*
X191849640Y-91642527D01*
X191851476Y-91587449D01*
X191853633Y-91541765D01*
X191856137Y-91504534D01*
X191859013Y-91474813D01*
X191862287Y-91451662D01*
X191865985Y-91434139D01*
X191870131Y-91421301D01*
X191874753Y-91412208D01*
X191879874Y-91405918D01*
X191885522Y-91401488D01*
X191891721Y-91397978D01*
X191898496Y-91394445D01*
X191904492Y-91390876D01*
X191909725Y-91388300D01*
X191917901Y-91385972D01*
X191930114Y-91383878D01*
X191947459Y-91382007D01*
X191971031Y-91380347D01*
X192001923Y-91378884D01*
X192041232Y-91377608D01*
X192090050Y-91376504D01*
X192149473Y-91375561D01*
X192220596Y-91374767D01*
X192304512Y-91374109D01*
X192402317Y-91373575D01*
X192515106Y-91373153D01*
X192643971Y-91372829D01*
X192790009Y-91372592D01*
X192954314Y-91372430D01*
X193137980Y-91372330D01*
X193342103Y-91372280D01*
X193553247Y-91372267D01*
X195173600Y-91372267D01*
X195173600Y-91469054D01*
G36*
X198448429Y-91929071D02*
X198608570Y-91950245D01*
X198772510Y-91990385D01*
X198942313Y-92049889D01*
X199120043Y-92129154D01*
X199131310Y-92134699D01*
X199189005Y-92162725D01*
X199240552Y-92186802D01*
X199282191Y-92205249D01*
X199310162Y-92216386D01*
X199319733Y-92218933D01*
X199338950Y-92223941D01*
X199343561Y-92228147D01*
X199338458Y-92238580D01*
X199322418Y-92264868D01*
X199297288Y-92304257D01*
X199264914Y-92353991D01*
X199227143Y-92411315D01*
X199185822Y-92473476D01*
X199142798Y-92537718D01*
X199099917Y-92601285D01*
X199059026Y-92661425D01*
X199021971Y-92715380D01*
X198990600Y-92760397D01*
X198966759Y-92793721D01*
X198952294Y-92812597D01*
X198950309Y-92814787D01*
X198940191Y-92810138D01*
X198917850Y-92792962D01*
X198887280Y-92766440D01*
X198871536Y-92751964D01*
X198775047Y-92676682D01*
X198668336Y-92621241D01*
X198552832Y-92586141D01*
X198429962Y-92571880D01*
X198360561Y-92573051D01*
X198239423Y-92590212D01*
X198130205Y-92626094D01*
X198032582Y-92680959D01*
X197946228Y-92755070D01*
X197870815Y-92848688D01*
X197806018Y-92962076D01*
X197768601Y-93048667D01*
X197724748Y-93184366D01*
X197692428Y-93331850D01*
X197671557Y-93487314D01*
X197662051Y-93646956D01*
X197663827Y-93806973D01*
X197676803Y-93963561D01*
X197700894Y-94112918D01*
X197736018Y-94251240D01*
X197782092Y-94374724D01*
X197798373Y-94408978D01*
X197866620Y-94523064D01*
X197947079Y-94619557D01*
X198038570Y-94697670D01*
X198139911Y-94756617D01*
X198249920Y-94795612D01*
X198367415Y-94813868D01*
X198408883Y-94815211D01*
X198530441Y-94804290D01*
X198650878Y-94771474D01*
X198768666Y-94717439D01*
X198882277Y-94642865D01*
X198973685Y-94564539D01*
X199020215Y-94520008D01*
X199201483Y-94817271D01*
X199246580Y-94891433D01*
X199287819Y-94959646D01*
X199323735Y-95019459D01*
X199352866Y-95068420D01*
X199373750Y-95104079D01*
X199384924Y-95123984D01*
X199386375Y-95127079D01*
X199378146Y-95136718D01*
X199352567Y-95153999D01*
X199312873Y-95177283D01*
X199262297Y-95204934D01*
X199204074Y-95235315D01*
X199141437Y-95266790D01*
X199077621Y-95297722D01*
X199015860Y-95326473D01*
X198959388Y-95351408D01*
X198911438Y-95370889D01*
X198887986Y-95379318D01*
X198754221Y-95417133D01*
X198616327Y-95442136D01*
X198468622Y-95455140D01*
X198341833Y-95457468D01*
X198273878Y-95456373D01*
X198208277Y-95454275D01*
X198150847Y-95451434D01*
X198107403Y-95448106D01*
X198093298Y-95446422D01*
X197954284Y-95417587D01*
X197812757Y-95372468D01*
X197675275Y-95313750D01*
X197548394Y-95244120D01*
X197470889Y-95191441D01*
X197343481Y-95083239D01*
X197225178Y-94956671D01*
X197118172Y-94814866D01*
X197024652Y-94660951D01*
X196946810Y-94498053D01*
X196902956Y-94380756D01*
X196852708Y-94197128D01*
X196819209Y-94002581D01*
X196802449Y-93801325D01*
X196802416Y-93597568D01*
X196819101Y-93395521D01*
X196852493Y-93199392D01*
X196902580Y-93013391D01*
X196906397Y-93001803D01*
X196969281Y-92839750D01*
X197046028Y-92691832D01*
X197139242Y-92553865D01*
X197251527Y-92421661D01*
X197295392Y-92376399D01*
X197431534Y-92252457D01*
X197571491Y-92149915D01*
X197717411Y-92067656D01*
X197871442Y-92004564D01*
X198035732Y-91959523D01*
X198131289Y-91942033D01*
X198290023Y-91926466D01*
X198448429Y-91929071D01*
X198448429Y-91929071D01*
G37*
X198448429Y-91929071D02*
X198608570Y-91950245D01*
X198772510Y-91990385D01*
X198942313Y-92049889D01*
X199120043Y-92129154D01*
X199131310Y-92134699D01*
X199189005Y-92162725D01*
X199240552Y-92186802D01*
X199282191Y-92205249D01*
X199310162Y-92216386D01*
X199319733Y-92218933D01*
X199338950Y-92223941D01*
X199343561Y-92228147D01*
X199338458Y-92238580D01*
X199322418Y-92264868D01*
X199297288Y-92304257D01*
X199264914Y-92353991D01*
X199227143Y-92411315D01*
X199185822Y-92473476D01*
X199142798Y-92537718D01*
X199099917Y-92601285D01*
X199059026Y-92661425D01*
X199021971Y-92715380D01*
X198990600Y-92760397D01*
X198966759Y-92793721D01*
X198952294Y-92812597D01*
X198950309Y-92814787D01*
X198940191Y-92810138D01*
X198917850Y-92792962D01*
X198887280Y-92766440D01*
X198871536Y-92751964D01*
X198775047Y-92676682D01*
X198668336Y-92621241D01*
X198552832Y-92586141D01*
X198429962Y-92571880D01*
X198360561Y-92573051D01*
X198239423Y-92590212D01*
X198130205Y-92626094D01*
X198032582Y-92680959D01*
X197946228Y-92755070D01*
X197870815Y-92848688D01*
X197806018Y-92962076D01*
X197768601Y-93048667D01*
X197724748Y-93184366D01*
X197692428Y-93331850D01*
X197671557Y-93487314D01*
X197662051Y-93646956D01*
X197663827Y-93806973D01*
X197676803Y-93963561D01*
X197700894Y-94112918D01*
X197736018Y-94251240D01*
X197782092Y-94374724D01*
X197798373Y-94408978D01*
X197866620Y-94523064D01*
X197947079Y-94619557D01*
X198038570Y-94697670D01*
X198139911Y-94756617D01*
X198249920Y-94795612D01*
X198367415Y-94813868D01*
X198408883Y-94815211D01*
X198530441Y-94804290D01*
X198650878Y-94771474D01*
X198768666Y-94717439D01*
X198882277Y-94642865D01*
X198973685Y-94564539D01*
X199020215Y-94520008D01*
X199201483Y-94817271D01*
X199246580Y-94891433D01*
X199287819Y-94959646D01*
X199323735Y-95019459D01*
X199352866Y-95068420D01*
X199373750Y-95104079D01*
X199384924Y-95123984D01*
X199386375Y-95127079D01*
X199378146Y-95136718D01*
X199352567Y-95153999D01*
X199312873Y-95177283D01*
X199262297Y-95204934D01*
X199204074Y-95235315D01*
X199141437Y-95266790D01*
X199077621Y-95297722D01*
X199015860Y-95326473D01*
X198959388Y-95351408D01*
X198911438Y-95370889D01*
X198887986Y-95379318D01*
X198754221Y-95417133D01*
X198616327Y-95442136D01*
X198468622Y-95455140D01*
X198341833Y-95457468D01*
X198273878Y-95456373D01*
X198208277Y-95454275D01*
X198150847Y-95451434D01*
X198107403Y-95448106D01*
X198093298Y-95446422D01*
X197954284Y-95417587D01*
X197812757Y-95372468D01*
X197675275Y-95313750D01*
X197548394Y-95244120D01*
X197470889Y-95191441D01*
X197343481Y-95083239D01*
X197225178Y-94956671D01*
X197118172Y-94814866D01*
X197024652Y-94660951D01*
X196946810Y-94498053D01*
X196902956Y-94380756D01*
X196852708Y-94197128D01*
X196819209Y-94002581D01*
X196802449Y-93801325D01*
X196802416Y-93597568D01*
X196819101Y-93395521D01*
X196852493Y-93199392D01*
X196902580Y-93013391D01*
X196906397Y-93001803D01*
X196969281Y-92839750D01*
X197046028Y-92691832D01*
X197139242Y-92553865D01*
X197251527Y-92421661D01*
X197295392Y-92376399D01*
X197431534Y-92252457D01*
X197571491Y-92149915D01*
X197717411Y-92067656D01*
X197871442Y-92004564D01*
X198035732Y-91959523D01*
X198131289Y-91942033D01*
X198290023Y-91926466D01*
X198448429Y-91929071D01*
G36*
X200793574Y-92846552D02*
X200945492Y-92866567D01*
X201080756Y-92900202D01*
X201200239Y-92947725D01*
X201304815Y-93009405D01*
X201382424Y-93072965D01*
X201451265Y-93147099D01*
X201505006Y-93226871D01*
X201547910Y-93319091D01*
X201563384Y-93362161D01*
X201576244Y-93401142D01*
X201587446Y-93437289D01*
X201597120Y-93472434D01*
X201605396Y-93508410D01*
X201612403Y-93547050D01*
X201618272Y-93590185D01*
X201623131Y-93639649D01*
X201627110Y-93697273D01*
X201630340Y-93764891D01*
X201632949Y-93844334D01*
X201635067Y-93937436D01*
X201636824Y-94046027D01*
X201638349Y-94171942D01*
X201639772Y-94317012D01*
X201641025Y-94459778D01*
X201642351Y-94615968D01*
X201643556Y-94751239D01*
X201644766Y-94867246D01*
X201646106Y-94965645D01*
X201647700Y-95048093D01*
X201649675Y-95116246D01*
X201652156Y-95171760D01*
X201655269Y-95216292D01*
X201659138Y-95251498D01*
X201663889Y-95279034D01*
X201669648Y-95300556D01*
X201676539Y-95317722D01*
X201684689Y-95332186D01*
X201694223Y-95345606D01*
X201705266Y-95359638D01*
X201709566Y-95365071D01*
X201725386Y-95387910D01*
X201732422Y-95403463D01*
X201732444Y-95403922D01*
X201721567Y-95406121D01*
X201690582Y-95408147D01*
X201641957Y-95409942D01*
X201578163Y-95411451D01*
X201501669Y-95412616D01*
X201414944Y-95413380D01*
X201320457Y-95413686D01*
X201309550Y-95413689D01*
X200886657Y-95413689D01*
X200883395Y-95317622D01*
X200880133Y-95221556D01*
X200818044Y-95272543D01*
X200720714Y-95340057D01*
X200610813Y-95394749D01*
X200524349Y-95424978D01*
X200455278Y-95439666D01*
X200371925Y-95449659D01*
X200282159Y-95454646D01*
X200193845Y-95454313D01*
X200114851Y-95448351D01*
X200078622Y-95442638D01*
X199938603Y-95404776D01*
X199812178Y-95349932D01*
X199700260Y-95278924D01*
X199603762Y-95192568D01*
X199523600Y-95091679D01*
X199460687Y-94977076D01*
X199416312Y-94850984D01*
X199403978Y-94794401D01*
X199396368Y-94732202D01*
X199392739Y-94657363D01*
X199392245Y-94623467D01*
X199392310Y-94620282D01*
X200152248Y-94620282D01*
X200161541Y-94695333D01*
X200189728Y-94759160D01*
X200238197Y-94814798D01*
X200243254Y-94819211D01*
X200291548Y-94854037D01*
X200343257Y-94876620D01*
X200403989Y-94888540D01*
X200479352Y-94891383D01*
X200497459Y-94890978D01*
X200551278Y-94888325D01*
X200591308Y-94882909D01*
X200626324Y-94872745D01*
X200665103Y-94855850D01*
X200675745Y-94850672D01*
X200736396Y-94814844D01*
X200783215Y-94772212D01*
X200795952Y-94756973D01*
X200840622Y-94700462D01*
X200840622Y-94504586D01*
X200840086Y-94425939D01*
X200838396Y-94367988D01*
X200835428Y-94328875D01*
X200831057Y-94306741D01*
X200826972Y-94300274D01*
X200811047Y-94297111D01*
X200777264Y-94294488D01*
X200730340Y-94292655D01*
X200674993Y-94291857D01*
X200666106Y-94291842D01*
X200545330Y-94297096D01*
X200442660Y-94313263D01*
X200356106Y-94340961D01*
X200283681Y-94380808D01*
X200228751Y-94427758D01*
X200184204Y-94485645D01*
X200159480Y-94548693D01*
X200152248Y-94620282D01*
X199392310Y-94620282D01*
X199394178Y-94529712D01*
X199402522Y-94450812D01*
X199418768Y-94379590D01*
X199444405Y-94308864D01*
X199468401Y-94256493D01*
X199527020Y-94161196D01*
X199605117Y-94073170D01*
X199700315Y-93994017D01*
X199810238Y-93925340D01*
X199932510Y-93868741D01*
X200064755Y-93825821D01*
X200129422Y-93810882D01*
X200265604Y-93788777D01*
X200414049Y-93774194D01*
X200565505Y-93767813D01*
X200692064Y-93769445D01*
X200853950Y-93776224D01*
X200846530Y-93717245D01*
X200827238Y-93618092D01*
X200796104Y-93537372D01*
X200752269Y-93474466D01*
X200694871Y-93428756D01*
X200623048Y-93399622D01*
X200535941Y-93386447D01*
X200432686Y-93388611D01*
X200394711Y-93392612D01*
X200253520Y-93417780D01*
X200116707Y-93458814D01*
X200022178Y-93496815D01*
X199977018Y-93516190D01*
X199938585Y-93531760D01*
X199912234Y-93541405D01*
X199904546Y-93543452D01*
X199894802Y-93534374D01*
X199878083Y-93505405D01*
X199854232Y-93456217D01*
X199823093Y-93386484D01*
X199784507Y-93295879D01*
X199777910Y-93280089D01*
X199747853Y-93207772D01*
X199720874Y-93142425D01*
X199698136Y-93086906D01*
X199680806Y-93044072D01*
X199670048Y-93016781D01*
X199666941Y-93007942D01*
X199676940Y-93003187D01*
X199703217Y-92997910D01*
X199731489Y-92994231D01*
X199761646Y-92989474D01*
X199809433Y-92980028D01*
X199870612Y-92966820D01*
X199940946Y-92950776D01*
X200016194Y-92932820D01*
X200044755Y-92925797D01*
X200149816Y-92900209D01*
X200237480Y-92880147D01*
X200312068Y-92864969D01*
X200377903Y-92854035D01*
X200439307Y-92846704D01*
X200500602Y-92842335D01*
X200566110Y-92840287D01*
X200624128Y-92839889D01*
X200793574Y-92846552D01*
X200793574Y-92846552D01*
G37*
X200793574Y-92846552D02*
X200945492Y-92866567D01*
X201080756Y-92900202D01*
X201200239Y-92947725D01*
X201304815Y-93009405D01*
X201382424Y-93072965D01*
X201451265Y-93147099D01*
X201505006Y-93226871D01*
X201547910Y-93319091D01*
X201563384Y-93362161D01*
X201576244Y-93401142D01*
X201587446Y-93437289D01*
X201597120Y-93472434D01*
X201605396Y-93508410D01*
X201612403Y-93547050D01*
X201618272Y-93590185D01*
X201623131Y-93639649D01*
X201627110Y-93697273D01*
X201630340Y-93764891D01*
X201632949Y-93844334D01*
X201635067Y-93937436D01*
X201636824Y-94046027D01*
X201638349Y-94171942D01*
X201639772Y-94317012D01*
X201641025Y-94459778D01*
X201642351Y-94615968D01*
X201643556Y-94751239D01*
X201644766Y-94867246D01*
X201646106Y-94965645D01*
X201647700Y-95048093D01*
X201649675Y-95116246D01*
X201652156Y-95171760D01*
X201655269Y-95216292D01*
X201659138Y-95251498D01*
X201663889Y-95279034D01*
X201669648Y-95300556D01*
X201676539Y-95317722D01*
X201684689Y-95332186D01*
X201694223Y-95345606D01*
X201705266Y-95359638D01*
X201709566Y-95365071D01*
X201725386Y-95387910D01*
X201732422Y-95403463D01*
X201732444Y-95403922D01*
X201721567Y-95406121D01*
X201690582Y-95408147D01*
X201641957Y-95409942D01*
X201578163Y-95411451D01*
X201501669Y-95412616D01*
X201414944Y-95413380D01*
X201320457Y-95413686D01*
X201309550Y-95413689D01*
X200886657Y-95413689D01*
X200883395Y-95317622D01*
X200880133Y-95221556D01*
X200818044Y-95272543D01*
X200720714Y-95340057D01*
X200610813Y-95394749D01*
X200524349Y-95424978D01*
X200455278Y-95439666D01*
X200371925Y-95449659D01*
X200282159Y-95454646D01*
X200193845Y-95454313D01*
X200114851Y-95448351D01*
X200078622Y-95442638D01*
X199938603Y-95404776D01*
X199812178Y-95349932D01*
X199700260Y-95278924D01*
X199603762Y-95192568D01*
X199523600Y-95091679D01*
X199460687Y-94977076D01*
X199416312Y-94850984D01*
X199403978Y-94794401D01*
X199396368Y-94732202D01*
X199392739Y-94657363D01*
X199392245Y-94623467D01*
X199392310Y-94620282D01*
X200152248Y-94620282D01*
X200161541Y-94695333D01*
X200189728Y-94759160D01*
X200238197Y-94814798D01*
X200243254Y-94819211D01*
X200291548Y-94854037D01*
X200343257Y-94876620D01*
X200403989Y-94888540D01*
X200479352Y-94891383D01*
X200497459Y-94890978D01*
X200551278Y-94888325D01*
X200591308Y-94882909D01*
X200626324Y-94872745D01*
X200665103Y-94855850D01*
X200675745Y-94850672D01*
X200736396Y-94814844D01*
X200783215Y-94772212D01*
X200795952Y-94756973D01*
X200840622Y-94700462D01*
X200840622Y-94504586D01*
X200840086Y-94425939D01*
X200838396Y-94367988D01*
X200835428Y-94328875D01*
X200831057Y-94306741D01*
X200826972Y-94300274D01*
X200811047Y-94297111D01*
X200777264Y-94294488D01*
X200730340Y-94292655D01*
X200674993Y-94291857D01*
X200666106Y-94291842D01*
X200545330Y-94297096D01*
X200442660Y-94313263D01*
X200356106Y-94340961D01*
X200283681Y-94380808D01*
X200228751Y-94427758D01*
X200184204Y-94485645D01*
X200159480Y-94548693D01*
X200152248Y-94620282D01*
X199392310Y-94620282D01*
X199394178Y-94529712D01*
X199402522Y-94450812D01*
X199418768Y-94379590D01*
X199444405Y-94308864D01*
X199468401Y-94256493D01*
X199527020Y-94161196D01*
X199605117Y-94073170D01*
X199700315Y-93994017D01*
X199810238Y-93925340D01*
X199932510Y-93868741D01*
X200064755Y-93825821D01*
X200129422Y-93810882D01*
X200265604Y-93788777D01*
X200414049Y-93774194D01*
X200565505Y-93767813D01*
X200692064Y-93769445D01*
X200853950Y-93776224D01*
X200846530Y-93717245D01*
X200827238Y-93618092D01*
X200796104Y-93537372D01*
X200752269Y-93474466D01*
X200694871Y-93428756D01*
X200623048Y-93399622D01*
X200535941Y-93386447D01*
X200432686Y-93388611D01*
X200394711Y-93392612D01*
X200253520Y-93417780D01*
X200116707Y-93458814D01*
X200022178Y-93496815D01*
X199977018Y-93516190D01*
X199938585Y-93531760D01*
X199912234Y-93541405D01*
X199904546Y-93543452D01*
X199894802Y-93534374D01*
X199878083Y-93505405D01*
X199854232Y-93456217D01*
X199823093Y-93386484D01*
X199784507Y-93295879D01*
X199777910Y-93280089D01*
X199747853Y-93207772D01*
X199720874Y-93142425D01*
X199698136Y-93086906D01*
X199680806Y-93044072D01*
X199670048Y-93016781D01*
X199666941Y-93007942D01*
X199676940Y-93003187D01*
X199703217Y-92997910D01*
X199731489Y-92994231D01*
X199761646Y-92989474D01*
X199809433Y-92980028D01*
X199870612Y-92966820D01*
X199940946Y-92950776D01*
X200016194Y-92932820D01*
X200044755Y-92925797D01*
X200149816Y-92900209D01*
X200237480Y-92880147D01*
X200312068Y-92864969D01*
X200377903Y-92854035D01*
X200439307Y-92846704D01*
X200500602Y-92842335D01*
X200566110Y-92840287D01*
X200624128Y-92839889D01*
X200793574Y-92846552D01*
G36*
X204306507Y-93452245D02*
X204306526Y-93686662D01*
X204306552Y-93899603D01*
X204306625Y-94092168D01*
X204306782Y-94265459D01*
X204307064Y-94420576D01*
X204307509Y-94558620D01*
X204308156Y-94680692D01*
X204309045Y-94787894D01*
X204310213Y-94881326D01*
X204311701Y-94962090D01*
X204313546Y-95031286D01*
X204315789Y-95090015D01*
X204318469Y-95139379D01*
X204321623Y-95180478D01*
X204325292Y-95214413D01*
X204329513Y-95242286D01*
X204334327Y-95265198D01*
X204339773Y-95284249D01*
X204345888Y-95300540D01*
X204352712Y-95315173D01*
X204360285Y-95329249D01*
X204368645Y-95343868D01*
X204373839Y-95352974D01*
X204408104Y-95413689D01*
X203549955Y-95413689D01*
X203549955Y-95317733D01*
X203549224Y-95274370D01*
X203547272Y-95241205D01*
X203544463Y-95223424D01*
X203543221Y-95221778D01*
X203531799Y-95228662D01*
X203509084Y-95246505D01*
X203486385Y-95265879D01*
X203431800Y-95306614D01*
X203362321Y-95347617D01*
X203285270Y-95385123D01*
X203207965Y-95415364D01*
X203177113Y-95425012D01*
X203108616Y-95439578D01*
X203025764Y-95449539D01*
X202936371Y-95454583D01*
X202848248Y-95454396D01*
X202769207Y-95448666D01*
X202731511Y-95442858D01*
X202593414Y-95404797D01*
X202466113Y-95347073D01*
X202350292Y-95270211D01*
X202246637Y-95174739D01*
X202155833Y-95061179D01*
X202089031Y-94950381D01*
X202034164Y-94833625D01*
X201992163Y-94714276D01*
X201962167Y-94588283D01*
X201943311Y-94451594D01*
X201934732Y-94300158D01*
X201934006Y-94222711D01*
X201936100Y-94165934D01*
X202765217Y-94165934D01*
X202765424Y-94259002D01*
X202768337Y-94346692D01*
X202774000Y-94423772D01*
X202782455Y-94485009D01*
X202785038Y-94497350D01*
X202816840Y-94604633D01*
X202858498Y-94691658D01*
X202910363Y-94758642D01*
X202972781Y-94805805D01*
X203046100Y-94833365D01*
X203130669Y-94841541D01*
X203226835Y-94830551D01*
X203290311Y-94814829D01*
X203339454Y-94796639D01*
X203393583Y-94770791D01*
X203434244Y-94747089D01*
X203504800Y-94700721D01*
X203504800Y-93550530D01*
X203437392Y-93506962D01*
X203358867Y-93466040D01*
X203274681Y-93439389D01*
X203189557Y-93427465D01*
X203108216Y-93430722D01*
X203035380Y-93449615D01*
X203003426Y-93465184D01*
X202945501Y-93508181D01*
X202896544Y-93564953D01*
X202855390Y-93637575D01*
X202820874Y-93728121D01*
X202791833Y-93838666D01*
X202790552Y-93844533D01*
X202780381Y-93906788D01*
X202772739Y-93984594D01*
X202767670Y-94072720D01*
X202765217Y-94165934D01*
X201936100Y-94165934D01*
X201941857Y-94009895D01*
X201963802Y-93814059D01*
X201999786Y-93635332D01*
X202049759Y-93473845D01*
X202113668Y-93329726D01*
X202191462Y-93203106D01*
X202283089Y-93094115D01*
X202388497Y-93002883D01*
X202433662Y-92971932D01*
X202534611Y-92915785D01*
X202637901Y-92876174D01*
X202747989Y-92852014D01*
X202869330Y-92842219D01*
X202961836Y-92843265D01*
X203091490Y-92854231D01*
X203204084Y-92876046D01*
X203302875Y-92909714D01*
X203391121Y-92956236D01*
X203439986Y-92990448D01*
X203469353Y-93012362D01*
X203491043Y-93027333D01*
X203499253Y-93031733D01*
X203500868Y-93020904D01*
X203502159Y-92990251D01*
X203503138Y-92942526D01*
X203503817Y-92880479D01*
X203504210Y-92806862D01*
X203504330Y-92724427D01*
X203504188Y-92635925D01*
X203503797Y-92544107D01*
X203503171Y-92451724D01*
X203502320Y-92361528D01*
X203501260Y-92276271D01*
X203500001Y-92198703D01*
X203498556Y-92131576D01*
X203496938Y-92077641D01*
X203495161Y-92039650D01*
X203494669Y-92032667D01*
X203487092Y-91962251D01*
X203475531Y-91907102D01*
X203457792Y-91859981D01*
X203431682Y-91813647D01*
X203425415Y-91804067D01*
X203400983Y-91767378D01*
X204306311Y-91767378D01*
X204306507Y-93452245D01*
X204306507Y-93452245D01*
G37*
X204306507Y-93452245D02*
X204306526Y-93686662D01*
X204306552Y-93899603D01*
X204306625Y-94092168D01*
X204306782Y-94265459D01*
X204307064Y-94420576D01*
X204307509Y-94558620D01*
X204308156Y-94680692D01*
X204309045Y-94787894D01*
X204310213Y-94881326D01*
X204311701Y-94962090D01*
X204313546Y-95031286D01*
X204315789Y-95090015D01*
X204318469Y-95139379D01*
X204321623Y-95180478D01*
X204325292Y-95214413D01*
X204329513Y-95242286D01*
X204334327Y-95265198D01*
X204339773Y-95284249D01*
X204345888Y-95300540D01*
X204352712Y-95315173D01*
X204360285Y-95329249D01*
X204368645Y-95343868D01*
X204373839Y-95352974D01*
X204408104Y-95413689D01*
X203549955Y-95413689D01*
X203549955Y-95317733D01*
X203549224Y-95274370D01*
X203547272Y-95241205D01*
X203544463Y-95223424D01*
X203543221Y-95221778D01*
X203531799Y-95228662D01*
X203509084Y-95246505D01*
X203486385Y-95265879D01*
X203431800Y-95306614D01*
X203362321Y-95347617D01*
X203285270Y-95385123D01*
X203207965Y-95415364D01*
X203177113Y-95425012D01*
X203108616Y-95439578D01*
X203025764Y-95449539D01*
X202936371Y-95454583D01*
X202848248Y-95454396D01*
X202769207Y-95448666D01*
X202731511Y-95442858D01*
X202593414Y-95404797D01*
X202466113Y-95347073D01*
X202350292Y-95270211D01*
X202246637Y-95174739D01*
X202155833Y-95061179D01*
X202089031Y-94950381D01*
X202034164Y-94833625D01*
X201992163Y-94714276D01*
X201962167Y-94588283D01*
X201943311Y-94451594D01*
X201934732Y-94300158D01*
X201934006Y-94222711D01*
X201936100Y-94165934D01*
X202765217Y-94165934D01*
X202765424Y-94259002D01*
X202768337Y-94346692D01*
X202774000Y-94423772D01*
X202782455Y-94485009D01*
X202785038Y-94497350D01*
X202816840Y-94604633D01*
X202858498Y-94691658D01*
X202910363Y-94758642D01*
X202972781Y-94805805D01*
X203046100Y-94833365D01*
X203130669Y-94841541D01*
X203226835Y-94830551D01*
X203290311Y-94814829D01*
X203339454Y-94796639D01*
X203393583Y-94770791D01*
X203434244Y-94747089D01*
X203504800Y-94700721D01*
X203504800Y-93550530D01*
X203437392Y-93506962D01*
X203358867Y-93466040D01*
X203274681Y-93439389D01*
X203189557Y-93427465D01*
X203108216Y-93430722D01*
X203035380Y-93449615D01*
X203003426Y-93465184D01*
X202945501Y-93508181D01*
X202896544Y-93564953D01*
X202855390Y-93637575D01*
X202820874Y-93728121D01*
X202791833Y-93838666D01*
X202790552Y-93844533D01*
X202780381Y-93906788D01*
X202772739Y-93984594D01*
X202767670Y-94072720D01*
X202765217Y-94165934D01*
X201936100Y-94165934D01*
X201941857Y-94009895D01*
X201963802Y-93814059D01*
X201999786Y-93635332D01*
X202049759Y-93473845D01*
X202113668Y-93329726D01*
X202191462Y-93203106D01*
X202283089Y-93094115D01*
X202388497Y-93002883D01*
X202433662Y-92971932D01*
X202534611Y-92915785D01*
X202637901Y-92876174D01*
X202747989Y-92852014D01*
X202869330Y-92842219D01*
X202961836Y-92843265D01*
X203091490Y-92854231D01*
X203204084Y-92876046D01*
X203302875Y-92909714D01*
X203391121Y-92956236D01*
X203439986Y-92990448D01*
X203469353Y-93012362D01*
X203491043Y-93027333D01*
X203499253Y-93031733D01*
X203500868Y-93020904D01*
X203502159Y-92990251D01*
X203503138Y-92942526D01*
X203503817Y-92880479D01*
X203504210Y-92806862D01*
X203504330Y-92724427D01*
X203504188Y-92635925D01*
X203503797Y-92544107D01*
X203503171Y-92451724D01*
X203502320Y-92361528D01*
X203501260Y-92276271D01*
X203500001Y-92198703D01*
X203498556Y-92131576D01*
X203496938Y-92077641D01*
X203495161Y-92039650D01*
X203494669Y-92032667D01*
X203487092Y-91962251D01*
X203475531Y-91907102D01*
X203457792Y-91859981D01*
X203431682Y-91813647D01*
X203425415Y-91804067D01*
X203400983Y-91767378D01*
X204306311Y-91767378D01*
X204306507Y-93452245D01*
G36*
X195846957Y-91006571D02*
X195943232Y-91030809D01*
X196029816Y-91073641D01*
X196104627Y-91133419D01*
X196165582Y-91208494D01*
X196210601Y-91297220D01*
X196236864Y-91393530D01*
X196242714Y-91490795D01*
X196227860Y-91584654D01*
X196194160Y-91672511D01*
X196143472Y-91751770D01*
X196077655Y-91819836D01*
X195998566Y-91874112D01*
X195908066Y-91912002D01*
X195856800Y-91924426D01*
X195812302Y-91931947D01*
X195778001Y-91934919D01*
X195745040Y-91933094D01*
X195704566Y-91926225D01*
X195671469Y-91919250D01*
X195578053Y-91887741D01*
X195494381Y-91836617D01*
X195422335Y-91767429D01*
X195363800Y-91681728D01*
X195349852Y-91654489D01*
X195333414Y-91618122D01*
X195323106Y-91587582D01*
X195317540Y-91555450D01*
X195315331Y-91514307D01*
X195315052Y-91468222D01*
X195319139Y-91383865D01*
X195332554Y-91314586D01*
X195357744Y-91253961D01*
X195397154Y-91195567D01*
X195435702Y-91151302D01*
X195507594Y-91085484D01*
X195582687Y-91040053D01*
X195665438Y-91012850D01*
X195743072Y-91002576D01*
X195846957Y-91006571D01*
X195846957Y-91006571D01*
G37*
X195846957Y-91006571D02*
X195943232Y-91030809D01*
X196029816Y-91073641D01*
X196104627Y-91133419D01*
X196165582Y-91208494D01*
X196210601Y-91297220D01*
X196236864Y-91393530D01*
X196242714Y-91490795D01*
X196227860Y-91584654D01*
X196194160Y-91672511D01*
X196143472Y-91751770D01*
X196077655Y-91819836D01*
X195998566Y-91874112D01*
X195908066Y-91912002D01*
X195856800Y-91924426D01*
X195812302Y-91931947D01*
X195778001Y-91934919D01*
X195745040Y-91933094D01*
X195704566Y-91926225D01*
X195671469Y-91919250D01*
X195578053Y-91887741D01*
X195494381Y-91836617D01*
X195422335Y-91767429D01*
X195363800Y-91681728D01*
X195349852Y-91654489D01*
X195333414Y-91618122D01*
X195323106Y-91587582D01*
X195317540Y-91555450D01*
X195315331Y-91514307D01*
X195315052Y-91468222D01*
X195319139Y-91383865D01*
X195332554Y-91314586D01*
X195357744Y-91253961D01*
X195397154Y-91195567D01*
X195435702Y-91151302D01*
X195507594Y-91085484D01*
X195582687Y-91040053D01*
X195665438Y-91012850D01*
X195743072Y-91002576D01*
X195846957Y-91006571D01*
D10*
G36*
X199928850Y-103494337D02*
X199904455Y-103612390D01*
X199849115Y-103721802D01*
X199760973Y-103815862D01*
X199760468Y-103816266D01*
X199686335Y-103875417D01*
X199686334Y-104322970D01*
X199686334Y-104770523D01*
X199624925Y-104836262D01*
X199577498Y-104878859D01*
X199528193Y-104897922D01*
X199464084Y-104902000D01*
X199394938Y-104896952D01*
X199346652Y-104876128D01*
X199303242Y-104836262D01*
X199241834Y-104770523D01*
X199241834Y-104320463D01*
X199241834Y-103870404D01*
X199149020Y-103777590D01*
X199065851Y-103666863D01*
X199019228Y-103542791D01*
X199008900Y-103412955D01*
X199034615Y-103284939D01*
X199096121Y-103166324D01*
X199172119Y-103082243D01*
X199253145Y-103022117D01*
X199335979Y-102988169D01*
X199434177Y-102976533D01*
X199529307Y-102980388D01*
X199651607Y-103009351D01*
X199754098Y-103069940D01*
X199834924Y-103155445D01*
X199892228Y-103259153D01*
X199924156Y-103374355D01*
X199928850Y-103494337D01*
X199928850Y-103494337D01*
X199928850Y-103494337D01*
G37*
X199928850Y-103494337D02*
X199904455Y-103612390D01*
X199849115Y-103721802D01*
X199760973Y-103815862D01*
X199760468Y-103816266D01*
X199686335Y-103875417D01*
X199686334Y-104322970D01*
X199686334Y-104770523D01*
X199624925Y-104836262D01*
X199577498Y-104878859D01*
X199528193Y-104897922D01*
X199464084Y-104902000D01*
X199394938Y-104896952D01*
X199346652Y-104876128D01*
X199303242Y-104836262D01*
X199241834Y-104770523D01*
X199241834Y-104320463D01*
X199241834Y-103870404D01*
X199149020Y-103777590D01*
X199065851Y-103666863D01*
X199019228Y-103542791D01*
X199008900Y-103412955D01*
X199034615Y-103284939D01*
X199096121Y-103166324D01*
X199172119Y-103082243D01*
X199253145Y-103022117D01*
X199335979Y-102988169D01*
X199434177Y-102976533D01*
X199529307Y-102980388D01*
X199651607Y-103009351D01*
X199754098Y-103069940D01*
X199834924Y-103155445D01*
X199892228Y-103259153D01*
X199924156Y-103374355D01*
X199928850Y-103494337D01*
X199928850Y-103494337D01*
G36*
X202946000Y-108987167D02*
X201678448Y-108987167D01*
X201678448Y-106877893D01*
X201678349Y-106738362D01*
X201648663Y-106602787D01*
X201591483Y-106476643D01*
X201508905Y-106365407D01*
X201403022Y-106274552D01*
X201275929Y-106209556D01*
X201129721Y-106175892D01*
X201062167Y-106172414D01*
X200908146Y-106191734D01*
X200770400Y-106246260D01*
X200652428Y-106330836D01*
X200557726Y-106440309D01*
X200489795Y-106569523D01*
X200452131Y-106713326D01*
X200448234Y-106866561D01*
X200481600Y-107024077D01*
X200482445Y-107026572D01*
X200540531Y-107140513D01*
X200630139Y-107247519D01*
X200740638Y-107336798D01*
X200839917Y-107389427D01*
X200973620Y-107430560D01*
X201097489Y-107437544D01*
X201226355Y-107410635D01*
X201266029Y-107396809D01*
X201352866Y-107354896D01*
X201440407Y-107298106D01*
X201480274Y-107265469D01*
X201581505Y-107146922D01*
X201646864Y-107015905D01*
X201678448Y-106877893D01*
X201678448Y-108987167D01*
X199390000Y-108987167D01*
X198422290Y-108987167D01*
X198422290Y-106745790D01*
X198388555Y-106596389D01*
X198369913Y-106551118D01*
X198303750Y-106429671D01*
X198227215Y-106338849D01*
X198129270Y-106266947D01*
X198073438Y-106236728D01*
X197922583Y-106183375D01*
X197770115Y-106170839D01*
X197621512Y-106198201D01*
X197482250Y-106264542D01*
X197371801Y-106354411D01*
X197285862Y-106456081D01*
X197230984Y-106561547D01*
X197201189Y-106684639D01*
X197193155Y-106767694D01*
X197189902Y-106858355D01*
X197195103Y-106925106D01*
X197211729Y-106986011D01*
X197240141Y-107053444D01*
X197317298Y-107189715D01*
X197412203Y-107292598D01*
X197533040Y-107369398D01*
X197643750Y-107413662D01*
X197751140Y-107432848D01*
X197874016Y-107429772D01*
X197992914Y-107406059D01*
X198062094Y-107378703D01*
X198196916Y-107288122D01*
X198302667Y-107173303D01*
X198377026Y-107040484D01*
X198417674Y-106895901D01*
X198422290Y-106745790D01*
X198422290Y-108987167D01*
X195834000Y-108987167D01*
X195834000Y-107498230D01*
X195833975Y-107204376D01*
X195834048Y-106949605D01*
X195834441Y-106730670D01*
X195835377Y-106544321D01*
X195837080Y-106387310D01*
X195839770Y-106256388D01*
X195843671Y-106148305D01*
X195849006Y-106059814D01*
X195855997Y-105987665D01*
X195864866Y-105928610D01*
X195875837Y-105879399D01*
X195889132Y-105836783D01*
X195904972Y-105797514D01*
X195923582Y-105758343D01*
X195945183Y-105716021D01*
X195957782Y-105691475D01*
X196040540Y-105567468D01*
X196155283Y-105449414D01*
X196291735Y-105345787D01*
X196439622Y-105265059D01*
X196507109Y-105238479D01*
X196525128Y-105232702D01*
X196545333Y-105227507D01*
X196569948Y-105222862D01*
X196601195Y-105218738D01*
X196641296Y-105215103D01*
X196692475Y-105211926D01*
X196756955Y-105209177D01*
X196836958Y-105206825D01*
X196934707Y-105204839D01*
X197052425Y-105203189D01*
X197192334Y-105201842D01*
X197356659Y-105200770D01*
X197547621Y-105199940D01*
X197767443Y-105199322D01*
X198018348Y-105198885D01*
X198302559Y-105198599D01*
X198622299Y-105198432D01*
X198979790Y-105198354D01*
X199377256Y-105198334D01*
X199402934Y-105198334D01*
X202182074Y-105198334D01*
X202320491Y-105248576D01*
X202493311Y-105333224D01*
X202644933Y-105451717D01*
X202770514Y-105598853D01*
X202865212Y-105769431D01*
X202903346Y-105874588D01*
X202911596Y-105903675D01*
X202918709Y-105933666D01*
X202924769Y-105967772D01*
X202929860Y-106009204D01*
X202934067Y-106061174D01*
X202937473Y-106126891D01*
X202940163Y-106209569D01*
X202942220Y-106312417D01*
X202943729Y-106438646D01*
X202944775Y-106591469D01*
X202945441Y-106774095D01*
X202945811Y-106989737D01*
X202945969Y-107241605D01*
X202946000Y-107502491D01*
X202946000Y-108987167D01*
X202946000Y-108987167D01*
X202946000Y-108987167D01*
G37*
X202946000Y-108987167D02*
X201678448Y-108987167D01*
X201678448Y-106877893D01*
X201678349Y-106738362D01*
X201648663Y-106602787D01*
X201591483Y-106476643D01*
X201508905Y-106365407D01*
X201403022Y-106274552D01*
X201275929Y-106209556D01*
X201129721Y-106175892D01*
X201062167Y-106172414D01*
X200908146Y-106191734D01*
X200770400Y-106246260D01*
X200652428Y-106330836D01*
X200557726Y-106440309D01*
X200489795Y-106569523D01*
X200452131Y-106713326D01*
X200448234Y-106866561D01*
X200481600Y-107024077D01*
X200482445Y-107026572D01*
X200540531Y-107140513D01*
X200630139Y-107247519D01*
X200740638Y-107336798D01*
X200839917Y-107389427D01*
X200973620Y-107430560D01*
X201097489Y-107437544D01*
X201226355Y-107410635D01*
X201266029Y-107396809D01*
X201352866Y-107354896D01*
X201440407Y-107298106D01*
X201480274Y-107265469D01*
X201581505Y-107146922D01*
X201646864Y-107015905D01*
X201678448Y-106877893D01*
X201678448Y-108987167D01*
X199390000Y-108987167D01*
X198422290Y-108987167D01*
X198422290Y-106745790D01*
X198388555Y-106596389D01*
X198369913Y-106551118D01*
X198303750Y-106429671D01*
X198227215Y-106338849D01*
X198129270Y-106266947D01*
X198073438Y-106236728D01*
X197922583Y-106183375D01*
X197770115Y-106170839D01*
X197621512Y-106198201D01*
X197482250Y-106264542D01*
X197371801Y-106354411D01*
X197285862Y-106456081D01*
X197230984Y-106561547D01*
X197201189Y-106684639D01*
X197193155Y-106767694D01*
X197189902Y-106858355D01*
X197195103Y-106925106D01*
X197211729Y-106986011D01*
X197240141Y-107053444D01*
X197317298Y-107189715D01*
X197412203Y-107292598D01*
X197533040Y-107369398D01*
X197643750Y-107413662D01*
X197751140Y-107432848D01*
X197874016Y-107429772D01*
X197992914Y-107406059D01*
X198062094Y-107378703D01*
X198196916Y-107288122D01*
X198302667Y-107173303D01*
X198377026Y-107040484D01*
X198417674Y-106895901D01*
X198422290Y-106745790D01*
X198422290Y-108987167D01*
X195834000Y-108987167D01*
X195834000Y-107498230D01*
X195833975Y-107204376D01*
X195834048Y-106949605D01*
X195834441Y-106730670D01*
X195835377Y-106544321D01*
X195837080Y-106387310D01*
X195839770Y-106256388D01*
X195843671Y-106148305D01*
X195849006Y-106059814D01*
X195855997Y-105987665D01*
X195864866Y-105928610D01*
X195875837Y-105879399D01*
X195889132Y-105836783D01*
X195904972Y-105797514D01*
X195923582Y-105758343D01*
X195945183Y-105716021D01*
X195957782Y-105691475D01*
X196040540Y-105567468D01*
X196155283Y-105449414D01*
X196291735Y-105345787D01*
X196439622Y-105265059D01*
X196507109Y-105238479D01*
X196525128Y-105232702D01*
X196545333Y-105227507D01*
X196569948Y-105222862D01*
X196601195Y-105218738D01*
X196641296Y-105215103D01*
X196692475Y-105211926D01*
X196756955Y-105209177D01*
X196836958Y-105206825D01*
X196934707Y-105204839D01*
X197052425Y-105203189D01*
X197192334Y-105201842D01*
X197356659Y-105200770D01*
X197547621Y-105199940D01*
X197767443Y-105199322D01*
X198018348Y-105198885D01*
X198302559Y-105198599D01*
X198622299Y-105198432D01*
X198979790Y-105198354D01*
X199377256Y-105198334D01*
X199402934Y-105198334D01*
X202182074Y-105198334D01*
X202320491Y-105248576D01*
X202493311Y-105333224D01*
X202644933Y-105451717D01*
X202770514Y-105598853D01*
X202865212Y-105769431D01*
X202903346Y-105874588D01*
X202911596Y-105903675D01*
X202918709Y-105933666D01*
X202924769Y-105967772D01*
X202929860Y-106009204D01*
X202934067Y-106061174D01*
X202937473Y-106126891D01*
X202940163Y-106209569D01*
X202942220Y-106312417D01*
X202943729Y-106438646D01*
X202944775Y-106591469D01*
X202945441Y-106774095D01*
X202945811Y-106989737D01*
X202945969Y-107241605D01*
X202946000Y-107502491D01*
X202946000Y-108987167D01*
X202946000Y-108987167D01*
G36*
X201807997Y-109423429D02*
X201805506Y-109518289D01*
X201781524Y-109590996D01*
X201772393Y-109609047D01*
X201763837Y-109625122D01*
X201753483Y-109639335D01*
X201738959Y-109651800D01*
X201717892Y-109662631D01*
X201687908Y-109671940D01*
X201646636Y-109679842D01*
X201591701Y-109686451D01*
X201520731Y-109691880D01*
X201431354Y-109696242D01*
X201321197Y-109699652D01*
X201187886Y-109702223D01*
X201029048Y-109704069D01*
X200842312Y-109705303D01*
X200625304Y-109706039D01*
X200375651Y-109706391D01*
X200090981Y-109706473D01*
X199768920Y-109706397D01*
X199407096Y-109706279D01*
X199375176Y-109706270D01*
X199014992Y-109706141D01*
X198694742Y-109705919D01*
X198412028Y-109705567D01*
X198164450Y-109705048D01*
X197949609Y-109704324D01*
X197765107Y-109703359D01*
X197608545Y-109702116D01*
X197477523Y-109700558D01*
X197369643Y-109698647D01*
X197282505Y-109696347D01*
X197213711Y-109693620D01*
X197160862Y-109690429D01*
X197121559Y-109686738D01*
X197093402Y-109682510D01*
X197073994Y-109677706D01*
X197060934Y-109672291D01*
X197057786Y-109670474D01*
X196990389Y-109607144D01*
X196953514Y-109526745D01*
X196946782Y-109439596D01*
X196969811Y-109356016D01*
X197022219Y-109286324D01*
X197073222Y-109252708D01*
X197087983Y-109247440D01*
X197110369Y-109242760D01*
X197142769Y-109238634D01*
X197187569Y-109235028D01*
X197247159Y-109231909D01*
X197323927Y-109229242D01*
X197420260Y-109226994D01*
X197538546Y-109225131D01*
X197681174Y-109223618D01*
X197850532Y-109222422D01*
X198049008Y-109221510D01*
X198278989Y-109220847D01*
X198542864Y-109220399D01*
X198843022Y-109220133D01*
X199181849Y-109220015D01*
X199379417Y-109220000D01*
X199744254Y-109219977D01*
X200069135Y-109219986D01*
X200356438Y-109220144D01*
X200608542Y-109220568D01*
X200827824Y-109221376D01*
X201016662Y-109222686D01*
X201177434Y-109224614D01*
X201312517Y-109227278D01*
X201424290Y-109230795D01*
X201515130Y-109235282D01*
X201587415Y-109240858D01*
X201643523Y-109247638D01*
X201685831Y-109255741D01*
X201716718Y-109265284D01*
X201738562Y-109276384D01*
X201753740Y-109289159D01*
X201764630Y-109303725D01*
X201773610Y-109320201D01*
X201783003Y-109338601D01*
X201807997Y-109423429D01*
X201807997Y-109423429D01*
X201807997Y-109423429D01*
G37*
X201807997Y-109423429D02*
X201805506Y-109518289D01*
X201781524Y-109590996D01*
X201772393Y-109609047D01*
X201763837Y-109625122D01*
X201753483Y-109639335D01*
X201738959Y-109651800D01*
X201717892Y-109662631D01*
X201687908Y-109671940D01*
X201646636Y-109679842D01*
X201591701Y-109686451D01*
X201520731Y-109691880D01*
X201431354Y-109696242D01*
X201321197Y-109699652D01*
X201187886Y-109702223D01*
X201029048Y-109704069D01*
X200842312Y-109705303D01*
X200625304Y-109706039D01*
X200375651Y-109706391D01*
X200090981Y-109706473D01*
X199768920Y-109706397D01*
X199407096Y-109706279D01*
X199375176Y-109706270D01*
X199014992Y-109706141D01*
X198694742Y-109705919D01*
X198412028Y-109705567D01*
X198164450Y-109705048D01*
X197949609Y-109704324D01*
X197765107Y-109703359D01*
X197608545Y-109702116D01*
X197477523Y-109700558D01*
X197369643Y-109698647D01*
X197282505Y-109696347D01*
X197213711Y-109693620D01*
X197160862Y-109690429D01*
X197121559Y-109686738D01*
X197093402Y-109682510D01*
X197073994Y-109677706D01*
X197060934Y-109672291D01*
X197057786Y-109670474D01*
X196990389Y-109607144D01*
X196953514Y-109526745D01*
X196946782Y-109439596D01*
X196969811Y-109356016D01*
X197022219Y-109286324D01*
X197073222Y-109252708D01*
X197087983Y-109247440D01*
X197110369Y-109242760D01*
X197142769Y-109238634D01*
X197187569Y-109235028D01*
X197247159Y-109231909D01*
X197323927Y-109229242D01*
X197420260Y-109226994D01*
X197538546Y-109225131D01*
X197681174Y-109223618D01*
X197850532Y-109222422D01*
X198049008Y-109221510D01*
X198278989Y-109220847D01*
X198542864Y-109220399D01*
X198843022Y-109220133D01*
X199181849Y-109220015D01*
X199379417Y-109220000D01*
X199744254Y-109219977D01*
X200069135Y-109219986D01*
X200356438Y-109220144D01*
X200608542Y-109220568D01*
X200827824Y-109221376D01*
X201016662Y-109222686D01*
X201177434Y-109224614D01*
X201312517Y-109227278D01*
X201424290Y-109230795D01*
X201515130Y-109235282D01*
X201587415Y-109240858D01*
X201643523Y-109247638D01*
X201685831Y-109255741D01*
X201716718Y-109265284D01*
X201738562Y-109276384D01*
X201753740Y-109289159D01*
X201764630Y-109303725D01*
X201773610Y-109320201D01*
X201783003Y-109338601D01*
X201807997Y-109423429D01*
X201807997Y-109423429D01*
G36*
X201103524Y-110151328D02*
X201093947Y-110231488D01*
X201067066Y-110291634D01*
X201066988Y-110291731D01*
X201020988Y-110335908D01*
X200984183Y-110360523D01*
X200953472Y-110365490D01*
X200884623Y-110369891D01*
X200781754Y-110373732D01*
X200648984Y-110377019D01*
X200490432Y-110379758D01*
X200310215Y-110381954D01*
X200112452Y-110383612D01*
X199901262Y-110384739D01*
X199680762Y-110385341D01*
X199455073Y-110385422D01*
X199228311Y-110384989D01*
X199004596Y-110384048D01*
X198788046Y-110382603D01*
X198582779Y-110380662D01*
X198392914Y-110378229D01*
X198222570Y-110375311D01*
X198075864Y-110371912D01*
X197956915Y-110368039D01*
X197869842Y-110363698D01*
X197818763Y-110358894D01*
X197807609Y-110356116D01*
X197741712Y-110297238D01*
X197702107Y-110215843D01*
X197691776Y-110124752D01*
X197713701Y-110036786D01*
X197727569Y-110012073D01*
X197741777Y-109990690D01*
X197756393Y-109972143D01*
X197774359Y-109956231D01*
X197798618Y-109942751D01*
X197832111Y-109931503D01*
X197877780Y-109922283D01*
X197938569Y-109914892D01*
X198017417Y-109909125D01*
X198117269Y-109904783D01*
X198241064Y-109901663D01*
X198391747Y-109899563D01*
X198572258Y-109898282D01*
X198785540Y-109897618D01*
X199034535Y-109897369D01*
X199322185Y-109897333D01*
X199400584Y-109897334D01*
X199697963Y-109897354D01*
X199955959Y-109897545D01*
X200177519Y-109898096D01*
X200365593Y-109899198D01*
X200523131Y-109901045D01*
X200653080Y-109903826D01*
X200758391Y-109907733D01*
X200842012Y-109912957D01*
X200906893Y-109919690D01*
X200955982Y-109928123D01*
X200992229Y-109938447D01*
X201018583Y-109950854D01*
X201037992Y-109965535D01*
X201053406Y-109982681D01*
X201067775Y-110002484D01*
X201069984Y-110005641D01*
X201095601Y-110069823D01*
X201103524Y-110151328D01*
X201103524Y-110151328D01*
X201103524Y-110151328D01*
G37*
X201103524Y-110151328D02*
X201093947Y-110231488D01*
X201067066Y-110291634D01*
X201066988Y-110291731D01*
X201020988Y-110335908D01*
X200984183Y-110360523D01*
X200953472Y-110365490D01*
X200884623Y-110369891D01*
X200781754Y-110373732D01*
X200648984Y-110377019D01*
X200490432Y-110379758D01*
X200310215Y-110381954D01*
X200112452Y-110383612D01*
X199901262Y-110384739D01*
X199680762Y-110385341D01*
X199455073Y-110385422D01*
X199228311Y-110384989D01*
X199004596Y-110384048D01*
X198788046Y-110382603D01*
X198582779Y-110380662D01*
X198392914Y-110378229D01*
X198222570Y-110375311D01*
X198075864Y-110371912D01*
X197956915Y-110368039D01*
X197869842Y-110363698D01*
X197818763Y-110358894D01*
X197807609Y-110356116D01*
X197741712Y-110297238D01*
X197702107Y-110215843D01*
X197691776Y-110124752D01*
X197713701Y-110036786D01*
X197727569Y-110012073D01*
X197741777Y-109990690D01*
X197756393Y-109972143D01*
X197774359Y-109956231D01*
X197798618Y-109942751D01*
X197832111Y-109931503D01*
X197877780Y-109922283D01*
X197938569Y-109914892D01*
X198017417Y-109909125D01*
X198117269Y-109904783D01*
X198241064Y-109901663D01*
X198391747Y-109899563D01*
X198572258Y-109898282D01*
X198785540Y-109897618D01*
X199034535Y-109897369D01*
X199322185Y-109897333D01*
X199400584Y-109897334D01*
X199697963Y-109897354D01*
X199955959Y-109897545D01*
X200177519Y-109898096D01*
X200365593Y-109899198D01*
X200523131Y-109901045D01*
X200653080Y-109903826D01*
X200758391Y-109907733D01*
X200842012Y-109912957D01*
X200906893Y-109919690D01*
X200955982Y-109928123D01*
X200992229Y-109938447D01*
X201018583Y-109950854D01*
X201037992Y-109965535D01*
X201053406Y-109982681D01*
X201067775Y-110002484D01*
X201069984Y-110005641D01*
X201095601Y-110069823D01*
X201103524Y-110151328D01*
X201103524Y-110151328D01*
D12*
X126182380Y-90908095D02*
X125182380Y-90908095D01*
X125182380Y-90527142D01*
X125230000Y-90431904D01*
X125277619Y-90384285D01*
X125372857Y-90336666D01*
X125515714Y-90336666D01*
X125610952Y-90384285D01*
X125658571Y-90431904D01*
X125706190Y-90527142D01*
X125706190Y-90908095D01*
X126182380Y-89384285D02*
X126182380Y-89955714D01*
X126182380Y-89670000D02*
X125182380Y-89670000D01*
X125325238Y-89765238D01*
X125420476Y-89860476D01*
X125468095Y-89955714D01*
X126432380Y-97281428D02*
X125956190Y-97614761D01*
X126432380Y-97852857D02*
X125432380Y-97852857D01*
X125432380Y-97471904D01*
X125480000Y-97376666D01*
X125527619Y-97329047D01*
X125622857Y-97281428D01*
X125765714Y-97281428D01*
X125860952Y-97329047D01*
X125908571Y-97376666D01*
X125956190Y-97471904D01*
X125956190Y-97852857D01*
X126384761Y-96471904D02*
X126432380Y-96567142D01*
X126432380Y-96757619D01*
X126384761Y-96852857D01*
X126289523Y-96900476D01*
X125908571Y-96900476D01*
X125813333Y-96852857D01*
X125765714Y-96757619D01*
X125765714Y-96567142D01*
X125813333Y-96471904D01*
X125908571Y-96424285D01*
X126003809Y-96424285D01*
X126099047Y-96900476D01*
X126432380Y-95852857D02*
X126384761Y-95948095D01*
X126289523Y-95995714D01*
X125432380Y-95995714D01*
X126432380Y-95043333D02*
X125908571Y-95043333D01*
X125813333Y-95090952D01*
X125765714Y-95186190D01*
X125765714Y-95376666D01*
X125813333Y-95471904D01*
X126384761Y-95043333D02*
X126432380Y-95138571D01*
X126432380Y-95376666D01*
X126384761Y-95471904D01*
X126289523Y-95519523D01*
X126194285Y-95519523D01*
X126099047Y-95471904D01*
X126051428Y-95376666D01*
X126051428Y-95138571D01*
X126003809Y-95043333D01*
X125765714Y-94662380D02*
X126432380Y-94424285D01*
X125765714Y-94186190D02*
X126432380Y-94424285D01*
X126670476Y-94519523D01*
X126718095Y-94567142D01*
X126765714Y-94662380D01*
X126432380Y-92519523D02*
X126432380Y-93090952D01*
X126432380Y-92805238D02*
X125432380Y-92805238D01*
X125575238Y-92900476D01*
X125670476Y-92995714D01*
X125718095Y-93090952D01*
X126182380Y-102338095D02*
X125182380Y-102338095D01*
X125182380Y-101957142D01*
X125230000Y-101861904D01*
X125277619Y-101814285D01*
X125372857Y-101766666D01*
X125515714Y-101766666D01*
X125610952Y-101814285D01*
X125658571Y-101861904D01*
X125706190Y-101957142D01*
X125706190Y-102338095D01*
X125277619Y-101385714D02*
X125230000Y-101338095D01*
X125182380Y-101242857D01*
X125182380Y-101004761D01*
X125230000Y-100909523D01*
X125277619Y-100861904D01*
X125372857Y-100814285D01*
X125468095Y-100814285D01*
X125610952Y-100861904D01*
X126182380Y-101433333D01*
X126182380Y-100814285D01*
X126432380Y-108711428D02*
X125956190Y-109044761D01*
X126432380Y-109282857D02*
X125432380Y-109282857D01*
X125432380Y-108901904D01*
X125480000Y-108806666D01*
X125527619Y-108759047D01*
X125622857Y-108711428D01*
X125765714Y-108711428D01*
X125860952Y-108759047D01*
X125908571Y-108806666D01*
X125956190Y-108901904D01*
X125956190Y-109282857D01*
X126384761Y-107901904D02*
X126432380Y-107997142D01*
X126432380Y-108187619D01*
X126384761Y-108282857D01*
X126289523Y-108330476D01*
X125908571Y-108330476D01*
X125813333Y-108282857D01*
X125765714Y-108187619D01*
X125765714Y-107997142D01*
X125813333Y-107901904D01*
X125908571Y-107854285D01*
X126003809Y-107854285D01*
X126099047Y-108330476D01*
X126432380Y-107282857D02*
X126384761Y-107378095D01*
X126289523Y-107425714D01*
X125432380Y-107425714D01*
X126432380Y-106473333D02*
X125908571Y-106473333D01*
X125813333Y-106520952D01*
X125765714Y-106616190D01*
X125765714Y-106806666D01*
X125813333Y-106901904D01*
X126384761Y-106473333D02*
X126432380Y-106568571D01*
X126432380Y-106806666D01*
X126384761Y-106901904D01*
X126289523Y-106949523D01*
X126194285Y-106949523D01*
X126099047Y-106901904D01*
X126051428Y-106806666D01*
X126051428Y-106568571D01*
X126003809Y-106473333D01*
X125765714Y-106092380D02*
X126432380Y-105854285D01*
X125765714Y-105616190D02*
X126432380Y-105854285D01*
X126670476Y-105949523D01*
X126718095Y-105997142D01*
X126765714Y-106092380D01*
X125527619Y-104520952D02*
X125480000Y-104473333D01*
X125432380Y-104378095D01*
X125432380Y-104140000D01*
X125480000Y-104044761D01*
X125527619Y-103997142D01*
X125622857Y-103949523D01*
X125718095Y-103949523D01*
X125860952Y-103997142D01*
X126432380Y-104568571D01*
X126432380Y-103949523D01*
X126182380Y-113768095D02*
X125182380Y-113768095D01*
X125182380Y-113387142D01*
X125230000Y-113291904D01*
X125277619Y-113244285D01*
X125372857Y-113196666D01*
X125515714Y-113196666D01*
X125610952Y-113244285D01*
X125658571Y-113291904D01*
X125706190Y-113387142D01*
X125706190Y-113768095D01*
X125182380Y-112863333D02*
X125182380Y-112244285D01*
X125563333Y-112577619D01*
X125563333Y-112434761D01*
X125610952Y-112339523D01*
X125658571Y-112291904D01*
X125753809Y-112244285D01*
X125991904Y-112244285D01*
X126087142Y-112291904D01*
X126134761Y-112339523D01*
X126182380Y-112434761D01*
X126182380Y-112720476D01*
X126134761Y-112815714D01*
X126087142Y-112863333D01*
X126432380Y-120141428D02*
X125956190Y-120474761D01*
X126432380Y-120712857D02*
X125432380Y-120712857D01*
X125432380Y-120331904D01*
X125480000Y-120236666D01*
X125527619Y-120189047D01*
X125622857Y-120141428D01*
X125765714Y-120141428D01*
X125860952Y-120189047D01*
X125908571Y-120236666D01*
X125956190Y-120331904D01*
X125956190Y-120712857D01*
X126384761Y-119331904D02*
X126432380Y-119427142D01*
X126432380Y-119617619D01*
X126384761Y-119712857D01*
X126289523Y-119760476D01*
X125908571Y-119760476D01*
X125813333Y-119712857D01*
X125765714Y-119617619D01*
X125765714Y-119427142D01*
X125813333Y-119331904D01*
X125908571Y-119284285D01*
X126003809Y-119284285D01*
X126099047Y-119760476D01*
X126432380Y-118712857D02*
X126384761Y-118808095D01*
X126289523Y-118855714D01*
X125432380Y-118855714D01*
X126432380Y-117903333D02*
X125908571Y-117903333D01*
X125813333Y-117950952D01*
X125765714Y-118046190D01*
X125765714Y-118236666D01*
X125813333Y-118331904D01*
X126384761Y-117903333D02*
X126432380Y-117998571D01*
X126432380Y-118236666D01*
X126384761Y-118331904D01*
X126289523Y-118379523D01*
X126194285Y-118379523D01*
X126099047Y-118331904D01*
X126051428Y-118236666D01*
X126051428Y-117998571D01*
X126003809Y-117903333D01*
X125765714Y-117522380D02*
X126432380Y-117284285D01*
X125765714Y-117046190D02*
X126432380Y-117284285D01*
X126670476Y-117379523D01*
X126718095Y-117427142D01*
X126765714Y-117522380D01*
X125765714Y-115474761D02*
X126432380Y-115474761D01*
X125384761Y-115712857D02*
X126099047Y-115950952D01*
X126099047Y-115331904D01*
X126182380Y-125198095D02*
X125182380Y-125198095D01*
X125182380Y-124817142D01*
X125230000Y-124721904D01*
X125277619Y-124674285D01*
X125372857Y-124626666D01*
X125515714Y-124626666D01*
X125610952Y-124674285D01*
X125658571Y-124721904D01*
X125706190Y-124817142D01*
X125706190Y-125198095D01*
X125515714Y-123769523D02*
X126182380Y-123769523D01*
X125134761Y-124007619D02*
X125849047Y-124245714D01*
X125849047Y-123626666D01*
X126432380Y-131571428D02*
X125956190Y-131904761D01*
X126432380Y-132142857D02*
X125432380Y-132142857D01*
X125432380Y-131761904D01*
X125480000Y-131666666D01*
X125527619Y-131619047D01*
X125622857Y-131571428D01*
X125765714Y-131571428D01*
X125860952Y-131619047D01*
X125908571Y-131666666D01*
X125956190Y-131761904D01*
X125956190Y-132142857D01*
X126384761Y-130761904D02*
X126432380Y-130857142D01*
X126432380Y-131047619D01*
X126384761Y-131142857D01*
X126289523Y-131190476D01*
X125908571Y-131190476D01*
X125813333Y-131142857D01*
X125765714Y-131047619D01*
X125765714Y-130857142D01*
X125813333Y-130761904D01*
X125908571Y-130714285D01*
X126003809Y-130714285D01*
X126099047Y-131190476D01*
X126432380Y-130142857D02*
X126384761Y-130238095D01*
X126289523Y-130285714D01*
X125432380Y-130285714D01*
X126432380Y-129333333D02*
X125908571Y-129333333D01*
X125813333Y-129380952D01*
X125765714Y-129476190D01*
X125765714Y-129666666D01*
X125813333Y-129761904D01*
X126384761Y-129333333D02*
X126432380Y-129428571D01*
X126432380Y-129666666D01*
X126384761Y-129761904D01*
X126289523Y-129809523D01*
X126194285Y-129809523D01*
X126099047Y-129761904D01*
X126051428Y-129666666D01*
X126051428Y-129428571D01*
X126003809Y-129333333D01*
X125765714Y-128952380D02*
X126432380Y-128714285D01*
X125765714Y-128476190D02*
X126432380Y-128714285D01*
X126670476Y-128809523D01*
X126718095Y-128857142D01*
X126765714Y-128952380D01*
X125432380Y-127428571D02*
X125432380Y-126809523D01*
X125813333Y-127142857D01*
X125813333Y-127000000D01*
X125860952Y-126904761D01*
X125908571Y-126857142D01*
X126003809Y-126809523D01*
X126241904Y-126809523D01*
X126337142Y-126857142D01*
X126384761Y-126904761D01*
X126432380Y-127000000D01*
X126432380Y-127285714D01*
X126384761Y-127380952D01*
X126337142Y-127428571D01*
X136421904Y-91892380D02*
X136421904Y-90892380D01*
X136802857Y-90892380D01*
X136898095Y-90940000D01*
X136945714Y-90987619D01*
X136993333Y-91082857D01*
X136993333Y-91225714D01*
X136945714Y-91320952D01*
X136898095Y-91368571D01*
X136802857Y-91416190D01*
X136421904Y-91416190D01*
X137898095Y-90892380D02*
X137421904Y-90892380D01*
X137374285Y-91368571D01*
X137421904Y-91320952D01*
X137517142Y-91273333D01*
X137755238Y-91273333D01*
X137850476Y-91320952D01*
X137898095Y-91368571D01*
X137945714Y-91463809D01*
X137945714Y-91701904D01*
X137898095Y-91797142D01*
X137850476Y-91844761D01*
X137755238Y-91892380D01*
X137517142Y-91892380D01*
X137421904Y-91844761D01*
X137374285Y-91797142D01*
X158011904Y-91892380D02*
X158011904Y-90892380D01*
X158392857Y-90892380D01*
X158488095Y-90940000D01*
X158535714Y-90987619D01*
X158583333Y-91082857D01*
X158583333Y-91225714D01*
X158535714Y-91320952D01*
X158488095Y-91368571D01*
X158392857Y-91416190D01*
X158011904Y-91416190D01*
X159440476Y-90892380D02*
X159250000Y-90892380D01*
X159154761Y-90940000D01*
X159107142Y-90987619D01*
X159011904Y-91130476D01*
X158964285Y-91320952D01*
X158964285Y-91701904D01*
X159011904Y-91797142D01*
X159059523Y-91844761D01*
X159154761Y-91892380D01*
X159345238Y-91892380D01*
X159440476Y-91844761D01*
X159488095Y-91797142D01*
X159535714Y-91701904D01*
X159535714Y-91463809D01*
X159488095Y-91368571D01*
X159440476Y-91320952D01*
X159345238Y-91273333D01*
X159154761Y-91273333D01*
X159059523Y-91320952D01*
X159011904Y-91368571D01*
X158964285Y-91463809D01*
X180871904Y-91892380D02*
X180871904Y-90892380D01*
X181252857Y-90892380D01*
X181348095Y-90940000D01*
X181395714Y-90987619D01*
X181443333Y-91082857D01*
X181443333Y-91225714D01*
X181395714Y-91320952D01*
X181348095Y-91368571D01*
X181252857Y-91416190D01*
X180871904Y-91416190D01*
X181776666Y-90892380D02*
X182443333Y-90892380D01*
X182014761Y-91892380D01*
X164361904Y-135072380D02*
X164361904Y-134072380D01*
X164742857Y-134072380D01*
X164838095Y-134120000D01*
X164885714Y-134167619D01*
X164933333Y-134262857D01*
X164933333Y-134405714D01*
X164885714Y-134500952D01*
X164838095Y-134548571D01*
X164742857Y-134596190D01*
X164361904Y-134596190D01*
X165504761Y-134500952D02*
X165409523Y-134453333D01*
X165361904Y-134405714D01*
X165314285Y-134310476D01*
X165314285Y-134262857D01*
X165361904Y-134167619D01*
X165409523Y-134120000D01*
X165504761Y-134072380D01*
X165695238Y-134072380D01*
X165790476Y-134120000D01*
X165838095Y-134167619D01*
X165885714Y-134262857D01*
X165885714Y-134310476D01*
X165838095Y-134405714D01*
X165790476Y-134453333D01*
X165695238Y-134500952D01*
X165504761Y-134500952D01*
X165409523Y-134548571D01*
X165361904Y-134596190D01*
X165314285Y-134691428D01*
X165314285Y-134881904D01*
X165361904Y-134977142D01*
X165409523Y-135024761D01*
X165504761Y-135072380D01*
X165695238Y-135072380D01*
X165790476Y-135024761D01*
X165838095Y-134977142D01*
X165885714Y-134881904D01*
X165885714Y-134691428D01*
X165838095Y-134596190D01*
X165790476Y-134548571D01*
X165695238Y-134500952D01*
X187221904Y-135072380D02*
X187221904Y-134072380D01*
X187602857Y-134072380D01*
X187698095Y-134120000D01*
X187745714Y-134167619D01*
X187793333Y-134262857D01*
X187793333Y-134405714D01*
X187745714Y-134500952D01*
X187698095Y-134548571D01*
X187602857Y-134596190D01*
X187221904Y-134596190D01*
X188269523Y-135072380D02*
X188460000Y-135072380D01*
X188555238Y-135024761D01*
X188602857Y-134977142D01*
X188698095Y-134834285D01*
X188745714Y-134643809D01*
X188745714Y-134262857D01*
X188698095Y-134167619D01*
X188650476Y-134120000D01*
X188555238Y-134072380D01*
X188364761Y-134072380D01*
X188269523Y-134120000D01*
X188221904Y-134167619D01*
X188174285Y-134262857D01*
X188174285Y-134500952D01*
X188221904Y-134596190D01*
X188269523Y-134643809D01*
X188364761Y-134691428D01*
X188555238Y-134691428D01*
X188650476Y-134643809D01*
X188698095Y-134596190D01*
X188745714Y-134500952D01*
X206192380Y-97734285D02*
X205192380Y-97734285D01*
X205192380Y-97353333D01*
X205240000Y-97258095D01*
X205287619Y-97210476D01*
X205382857Y-97162857D01*
X205525714Y-97162857D01*
X205620952Y-97210476D01*
X205668571Y-97258095D01*
X205716190Y-97353333D01*
X205716190Y-97734285D01*
X206192380Y-96210476D02*
X206192380Y-96781904D01*
X206192380Y-96496190D02*
X205192380Y-96496190D01*
X205335238Y-96591428D01*
X205430476Y-96686666D01*
X205478095Y-96781904D01*
X205192380Y-95591428D02*
X205192380Y-95496190D01*
X205240000Y-95400952D01*
X205287619Y-95353333D01*
X205382857Y-95305714D01*
X205573333Y-95258095D01*
X205811428Y-95258095D01*
X206001904Y-95305714D01*
X206097142Y-95353333D01*
X206144761Y-95400952D01*
X206192380Y-95496190D01*
X206192380Y-95591428D01*
X206144761Y-95686666D01*
X206097142Y-95734285D01*
X206001904Y-95781904D01*
X205811428Y-95829523D01*
X205573333Y-95829523D01*
X205382857Y-95781904D01*
X205287619Y-95734285D01*
X205240000Y-95686666D01*
X205192380Y-95591428D01*
X206192380Y-93924285D02*
X205192380Y-93924285D01*
X205192380Y-93543333D01*
X205240000Y-93448095D01*
X205287619Y-93400476D01*
X205382857Y-93352857D01*
X205525714Y-93352857D01*
X205620952Y-93400476D01*
X205668571Y-93448095D01*
X205716190Y-93543333D01*
X205716190Y-93924285D01*
X206192380Y-92400476D02*
X206192380Y-92971904D01*
X206192380Y-92686190D02*
X205192380Y-92686190D01*
X205335238Y-92781428D01*
X205430476Y-92876666D01*
X205478095Y-92971904D01*
X206192380Y-91448095D02*
X206192380Y-92019523D01*
X206192380Y-91733809D02*
X205192380Y-91733809D01*
X205335238Y-91829047D01*
X205430476Y-91924285D01*
X205478095Y-92019523D01*
X146105714Y-135072380D02*
X146105714Y-134072380D01*
X146486666Y-134072380D01*
X146581904Y-134120000D01*
X146629523Y-134167619D01*
X146677142Y-134262857D01*
X146677142Y-134405714D01*
X146629523Y-134500952D01*
X146581904Y-134548571D01*
X146486666Y-134596190D01*
X146105714Y-134596190D01*
X147629523Y-135072380D02*
X147058095Y-135072380D01*
X147343809Y-135072380D02*
X147343809Y-134072380D01*
X147248571Y-134215238D01*
X147153333Y-134310476D01*
X147058095Y-134358095D01*
X148010476Y-134167619D02*
X148058095Y-134120000D01*
X148153333Y-134072380D01*
X148391428Y-134072380D01*
X148486666Y-134120000D01*
X148534285Y-134167619D01*
X148581904Y-134262857D01*
X148581904Y-134358095D01*
X148534285Y-134500952D01*
X147962857Y-135072380D01*
X148581904Y-135072380D01*
X151021904Y-112962380D02*
X151021904Y-111962380D01*
X151260000Y-111962380D01*
X151402857Y-112010000D01*
X151498095Y-112105238D01*
X151545714Y-112200476D01*
X151593333Y-112390952D01*
X151593333Y-112533809D01*
X151545714Y-112724285D01*
X151498095Y-112819523D01*
X151402857Y-112914761D01*
X151260000Y-112962380D01*
X151021904Y-112962380D01*
X152545714Y-112962380D02*
X151974285Y-112962380D01*
X152260000Y-112962380D02*
X152260000Y-111962380D01*
X152164761Y-112105238D01*
X152069523Y-112200476D01*
X151974285Y-112248095D01*
X151727142Y-118922380D02*
X151393809Y-118446190D01*
X151155714Y-118922380D02*
X151155714Y-117922380D01*
X151536666Y-117922380D01*
X151631904Y-117970000D01*
X151679523Y-118017619D01*
X151727142Y-118112857D01*
X151727142Y-118255714D01*
X151679523Y-118350952D01*
X151631904Y-118398571D01*
X151536666Y-118446190D01*
X151155714Y-118446190D01*
X152155714Y-118398571D02*
X152489047Y-118398571D01*
X152631904Y-118922380D02*
X152155714Y-118922380D01*
X152155714Y-117922380D01*
X152631904Y-117922380D01*
X153060476Y-118922380D02*
X153060476Y-117922380D01*
X153298571Y-117922380D01*
X153441428Y-117970000D01*
X153536666Y-118065238D01*
X153584285Y-118160476D01*
X153631904Y-118350952D01*
X153631904Y-118493809D01*
X153584285Y-118684285D01*
X153536666Y-118779523D01*
X153441428Y-118874761D01*
X153298571Y-118922380D01*
X153060476Y-118922380D01*
X147772380Y-123928095D02*
X146772380Y-123928095D01*
X146772380Y-123690000D01*
X146820000Y-123547142D01*
X146915238Y-123451904D01*
X147010476Y-123404285D01*
X147200952Y-123356666D01*
X147343809Y-123356666D01*
X147534285Y-123404285D01*
X147629523Y-123451904D01*
X147724761Y-123547142D01*
X147772380Y-123690000D01*
X147772380Y-123928095D01*
X146867619Y-122975714D02*
X146820000Y-122928095D01*
X146772380Y-122832857D01*
X146772380Y-122594761D01*
X146820000Y-122499523D01*
X146867619Y-122451904D01*
X146962857Y-122404285D01*
X147058095Y-122404285D01*
X147200952Y-122451904D01*
X147772380Y-123023333D01*
X147772380Y-122404285D01*
X182771904Y-92642380D02*
X182771904Y-91642380D01*
X183010000Y-91642380D01*
X183152857Y-91690000D01*
X183248095Y-91785238D01*
X183295714Y-91880476D01*
X183343333Y-92070952D01*
X183343333Y-92213809D01*
X183295714Y-92404285D01*
X183248095Y-92499523D01*
X183152857Y-92594761D01*
X183010000Y-92642380D01*
X182771904Y-92642380D01*
X184200476Y-91642380D02*
X184010000Y-91642380D01*
X183914761Y-91690000D01*
X183867142Y-91737619D01*
X183771904Y-91880476D01*
X183724285Y-92070952D01*
X183724285Y-92451904D01*
X183771904Y-92547142D01*
X183819523Y-92594761D01*
X183914761Y-92642380D01*
X184105238Y-92642380D01*
X184200476Y-92594761D01*
X184248095Y-92547142D01*
X184295714Y-92451904D01*
X184295714Y-92213809D01*
X184248095Y-92118571D01*
X184200476Y-92070952D01*
X184105238Y-92023333D01*
X183914761Y-92023333D01*
X183819523Y-92070952D01*
X183771904Y-92118571D01*
X183724285Y-92213809D01*
X183477142Y-98602380D02*
X183143809Y-98126190D01*
X182905714Y-98602380D02*
X182905714Y-97602380D01*
X183286666Y-97602380D01*
X183381904Y-97650000D01*
X183429523Y-97697619D01*
X183477142Y-97792857D01*
X183477142Y-97935714D01*
X183429523Y-98030952D01*
X183381904Y-98078571D01*
X183286666Y-98126190D01*
X182905714Y-98126190D01*
X183905714Y-98078571D02*
X184239047Y-98078571D01*
X184381904Y-98602380D02*
X183905714Y-98602380D01*
X183905714Y-97602380D01*
X184381904Y-97602380D01*
X184810476Y-98602380D02*
X184810476Y-97602380D01*
X185048571Y-97602380D01*
X185191428Y-97650000D01*
X185286666Y-97745238D01*
X185334285Y-97840476D01*
X185381904Y-98030952D01*
X185381904Y-98173809D01*
X185334285Y-98364285D01*
X185286666Y-98459523D01*
X185191428Y-98554761D01*
X185048571Y-98602380D01*
X184810476Y-98602380D01*
X179522380Y-103608095D02*
X178522380Y-103608095D01*
X178522380Y-103370000D01*
X178570000Y-103227142D01*
X178665238Y-103131904D01*
X178760476Y-103084285D01*
X178950952Y-103036666D01*
X179093809Y-103036666D01*
X179284285Y-103084285D01*
X179379523Y-103131904D01*
X179474761Y-103227142D01*
X179522380Y-103370000D01*
X179522380Y-103608095D01*
X178950952Y-102465238D02*
X178903333Y-102560476D01*
X178855714Y-102608095D01*
X178760476Y-102655714D01*
X178712857Y-102655714D01*
X178617619Y-102608095D01*
X178570000Y-102560476D01*
X178522380Y-102465238D01*
X178522380Y-102274761D01*
X178570000Y-102179523D01*
X178617619Y-102131904D01*
X178712857Y-102084285D01*
X178760476Y-102084285D01*
X178855714Y-102131904D01*
X178903333Y-102179523D01*
X178950952Y-102274761D01*
X178950952Y-102465238D01*
X178998571Y-102560476D01*
X179046190Y-102608095D01*
X179141428Y-102655714D01*
X179331904Y-102655714D01*
X179427142Y-102608095D01*
X179474761Y-102560476D01*
X179522380Y-102465238D01*
X179522380Y-102274761D01*
X179474761Y-102179523D01*
X179427142Y-102131904D01*
X179331904Y-102084285D01*
X179141428Y-102084285D01*
X179046190Y-102131904D01*
X178998571Y-102179523D01*
X178950952Y-102274761D01*
X152852380Y-124626666D02*
X152376190Y-124960000D01*
X152852380Y-125198095D02*
X151852380Y-125198095D01*
X151852380Y-124817142D01*
X151900000Y-124721904D01*
X151947619Y-124674285D01*
X152042857Y-124626666D01*
X152185714Y-124626666D01*
X152280952Y-124674285D01*
X152328571Y-124721904D01*
X152376190Y-124817142D01*
X152376190Y-125198095D01*
X152852380Y-123674285D02*
X152852380Y-124245714D01*
X152852380Y-123960000D02*
X151852380Y-123960000D01*
X151995238Y-124055238D01*
X152090476Y-124150476D01*
X152138095Y-124245714D01*
X151021904Y-92642380D02*
X151021904Y-91642380D01*
X151260000Y-91642380D01*
X151402857Y-91690000D01*
X151498095Y-91785238D01*
X151545714Y-91880476D01*
X151593333Y-92070952D01*
X151593333Y-92213809D01*
X151545714Y-92404285D01*
X151498095Y-92499523D01*
X151402857Y-92594761D01*
X151260000Y-92642380D01*
X151021904Y-92642380D01*
X151926666Y-91642380D02*
X152545714Y-91642380D01*
X152212380Y-92023333D01*
X152355238Y-92023333D01*
X152450476Y-92070952D01*
X152498095Y-92118571D01*
X152545714Y-92213809D01*
X152545714Y-92451904D01*
X152498095Y-92547142D01*
X152450476Y-92594761D01*
X152355238Y-92642380D01*
X152069523Y-92642380D01*
X151974285Y-92594761D01*
X151926666Y-92547142D01*
X151727142Y-98602380D02*
X151393809Y-98126190D01*
X151155714Y-98602380D02*
X151155714Y-97602380D01*
X151536666Y-97602380D01*
X151631904Y-97650000D01*
X151679523Y-97697619D01*
X151727142Y-97792857D01*
X151727142Y-97935714D01*
X151679523Y-98030952D01*
X151631904Y-98078571D01*
X151536666Y-98126190D01*
X151155714Y-98126190D01*
X152155714Y-98078571D02*
X152489047Y-98078571D01*
X152631904Y-98602380D02*
X152155714Y-98602380D01*
X152155714Y-97602380D01*
X152631904Y-97602380D01*
X153060476Y-98602380D02*
X153060476Y-97602380D01*
X153298571Y-97602380D01*
X153441428Y-97650000D01*
X153536666Y-97745238D01*
X153584285Y-97840476D01*
X153631904Y-98030952D01*
X153631904Y-98173809D01*
X153584285Y-98364285D01*
X153536666Y-98459523D01*
X153441428Y-98554761D01*
X153298571Y-98602380D01*
X153060476Y-98602380D01*
X147772380Y-103608095D02*
X146772380Y-103608095D01*
X146772380Y-103370000D01*
X146820000Y-103227142D01*
X146915238Y-103131904D01*
X147010476Y-103084285D01*
X147200952Y-103036666D01*
X147343809Y-103036666D01*
X147534285Y-103084285D01*
X147629523Y-103131904D01*
X147724761Y-103227142D01*
X147772380Y-103370000D01*
X147772380Y-103608095D01*
X147105714Y-102179523D02*
X147772380Y-102179523D01*
X146724761Y-102417619D02*
X147439047Y-102655714D01*
X147439047Y-102036666D01*
X182771904Y-112962380D02*
X182771904Y-111962380D01*
X183010000Y-111962380D01*
X183152857Y-112010000D01*
X183248095Y-112105238D01*
X183295714Y-112200476D01*
X183343333Y-112390952D01*
X183343333Y-112533809D01*
X183295714Y-112724285D01*
X183248095Y-112819523D01*
X183152857Y-112914761D01*
X183010000Y-112962380D01*
X182771904Y-112962380D01*
X184248095Y-111962380D02*
X183771904Y-111962380D01*
X183724285Y-112438571D01*
X183771904Y-112390952D01*
X183867142Y-112343333D01*
X184105238Y-112343333D01*
X184200476Y-112390952D01*
X184248095Y-112438571D01*
X184295714Y-112533809D01*
X184295714Y-112771904D01*
X184248095Y-112867142D01*
X184200476Y-112914761D01*
X184105238Y-112962380D01*
X183867142Y-112962380D01*
X183771904Y-112914761D01*
X183724285Y-112867142D01*
X183477142Y-118922380D02*
X183143809Y-118446190D01*
X182905714Y-118922380D02*
X182905714Y-117922380D01*
X183286666Y-117922380D01*
X183381904Y-117970000D01*
X183429523Y-118017619D01*
X183477142Y-118112857D01*
X183477142Y-118255714D01*
X183429523Y-118350952D01*
X183381904Y-118398571D01*
X183286666Y-118446190D01*
X182905714Y-118446190D01*
X183905714Y-118398571D02*
X184239047Y-118398571D01*
X184381904Y-118922380D02*
X183905714Y-118922380D01*
X183905714Y-117922380D01*
X184381904Y-117922380D01*
X184810476Y-118922380D02*
X184810476Y-117922380D01*
X185048571Y-117922380D01*
X185191428Y-117970000D01*
X185286666Y-118065238D01*
X185334285Y-118160476D01*
X185381904Y-118350952D01*
X185381904Y-118493809D01*
X185334285Y-118684285D01*
X185286666Y-118779523D01*
X185191428Y-118874761D01*
X185048571Y-118922380D01*
X184810476Y-118922380D01*
X179522380Y-123928095D02*
X178522380Y-123928095D01*
X178522380Y-123690000D01*
X178570000Y-123547142D01*
X178665238Y-123451904D01*
X178760476Y-123404285D01*
X178950952Y-123356666D01*
X179093809Y-123356666D01*
X179284285Y-123404285D01*
X179379523Y-123451904D01*
X179474761Y-123547142D01*
X179522380Y-123690000D01*
X179522380Y-123928095D01*
X178522380Y-123023333D02*
X178522380Y-122356666D01*
X179522380Y-122785238D01*
X160567619Y-127095238D02*
X160520000Y-127190476D01*
X160424761Y-127285714D01*
X160281904Y-127428571D01*
X160234285Y-127523809D01*
X160234285Y-127619047D01*
X160472380Y-127571428D02*
X160424761Y-127666666D01*
X160329523Y-127761904D01*
X160139047Y-127809523D01*
X159805714Y-127809523D01*
X159615238Y-127761904D01*
X159520000Y-127666666D01*
X159472380Y-127571428D01*
X159472380Y-127380952D01*
X159520000Y-127285714D01*
X159615238Y-127190476D01*
X159805714Y-127142857D01*
X160139047Y-127142857D01*
X160329523Y-127190476D01*
X160424761Y-127285714D01*
X160472380Y-127380952D01*
X160472380Y-127571428D01*
X160472380Y-126190476D02*
X160472380Y-126761904D01*
X160472380Y-126476190D02*
X159472380Y-126476190D01*
X159615238Y-126571428D01*
X159710476Y-126666666D01*
X159758095Y-126761904D01*
X160567619Y-106775238D02*
X160520000Y-106870476D01*
X160424761Y-106965714D01*
X160281904Y-107108571D01*
X160234285Y-107203809D01*
X160234285Y-107299047D01*
X160472380Y-107251428D02*
X160424761Y-107346666D01*
X160329523Y-107441904D01*
X160139047Y-107489523D01*
X159805714Y-107489523D01*
X159615238Y-107441904D01*
X159520000Y-107346666D01*
X159472380Y-107251428D01*
X159472380Y-107060952D01*
X159520000Y-106965714D01*
X159615238Y-106870476D01*
X159805714Y-106822857D01*
X160139047Y-106822857D01*
X160329523Y-106870476D01*
X160424761Y-106965714D01*
X160472380Y-107060952D01*
X160472380Y-107251428D01*
X159567619Y-106441904D02*
X159520000Y-106394285D01*
X159472380Y-106299047D01*
X159472380Y-106060952D01*
X159520000Y-105965714D01*
X159567619Y-105918095D01*
X159662857Y-105870476D01*
X159758095Y-105870476D01*
X159900952Y-105918095D01*
X160472380Y-106489523D01*
X160472380Y-105870476D01*
X192317619Y-127095238D02*
X192270000Y-127190476D01*
X192174761Y-127285714D01*
X192031904Y-127428571D01*
X191984285Y-127523809D01*
X191984285Y-127619047D01*
X192222380Y-127571428D02*
X192174761Y-127666666D01*
X192079523Y-127761904D01*
X191889047Y-127809523D01*
X191555714Y-127809523D01*
X191365238Y-127761904D01*
X191270000Y-127666666D01*
X191222380Y-127571428D01*
X191222380Y-127380952D01*
X191270000Y-127285714D01*
X191365238Y-127190476D01*
X191555714Y-127142857D01*
X191889047Y-127142857D01*
X192079523Y-127190476D01*
X192174761Y-127285714D01*
X192222380Y-127380952D01*
X192222380Y-127571428D01*
X191222380Y-126809523D02*
X191222380Y-126190476D01*
X191603333Y-126523809D01*
X191603333Y-126380952D01*
X191650952Y-126285714D01*
X191698571Y-126238095D01*
X191793809Y-126190476D01*
X192031904Y-126190476D01*
X192127142Y-126238095D01*
X192174761Y-126285714D01*
X192222380Y-126380952D01*
X192222380Y-126666666D01*
X192174761Y-126761904D01*
X192127142Y-126809523D01*
X192317619Y-106775238D02*
X192270000Y-106870476D01*
X192174761Y-106965714D01*
X192031904Y-107108571D01*
X191984285Y-107203809D01*
X191984285Y-107299047D01*
X192222380Y-107251428D02*
X192174761Y-107346666D01*
X192079523Y-107441904D01*
X191889047Y-107489523D01*
X191555714Y-107489523D01*
X191365238Y-107441904D01*
X191270000Y-107346666D01*
X191222380Y-107251428D01*
X191222380Y-107060952D01*
X191270000Y-106965714D01*
X191365238Y-106870476D01*
X191555714Y-106822857D01*
X191889047Y-106822857D01*
X192079523Y-106870476D01*
X192174761Y-106965714D01*
X192222380Y-107060952D01*
X192222380Y-107251428D01*
X191555714Y-105965714D02*
X192222380Y-105965714D01*
X191174761Y-106203809D02*
X191889047Y-106441904D01*
X191889047Y-105822857D01*
X157932380Y-118276666D02*
X157456190Y-118610000D01*
X157932380Y-118848095D02*
X156932380Y-118848095D01*
X156932380Y-118467142D01*
X156980000Y-118371904D01*
X157027619Y-118324285D01*
X157122857Y-118276666D01*
X157265714Y-118276666D01*
X157360952Y-118324285D01*
X157408571Y-118371904D01*
X157456190Y-118467142D01*
X157456190Y-118848095D01*
X157027619Y-117895714D02*
X156980000Y-117848095D01*
X156932380Y-117752857D01*
X156932380Y-117514761D01*
X156980000Y-117419523D01*
X157027619Y-117371904D01*
X157122857Y-117324285D01*
X157218095Y-117324285D01*
X157360952Y-117371904D01*
X157932380Y-117943333D01*
X157932380Y-117324285D01*
X152852380Y-104306666D02*
X152376190Y-104640000D01*
X152852380Y-104878095D02*
X151852380Y-104878095D01*
X151852380Y-104497142D01*
X151900000Y-104401904D01*
X151947619Y-104354285D01*
X152042857Y-104306666D01*
X152185714Y-104306666D01*
X152280952Y-104354285D01*
X152328571Y-104401904D01*
X152376190Y-104497142D01*
X152376190Y-104878095D01*
X151852380Y-103973333D02*
X151852380Y-103354285D01*
X152233333Y-103687619D01*
X152233333Y-103544761D01*
X152280952Y-103449523D01*
X152328571Y-103401904D01*
X152423809Y-103354285D01*
X152661904Y-103354285D01*
X152757142Y-103401904D01*
X152804761Y-103449523D01*
X152852380Y-103544761D01*
X152852380Y-103830476D01*
X152804761Y-103925714D01*
X152757142Y-103973333D01*
X157932380Y-97956666D02*
X157456190Y-98290000D01*
X157932380Y-98528095D02*
X156932380Y-98528095D01*
X156932380Y-98147142D01*
X156980000Y-98051904D01*
X157027619Y-98004285D01*
X157122857Y-97956666D01*
X157265714Y-97956666D01*
X157360952Y-98004285D01*
X157408571Y-98051904D01*
X157456190Y-98147142D01*
X157456190Y-98528095D01*
X157265714Y-97099523D02*
X157932380Y-97099523D01*
X156884761Y-97337619D02*
X157599047Y-97575714D01*
X157599047Y-96956666D01*
X189682380Y-118276666D02*
X189206190Y-118610000D01*
X189682380Y-118848095D02*
X188682380Y-118848095D01*
X188682380Y-118467142D01*
X188730000Y-118371904D01*
X188777619Y-118324285D01*
X188872857Y-118276666D01*
X189015714Y-118276666D01*
X189110952Y-118324285D01*
X189158571Y-118371904D01*
X189206190Y-118467142D01*
X189206190Y-118848095D01*
X188682380Y-117371904D02*
X188682380Y-117848095D01*
X189158571Y-117895714D01*
X189110952Y-117848095D01*
X189063333Y-117752857D01*
X189063333Y-117514761D01*
X189110952Y-117419523D01*
X189158571Y-117371904D01*
X189253809Y-117324285D01*
X189491904Y-117324285D01*
X189587142Y-117371904D01*
X189634761Y-117419523D01*
X189682380Y-117514761D01*
X189682380Y-117752857D01*
X189634761Y-117848095D01*
X189587142Y-117895714D01*
X189682380Y-97956666D02*
X189206190Y-98290000D01*
X189682380Y-98528095D02*
X188682380Y-98528095D01*
X188682380Y-98147142D01*
X188730000Y-98051904D01*
X188777619Y-98004285D01*
X188872857Y-97956666D01*
X189015714Y-97956666D01*
X189110952Y-98004285D01*
X189158571Y-98051904D01*
X189206190Y-98147142D01*
X189206190Y-98528095D01*
X188682380Y-97099523D02*
X188682380Y-97290000D01*
X188730000Y-97385238D01*
X188777619Y-97432857D01*
X188920476Y-97528095D01*
X189110952Y-97575714D01*
X189491904Y-97575714D01*
X189587142Y-97528095D01*
X189634761Y-97480476D01*
X189682380Y-97385238D01*
X189682380Y-97194761D01*
X189634761Y-97099523D01*
X189587142Y-97051904D01*
X189491904Y-97004285D01*
X189253809Y-97004285D01*
X189158571Y-97051904D01*
X189110952Y-97099523D01*
X189063333Y-97194761D01*
X189063333Y-97385238D01*
X189110952Y-97480476D01*
X189158571Y-97528095D01*
X189253809Y-97575714D01*
X184602380Y-124626666D02*
X184126190Y-124960000D01*
X184602380Y-125198095D02*
X183602380Y-125198095D01*
X183602380Y-124817142D01*
X183650000Y-124721904D01*
X183697619Y-124674285D01*
X183792857Y-124626666D01*
X183935714Y-124626666D01*
X184030952Y-124674285D01*
X184078571Y-124721904D01*
X184126190Y-124817142D01*
X184126190Y-125198095D01*
X183602380Y-124293333D02*
X183602380Y-123626666D01*
X184602380Y-124055238D01*
X184602380Y-104306666D02*
X184126190Y-104640000D01*
X184602380Y-104878095D02*
X183602380Y-104878095D01*
X183602380Y-104497142D01*
X183650000Y-104401904D01*
X183697619Y-104354285D01*
X183792857Y-104306666D01*
X183935714Y-104306666D01*
X184030952Y-104354285D01*
X184078571Y-104401904D01*
X184126190Y-104497142D01*
X184126190Y-104878095D01*
X184030952Y-103735238D02*
X183983333Y-103830476D01*
X183935714Y-103878095D01*
X183840476Y-103925714D01*
X183792857Y-103925714D01*
X183697619Y-103878095D01*
X183650000Y-103830476D01*
X183602380Y-103735238D01*
X183602380Y-103544761D01*
X183650000Y-103449523D01*
X183697619Y-103401904D01*
X183792857Y-103354285D01*
X183840476Y-103354285D01*
X183935714Y-103401904D01*
X183983333Y-103449523D01*
X184030952Y-103544761D01*
X184030952Y-103735238D01*
X184078571Y-103830476D01*
X184126190Y-103878095D01*
X184221428Y-103925714D01*
X184411904Y-103925714D01*
X184507142Y-103878095D01*
X184554761Y-103830476D01*
X184602380Y-103735238D01*
X184602380Y-103544761D01*
X184554761Y-103449523D01*
X184507142Y-103401904D01*
X184411904Y-103354285D01*
X184221428Y-103354285D01*
X184126190Y-103401904D01*
X184078571Y-103449523D01*
X184030952Y-103544761D01*
X134135120Y-124230640D02*
X133658930Y-124563973D01*
X134135120Y-124802068D02*
X133135120Y-124802068D01*
X133135120Y-124421116D01*
X133182740Y-124325878D01*
X133230359Y-124278259D01*
X133325597Y-124230640D01*
X133468454Y-124230640D01*
X133563692Y-124278259D01*
X133611311Y-124325878D01*
X133658930Y-124421116D01*
X133658930Y-124802068D01*
X134135120Y-123325878D02*
X134135120Y-123802068D01*
X133135120Y-123802068D01*
X133658930Y-122802068D02*
X134135120Y-122802068D01*
X133135120Y-123135401D02*
X133658930Y-122802068D01*
X133135120Y-122468735D01*
X134135120Y-121611592D02*
X134135120Y-122183020D01*
X134135120Y-121897306D02*
X133135120Y-121897306D01*
X133277978Y-121992544D01*
X133373216Y-122087782D01*
X133420835Y-122183020D01*
X138787142Y-116530476D02*
X138834761Y-116578095D01*
X138882380Y-116720952D01*
X138882380Y-116816190D01*
X138834761Y-116959047D01*
X138739523Y-117054285D01*
X138644285Y-117101904D01*
X138453809Y-117149523D01*
X138310952Y-117149523D01*
X138120476Y-117101904D01*
X138025238Y-117054285D01*
X137930000Y-116959047D01*
X137882380Y-116816190D01*
X137882380Y-116720952D01*
X137930000Y-116578095D01*
X137977619Y-116530476D01*
X138882380Y-125245714D02*
X137882380Y-125245714D01*
X138882380Y-124674285D01*
X137882380Y-124674285D01*
X138787142Y-123626666D02*
X138834761Y-123674285D01*
X138882380Y-123817142D01*
X138882380Y-123912380D01*
X138834761Y-124055238D01*
X138739523Y-124150476D01*
X138644285Y-124198095D01*
X138453809Y-124245714D01*
X138310952Y-124245714D01*
X138120476Y-124198095D01*
X138025238Y-124150476D01*
X137930000Y-124055238D01*
X137882380Y-123912380D01*
X137882380Y-123817142D01*
X137930000Y-123674285D01*
X137977619Y-123626666D01*
X138882380Y-130349523D02*
X137882380Y-130349523D01*
X138882380Y-129778095D01*
X137882380Y-129778095D01*
X137882380Y-129111428D02*
X137882380Y-128920952D01*
X137930000Y-128825714D01*
X138025238Y-128730476D01*
X138215714Y-128682857D01*
X138549047Y-128682857D01*
X138739523Y-128730476D01*
X138834761Y-128825714D01*
X138882380Y-128920952D01*
X138882380Y-129111428D01*
X138834761Y-129206666D01*
X138739523Y-129301904D01*
X138549047Y-129349523D01*
X138215714Y-129349523D01*
X138025238Y-129301904D01*
X137930000Y-129206666D01*
X137882380Y-129111428D01*
X134135120Y-103910640D02*
X133658930Y-104243973D01*
X134135120Y-104482068D02*
X133135120Y-104482068D01*
X133135120Y-104101116D01*
X133182740Y-104005878D01*
X133230359Y-103958259D01*
X133325597Y-103910640D01*
X133468454Y-103910640D01*
X133563692Y-103958259D01*
X133611311Y-104005878D01*
X133658930Y-104101116D01*
X133658930Y-104482068D01*
X134135120Y-103005878D02*
X134135120Y-103482068D01*
X133135120Y-103482068D01*
X133658930Y-102482068D02*
X134135120Y-102482068D01*
X133135120Y-102815401D02*
X133658930Y-102482068D01*
X133135120Y-102148735D01*
X133230359Y-101863020D02*
X133182740Y-101815401D01*
X133135120Y-101720163D01*
X133135120Y-101482068D01*
X133182740Y-101386830D01*
X133230359Y-101339211D01*
X133325597Y-101291592D01*
X133420835Y-101291592D01*
X133563692Y-101339211D01*
X134135120Y-101910640D01*
X134135120Y-101291592D01*
X138787142Y-96210476D02*
X138834761Y-96258095D01*
X138882380Y-96400952D01*
X138882380Y-96496190D01*
X138834761Y-96639047D01*
X138739523Y-96734285D01*
X138644285Y-96781904D01*
X138453809Y-96829523D01*
X138310952Y-96829523D01*
X138120476Y-96781904D01*
X138025238Y-96734285D01*
X137930000Y-96639047D01*
X137882380Y-96496190D01*
X137882380Y-96400952D01*
X137930000Y-96258095D01*
X137977619Y-96210476D01*
X138882380Y-104925714D02*
X137882380Y-104925714D01*
X138882380Y-104354285D01*
X137882380Y-104354285D01*
X138787142Y-103306666D02*
X138834761Y-103354285D01*
X138882380Y-103497142D01*
X138882380Y-103592380D01*
X138834761Y-103735238D01*
X138739523Y-103830476D01*
X138644285Y-103878095D01*
X138453809Y-103925714D01*
X138310952Y-103925714D01*
X138120476Y-103878095D01*
X138025238Y-103830476D01*
X137930000Y-103735238D01*
X137882380Y-103592380D01*
X137882380Y-103497142D01*
X137930000Y-103354285D01*
X137977619Y-103306666D01*
X138882380Y-110029523D02*
X137882380Y-110029523D01*
X138882380Y-109458095D01*
X137882380Y-109458095D01*
X137882380Y-108791428D02*
X137882380Y-108600952D01*
X137930000Y-108505714D01*
X138025238Y-108410476D01*
X138215714Y-108362857D01*
X138549047Y-108362857D01*
X138739523Y-108410476D01*
X138834761Y-108505714D01*
X138882380Y-108600952D01*
X138882380Y-108791428D01*
X138834761Y-108886666D01*
X138739523Y-108981904D01*
X138549047Y-109029523D01*
X138215714Y-109029523D01*
X138025238Y-108981904D01*
X137930000Y-108886666D01*
X137882380Y-108791428D01*
X165885120Y-124230640D02*
X165408930Y-124563973D01*
X165885120Y-124802068D02*
X164885120Y-124802068D01*
X164885120Y-124421116D01*
X164932740Y-124325878D01*
X164980359Y-124278259D01*
X165075597Y-124230640D01*
X165218454Y-124230640D01*
X165313692Y-124278259D01*
X165361311Y-124325878D01*
X165408930Y-124421116D01*
X165408930Y-124802068D01*
X165885120Y-123325878D02*
X165885120Y-123802068D01*
X164885120Y-123802068D01*
X165408930Y-122802068D02*
X165885120Y-122802068D01*
X164885120Y-123135401D02*
X165408930Y-122802068D01*
X164885120Y-122468735D01*
X164885120Y-122230640D02*
X164885120Y-121611592D01*
X165266073Y-121944925D01*
X165266073Y-121802068D01*
X165313692Y-121706830D01*
X165361311Y-121659211D01*
X165456549Y-121611592D01*
X165694644Y-121611592D01*
X165789882Y-121659211D01*
X165837501Y-121706830D01*
X165885120Y-121802068D01*
X165885120Y-122087782D01*
X165837501Y-122183020D01*
X165789882Y-122230640D01*
X170632380Y-130349523D02*
X169632380Y-130349523D01*
X170632380Y-129778095D01*
X169632380Y-129778095D01*
X169632380Y-129111428D02*
X169632380Y-128920952D01*
X169680000Y-128825714D01*
X169775238Y-128730476D01*
X169965714Y-128682857D01*
X170299047Y-128682857D01*
X170489523Y-128730476D01*
X170584761Y-128825714D01*
X170632380Y-128920952D01*
X170632380Y-129111428D01*
X170584761Y-129206666D01*
X170489523Y-129301904D01*
X170299047Y-129349523D01*
X169965714Y-129349523D01*
X169775238Y-129301904D01*
X169680000Y-129206666D01*
X169632380Y-129111428D01*
X170632380Y-125245714D02*
X169632380Y-125245714D01*
X170632380Y-124674285D01*
X169632380Y-124674285D01*
X170537142Y-123626666D02*
X170584761Y-123674285D01*
X170632380Y-123817142D01*
X170632380Y-123912380D01*
X170584761Y-124055238D01*
X170489523Y-124150476D01*
X170394285Y-124198095D01*
X170203809Y-124245714D01*
X170060952Y-124245714D01*
X169870476Y-124198095D01*
X169775238Y-124150476D01*
X169680000Y-124055238D01*
X169632380Y-123912380D01*
X169632380Y-123817142D01*
X169680000Y-123674285D01*
X169727619Y-123626666D01*
X170537142Y-116530476D02*
X170584761Y-116578095D01*
X170632380Y-116720952D01*
X170632380Y-116816190D01*
X170584761Y-116959047D01*
X170489523Y-117054285D01*
X170394285Y-117101904D01*
X170203809Y-117149523D01*
X170060952Y-117149523D01*
X169870476Y-117101904D01*
X169775238Y-117054285D01*
X169680000Y-116959047D01*
X169632380Y-116816190D01*
X169632380Y-116720952D01*
X169680000Y-116578095D01*
X169727619Y-116530476D01*
X165885120Y-103910640D02*
X165408930Y-104243973D01*
X165885120Y-104482068D02*
X164885120Y-104482068D01*
X164885120Y-104101116D01*
X164932740Y-104005878D01*
X164980359Y-103958259D01*
X165075597Y-103910640D01*
X165218454Y-103910640D01*
X165313692Y-103958259D01*
X165361311Y-104005878D01*
X165408930Y-104101116D01*
X165408930Y-104482068D01*
X165885120Y-103005878D02*
X165885120Y-103482068D01*
X164885120Y-103482068D01*
X165408930Y-102482068D02*
X165885120Y-102482068D01*
X164885120Y-102815401D02*
X165408930Y-102482068D01*
X164885120Y-102148735D01*
X165218454Y-101386830D02*
X165885120Y-101386830D01*
X164837501Y-101624925D02*
X165551787Y-101863020D01*
X165551787Y-101243973D01*
X170632380Y-110029523D02*
X169632380Y-110029523D01*
X170632380Y-109458095D01*
X169632380Y-109458095D01*
X169632380Y-108791428D02*
X169632380Y-108600952D01*
X169680000Y-108505714D01*
X169775238Y-108410476D01*
X169965714Y-108362857D01*
X170299047Y-108362857D01*
X170489523Y-108410476D01*
X170584761Y-108505714D01*
X170632380Y-108600952D01*
X170632380Y-108791428D01*
X170584761Y-108886666D01*
X170489523Y-108981904D01*
X170299047Y-109029523D01*
X169965714Y-109029523D01*
X169775238Y-108981904D01*
X169680000Y-108886666D01*
X169632380Y-108791428D01*
X170632380Y-104925714D02*
X169632380Y-104925714D01*
X170632380Y-104354285D01*
X169632380Y-104354285D01*
X170537142Y-103306666D02*
X170584761Y-103354285D01*
X170632380Y-103497142D01*
X170632380Y-103592380D01*
X170584761Y-103735238D01*
X170489523Y-103830476D01*
X170394285Y-103878095D01*
X170203809Y-103925714D01*
X170060952Y-103925714D01*
X169870476Y-103878095D01*
X169775238Y-103830476D01*
X169680000Y-103735238D01*
X169632380Y-103592380D01*
X169632380Y-103497142D01*
X169680000Y-103354285D01*
X169727619Y-103306666D01*
X170537142Y-96210476D02*
X170584761Y-96258095D01*
X170632380Y-96400952D01*
X170632380Y-96496190D01*
X170584761Y-96639047D01*
X170489523Y-96734285D01*
X170394285Y-96781904D01*
X170203809Y-96829523D01*
X170060952Y-96829523D01*
X169870476Y-96781904D01*
X169775238Y-96734285D01*
X169680000Y-96639047D01*
X169632380Y-96496190D01*
X169632380Y-96400952D01*
X169680000Y-96258095D01*
X169727619Y-96210476D01*
M02*
