G04 #@! TF.FileFunction,Legend,Bot*
%FSLAX46Y46*%
G04 Gerber Fmt 4.6, Leading zero omitted, Abs format (unit mm)*
G04 Created by KiCad (PCBNEW no-vcs-found-undefined) date Mon Oct 24 11:28:01 2016*
%MOMM*%
%LPD*%
G01*
G04 APERTURE LIST*
%ADD10C,0.100000*%
%ADD11C,0.300000*%
%ADD12C,0.010000*%
G04 APERTURE END LIST*
D10*
D11*
X140251428Y-135782857D02*
X140037142Y-135854285D01*
X139965714Y-135925714D01*
X139894285Y-136068571D01*
X139894285Y-136282857D01*
X139965714Y-136425714D01*
X140037142Y-136497142D01*
X140180000Y-136568571D01*
X140751428Y-136568571D01*
X140751428Y-135068571D01*
X140251428Y-135068571D01*
X140108571Y-135140000D01*
X140037142Y-135211428D01*
X139965714Y-135354285D01*
X139965714Y-135497142D01*
X140037142Y-135640000D01*
X140108571Y-135711428D01*
X140251428Y-135782857D01*
X140751428Y-135782857D01*
X138608571Y-136568571D02*
X138608571Y-135782857D01*
X138680000Y-135640000D01*
X138822857Y-135568571D01*
X139108571Y-135568571D01*
X139251428Y-135640000D01*
X138608571Y-136497142D02*
X138751428Y-136568571D01*
X139108571Y-136568571D01*
X139251428Y-136497142D01*
X139322857Y-136354285D01*
X139322857Y-136211428D01*
X139251428Y-136068571D01*
X139108571Y-135997142D01*
X138751428Y-135997142D01*
X138608571Y-135925714D01*
X137251428Y-136497142D02*
X137394285Y-136568571D01*
X137680000Y-136568571D01*
X137822857Y-136497142D01*
X137894285Y-136425714D01*
X137965714Y-136282857D01*
X137965714Y-135854285D01*
X137894285Y-135711428D01*
X137822857Y-135640000D01*
X137680000Y-135568571D01*
X137394285Y-135568571D01*
X137251428Y-135640000D01*
X136608571Y-136568571D02*
X136608571Y-135068571D01*
X136465714Y-135997142D02*
X136037142Y-136568571D01*
X136037142Y-135568571D02*
X136608571Y-136140000D01*
D12*
G36*
X163115814Y-97781069D02*
X163199635Y-97336445D01*
X163508920Y-97208947D01*
X163818206Y-97081449D01*
X164189246Y-97333754D01*
X164293157Y-97404004D01*
X164387087Y-97466728D01*
X164466652Y-97519062D01*
X164527470Y-97558143D01*
X164565157Y-97581107D01*
X164575421Y-97586058D01*
X164593910Y-97573324D01*
X164633420Y-97538118D01*
X164689522Y-97484938D01*
X164757787Y-97418282D01*
X164833786Y-97342646D01*
X164913092Y-97262528D01*
X164991275Y-97182426D01*
X165063907Y-97106836D01*
X165126559Y-97040255D01*
X165174803Y-96987182D01*
X165204210Y-96952113D01*
X165211241Y-96940377D01*
X165201123Y-96918740D01*
X165172759Y-96871338D01*
X165129129Y-96802807D01*
X165073218Y-96717785D01*
X165008006Y-96620907D01*
X164970219Y-96565650D01*
X164901343Y-96464752D01*
X164840140Y-96373701D01*
X164789578Y-96297030D01*
X164752628Y-96239272D01*
X164732258Y-96204957D01*
X164729197Y-96197746D01*
X164736136Y-96177252D01*
X164755051Y-96129487D01*
X164783087Y-96061168D01*
X164817391Y-95979011D01*
X164855109Y-95889730D01*
X164893387Y-95800042D01*
X164929370Y-95716662D01*
X164960206Y-95646306D01*
X164983039Y-95595690D01*
X164995017Y-95571529D01*
X164995724Y-95570578D01*
X165014531Y-95565964D01*
X165064618Y-95555672D01*
X165140793Y-95540713D01*
X165237865Y-95522099D01*
X165350643Y-95500841D01*
X165416442Y-95488582D01*
X165536950Y-95465638D01*
X165645797Y-95443805D01*
X165737476Y-95424278D01*
X165806481Y-95408252D01*
X165847304Y-95396921D01*
X165855511Y-95393326D01*
X165863548Y-95368994D01*
X165870033Y-95314041D01*
X165874970Y-95234892D01*
X165878364Y-95137974D01*
X165880218Y-95029713D01*
X165880538Y-94916535D01*
X165879327Y-94804865D01*
X165876590Y-94701132D01*
X165872331Y-94611759D01*
X165866555Y-94543174D01*
X165859267Y-94501803D01*
X165854895Y-94493190D01*
X165828764Y-94482867D01*
X165773393Y-94468108D01*
X165696107Y-94450648D01*
X165604230Y-94432220D01*
X165572158Y-94426259D01*
X165417524Y-94397934D01*
X165295375Y-94375124D01*
X165201673Y-94356920D01*
X165132384Y-94342417D01*
X165083471Y-94330708D01*
X165050897Y-94320885D01*
X165030628Y-94312044D01*
X165018626Y-94303276D01*
X165016947Y-94301543D01*
X165000184Y-94273629D01*
X164974614Y-94219305D01*
X164942788Y-94145223D01*
X164907260Y-94058035D01*
X164870583Y-93964392D01*
X164835311Y-93870948D01*
X164803996Y-93784353D01*
X164779193Y-93711260D01*
X164763454Y-93658322D01*
X164759332Y-93632189D01*
X164759676Y-93631274D01*
X164773641Y-93609914D01*
X164805322Y-93562916D01*
X164851391Y-93495173D01*
X164908518Y-93411577D01*
X164973373Y-93317018D01*
X164991843Y-93290146D01*
X165057699Y-93192725D01*
X165115650Y-93103837D01*
X165162538Y-93028588D01*
X165195207Y-92972080D01*
X165210500Y-92939419D01*
X165211241Y-92935407D01*
X165198392Y-92914316D01*
X165162888Y-92872536D01*
X165109293Y-92814555D01*
X165042171Y-92744865D01*
X164966087Y-92667955D01*
X164885604Y-92588317D01*
X164805287Y-92510439D01*
X164729699Y-92438814D01*
X164663405Y-92377930D01*
X164610969Y-92332279D01*
X164576955Y-92306350D01*
X164567545Y-92302117D01*
X164545643Y-92312088D01*
X164500800Y-92338980D01*
X164440321Y-92378264D01*
X164393789Y-92409883D01*
X164309475Y-92467902D01*
X164209626Y-92536216D01*
X164109473Y-92604421D01*
X164055627Y-92640925D01*
X163873371Y-92764200D01*
X163720381Y-92681480D01*
X163650682Y-92645241D01*
X163591414Y-92617074D01*
X163551311Y-92601009D01*
X163541103Y-92598774D01*
X163528829Y-92615278D01*
X163504613Y-92661918D01*
X163470263Y-92734391D01*
X163427588Y-92828394D01*
X163378394Y-92939626D01*
X163324490Y-93063785D01*
X163267684Y-93196568D01*
X163209782Y-93333673D01*
X163152593Y-93470798D01*
X163097924Y-93603642D01*
X163047584Y-93727902D01*
X163003380Y-93839275D01*
X162967119Y-93933461D01*
X162940609Y-94006156D01*
X162925658Y-94053059D01*
X162923254Y-94069167D01*
X162942311Y-94089714D01*
X162984036Y-94123067D01*
X163039706Y-94162298D01*
X163044378Y-94165401D01*
X163188264Y-94280577D01*
X163304283Y-94414947D01*
X163391430Y-94564216D01*
X163448699Y-94724087D01*
X163475086Y-94890263D01*
X163469585Y-95058448D01*
X163431190Y-95224345D01*
X163358895Y-95383658D01*
X163337626Y-95418513D01*
X163226996Y-95559263D01*
X163096302Y-95672286D01*
X162950064Y-95756997D01*
X162792808Y-95812806D01*
X162629057Y-95839126D01*
X162463333Y-95835370D01*
X162300162Y-95800950D01*
X162144065Y-95735277D01*
X161999567Y-95637765D01*
X161954869Y-95598187D01*
X161841112Y-95474297D01*
X161758218Y-95343876D01*
X161701356Y-95197685D01*
X161669687Y-95052912D01*
X161661869Y-94890140D01*
X161687938Y-94726560D01*
X161745245Y-94567702D01*
X161831144Y-94419094D01*
X161942986Y-94286265D01*
X162078123Y-94174744D01*
X162095883Y-94162989D01*
X162152150Y-94124492D01*
X162194923Y-94091137D01*
X162215372Y-94069840D01*
X162215669Y-94069167D01*
X162211279Y-94046129D01*
X162193876Y-93993843D01*
X162165268Y-93916610D01*
X162127265Y-93818732D01*
X162081674Y-93704509D01*
X162030303Y-93578242D01*
X161974962Y-93444233D01*
X161917458Y-93306782D01*
X161859601Y-93170192D01*
X161803198Y-93038763D01*
X161750058Y-92916795D01*
X161701990Y-92808591D01*
X161660801Y-92718451D01*
X161628301Y-92650677D01*
X161606297Y-92609570D01*
X161597436Y-92598774D01*
X161570360Y-92607181D01*
X161519697Y-92629728D01*
X161454183Y-92662387D01*
X161418159Y-92681480D01*
X161265168Y-92764200D01*
X161082912Y-92640925D01*
X160989875Y-92577772D01*
X160888015Y-92508273D01*
X160792562Y-92442835D01*
X160744750Y-92409883D01*
X160677505Y-92364727D01*
X160620564Y-92328943D01*
X160581354Y-92307062D01*
X160568619Y-92302437D01*
X160550083Y-92314915D01*
X160509059Y-92349748D01*
X160449525Y-92403322D01*
X160375458Y-92472017D01*
X160290835Y-92552219D01*
X160237315Y-92603714D01*
X160143681Y-92695714D01*
X160062759Y-92778001D01*
X159997823Y-92847055D01*
X159952142Y-92899356D01*
X159928989Y-92931384D01*
X159926768Y-92937884D01*
X159937076Y-92962606D01*
X159965561Y-93012595D01*
X160009063Y-93082788D01*
X160064423Y-93168125D01*
X160128480Y-93263544D01*
X160146697Y-93290146D01*
X160213073Y-93386833D01*
X160272622Y-93473883D01*
X160322016Y-93546405D01*
X160357925Y-93599507D01*
X160377019Y-93628297D01*
X160378864Y-93631274D01*
X160376105Y-93654218D01*
X160361462Y-93704664D01*
X160337487Y-93775959D01*
X160306734Y-93861453D01*
X160271756Y-93954493D01*
X160235107Y-94048426D01*
X160199339Y-94136601D01*
X160167006Y-94212366D01*
X160140662Y-94269069D01*
X160122858Y-94300057D01*
X160121593Y-94301543D01*
X160110706Y-94310399D01*
X160092318Y-94319157D01*
X160062394Y-94328723D01*
X160016897Y-94340004D01*
X159951791Y-94353907D01*
X159863039Y-94371337D01*
X159746607Y-94393202D01*
X159598458Y-94420409D01*
X159566382Y-94426259D01*
X159471314Y-94444626D01*
X159388435Y-94462595D01*
X159325070Y-94478431D01*
X159288542Y-94490400D01*
X159283644Y-94493190D01*
X159275573Y-94517928D01*
X159269013Y-94573210D01*
X159263967Y-94652611D01*
X159260441Y-94749704D01*
X159258439Y-94858062D01*
X159257964Y-94971260D01*
X159259023Y-95082872D01*
X159261618Y-95186471D01*
X159265754Y-95275632D01*
X159271437Y-95343928D01*
X159278669Y-95384934D01*
X159283029Y-95393326D01*
X159307302Y-95401792D01*
X159362574Y-95415565D01*
X159443338Y-95433450D01*
X159544088Y-95454252D01*
X159659317Y-95476777D01*
X159722098Y-95488582D01*
X159841213Y-95510849D01*
X159947435Y-95531021D01*
X160035573Y-95548085D01*
X160100434Y-95561031D01*
X160136826Y-95568845D01*
X160142816Y-95570578D01*
X160152939Y-95590110D01*
X160174338Y-95637157D01*
X160204161Y-95704997D01*
X160239555Y-95786909D01*
X160277668Y-95876172D01*
X160315647Y-95966065D01*
X160350640Y-96049865D01*
X160379794Y-96120853D01*
X160400257Y-96172306D01*
X160409177Y-96197503D01*
X160409343Y-96198604D01*
X160399231Y-96218481D01*
X160370883Y-96264223D01*
X160327277Y-96331283D01*
X160271394Y-96415116D01*
X160206213Y-96511174D01*
X160168321Y-96566350D01*
X160099275Y-96667519D01*
X160037950Y-96759370D01*
X159987337Y-96837256D01*
X159950429Y-96896531D01*
X159930218Y-96932549D01*
X159927299Y-96940623D01*
X159939847Y-96959416D01*
X159974537Y-96999543D01*
X160026937Y-97056507D01*
X160092616Y-97125815D01*
X160167144Y-97202969D01*
X160246087Y-97283475D01*
X160325017Y-97362837D01*
X160399500Y-97436560D01*
X160465106Y-97500148D01*
X160517404Y-97549106D01*
X160551961Y-97578939D01*
X160563522Y-97586058D01*
X160582346Y-97576047D01*
X160627369Y-97547922D01*
X160694213Y-97504546D01*
X160778501Y-97448782D01*
X160875856Y-97383494D01*
X160949293Y-97333754D01*
X161320333Y-97081449D01*
X161938905Y-97336445D01*
X162022725Y-97781069D01*
X162106546Y-98225693D01*
X163031994Y-98225693D01*
X163115814Y-97781069D01*
X163115814Y-97781069D01*
G37*
X163115814Y-97781069D02*
X163199635Y-97336445D01*
X163508920Y-97208947D01*
X163818206Y-97081449D01*
X164189246Y-97333754D01*
X164293157Y-97404004D01*
X164387087Y-97466728D01*
X164466652Y-97519062D01*
X164527470Y-97558143D01*
X164565157Y-97581107D01*
X164575421Y-97586058D01*
X164593910Y-97573324D01*
X164633420Y-97538118D01*
X164689522Y-97484938D01*
X164757787Y-97418282D01*
X164833786Y-97342646D01*
X164913092Y-97262528D01*
X164991275Y-97182426D01*
X165063907Y-97106836D01*
X165126559Y-97040255D01*
X165174803Y-96987182D01*
X165204210Y-96952113D01*
X165211241Y-96940377D01*
X165201123Y-96918740D01*
X165172759Y-96871338D01*
X165129129Y-96802807D01*
X165073218Y-96717785D01*
X165008006Y-96620907D01*
X164970219Y-96565650D01*
X164901343Y-96464752D01*
X164840140Y-96373701D01*
X164789578Y-96297030D01*
X164752628Y-96239272D01*
X164732258Y-96204957D01*
X164729197Y-96197746D01*
X164736136Y-96177252D01*
X164755051Y-96129487D01*
X164783087Y-96061168D01*
X164817391Y-95979011D01*
X164855109Y-95889730D01*
X164893387Y-95800042D01*
X164929370Y-95716662D01*
X164960206Y-95646306D01*
X164983039Y-95595690D01*
X164995017Y-95571529D01*
X164995724Y-95570578D01*
X165014531Y-95565964D01*
X165064618Y-95555672D01*
X165140793Y-95540713D01*
X165237865Y-95522099D01*
X165350643Y-95500841D01*
X165416442Y-95488582D01*
X165536950Y-95465638D01*
X165645797Y-95443805D01*
X165737476Y-95424278D01*
X165806481Y-95408252D01*
X165847304Y-95396921D01*
X165855511Y-95393326D01*
X165863548Y-95368994D01*
X165870033Y-95314041D01*
X165874970Y-95234892D01*
X165878364Y-95137974D01*
X165880218Y-95029713D01*
X165880538Y-94916535D01*
X165879327Y-94804865D01*
X165876590Y-94701132D01*
X165872331Y-94611759D01*
X165866555Y-94543174D01*
X165859267Y-94501803D01*
X165854895Y-94493190D01*
X165828764Y-94482867D01*
X165773393Y-94468108D01*
X165696107Y-94450648D01*
X165604230Y-94432220D01*
X165572158Y-94426259D01*
X165417524Y-94397934D01*
X165295375Y-94375124D01*
X165201673Y-94356920D01*
X165132384Y-94342417D01*
X165083471Y-94330708D01*
X165050897Y-94320885D01*
X165030628Y-94312044D01*
X165018626Y-94303276D01*
X165016947Y-94301543D01*
X165000184Y-94273629D01*
X164974614Y-94219305D01*
X164942788Y-94145223D01*
X164907260Y-94058035D01*
X164870583Y-93964392D01*
X164835311Y-93870948D01*
X164803996Y-93784353D01*
X164779193Y-93711260D01*
X164763454Y-93658322D01*
X164759332Y-93632189D01*
X164759676Y-93631274D01*
X164773641Y-93609914D01*
X164805322Y-93562916D01*
X164851391Y-93495173D01*
X164908518Y-93411577D01*
X164973373Y-93317018D01*
X164991843Y-93290146D01*
X165057699Y-93192725D01*
X165115650Y-93103837D01*
X165162538Y-93028588D01*
X165195207Y-92972080D01*
X165210500Y-92939419D01*
X165211241Y-92935407D01*
X165198392Y-92914316D01*
X165162888Y-92872536D01*
X165109293Y-92814555D01*
X165042171Y-92744865D01*
X164966087Y-92667955D01*
X164885604Y-92588317D01*
X164805287Y-92510439D01*
X164729699Y-92438814D01*
X164663405Y-92377930D01*
X164610969Y-92332279D01*
X164576955Y-92306350D01*
X164567545Y-92302117D01*
X164545643Y-92312088D01*
X164500800Y-92338980D01*
X164440321Y-92378264D01*
X164393789Y-92409883D01*
X164309475Y-92467902D01*
X164209626Y-92536216D01*
X164109473Y-92604421D01*
X164055627Y-92640925D01*
X163873371Y-92764200D01*
X163720381Y-92681480D01*
X163650682Y-92645241D01*
X163591414Y-92617074D01*
X163551311Y-92601009D01*
X163541103Y-92598774D01*
X163528829Y-92615278D01*
X163504613Y-92661918D01*
X163470263Y-92734391D01*
X163427588Y-92828394D01*
X163378394Y-92939626D01*
X163324490Y-93063785D01*
X163267684Y-93196568D01*
X163209782Y-93333673D01*
X163152593Y-93470798D01*
X163097924Y-93603642D01*
X163047584Y-93727902D01*
X163003380Y-93839275D01*
X162967119Y-93933461D01*
X162940609Y-94006156D01*
X162925658Y-94053059D01*
X162923254Y-94069167D01*
X162942311Y-94089714D01*
X162984036Y-94123067D01*
X163039706Y-94162298D01*
X163044378Y-94165401D01*
X163188264Y-94280577D01*
X163304283Y-94414947D01*
X163391430Y-94564216D01*
X163448699Y-94724087D01*
X163475086Y-94890263D01*
X163469585Y-95058448D01*
X163431190Y-95224345D01*
X163358895Y-95383658D01*
X163337626Y-95418513D01*
X163226996Y-95559263D01*
X163096302Y-95672286D01*
X162950064Y-95756997D01*
X162792808Y-95812806D01*
X162629057Y-95839126D01*
X162463333Y-95835370D01*
X162300162Y-95800950D01*
X162144065Y-95735277D01*
X161999567Y-95637765D01*
X161954869Y-95598187D01*
X161841112Y-95474297D01*
X161758218Y-95343876D01*
X161701356Y-95197685D01*
X161669687Y-95052912D01*
X161661869Y-94890140D01*
X161687938Y-94726560D01*
X161745245Y-94567702D01*
X161831144Y-94419094D01*
X161942986Y-94286265D01*
X162078123Y-94174744D01*
X162095883Y-94162989D01*
X162152150Y-94124492D01*
X162194923Y-94091137D01*
X162215372Y-94069840D01*
X162215669Y-94069167D01*
X162211279Y-94046129D01*
X162193876Y-93993843D01*
X162165268Y-93916610D01*
X162127265Y-93818732D01*
X162081674Y-93704509D01*
X162030303Y-93578242D01*
X161974962Y-93444233D01*
X161917458Y-93306782D01*
X161859601Y-93170192D01*
X161803198Y-93038763D01*
X161750058Y-92916795D01*
X161701990Y-92808591D01*
X161660801Y-92718451D01*
X161628301Y-92650677D01*
X161606297Y-92609570D01*
X161597436Y-92598774D01*
X161570360Y-92607181D01*
X161519697Y-92629728D01*
X161454183Y-92662387D01*
X161418159Y-92681480D01*
X161265168Y-92764200D01*
X161082912Y-92640925D01*
X160989875Y-92577772D01*
X160888015Y-92508273D01*
X160792562Y-92442835D01*
X160744750Y-92409883D01*
X160677505Y-92364727D01*
X160620564Y-92328943D01*
X160581354Y-92307062D01*
X160568619Y-92302437D01*
X160550083Y-92314915D01*
X160509059Y-92349748D01*
X160449525Y-92403322D01*
X160375458Y-92472017D01*
X160290835Y-92552219D01*
X160237315Y-92603714D01*
X160143681Y-92695714D01*
X160062759Y-92778001D01*
X159997823Y-92847055D01*
X159952142Y-92899356D01*
X159928989Y-92931384D01*
X159926768Y-92937884D01*
X159937076Y-92962606D01*
X159965561Y-93012595D01*
X160009063Y-93082788D01*
X160064423Y-93168125D01*
X160128480Y-93263544D01*
X160146697Y-93290146D01*
X160213073Y-93386833D01*
X160272622Y-93473883D01*
X160322016Y-93546405D01*
X160357925Y-93599507D01*
X160377019Y-93628297D01*
X160378864Y-93631274D01*
X160376105Y-93654218D01*
X160361462Y-93704664D01*
X160337487Y-93775959D01*
X160306734Y-93861453D01*
X160271756Y-93954493D01*
X160235107Y-94048426D01*
X160199339Y-94136601D01*
X160167006Y-94212366D01*
X160140662Y-94269069D01*
X160122858Y-94300057D01*
X160121593Y-94301543D01*
X160110706Y-94310399D01*
X160092318Y-94319157D01*
X160062394Y-94328723D01*
X160016897Y-94340004D01*
X159951791Y-94353907D01*
X159863039Y-94371337D01*
X159746607Y-94393202D01*
X159598458Y-94420409D01*
X159566382Y-94426259D01*
X159471314Y-94444626D01*
X159388435Y-94462595D01*
X159325070Y-94478431D01*
X159288542Y-94490400D01*
X159283644Y-94493190D01*
X159275573Y-94517928D01*
X159269013Y-94573210D01*
X159263967Y-94652611D01*
X159260441Y-94749704D01*
X159258439Y-94858062D01*
X159257964Y-94971260D01*
X159259023Y-95082872D01*
X159261618Y-95186471D01*
X159265754Y-95275632D01*
X159271437Y-95343928D01*
X159278669Y-95384934D01*
X159283029Y-95393326D01*
X159307302Y-95401792D01*
X159362574Y-95415565D01*
X159443338Y-95433450D01*
X159544088Y-95454252D01*
X159659317Y-95476777D01*
X159722098Y-95488582D01*
X159841213Y-95510849D01*
X159947435Y-95531021D01*
X160035573Y-95548085D01*
X160100434Y-95561031D01*
X160136826Y-95568845D01*
X160142816Y-95570578D01*
X160152939Y-95590110D01*
X160174338Y-95637157D01*
X160204161Y-95704997D01*
X160239555Y-95786909D01*
X160277668Y-95876172D01*
X160315647Y-95966065D01*
X160350640Y-96049865D01*
X160379794Y-96120853D01*
X160400257Y-96172306D01*
X160409177Y-96197503D01*
X160409343Y-96198604D01*
X160399231Y-96218481D01*
X160370883Y-96264223D01*
X160327277Y-96331283D01*
X160271394Y-96415116D01*
X160206213Y-96511174D01*
X160168321Y-96566350D01*
X160099275Y-96667519D01*
X160037950Y-96759370D01*
X159987337Y-96837256D01*
X159950429Y-96896531D01*
X159930218Y-96932549D01*
X159927299Y-96940623D01*
X159939847Y-96959416D01*
X159974537Y-96999543D01*
X160026937Y-97056507D01*
X160092616Y-97125815D01*
X160167144Y-97202969D01*
X160246087Y-97283475D01*
X160325017Y-97362837D01*
X160399500Y-97436560D01*
X160465106Y-97500148D01*
X160517404Y-97549106D01*
X160551961Y-97578939D01*
X160563522Y-97586058D01*
X160582346Y-97576047D01*
X160627369Y-97547922D01*
X160694213Y-97504546D01*
X160778501Y-97448782D01*
X160875856Y-97383494D01*
X160949293Y-97333754D01*
X161320333Y-97081449D01*
X161938905Y-97336445D01*
X162022725Y-97781069D01*
X162106546Y-98225693D01*
X163031994Y-98225693D01*
X163115814Y-97781069D01*
M02*
