G04 #@! TF.FileFunction,Other,User*
%FSLAX46Y46*%
G04 Gerber Fmt 4.6, Leading zero omitted, Abs format (unit mm)*
G04 Created by KiCad (PCBNEW no-vcs-found-undefined) date Mon Oct 24 11:28:01 2016*
%MOMM*%
%LPD*%
G01*
G04 APERTURE LIST*
%ADD10C,0.100000*%
%ADD11C,0.050000*%
G04 APERTURE END LIST*
D10*
D11*
X124780000Y-100410000D02*
X114580000Y-100410000D01*
X114580000Y-100410000D02*
X114580000Y-90010000D01*
X114580000Y-90010000D02*
X124780000Y-90010000D01*
X124780000Y-90010000D02*
X124780000Y-100410000D01*
X124780000Y-101440000D02*
X124780000Y-111840000D01*
X114580000Y-101440000D02*
X124780000Y-101440000D01*
X114580000Y-111840000D02*
X114580000Y-101440000D01*
X124780000Y-111840000D02*
X114580000Y-111840000D01*
X124780000Y-123270000D02*
X114580000Y-123270000D01*
X114580000Y-123270000D02*
X114580000Y-112870000D01*
X114580000Y-112870000D02*
X124780000Y-112870000D01*
X124780000Y-112870000D02*
X124780000Y-123270000D01*
X124780000Y-124300000D02*
X124780000Y-134700000D01*
X114580000Y-124300000D02*
X124780000Y-124300000D01*
X114580000Y-134700000D02*
X114580000Y-124300000D01*
X124780000Y-134700000D02*
X114580000Y-134700000D01*
X157980000Y-90650000D02*
X157980000Y-87150000D01*
X136680000Y-90650000D02*
X136680000Y-87150000D01*
X136680000Y-87150000D02*
X157980000Y-87150000D01*
X136680000Y-90650000D02*
X157980000Y-90650000D01*
X158270000Y-90650000D02*
X179570000Y-90650000D01*
X158270000Y-87150000D02*
X179570000Y-87150000D01*
X158270000Y-90650000D02*
X158270000Y-87150000D01*
X179570000Y-90650000D02*
X179570000Y-87150000D01*
X202430000Y-90650000D02*
X202430000Y-87150000D01*
X181130000Y-90650000D02*
X181130000Y-87150000D01*
X181130000Y-87150000D02*
X202430000Y-87150000D01*
X181130000Y-90650000D02*
X202430000Y-90650000D01*
X163350000Y-138910000D02*
X184650000Y-138910000D01*
X163350000Y-135410000D02*
X184650000Y-135410000D01*
X163350000Y-138910000D02*
X163350000Y-135410000D01*
X184650000Y-138910000D02*
X184650000Y-135410000D01*
X207510000Y-138910000D02*
X207510000Y-135410000D01*
X186210000Y-138910000D02*
X186210000Y-135410000D01*
X186210000Y-135410000D02*
X207510000Y-135410000D01*
X186210000Y-138910000D02*
X207510000Y-138910000D01*
X206530000Y-133850000D02*
X210030000Y-133850000D01*
X206530000Y-87150000D02*
X210030000Y-87150000D01*
X210030000Y-87150000D02*
X210030000Y-133850000D01*
X206530000Y-87150000D02*
X206530000Y-133850000D01*
X209070000Y-87150000D02*
X209070000Y-133850000D01*
X212570000Y-87150000D02*
X212570000Y-133850000D01*
X209070000Y-87150000D02*
X212570000Y-87150000D01*
X209070000Y-133850000D02*
X212570000Y-133850000D01*
X161770000Y-138910000D02*
X161770000Y-135410000D01*
X145570000Y-138910000D02*
X145570000Y-135410000D01*
X145570000Y-135410000D02*
X161770000Y-135410000D01*
X145570000Y-138910000D02*
X161770000Y-138910000D01*
X154870000Y-113270000D02*
X149870000Y-113270000D01*
X149870000Y-113270000D02*
X149870000Y-117770000D01*
X149870000Y-117770000D02*
X154870000Y-117770000D01*
X154870000Y-117770000D02*
X154870000Y-113270000D01*
X186620000Y-92950000D02*
X181620000Y-92950000D01*
X181620000Y-92950000D02*
X181620000Y-97450000D01*
X181620000Y-97450000D02*
X186620000Y-97450000D01*
X186620000Y-97450000D02*
X186620000Y-92950000D01*
X150900000Y-119400000D02*
X150900000Y-129500000D01*
X153900000Y-129500000D02*
X150900000Y-129500000D01*
X150900000Y-119400000D02*
X153900000Y-119400000D01*
X153900000Y-119400000D02*
X153900000Y-129500000D01*
X154870000Y-92950000D02*
X149870000Y-92950000D01*
X149870000Y-92950000D02*
X149870000Y-97450000D01*
X149870000Y-97450000D02*
X154870000Y-97450000D01*
X154870000Y-97450000D02*
X154870000Y-92950000D01*
X186620000Y-117770000D02*
X186620000Y-113270000D01*
X181620000Y-117770000D02*
X186620000Y-117770000D01*
X181620000Y-113270000D02*
X181620000Y-117770000D01*
X186620000Y-113270000D02*
X181620000Y-113270000D01*
X159430000Y-129670000D02*
X154830000Y-129670000D01*
X159430000Y-129670000D02*
X159430000Y-124320000D01*
X154830000Y-129670000D02*
X154830000Y-124320000D01*
X159430000Y-124320000D02*
X154830000Y-124320000D01*
X159430000Y-104000000D02*
X154830000Y-104000000D01*
X154830000Y-109350000D02*
X154830000Y-104000000D01*
X159430000Y-109350000D02*
X159430000Y-104000000D01*
X159430000Y-109350000D02*
X154830000Y-109350000D01*
X191180000Y-124320000D02*
X186580000Y-124320000D01*
X186580000Y-129670000D02*
X186580000Y-124320000D01*
X191180000Y-129670000D02*
X191180000Y-124320000D01*
X191180000Y-129670000D02*
X186580000Y-129670000D01*
X191180000Y-109350000D02*
X186580000Y-109350000D01*
X191180000Y-109350000D02*
X191180000Y-104000000D01*
X186580000Y-109350000D02*
X186580000Y-104000000D01*
X191180000Y-104000000D02*
X186580000Y-104000000D01*
X155980000Y-123170000D02*
X155980000Y-113070000D01*
X158980000Y-123170000D02*
X155980000Y-123170000D01*
X155980000Y-113070000D02*
X158980000Y-113070000D01*
X158980000Y-123170000D02*
X158980000Y-113070000D01*
X150900000Y-99080000D02*
X150900000Y-109180000D01*
X153900000Y-109180000D02*
X150900000Y-109180000D01*
X150900000Y-99080000D02*
X153900000Y-99080000D01*
X153900000Y-99080000D02*
X153900000Y-109180000D01*
X158980000Y-92730000D02*
X158980000Y-102830000D01*
X155980000Y-92730000D02*
X158980000Y-92730000D01*
X158980000Y-102830000D02*
X155980000Y-102830000D01*
X155980000Y-92730000D02*
X155980000Y-102830000D01*
X190730000Y-123170000D02*
X190730000Y-113070000D01*
X187730000Y-113070000D02*
X190730000Y-113070000D01*
X190730000Y-123170000D02*
X187730000Y-123170000D01*
X187730000Y-123170000D02*
X187730000Y-113070000D01*
X190730000Y-102850000D02*
X190730000Y-92750000D01*
X187730000Y-92750000D02*
X190730000Y-92750000D01*
X190730000Y-102850000D02*
X187730000Y-102850000D01*
X187730000Y-102850000D02*
X187730000Y-92750000D01*
X185650000Y-119400000D02*
X185650000Y-129500000D01*
X182650000Y-119400000D02*
X185650000Y-119400000D01*
X185650000Y-129500000D02*
X182650000Y-129500000D01*
X182650000Y-119400000D02*
X182650000Y-129500000D01*
X185650000Y-99080000D02*
X185650000Y-109180000D01*
X182650000Y-99080000D02*
X185650000Y-99080000D01*
X185650000Y-109180000D02*
X182650000Y-109180000D01*
X182650000Y-99080000D02*
X182650000Y-109180000D01*
M02*
