G04 #@! TF.FileFunction,Copper,L2,Bot,Signal*
%FSLAX46Y46*%
G04 Gerber Fmt 4.6, Leading zero omitted, Abs format (unit mm)*
G04 Created by KiCad (PCBNEW no-vcs-found-undefined) date Mon Oct 24 11:28:01 2016*
%MOMM*%
%LPD*%
G01*
G04 APERTURE LIST*
%ADD10C,0.100000*%
%ADD11C,2.500000*%
%ADD12R,2.500000X2.500000*%
%ADD13O,1.727200X2.032000*%
%ADD14R,1.727200X2.032000*%
%ADD15R,2.032000X1.727200*%
%ADD16O,2.032000X1.727200*%
%ADD17R,2.000000X2.000000*%
%ADD18C,2.000000*%
%ADD19R,1.699260X1.699260*%
%ADD20C,1.699260*%
%ADD21C,1.998980*%
%ADD22O,1.501140X0.899160*%
%ADD23C,1.501140*%
%ADD24C,0.800000*%
%ADD25C,0.250000*%
%ADD26C,0.254000*%
G04 APERTURE END LIST*
D10*
D11*
X119380000Y-97710000D03*
D12*
X119380000Y-92710000D03*
X119380000Y-104140000D03*
D11*
X119380000Y-109140000D03*
X119380000Y-120570000D03*
D12*
X119380000Y-115570000D03*
X119380000Y-127000000D03*
D11*
X119380000Y-132000000D03*
D13*
X156210000Y-88900000D03*
X153670000Y-88900000D03*
X151130000Y-88900000D03*
X148590000Y-88900000D03*
X146050000Y-88900000D03*
X143510000Y-88900000D03*
X140970000Y-88900000D03*
D14*
X138430000Y-88900000D03*
X160020000Y-88900000D03*
D13*
X162560000Y-88900000D03*
X165100000Y-88900000D03*
X167640000Y-88900000D03*
X170180000Y-88900000D03*
X172720000Y-88900000D03*
X175260000Y-88900000D03*
X177800000Y-88900000D03*
X200660000Y-88900000D03*
X198120000Y-88900000D03*
X195580000Y-88900000D03*
X193040000Y-88900000D03*
X190500000Y-88900000D03*
X187960000Y-88900000D03*
X185420000Y-88900000D03*
D14*
X182880000Y-88900000D03*
X165100000Y-137160000D03*
D13*
X167640000Y-137160000D03*
X170180000Y-137160000D03*
X172720000Y-137160000D03*
X175260000Y-137160000D03*
X177800000Y-137160000D03*
X180340000Y-137160000D03*
X182880000Y-137160000D03*
X205740000Y-137160000D03*
X203200000Y-137160000D03*
X200660000Y-137160000D03*
X198120000Y-137160000D03*
X195580000Y-137160000D03*
X193040000Y-137160000D03*
X190500000Y-137160000D03*
D14*
X187960000Y-137160000D03*
D15*
X208280000Y-88900000D03*
D16*
X208280000Y-91440000D03*
X208280000Y-93980000D03*
X208280000Y-96520000D03*
X208280000Y-99060000D03*
X208280000Y-101600000D03*
X208280000Y-104140000D03*
X208280000Y-106680000D03*
X208280000Y-109220000D03*
X208280000Y-111760000D03*
X208280000Y-114300000D03*
X208280000Y-116840000D03*
X208280000Y-119380000D03*
X208280000Y-121920000D03*
X208280000Y-124460000D03*
X208280000Y-127000000D03*
X208280000Y-129540000D03*
X208280000Y-132080000D03*
X210820000Y-132080000D03*
X210820000Y-129540000D03*
X210820000Y-127000000D03*
X210820000Y-124460000D03*
X210820000Y-121920000D03*
X210820000Y-119380000D03*
X210820000Y-116840000D03*
X210820000Y-114300000D03*
X210820000Y-111760000D03*
X210820000Y-109220000D03*
X210820000Y-106680000D03*
X210820000Y-104140000D03*
X210820000Y-101600000D03*
X210820000Y-99060000D03*
X210820000Y-96520000D03*
X210820000Y-93980000D03*
X210820000Y-91440000D03*
D15*
X210820000Y-88900000D03*
D14*
X147320000Y-137160000D03*
D13*
X149860000Y-137160000D03*
X152400000Y-137160000D03*
X154940000Y-137160000D03*
X157480000Y-137160000D03*
X160020000Y-137160000D03*
D17*
X153670000Y-115570000D03*
D18*
X151130000Y-115570000D03*
D19*
X147322540Y-118110520D03*
D20*
X147322540Y-128270520D03*
D17*
X185420000Y-95250000D03*
D18*
X182880000Y-95250000D03*
D20*
X179072540Y-107950520D03*
D19*
X179072540Y-97790520D03*
D21*
X152400000Y-128270000D03*
X152400000Y-120650000D03*
D17*
X153670000Y-95250000D03*
D18*
X151130000Y-95250000D03*
D19*
X147322540Y-97790520D03*
D20*
X147322540Y-107950520D03*
D18*
X182880000Y-115570000D03*
D17*
X185420000Y-115570000D03*
D19*
X179072540Y-118110520D03*
D20*
X179072540Y-128270520D03*
D22*
X157480000Y-127000000D03*
X157480000Y-125730000D03*
X157480000Y-128270000D03*
X157480000Y-107950000D03*
X157480000Y-105410000D03*
X157480000Y-106680000D03*
X189230000Y-128270000D03*
X189230000Y-125730000D03*
X189230000Y-127000000D03*
X189230000Y-106680000D03*
X189230000Y-105410000D03*
X189230000Y-107950000D03*
D21*
X157480000Y-121920000D03*
X157480000Y-114300000D03*
X152400000Y-107950000D03*
X152400000Y-100330000D03*
X157480000Y-93980000D03*
X157480000Y-101600000D03*
X189230000Y-114300000D03*
X189230000Y-121920000D03*
X189230000Y-93980000D03*
X189230000Y-101600000D03*
X184150000Y-120650000D03*
X184150000Y-128270000D03*
X184150000Y-100330000D03*
X184150000Y-107950000D03*
D23*
X135890000Y-116840000D03*
X143510000Y-116840000D03*
X135890000Y-124460000D03*
X135890000Y-129540000D03*
X143510000Y-129540000D03*
X135890000Y-96520000D03*
X143510000Y-96520000D03*
X135890000Y-104140000D03*
X135890000Y-109220000D03*
X143510000Y-109220000D03*
X175260000Y-129540000D03*
X167640000Y-129540000D03*
X167640000Y-124460000D03*
X175260000Y-116840000D03*
X167640000Y-116840000D03*
X175260000Y-109220000D03*
X167640000Y-109220000D03*
X167640000Y-104140000D03*
X175260000Y-96520000D03*
X167640000Y-96520000D03*
D24*
X127000000Y-123190000D03*
X138430000Y-127000000D03*
X147320000Y-114300000D03*
X130810000Y-101600000D03*
X147320000Y-132080000D03*
D25*
X157480000Y-114300000D02*
X158750000Y-115570000D01*
X158750000Y-115570000D02*
X168910000Y-115570000D01*
X168910000Y-115570000D02*
X177800000Y-124460000D01*
X177800000Y-124460000D02*
X190500000Y-124460000D01*
X190500000Y-124460000D02*
X195580000Y-129540000D01*
X195580000Y-129540000D02*
X208280000Y-129540000D01*
X152400000Y-107950000D02*
X151130000Y-109220000D01*
X151130000Y-109220000D02*
X149860000Y-109220000D01*
X149860000Y-109220000D02*
X146050000Y-113030000D01*
X146050000Y-113030000D02*
X146050000Y-115570000D01*
X146050000Y-115570000D02*
X148590000Y-115570000D01*
X148590000Y-115570000D02*
X148590000Y-114300000D01*
X148590000Y-114300000D02*
X149860000Y-114300000D01*
X149860000Y-114300000D02*
X149860000Y-113030000D01*
X149860000Y-113030000D02*
X151130000Y-113030000D01*
X151130000Y-113030000D02*
X152400000Y-111760000D01*
X152400000Y-111760000D02*
X158750000Y-111760000D01*
X158750000Y-111760000D02*
X161290000Y-114300000D01*
X161290000Y-114300000D02*
X170180000Y-114300000D01*
X170180000Y-114300000D02*
X175260000Y-119380000D01*
X175260000Y-119380000D02*
X181610000Y-119380000D01*
X181610000Y-119380000D02*
X182880000Y-118110000D01*
X182880000Y-118110000D02*
X185420000Y-118110000D01*
X185420000Y-118110000D02*
X186690000Y-119380000D01*
X186690000Y-119380000D02*
X190500000Y-119380000D01*
X190500000Y-119380000D02*
X199390000Y-128270000D01*
X199390000Y-128270000D02*
X210820000Y-128270000D01*
X210820000Y-128270000D02*
X210820000Y-129540000D01*
X208280000Y-127000000D02*
X207010000Y-125730000D01*
X207010000Y-125730000D02*
X205740000Y-125730000D01*
X205740000Y-125730000D02*
X194310000Y-114300000D01*
X194310000Y-114300000D02*
X189230000Y-114300000D01*
X147322540Y-118110520D02*
X147320000Y-118110000D01*
X147320000Y-118110000D02*
X149860000Y-115570000D01*
X149860000Y-115570000D02*
X151130000Y-115570000D01*
X143510000Y-116840000D02*
X144780000Y-118110000D01*
X144780000Y-118110000D02*
X147320000Y-118110000D01*
X147320000Y-118110000D02*
X147322540Y-118110520D01*
X152400000Y-128270000D02*
X154940000Y-125730000D01*
X154940000Y-125730000D02*
X157480000Y-125730000D01*
X147322540Y-128270520D02*
X147320000Y-128270000D01*
X147320000Y-128270000D02*
X146050000Y-129540000D01*
X146050000Y-129540000D02*
X143510000Y-129540000D01*
X147322540Y-128270520D02*
X147320000Y-128270000D01*
X147320000Y-128270000D02*
X152400000Y-128270000D01*
X151130000Y-95250000D02*
X148590000Y-97790000D01*
X148590000Y-97790000D02*
X147320000Y-97790000D01*
X147320000Y-97790000D02*
X147322540Y-97790520D01*
X147322540Y-97790520D02*
X147320000Y-97790000D01*
X147320000Y-97790000D02*
X146050000Y-96520000D01*
X146050000Y-96520000D02*
X143510000Y-96520000D01*
X153670000Y-95250000D02*
X154940000Y-93980000D01*
X154940000Y-93980000D02*
X157480000Y-93980000D01*
X147322540Y-107950520D02*
X147320000Y-107950000D01*
X147320000Y-107950000D02*
X149860000Y-105410000D01*
X149860000Y-105410000D02*
X157480000Y-105410000D01*
X147322540Y-107950520D02*
X147320000Y-107950000D01*
X147320000Y-107950000D02*
X146050000Y-109220000D01*
X146050000Y-109220000D02*
X143510000Y-109220000D01*
X182880000Y-115570000D02*
X180340000Y-118110000D01*
X180340000Y-118110000D02*
X179070000Y-118110000D01*
X179070000Y-118110000D02*
X179072540Y-118110520D01*
X179072540Y-118110520D02*
X179070000Y-118110000D01*
X179070000Y-118110000D02*
X177800000Y-116840000D01*
X177800000Y-116840000D02*
X175260000Y-116840000D01*
X179072540Y-97790520D02*
X179070000Y-97790000D01*
X179070000Y-97790000D02*
X181610000Y-95250000D01*
X181610000Y-95250000D02*
X182880000Y-95250000D01*
X175260000Y-96520000D02*
X176530000Y-97790000D01*
X176530000Y-97790000D02*
X179070000Y-97790000D01*
X179070000Y-97790000D02*
X179072540Y-97790520D01*
X184150000Y-128270000D02*
X186690000Y-125730000D01*
X186690000Y-125730000D02*
X189230000Y-125730000D01*
X175260000Y-129540000D02*
X176530000Y-128270000D01*
X176530000Y-128270000D02*
X179070000Y-128270000D01*
X179070000Y-128270000D02*
X179072540Y-128270520D01*
X179072540Y-128270520D02*
X179070000Y-128270000D01*
X179070000Y-128270000D02*
X184150000Y-128270000D01*
X184150000Y-107950000D02*
X186690000Y-105410000D01*
X186690000Y-105410000D02*
X189230000Y-105410000D01*
X175260000Y-109220000D02*
X176530000Y-107950000D01*
X176530000Y-107950000D02*
X179070000Y-107950000D01*
X179070000Y-107950000D02*
X179072540Y-107950520D01*
X179072540Y-107950520D02*
X179070000Y-107950000D01*
X179070000Y-107950000D02*
X184150000Y-107950000D01*
X135890000Y-109220000D02*
X130810000Y-104140000D01*
X130810000Y-104140000D02*
X119380000Y-104140000D01*
X167640000Y-129540000D02*
X162560000Y-124460000D01*
X162560000Y-124460000D02*
X156210000Y-124460000D01*
X156210000Y-124460000D02*
X154940000Y-123190000D01*
X154940000Y-123190000D02*
X127000000Y-123190000D01*
X119380000Y-127000000D02*
X138430000Y-127000000D01*
X147320000Y-114300000D02*
X151130000Y-110490000D01*
X151130000Y-110490000D02*
X153670000Y-110490000D01*
X153670000Y-110490000D02*
X154940000Y-109220000D01*
X154940000Y-109220000D02*
X167640000Y-109220000D01*
X130810000Y-101600000D02*
X127000000Y-97790000D01*
X127000000Y-97790000D02*
X119380000Y-97790000D01*
X119380000Y-97790000D02*
X119380000Y-97710000D01*
X167640000Y-116840000D02*
X166370000Y-118110000D01*
X166370000Y-118110000D02*
X151130000Y-118110000D01*
X151130000Y-118110000D02*
X148590000Y-120650000D01*
X148590000Y-120650000D02*
X119380000Y-120650000D01*
X119380000Y-120650000D02*
X119380000Y-120570000D01*
X147320000Y-132080000D02*
X119380000Y-132080000D01*
X119380000Y-132080000D02*
X119380000Y-132000000D01*
D26*
G36*
X136918960Y-87884000D02*
X136918960Y-89916000D01*
X136968243Y-90163765D01*
X137108591Y-90373809D01*
X137318635Y-90514157D01*
X137566400Y-90563440D01*
X139293600Y-90563440D01*
X139541365Y-90514157D01*
X139751409Y-90373809D01*
X139891757Y-90163765D01*
X139909694Y-90073590D01*
X140067964Y-90250732D01*
X140595209Y-90504709D01*
X140610974Y-90507358D01*
X140843000Y-90386217D01*
X140843000Y-89027000D01*
X140823000Y-89027000D01*
X140823000Y-88773000D01*
X140843000Y-88773000D01*
X140843000Y-88753000D01*
X141097000Y-88753000D01*
X141097000Y-88773000D01*
X141117000Y-88773000D01*
X141117000Y-89027000D01*
X141097000Y-89027000D01*
X141097000Y-90386217D01*
X141329026Y-90507358D01*
X141344791Y-90504709D01*
X141872036Y-90250732D01*
X142243539Y-89834931D01*
X142450330Y-90144415D01*
X142936511Y-90469271D01*
X143510000Y-90583345D01*
X144083489Y-90469271D01*
X144569670Y-90144415D01*
X144780000Y-89829634D01*
X144990330Y-90144415D01*
X145476511Y-90469271D01*
X146050000Y-90583345D01*
X146623489Y-90469271D01*
X147109670Y-90144415D01*
X147320000Y-89829634D01*
X147530330Y-90144415D01*
X148016511Y-90469271D01*
X148590000Y-90583345D01*
X149163489Y-90469271D01*
X149649670Y-90144415D01*
X149860000Y-89829634D01*
X150070330Y-90144415D01*
X150556511Y-90469271D01*
X151130000Y-90583345D01*
X151703489Y-90469271D01*
X152189670Y-90144415D01*
X152400000Y-89829634D01*
X152610330Y-90144415D01*
X153096511Y-90469271D01*
X153670000Y-90583345D01*
X154243489Y-90469271D01*
X154729670Y-90144415D01*
X154940000Y-89829634D01*
X155150330Y-90144415D01*
X155636511Y-90469271D01*
X156210000Y-90583345D01*
X156783489Y-90469271D01*
X157269670Y-90144415D01*
X157594526Y-89658234D01*
X157708600Y-89084745D01*
X157708600Y-88715255D01*
X157594526Y-88141766D01*
X157337433Y-87757000D01*
X158534222Y-87757000D01*
X158508960Y-87884000D01*
X158508960Y-89916000D01*
X158558243Y-90163765D01*
X158698591Y-90373809D01*
X158908635Y-90514157D01*
X159156400Y-90563440D01*
X160883600Y-90563440D01*
X161131365Y-90514157D01*
X161341409Y-90373809D01*
X161481757Y-90163765D01*
X161488984Y-90127434D01*
X161500330Y-90144415D01*
X161986511Y-90469271D01*
X162560000Y-90583345D01*
X163133489Y-90469271D01*
X163619670Y-90144415D01*
X163830000Y-89829634D01*
X164040330Y-90144415D01*
X164526511Y-90469271D01*
X165100000Y-90583345D01*
X165673489Y-90469271D01*
X166159670Y-90144415D01*
X166370000Y-89829634D01*
X166580330Y-90144415D01*
X167066511Y-90469271D01*
X167640000Y-90583345D01*
X168213489Y-90469271D01*
X168699670Y-90144415D01*
X168910000Y-89829634D01*
X169120330Y-90144415D01*
X169606511Y-90469271D01*
X170180000Y-90583345D01*
X170753489Y-90469271D01*
X171239670Y-90144415D01*
X171450000Y-89829634D01*
X171660330Y-90144415D01*
X172146511Y-90469271D01*
X172720000Y-90583345D01*
X173293489Y-90469271D01*
X173779670Y-90144415D01*
X173990000Y-89829634D01*
X174200330Y-90144415D01*
X174686511Y-90469271D01*
X175260000Y-90583345D01*
X175833489Y-90469271D01*
X176319670Y-90144415D01*
X176530000Y-89829634D01*
X176740330Y-90144415D01*
X177226511Y-90469271D01*
X177800000Y-90583345D01*
X178373489Y-90469271D01*
X178859670Y-90144415D01*
X179184526Y-89658234D01*
X179298600Y-89084745D01*
X179298600Y-88715255D01*
X179184526Y-88141766D01*
X178927433Y-87757000D01*
X181394222Y-87757000D01*
X181368960Y-87884000D01*
X181368960Y-89916000D01*
X181418243Y-90163765D01*
X181558591Y-90373809D01*
X181768635Y-90514157D01*
X182016400Y-90563440D01*
X183743600Y-90563440D01*
X183991365Y-90514157D01*
X184201409Y-90373809D01*
X184341757Y-90163765D01*
X184348984Y-90127434D01*
X184360330Y-90144415D01*
X184846511Y-90469271D01*
X185420000Y-90583345D01*
X185993489Y-90469271D01*
X186479670Y-90144415D01*
X186690000Y-89829634D01*
X186900330Y-90144415D01*
X187386511Y-90469271D01*
X187960000Y-90583345D01*
X188533489Y-90469271D01*
X189019670Y-90144415D01*
X189230000Y-89829634D01*
X189440330Y-90144415D01*
X189926511Y-90469271D01*
X190500000Y-90583345D01*
X191073489Y-90469271D01*
X191559670Y-90144415D01*
X191770000Y-89829634D01*
X191980330Y-90144415D01*
X192466511Y-90469271D01*
X193040000Y-90583345D01*
X193613489Y-90469271D01*
X194099670Y-90144415D01*
X194310000Y-89829634D01*
X194520330Y-90144415D01*
X195006511Y-90469271D01*
X195580000Y-90583345D01*
X196153489Y-90469271D01*
X196639670Y-90144415D01*
X196850000Y-89829634D01*
X197060330Y-90144415D01*
X197546511Y-90469271D01*
X198120000Y-90583345D01*
X198693489Y-90469271D01*
X199179670Y-90144415D01*
X199390000Y-89829634D01*
X199600330Y-90144415D01*
X200086511Y-90469271D01*
X200660000Y-90583345D01*
X201233489Y-90469271D01*
X201719670Y-90144415D01*
X202044526Y-89658234D01*
X202158600Y-89084745D01*
X202158600Y-88715255D01*
X202044526Y-88141766D01*
X201787433Y-87757000D01*
X206686981Y-87757000D01*
X206665843Y-87788635D01*
X206616560Y-88036400D01*
X206616560Y-89763600D01*
X206665843Y-90011365D01*
X206806191Y-90221409D01*
X207016235Y-90361757D01*
X207052566Y-90368984D01*
X207035585Y-90380330D01*
X206710729Y-90866511D01*
X206596655Y-91440000D01*
X206710729Y-92013489D01*
X207035585Y-92499670D01*
X207350366Y-92710000D01*
X207035585Y-92920330D01*
X206710729Y-93406511D01*
X206596655Y-93980000D01*
X206710729Y-94553489D01*
X207035585Y-95039670D01*
X207350366Y-95250000D01*
X207035585Y-95460330D01*
X206710729Y-95946511D01*
X206596655Y-96520000D01*
X206710729Y-97093489D01*
X207035585Y-97579670D01*
X207350366Y-97790000D01*
X207035585Y-98000330D01*
X206710729Y-98486511D01*
X206596655Y-99060000D01*
X206710729Y-99633489D01*
X207035585Y-100119670D01*
X207350366Y-100330000D01*
X207035585Y-100540330D01*
X206710729Y-101026511D01*
X206596655Y-101600000D01*
X206710729Y-102173489D01*
X207035585Y-102659670D01*
X207350366Y-102870000D01*
X207035585Y-103080330D01*
X206710729Y-103566511D01*
X206596655Y-104140000D01*
X206710729Y-104713489D01*
X207035585Y-105199670D01*
X207350366Y-105410000D01*
X207035585Y-105620330D01*
X206710729Y-106106511D01*
X206596655Y-106680000D01*
X206710729Y-107253489D01*
X207035585Y-107739670D01*
X207350366Y-107950000D01*
X207035585Y-108160330D01*
X206710729Y-108646511D01*
X206596655Y-109220000D01*
X206710729Y-109793489D01*
X207035585Y-110279670D01*
X207350366Y-110490000D01*
X207035585Y-110700330D01*
X206710729Y-111186511D01*
X206596655Y-111760000D01*
X206710729Y-112333489D01*
X207035585Y-112819670D01*
X207350366Y-113030000D01*
X207035585Y-113240330D01*
X206710729Y-113726511D01*
X206596655Y-114300000D01*
X206710729Y-114873489D01*
X207035585Y-115359670D01*
X207350366Y-115570000D01*
X207035585Y-115780330D01*
X206710729Y-116266511D01*
X206596655Y-116840000D01*
X206710729Y-117413489D01*
X207035585Y-117899670D01*
X207350366Y-118110000D01*
X207035585Y-118320330D01*
X206710729Y-118806511D01*
X206596655Y-119380000D01*
X206710729Y-119953489D01*
X207035585Y-120439670D01*
X207350366Y-120650000D01*
X207035585Y-120860330D01*
X206710729Y-121346511D01*
X206596655Y-121920000D01*
X206710729Y-122493489D01*
X207035585Y-122979670D01*
X207350366Y-123190000D01*
X207035585Y-123400330D01*
X206710729Y-123886511D01*
X206596655Y-124460000D01*
X206698100Y-124970000D01*
X206054802Y-124970000D01*
X194847401Y-113762599D01*
X194600839Y-113597852D01*
X194310000Y-113540000D01*
X190684496Y-113540000D01*
X190616462Y-113375345D01*
X190157073Y-112915154D01*
X189556547Y-112665794D01*
X188906306Y-112665226D01*
X188305345Y-112913538D01*
X187845154Y-113372927D01*
X187595794Y-113973453D01*
X187595226Y-114623694D01*
X187843538Y-115224655D01*
X188302927Y-115684846D01*
X188903453Y-115934206D01*
X189553694Y-115934774D01*
X190154655Y-115686462D01*
X190614846Y-115227073D01*
X190684221Y-115060000D01*
X193995198Y-115060000D01*
X205202599Y-126267401D01*
X205449161Y-126432148D01*
X205740000Y-126490000D01*
X206695198Y-126490000D01*
X206697619Y-126492421D01*
X206596655Y-127000000D01*
X206698100Y-127510000D01*
X199704802Y-127510000D01*
X191037401Y-118842599D01*
X190790839Y-118677852D01*
X190500000Y-118620000D01*
X187004802Y-118620000D01*
X185957401Y-117572599D01*
X185710839Y-117407852D01*
X185420000Y-117350000D01*
X182880000Y-117350000D01*
X182589160Y-117407852D01*
X182342599Y-117572599D01*
X181295198Y-118620000D01*
X180904802Y-118620000D01*
X182388527Y-117136275D01*
X182553352Y-117204716D01*
X183203795Y-117205284D01*
X183804943Y-116956894D01*
X183870847Y-116891105D01*
X183962191Y-117027809D01*
X184172235Y-117168157D01*
X184420000Y-117217440D01*
X186420000Y-117217440D01*
X186667765Y-117168157D01*
X186877809Y-117027809D01*
X187018157Y-116817765D01*
X187067440Y-116570000D01*
X187067440Y-114570000D01*
X187018157Y-114322235D01*
X186877809Y-114112191D01*
X186667765Y-113971843D01*
X186420000Y-113922560D01*
X184420000Y-113922560D01*
X184172235Y-113971843D01*
X183962191Y-114112191D01*
X183871079Y-114248549D01*
X183807363Y-114184722D01*
X183206648Y-113935284D01*
X182556205Y-113934716D01*
X181955057Y-114183106D01*
X181494722Y-114642637D01*
X181245284Y-115243352D01*
X181244716Y-115893795D01*
X181313919Y-116061279D01*
X180456939Y-116918259D01*
X180379979Y-116803081D01*
X180169935Y-116662733D01*
X179922170Y-116613450D01*
X178648252Y-116613450D01*
X178337401Y-116302599D01*
X178090839Y-116137852D01*
X177800000Y-116080000D01*
X176445163Y-116080000D01*
X176435314Y-116056163D01*
X176045887Y-115666056D01*
X175536816Y-115454671D01*
X174985602Y-115454190D01*
X174476163Y-115664686D01*
X174086056Y-116054113D01*
X173874671Y-116563184D01*
X173874360Y-116919558D01*
X170717401Y-113762599D01*
X170470839Y-113597852D01*
X170180000Y-113540000D01*
X161604802Y-113540000D01*
X159287401Y-111222599D01*
X159040839Y-111057852D01*
X158750000Y-111000000D01*
X154234802Y-111000000D01*
X155254802Y-109980000D01*
X166454837Y-109980000D01*
X166464686Y-110003837D01*
X166854113Y-110393944D01*
X167363184Y-110605329D01*
X167914398Y-110605810D01*
X168423837Y-110395314D01*
X168813944Y-110005887D01*
X169025329Y-109496816D01*
X169025331Y-109494398D01*
X173874190Y-109494398D01*
X174084686Y-110003837D01*
X174474113Y-110393944D01*
X174983184Y-110605329D01*
X175534398Y-110605810D01*
X176043837Y-110395314D01*
X176433944Y-110005887D01*
X176645329Y-109496816D01*
X176645810Y-108945602D01*
X176635106Y-108919696D01*
X176844802Y-108710000D01*
X177779979Y-108710000D01*
X177813198Y-108790397D01*
X178230466Y-109208394D01*
X178775933Y-109434892D01*
X179366556Y-109435408D01*
X179912417Y-109209862D01*
X180330414Y-108792594D01*
X180364710Y-108710000D01*
X182695504Y-108710000D01*
X182763538Y-108874655D01*
X183222927Y-109334846D01*
X183823453Y-109584206D01*
X184473694Y-109584774D01*
X185074655Y-109336462D01*
X185534846Y-108877073D01*
X185784206Y-108276547D01*
X185784234Y-108243935D01*
X187885019Y-108243935D01*
X188072294Y-108627111D01*
X188396627Y-108903420D01*
X188802010Y-109034580D01*
X189103000Y-109034580D01*
X189103000Y-108077000D01*
X189357000Y-108077000D01*
X189357000Y-109034580D01*
X189657990Y-109034580D01*
X190063373Y-108903420D01*
X190387706Y-108627111D01*
X190574981Y-108243935D01*
X190448068Y-108077000D01*
X189357000Y-108077000D01*
X189103000Y-108077000D01*
X188011932Y-108077000D01*
X187885019Y-108243935D01*
X185784234Y-108243935D01*
X185784774Y-107626306D01*
X185715691Y-107459111D01*
X187004802Y-106170000D01*
X187963287Y-106170000D01*
X187899844Y-106264949D01*
X187817285Y-106680000D01*
X187899844Y-107095051D01*
X188049641Y-107319238D01*
X187885019Y-107656065D01*
X188011932Y-107823000D01*
X189103000Y-107823000D01*
X189103000Y-107803000D01*
X189357000Y-107803000D01*
X189357000Y-107823000D01*
X190448068Y-107823000D01*
X190574981Y-107656065D01*
X190410359Y-107319238D01*
X190560156Y-107095051D01*
X190642715Y-106680000D01*
X190560156Y-106264949D01*
X190413191Y-106045000D01*
X190560156Y-105825051D01*
X190642715Y-105410000D01*
X190560156Y-104994949D01*
X190325049Y-104643086D01*
X189973186Y-104407979D01*
X189558135Y-104325420D01*
X188901865Y-104325420D01*
X188486814Y-104407979D01*
X188134951Y-104643086D01*
X188130331Y-104650000D01*
X186690000Y-104650000D01*
X186447414Y-104698254D01*
X186399160Y-104707852D01*
X186152599Y-104872599D01*
X184641083Y-106384115D01*
X184476547Y-106315794D01*
X183826306Y-106315226D01*
X183225345Y-106563538D01*
X182765154Y-107022927D01*
X182695779Y-107190000D01*
X180364672Y-107190000D01*
X180331882Y-107110643D01*
X179914614Y-106692646D01*
X179369147Y-106466148D01*
X178778524Y-106465632D01*
X178232663Y-106691178D01*
X177814666Y-107108446D01*
X177780802Y-107190000D01*
X176530000Y-107190000D01*
X176239160Y-107247852D01*
X175992599Y-107412599D01*
X175560636Y-107844562D01*
X175536816Y-107834671D01*
X174985602Y-107834190D01*
X174476163Y-108044686D01*
X174086056Y-108434113D01*
X173874671Y-108943184D01*
X173874190Y-109494398D01*
X169025331Y-109494398D01*
X169025810Y-108945602D01*
X168815314Y-108436163D01*
X168425887Y-108046056D01*
X167916816Y-107834671D01*
X167365602Y-107834190D01*
X166856163Y-108044686D01*
X166466056Y-108434113D01*
X166455307Y-108460000D01*
X158719381Y-108460000D01*
X158824981Y-108243935D01*
X158698068Y-108077000D01*
X157607000Y-108077000D01*
X157607000Y-108097000D01*
X157353000Y-108097000D01*
X157353000Y-108077000D01*
X156261932Y-108077000D01*
X156135019Y-108243935D01*
X156240619Y-108460000D01*
X154940000Y-108460000D01*
X154649160Y-108517852D01*
X154402599Y-108682599D01*
X153355198Y-109730000D01*
X151694802Y-109730000D01*
X151908917Y-109515885D01*
X152073453Y-109584206D01*
X152723694Y-109584774D01*
X153324655Y-109336462D01*
X153784846Y-108877073D01*
X154034206Y-108276547D01*
X154034774Y-107626306D01*
X153786462Y-107025345D01*
X153327073Y-106565154D01*
X152726547Y-106315794D01*
X152076306Y-106315226D01*
X151475345Y-106563538D01*
X151015154Y-107022927D01*
X150765794Y-107623453D01*
X150765226Y-108273694D01*
X150834309Y-108440889D01*
X150815198Y-108460000D01*
X149860000Y-108460000D01*
X149569161Y-108517852D01*
X149322599Y-108682599D01*
X145512599Y-112492599D01*
X145347852Y-112739161D01*
X145290000Y-113030000D01*
X145290000Y-115570000D01*
X145347852Y-115860839D01*
X145512599Y-116107401D01*
X145759161Y-116272148D01*
X146050000Y-116330000D01*
X148025198Y-116330000D01*
X147741748Y-116613450D01*
X146472910Y-116613450D01*
X146225145Y-116662733D01*
X146015101Y-116803081D01*
X145874753Y-117013125D01*
X145825470Y-117260890D01*
X145825470Y-117350000D01*
X145094802Y-117350000D01*
X144885438Y-117140636D01*
X144895329Y-117116816D01*
X144895810Y-116565602D01*
X144685314Y-116056163D01*
X144295887Y-115666056D01*
X143786816Y-115454671D01*
X143235602Y-115454190D01*
X142726163Y-115664686D01*
X142336056Y-116054113D01*
X142124671Y-116563184D01*
X142124190Y-117114398D01*
X142334686Y-117623837D01*
X142724113Y-118013944D01*
X143233184Y-118225329D01*
X143784398Y-118225810D01*
X143810304Y-118215106D01*
X144242599Y-118647401D01*
X144489160Y-118812148D01*
X144780000Y-118870000D01*
X145825470Y-118870000D01*
X145825470Y-118960150D01*
X145874753Y-119207915D01*
X146015101Y-119417959D01*
X146225145Y-119558307D01*
X146472910Y-119607590D01*
X148172170Y-119607590D01*
X148419935Y-119558307D01*
X148629979Y-119417959D01*
X148770327Y-119207915D01*
X148819610Y-118960150D01*
X148819610Y-117685192D01*
X149876366Y-116628436D01*
X150202637Y-116955278D01*
X150803352Y-117204716D01*
X151453795Y-117205284D01*
X152054943Y-116956894D01*
X152120847Y-116891105D01*
X152212191Y-117027809D01*
X152422235Y-117168157D01*
X152670000Y-117217440D01*
X154670000Y-117217440D01*
X154917765Y-117168157D01*
X155127809Y-117027809D01*
X155268157Y-116817765D01*
X155317440Y-116570000D01*
X155317440Y-114570000D01*
X155268157Y-114322235D01*
X155127809Y-114112191D01*
X154917765Y-113971843D01*
X154670000Y-113922560D01*
X152670000Y-113922560D01*
X152422235Y-113971843D01*
X152212191Y-114112191D01*
X152121079Y-114248549D01*
X152057363Y-114184722D01*
X151456648Y-113935284D01*
X150806205Y-113934716D01*
X150620000Y-114011655D01*
X150620000Y-113790000D01*
X151130000Y-113790000D01*
X151420839Y-113732148D01*
X151667401Y-113567401D01*
X152714802Y-112520000D01*
X158435198Y-112520000D01*
X160725198Y-114810000D01*
X159064802Y-114810000D01*
X159045885Y-114791083D01*
X159114206Y-114626547D01*
X159114774Y-113976306D01*
X158866462Y-113375345D01*
X158407073Y-112915154D01*
X157806547Y-112665794D01*
X157156306Y-112665226D01*
X156555345Y-112913538D01*
X156095154Y-113372927D01*
X155845794Y-113973453D01*
X155845226Y-114623694D01*
X156093538Y-115224655D01*
X156552927Y-115684846D01*
X157153453Y-115934206D01*
X157803694Y-115934774D01*
X157970889Y-115865691D01*
X158212599Y-116107401D01*
X158459160Y-116272148D01*
X158750000Y-116330000D01*
X166351498Y-116330000D01*
X166254671Y-116563184D01*
X166254190Y-117114398D01*
X166264894Y-117140304D01*
X166055198Y-117350000D01*
X151130000Y-117350000D01*
X150887414Y-117398254D01*
X150839160Y-117407852D01*
X150592599Y-117572599D01*
X148275198Y-119890000D01*
X121138602Y-119890000D01*
X120978957Y-119503628D01*
X120449161Y-118972907D01*
X119756595Y-118685328D01*
X119006695Y-118684674D01*
X118313628Y-118971043D01*
X117782907Y-119500839D01*
X117495328Y-120193405D01*
X117494674Y-120943305D01*
X117781043Y-121636372D01*
X118310839Y-122167093D01*
X119003405Y-122454672D01*
X119753305Y-122455326D01*
X120446372Y-122168957D01*
X120977093Y-121639161D01*
X121072249Y-121410000D01*
X148590000Y-121410000D01*
X148880839Y-121352148D01*
X149127401Y-121187401D01*
X149341108Y-120973694D01*
X150765226Y-120973694D01*
X151013538Y-121574655D01*
X151472927Y-122034846D01*
X152073453Y-122284206D01*
X152723694Y-122284774D01*
X152823115Y-122243694D01*
X155845226Y-122243694D01*
X156093538Y-122844655D01*
X156552927Y-123304846D01*
X157153453Y-123554206D01*
X157803694Y-123554774D01*
X158404655Y-123306462D01*
X158864846Y-122847073D01*
X159114206Y-122246547D01*
X159114774Y-121596306D01*
X158866462Y-120995345D01*
X158407073Y-120535154D01*
X157806547Y-120285794D01*
X157156306Y-120285226D01*
X156555345Y-120533538D01*
X156095154Y-120992927D01*
X155845794Y-121593453D01*
X155845226Y-122243694D01*
X152823115Y-122243694D01*
X153324655Y-122036462D01*
X153784846Y-121577073D01*
X154034206Y-120976547D01*
X154034774Y-120326306D01*
X153786462Y-119725345D01*
X153327073Y-119265154D01*
X152726547Y-119015794D01*
X152076306Y-119015226D01*
X151475345Y-119263538D01*
X151015154Y-119722927D01*
X150765794Y-120323453D01*
X150765226Y-120973694D01*
X149341108Y-120973694D01*
X151444802Y-118870000D01*
X166370000Y-118870000D01*
X166660839Y-118812148D01*
X166907401Y-118647401D01*
X167339364Y-118215438D01*
X167363184Y-118225329D01*
X167914398Y-118225810D01*
X168423837Y-118015314D01*
X168813944Y-117625887D01*
X169025329Y-117116816D01*
X169025640Y-116760442D01*
X177262599Y-124997401D01*
X177509161Y-125162148D01*
X177800000Y-125220000D01*
X186125198Y-125220000D01*
X184641083Y-126704115D01*
X184476547Y-126635794D01*
X183826306Y-126635226D01*
X183225345Y-126883538D01*
X182765154Y-127342927D01*
X182695779Y-127510000D01*
X180364672Y-127510000D01*
X180331882Y-127430643D01*
X179914614Y-127012646D01*
X179369147Y-126786148D01*
X178778524Y-126785632D01*
X178232663Y-127011178D01*
X177814666Y-127428446D01*
X177780802Y-127510000D01*
X176530000Y-127510000D01*
X176239160Y-127567852D01*
X175992599Y-127732599D01*
X175560636Y-128164562D01*
X175536816Y-128154671D01*
X174985602Y-128154190D01*
X174476163Y-128364686D01*
X174086056Y-128754113D01*
X173874671Y-129263184D01*
X173874190Y-129814398D01*
X174084686Y-130323837D01*
X174474113Y-130713944D01*
X174983184Y-130925329D01*
X175534398Y-130925810D01*
X176043837Y-130715314D01*
X176433944Y-130325887D01*
X176645329Y-129816816D01*
X176645810Y-129265602D01*
X176635106Y-129239696D01*
X176844802Y-129030000D01*
X177779979Y-129030000D01*
X177813198Y-129110397D01*
X178230466Y-129528394D01*
X178775933Y-129754892D01*
X179366556Y-129755408D01*
X179912417Y-129529862D01*
X180330414Y-129112594D01*
X180364710Y-129030000D01*
X182695504Y-129030000D01*
X182763538Y-129194655D01*
X183222927Y-129654846D01*
X183823453Y-129904206D01*
X184473694Y-129904774D01*
X185074655Y-129656462D01*
X185534846Y-129197073D01*
X185784206Y-128596547D01*
X185784234Y-128563935D01*
X187885019Y-128563935D01*
X188072294Y-128947111D01*
X188396627Y-129223420D01*
X188802010Y-129354580D01*
X189103000Y-129354580D01*
X189103000Y-128397000D01*
X189357000Y-128397000D01*
X189357000Y-129354580D01*
X189657990Y-129354580D01*
X190063373Y-129223420D01*
X190387706Y-128947111D01*
X190574981Y-128563935D01*
X190448068Y-128397000D01*
X189357000Y-128397000D01*
X189103000Y-128397000D01*
X188011932Y-128397000D01*
X187885019Y-128563935D01*
X185784234Y-128563935D01*
X185784774Y-127946306D01*
X185715691Y-127779111D01*
X187004802Y-126490000D01*
X187963287Y-126490000D01*
X187899844Y-126584949D01*
X187817285Y-127000000D01*
X187899844Y-127415051D01*
X188049641Y-127639238D01*
X187885019Y-127976065D01*
X188011932Y-128143000D01*
X189103000Y-128143000D01*
X189103000Y-128123000D01*
X189357000Y-128123000D01*
X189357000Y-128143000D01*
X190448068Y-128143000D01*
X190574981Y-127976065D01*
X190410359Y-127639238D01*
X190560156Y-127415051D01*
X190642715Y-127000000D01*
X190560156Y-126584949D01*
X190413191Y-126365000D01*
X190560156Y-126145051D01*
X190642715Y-125730000D01*
X190629683Y-125664485D01*
X195042599Y-130077401D01*
X195289161Y-130242148D01*
X195580000Y-130300000D01*
X206835352Y-130300000D01*
X207035585Y-130599670D01*
X207345069Y-130806461D01*
X206929268Y-131177964D01*
X206675291Y-131705209D01*
X206672642Y-131720974D01*
X206793783Y-131953000D01*
X208153000Y-131953000D01*
X208153000Y-131933000D01*
X208407000Y-131933000D01*
X208407000Y-131953000D01*
X210693000Y-131953000D01*
X210693000Y-131933000D01*
X210947000Y-131933000D01*
X210947000Y-131953000D01*
X212306217Y-131953000D01*
X212427358Y-131720974D01*
X212424709Y-131705209D01*
X212170732Y-131177964D01*
X211754931Y-130806461D01*
X212064415Y-130599670D01*
X212389271Y-130113489D01*
X212503345Y-129540000D01*
X212389271Y-128966511D01*
X212064415Y-128480330D01*
X211749634Y-128270000D01*
X212064415Y-128059670D01*
X212389271Y-127573489D01*
X212503345Y-127000000D01*
X212389271Y-126426511D01*
X212064415Y-125940330D01*
X211749634Y-125730000D01*
X212064415Y-125519670D01*
X212389271Y-125033489D01*
X212503345Y-124460000D01*
X212389271Y-123886511D01*
X212064415Y-123400330D01*
X211749634Y-123190000D01*
X212064415Y-122979670D01*
X212389271Y-122493489D01*
X212503345Y-121920000D01*
X212389271Y-121346511D01*
X212064415Y-120860330D01*
X211749634Y-120650000D01*
X212064415Y-120439670D01*
X212389271Y-119953489D01*
X212503345Y-119380000D01*
X212389271Y-118806511D01*
X212064415Y-118320330D01*
X211749634Y-118110000D01*
X212064415Y-117899670D01*
X212389271Y-117413489D01*
X212503345Y-116840000D01*
X212389271Y-116266511D01*
X212064415Y-115780330D01*
X211749634Y-115570000D01*
X212064415Y-115359670D01*
X212389271Y-114873489D01*
X212503345Y-114300000D01*
X212389271Y-113726511D01*
X212064415Y-113240330D01*
X211749634Y-113030000D01*
X212064415Y-112819670D01*
X212389271Y-112333489D01*
X212503345Y-111760000D01*
X212389271Y-111186511D01*
X212064415Y-110700330D01*
X211749634Y-110490000D01*
X212064415Y-110279670D01*
X212389271Y-109793489D01*
X212503345Y-109220000D01*
X212389271Y-108646511D01*
X212064415Y-108160330D01*
X211749634Y-107950000D01*
X212064415Y-107739670D01*
X212389271Y-107253489D01*
X212503345Y-106680000D01*
X212389271Y-106106511D01*
X212064415Y-105620330D01*
X211749634Y-105410000D01*
X212064415Y-105199670D01*
X212389271Y-104713489D01*
X212503345Y-104140000D01*
X212389271Y-103566511D01*
X212064415Y-103080330D01*
X211749634Y-102870000D01*
X212064415Y-102659670D01*
X212389271Y-102173489D01*
X212503345Y-101600000D01*
X212389271Y-101026511D01*
X212064415Y-100540330D01*
X211749634Y-100330000D01*
X212064415Y-100119670D01*
X212389271Y-99633489D01*
X212404968Y-99554574D01*
X214503000Y-101652606D01*
X214503000Y-133320020D01*
X213281510Y-135763000D01*
X212090000Y-135763000D01*
X212041399Y-135772667D01*
X212000197Y-135800197D01*
X211972667Y-135841399D01*
X211963000Y-135890000D01*
X211963000Y-138303000D01*
X206867433Y-138303000D01*
X207124526Y-137918234D01*
X207238600Y-137344745D01*
X207238600Y-136975255D01*
X207124526Y-136401766D01*
X206799670Y-135915585D01*
X206313489Y-135590729D01*
X205740000Y-135476655D01*
X205166511Y-135590729D01*
X204680330Y-135915585D01*
X204470000Y-136230366D01*
X204259670Y-135915585D01*
X203773489Y-135590729D01*
X203200000Y-135476655D01*
X202626511Y-135590729D01*
X202140330Y-135915585D01*
X201930000Y-136230366D01*
X201719670Y-135915585D01*
X201233489Y-135590729D01*
X200660000Y-135476655D01*
X200086511Y-135590729D01*
X199600330Y-135915585D01*
X199390000Y-136230366D01*
X199179670Y-135915585D01*
X198693489Y-135590729D01*
X198120000Y-135476655D01*
X197546511Y-135590729D01*
X197060330Y-135915585D01*
X196850000Y-136230366D01*
X196639670Y-135915585D01*
X196153489Y-135590729D01*
X195580000Y-135476655D01*
X195006511Y-135590729D01*
X194520330Y-135915585D01*
X194310000Y-136230366D01*
X194099670Y-135915585D01*
X193613489Y-135590729D01*
X193040000Y-135476655D01*
X192466511Y-135590729D01*
X191980330Y-135915585D01*
X191770000Y-136230366D01*
X191559670Y-135915585D01*
X191073489Y-135590729D01*
X190500000Y-135476655D01*
X189926511Y-135590729D01*
X189440330Y-135915585D01*
X189428984Y-135932566D01*
X189421757Y-135896235D01*
X189281409Y-135686191D01*
X189071365Y-135545843D01*
X188823600Y-135496560D01*
X187096400Y-135496560D01*
X186848635Y-135545843D01*
X186638591Y-135686191D01*
X186498243Y-135896235D01*
X186448960Y-136144000D01*
X186448960Y-138176000D01*
X186474222Y-138303000D01*
X184007433Y-138303000D01*
X184264526Y-137918234D01*
X184378600Y-137344745D01*
X184378600Y-136975255D01*
X184264526Y-136401766D01*
X183939670Y-135915585D01*
X183453489Y-135590729D01*
X182880000Y-135476655D01*
X182306511Y-135590729D01*
X181820330Y-135915585D01*
X181610000Y-136230366D01*
X181399670Y-135915585D01*
X180913489Y-135590729D01*
X180340000Y-135476655D01*
X179766511Y-135590729D01*
X179280330Y-135915585D01*
X179070000Y-136230366D01*
X178859670Y-135915585D01*
X178373489Y-135590729D01*
X177800000Y-135476655D01*
X177226511Y-135590729D01*
X176740330Y-135915585D01*
X176530000Y-136230366D01*
X176319670Y-135915585D01*
X175833489Y-135590729D01*
X175260000Y-135476655D01*
X174686511Y-135590729D01*
X174200330Y-135915585D01*
X173990000Y-136230366D01*
X173779670Y-135915585D01*
X173293489Y-135590729D01*
X172720000Y-135476655D01*
X172146511Y-135590729D01*
X171660330Y-135915585D01*
X171450000Y-136230366D01*
X171239670Y-135915585D01*
X170753489Y-135590729D01*
X170180000Y-135476655D01*
X169606511Y-135590729D01*
X169120330Y-135915585D01*
X168910000Y-136230366D01*
X168699670Y-135915585D01*
X168213489Y-135590729D01*
X167640000Y-135476655D01*
X167066511Y-135590729D01*
X166580330Y-135915585D01*
X166568984Y-135932566D01*
X166561757Y-135896235D01*
X166421409Y-135686191D01*
X166211365Y-135545843D01*
X165963600Y-135496560D01*
X164236400Y-135496560D01*
X163988635Y-135545843D01*
X163778591Y-135686191D01*
X163638243Y-135896235D01*
X163588960Y-136144000D01*
X163588960Y-138176000D01*
X163614222Y-138303000D01*
X161147433Y-138303000D01*
X161404526Y-137918234D01*
X161518600Y-137344745D01*
X161518600Y-136975255D01*
X161404526Y-136401766D01*
X161079670Y-135915585D01*
X160593489Y-135590729D01*
X160020000Y-135476655D01*
X159446511Y-135590729D01*
X158960330Y-135915585D01*
X158753539Y-136225069D01*
X158382036Y-135809268D01*
X157854791Y-135555291D01*
X157839026Y-135552642D01*
X157607000Y-135673783D01*
X157607000Y-137033000D01*
X157627000Y-137033000D01*
X157627000Y-137287000D01*
X157607000Y-137287000D01*
X157607000Y-137307000D01*
X157353000Y-137307000D01*
X157353000Y-137287000D01*
X155067000Y-137287000D01*
X155067000Y-137307000D01*
X154813000Y-137307000D01*
X154813000Y-137287000D01*
X154793000Y-137287000D01*
X154793000Y-137033000D01*
X154813000Y-137033000D01*
X154813000Y-135673783D01*
X155067000Y-135673783D01*
X155067000Y-137033000D01*
X157353000Y-137033000D01*
X157353000Y-135673783D01*
X157120974Y-135552642D01*
X157105209Y-135555291D01*
X156577964Y-135809268D01*
X156210000Y-136221108D01*
X155842036Y-135809268D01*
X155314791Y-135555291D01*
X155299026Y-135552642D01*
X155067000Y-135673783D01*
X154813000Y-135673783D01*
X154580974Y-135552642D01*
X154565209Y-135555291D01*
X154037964Y-135809268D01*
X153666461Y-136225069D01*
X153459670Y-135915585D01*
X152973489Y-135590729D01*
X152400000Y-135476655D01*
X151826511Y-135590729D01*
X151340330Y-135915585D01*
X151130000Y-136230366D01*
X150919670Y-135915585D01*
X150433489Y-135590729D01*
X149860000Y-135476655D01*
X149286511Y-135590729D01*
X148800330Y-135915585D01*
X148788984Y-135932566D01*
X148781757Y-135896235D01*
X148641409Y-135686191D01*
X148431365Y-135545843D01*
X148183600Y-135496560D01*
X146456400Y-135496560D01*
X146208635Y-135545843D01*
X145998591Y-135686191D01*
X145858243Y-135896235D01*
X145808960Y-136144000D01*
X145808960Y-138176000D01*
X145834222Y-138303000D01*
X115697000Y-138303000D01*
X115697000Y-132373305D01*
X117494674Y-132373305D01*
X117781043Y-133066372D01*
X118310839Y-133597093D01*
X119003405Y-133884672D01*
X119753305Y-133885326D01*
X120446372Y-133598957D01*
X120977093Y-133069161D01*
X121072249Y-132840000D01*
X146616239Y-132840000D01*
X146732954Y-132956919D01*
X147113223Y-133114820D01*
X147524971Y-133115179D01*
X147905515Y-132957942D01*
X148196919Y-132667046D01*
X148291600Y-132439026D01*
X206672642Y-132439026D01*
X206675291Y-132454791D01*
X206929268Y-132982036D01*
X207365680Y-133371954D01*
X207918087Y-133565184D01*
X208153000Y-133420924D01*
X208153000Y-132207000D01*
X208407000Y-132207000D01*
X208407000Y-133420924D01*
X208641913Y-133565184D01*
X209194320Y-133371954D01*
X209550000Y-133054167D01*
X209905680Y-133371954D01*
X210458087Y-133565184D01*
X210693000Y-133420924D01*
X210693000Y-132207000D01*
X210947000Y-132207000D01*
X210947000Y-133420924D01*
X211181913Y-133565184D01*
X211734320Y-133371954D01*
X212170732Y-132982036D01*
X212424709Y-132454791D01*
X212427358Y-132439026D01*
X212306217Y-132207000D01*
X210947000Y-132207000D01*
X210693000Y-132207000D01*
X208407000Y-132207000D01*
X208153000Y-132207000D01*
X206793783Y-132207000D01*
X206672642Y-132439026D01*
X148291600Y-132439026D01*
X148354820Y-132286777D01*
X148355179Y-131875029D01*
X148197942Y-131494485D01*
X147907046Y-131203081D01*
X147526777Y-131045180D01*
X147115029Y-131044821D01*
X146734485Y-131202058D01*
X146616337Y-131320000D01*
X121138602Y-131320000D01*
X120978957Y-130933628D01*
X120449161Y-130402907D01*
X119756595Y-130115328D01*
X119006695Y-130114674D01*
X118313628Y-130401043D01*
X117782907Y-130930839D01*
X117495328Y-131623405D01*
X117494674Y-132373305D01*
X115697000Y-132373305D01*
X115697000Y-129814398D01*
X134504190Y-129814398D01*
X134714686Y-130323837D01*
X135104113Y-130713944D01*
X135613184Y-130925329D01*
X136164398Y-130925810D01*
X136673837Y-130715314D01*
X137063944Y-130325887D01*
X137275329Y-129816816D01*
X137275810Y-129265602D01*
X137065314Y-128756163D01*
X136675887Y-128366056D01*
X136166816Y-128154671D01*
X135615602Y-128154190D01*
X135106163Y-128364686D01*
X134716056Y-128754113D01*
X134504671Y-129263184D01*
X134504190Y-129814398D01*
X115697000Y-129814398D01*
X115697000Y-125750000D01*
X117482560Y-125750000D01*
X117482560Y-128250000D01*
X117531843Y-128497765D01*
X117672191Y-128707809D01*
X117882235Y-128848157D01*
X118130000Y-128897440D01*
X120630000Y-128897440D01*
X120877765Y-128848157D01*
X121087809Y-128707809D01*
X121228157Y-128497765D01*
X121277440Y-128250000D01*
X121277440Y-127760000D01*
X137726239Y-127760000D01*
X137842954Y-127876919D01*
X138223223Y-128034820D01*
X138634971Y-128035179D01*
X139015515Y-127877942D01*
X139306919Y-127587046D01*
X139464820Y-127206777D01*
X139465179Y-126795029D01*
X139307942Y-126414485D01*
X139017046Y-126123081D01*
X138636777Y-125965180D01*
X138225029Y-125964821D01*
X137844485Y-126122058D01*
X137726337Y-126240000D01*
X121277440Y-126240000D01*
X121277440Y-125750000D01*
X121228157Y-125502235D01*
X121087809Y-125292191D01*
X120877765Y-125151843D01*
X120630000Y-125102560D01*
X118130000Y-125102560D01*
X117882235Y-125151843D01*
X117672191Y-125292191D01*
X117531843Y-125502235D01*
X117482560Y-125750000D01*
X115697000Y-125750000D01*
X115697000Y-123394971D01*
X125964821Y-123394971D01*
X126122058Y-123775515D01*
X126412954Y-124066919D01*
X126793223Y-124224820D01*
X127204971Y-124225179D01*
X127585515Y-124067942D01*
X127703663Y-123950000D01*
X134601498Y-123950000D01*
X134504671Y-124183184D01*
X134504190Y-124734398D01*
X134714686Y-125243837D01*
X135104113Y-125633944D01*
X135613184Y-125845329D01*
X136164398Y-125845810D01*
X136673837Y-125635314D01*
X137063944Y-125245887D01*
X137275329Y-124736816D01*
X137275810Y-124185602D01*
X137178461Y-123950000D01*
X154625198Y-123950000D01*
X155645198Y-124970000D01*
X154940000Y-124970000D01*
X154697414Y-125018254D01*
X154649160Y-125027852D01*
X154402599Y-125192599D01*
X152891083Y-126704115D01*
X152726547Y-126635794D01*
X152076306Y-126635226D01*
X151475345Y-126883538D01*
X151015154Y-127342927D01*
X150945779Y-127510000D01*
X148614672Y-127510000D01*
X148581882Y-127430643D01*
X148164614Y-127012646D01*
X147619147Y-126786148D01*
X147028524Y-126785632D01*
X146482663Y-127011178D01*
X146064666Y-127428446D01*
X145838168Y-127973913D01*
X145837652Y-128564536D01*
X145870694Y-128644504D01*
X145735198Y-128780000D01*
X144695163Y-128780000D01*
X144685314Y-128756163D01*
X144295887Y-128366056D01*
X143786816Y-128154671D01*
X143235602Y-128154190D01*
X142726163Y-128364686D01*
X142336056Y-128754113D01*
X142124671Y-129263184D01*
X142124190Y-129814398D01*
X142334686Y-130323837D01*
X142724113Y-130713944D01*
X143233184Y-130925329D01*
X143784398Y-130925810D01*
X144293837Y-130715314D01*
X144683944Y-130325887D01*
X144694693Y-130300000D01*
X146050000Y-130300000D01*
X146340839Y-130242148D01*
X146587401Y-130077401D01*
X146943952Y-129720850D01*
X147025933Y-129754892D01*
X147616556Y-129755408D01*
X148162417Y-129529862D01*
X148580414Y-129112594D01*
X148614710Y-129030000D01*
X150945504Y-129030000D01*
X151013538Y-129194655D01*
X151472927Y-129654846D01*
X152073453Y-129904206D01*
X152723694Y-129904774D01*
X153324655Y-129656462D01*
X153784846Y-129197073D01*
X154034206Y-128596547D01*
X154034234Y-128563935D01*
X156135019Y-128563935D01*
X156322294Y-128947111D01*
X156646627Y-129223420D01*
X157052010Y-129354580D01*
X157353000Y-129354580D01*
X157353000Y-128397000D01*
X157607000Y-128397000D01*
X157607000Y-129354580D01*
X157907990Y-129354580D01*
X158313373Y-129223420D01*
X158637706Y-128947111D01*
X158824981Y-128563935D01*
X158698068Y-128397000D01*
X157607000Y-128397000D01*
X157353000Y-128397000D01*
X156261932Y-128397000D01*
X156135019Y-128563935D01*
X154034234Y-128563935D01*
X154034774Y-127946306D01*
X153965691Y-127779111D01*
X155254802Y-126490000D01*
X156213287Y-126490000D01*
X156149844Y-126584949D01*
X156067285Y-127000000D01*
X156149844Y-127415051D01*
X156299641Y-127639238D01*
X156135019Y-127976065D01*
X156261932Y-128143000D01*
X157353000Y-128143000D01*
X157353000Y-128123000D01*
X157607000Y-128123000D01*
X157607000Y-128143000D01*
X158698068Y-128143000D01*
X158824981Y-127976065D01*
X158660359Y-127639238D01*
X158810156Y-127415051D01*
X158892715Y-127000000D01*
X158810156Y-126584949D01*
X158663191Y-126365000D01*
X158810156Y-126145051D01*
X158892715Y-125730000D01*
X158810156Y-125314949D01*
X158746713Y-125220000D01*
X162245198Y-125220000D01*
X166264562Y-129239364D01*
X166254671Y-129263184D01*
X166254190Y-129814398D01*
X166464686Y-130323837D01*
X166854113Y-130713944D01*
X167363184Y-130925329D01*
X167914398Y-130925810D01*
X168423837Y-130715314D01*
X168813944Y-130325887D01*
X169025329Y-129816816D01*
X169025810Y-129265602D01*
X168815314Y-128756163D01*
X168425887Y-128366056D01*
X167916816Y-128154671D01*
X167365602Y-128154190D01*
X167339696Y-128164894D01*
X163909200Y-124734398D01*
X166254190Y-124734398D01*
X166464686Y-125243837D01*
X166854113Y-125633944D01*
X167363184Y-125845329D01*
X167914398Y-125845810D01*
X168423837Y-125635314D01*
X168813944Y-125245887D01*
X169025329Y-124736816D01*
X169025810Y-124185602D01*
X168815314Y-123676163D01*
X168425887Y-123286056D01*
X167916816Y-123074671D01*
X167365602Y-123074190D01*
X166856163Y-123284686D01*
X166466056Y-123674113D01*
X166254671Y-124183184D01*
X166254190Y-124734398D01*
X163909200Y-124734398D01*
X163097401Y-123922599D01*
X162850839Y-123757852D01*
X162560000Y-123700000D01*
X156524802Y-123700000D01*
X155477401Y-122652599D01*
X155230839Y-122487852D01*
X154940000Y-122430000D01*
X127703761Y-122430000D01*
X127587046Y-122313081D01*
X127206777Y-122155180D01*
X126795029Y-122154821D01*
X126414485Y-122312058D01*
X126123081Y-122602954D01*
X125965180Y-122983223D01*
X125964821Y-123394971D01*
X115697000Y-123394971D01*
X115697000Y-114320000D01*
X117482560Y-114320000D01*
X117482560Y-116820000D01*
X117531843Y-117067765D01*
X117672191Y-117277809D01*
X117882235Y-117418157D01*
X118130000Y-117467440D01*
X120630000Y-117467440D01*
X120877765Y-117418157D01*
X121087809Y-117277809D01*
X121196997Y-117114398D01*
X134504190Y-117114398D01*
X134714686Y-117623837D01*
X135104113Y-118013944D01*
X135613184Y-118225329D01*
X136164398Y-118225810D01*
X136673837Y-118015314D01*
X137063944Y-117625887D01*
X137275329Y-117116816D01*
X137275810Y-116565602D01*
X137065314Y-116056163D01*
X136675887Y-115666056D01*
X136166816Y-115454671D01*
X135615602Y-115454190D01*
X135106163Y-115664686D01*
X134716056Y-116054113D01*
X134504671Y-116563184D01*
X134504190Y-117114398D01*
X121196997Y-117114398D01*
X121228157Y-117067765D01*
X121277440Y-116820000D01*
X121277440Y-114320000D01*
X121228157Y-114072235D01*
X121087809Y-113862191D01*
X120877765Y-113721843D01*
X120630000Y-113672560D01*
X118130000Y-113672560D01*
X117882235Y-113721843D01*
X117672191Y-113862191D01*
X117531843Y-114072235D01*
X117482560Y-114320000D01*
X115697000Y-114320000D01*
X115697000Y-109513305D01*
X117494674Y-109513305D01*
X117781043Y-110206372D01*
X118310839Y-110737093D01*
X119003405Y-111024672D01*
X119753305Y-111025326D01*
X120446372Y-110738957D01*
X120977093Y-110209161D01*
X121264672Y-109516595D01*
X121265326Y-108766695D01*
X120978957Y-108073628D01*
X120449161Y-107542907D01*
X119756595Y-107255328D01*
X119006695Y-107254674D01*
X118313628Y-107541043D01*
X117782907Y-108070839D01*
X117495328Y-108763405D01*
X117494674Y-109513305D01*
X115697000Y-109513305D01*
X115697000Y-102890000D01*
X117482560Y-102890000D01*
X117482560Y-105390000D01*
X117531843Y-105637765D01*
X117672191Y-105847809D01*
X117882235Y-105988157D01*
X118130000Y-106037440D01*
X120630000Y-106037440D01*
X120877765Y-105988157D01*
X121087809Y-105847809D01*
X121228157Y-105637765D01*
X121277440Y-105390000D01*
X121277440Y-104900000D01*
X130495198Y-104900000D01*
X134514562Y-108919364D01*
X134504671Y-108943184D01*
X134504190Y-109494398D01*
X134714686Y-110003837D01*
X135104113Y-110393944D01*
X135613184Y-110605329D01*
X136164398Y-110605810D01*
X136673837Y-110395314D01*
X137063944Y-110005887D01*
X137275329Y-109496816D01*
X137275331Y-109494398D01*
X142124190Y-109494398D01*
X142334686Y-110003837D01*
X142724113Y-110393944D01*
X143233184Y-110605329D01*
X143784398Y-110605810D01*
X144293837Y-110395314D01*
X144683944Y-110005887D01*
X144694693Y-109980000D01*
X146050000Y-109980000D01*
X146340839Y-109922148D01*
X146587401Y-109757401D01*
X146943952Y-109400850D01*
X147025933Y-109434892D01*
X147616556Y-109435408D01*
X148162417Y-109209862D01*
X148580414Y-108792594D01*
X148806912Y-108247127D01*
X148807428Y-107656504D01*
X148772596Y-107572206D01*
X150174802Y-106170000D01*
X156213287Y-106170000D01*
X156149844Y-106264949D01*
X156067285Y-106680000D01*
X156149844Y-107095051D01*
X156299641Y-107319238D01*
X156135019Y-107656065D01*
X156261932Y-107823000D01*
X157353000Y-107823000D01*
X157353000Y-107803000D01*
X157607000Y-107803000D01*
X157607000Y-107823000D01*
X158698068Y-107823000D01*
X158824981Y-107656065D01*
X158660359Y-107319238D01*
X158810156Y-107095051D01*
X158892715Y-106680000D01*
X158810156Y-106264949D01*
X158663191Y-106045000D01*
X158810156Y-105825051D01*
X158892715Y-105410000D01*
X158810156Y-104994949D01*
X158575049Y-104643086D01*
X158232793Y-104414398D01*
X166254190Y-104414398D01*
X166464686Y-104923837D01*
X166854113Y-105313944D01*
X167363184Y-105525329D01*
X167914398Y-105525810D01*
X168423837Y-105315314D01*
X168813944Y-104925887D01*
X169025329Y-104416816D01*
X169025810Y-103865602D01*
X168815314Y-103356163D01*
X168425887Y-102966056D01*
X167916816Y-102754671D01*
X167365602Y-102754190D01*
X166856163Y-102964686D01*
X166466056Y-103354113D01*
X166254671Y-103863184D01*
X166254190Y-104414398D01*
X158232793Y-104414398D01*
X158223186Y-104407979D01*
X157808135Y-104325420D01*
X157151865Y-104325420D01*
X156736814Y-104407979D01*
X156384951Y-104643086D01*
X156380331Y-104650000D01*
X149860000Y-104650000D01*
X149617414Y-104698254D01*
X149569160Y-104707852D01*
X149322599Y-104872599D01*
X147696804Y-106498394D01*
X147619147Y-106466148D01*
X147028524Y-106465632D01*
X146482663Y-106691178D01*
X146064666Y-107108446D01*
X145838168Y-107653913D01*
X145837652Y-108244536D01*
X145870694Y-108324504D01*
X145735198Y-108460000D01*
X144695163Y-108460000D01*
X144685314Y-108436163D01*
X144295887Y-108046056D01*
X143786816Y-107834671D01*
X143235602Y-107834190D01*
X142726163Y-108044686D01*
X142336056Y-108434113D01*
X142124671Y-108943184D01*
X142124190Y-109494398D01*
X137275331Y-109494398D01*
X137275810Y-108945602D01*
X137065314Y-108436163D01*
X136675887Y-108046056D01*
X136166816Y-107834671D01*
X135615602Y-107834190D01*
X135589696Y-107844894D01*
X132159200Y-104414398D01*
X134504190Y-104414398D01*
X134714686Y-104923837D01*
X135104113Y-105313944D01*
X135613184Y-105525329D01*
X136164398Y-105525810D01*
X136673837Y-105315314D01*
X137063944Y-104925887D01*
X137275329Y-104416816D01*
X137275810Y-103865602D01*
X137065314Y-103356163D01*
X136675887Y-102966056D01*
X136166816Y-102754671D01*
X135615602Y-102754190D01*
X135106163Y-102964686D01*
X134716056Y-103354113D01*
X134504671Y-103863184D01*
X134504190Y-104414398D01*
X132159200Y-104414398D01*
X131347401Y-103602599D01*
X131100839Y-103437852D01*
X130810000Y-103380000D01*
X121277440Y-103380000D01*
X121277440Y-102890000D01*
X121228157Y-102642235D01*
X121087809Y-102432191D01*
X120877765Y-102291843D01*
X120630000Y-102242560D01*
X118130000Y-102242560D01*
X117882235Y-102291843D01*
X117672191Y-102432191D01*
X117531843Y-102642235D01*
X117482560Y-102890000D01*
X115697000Y-102890000D01*
X115697000Y-98083305D01*
X117494674Y-98083305D01*
X117781043Y-98776372D01*
X118310839Y-99307093D01*
X119003405Y-99594672D01*
X119753305Y-99595326D01*
X120446372Y-99308957D01*
X120977093Y-98779161D01*
X121072249Y-98550000D01*
X126685198Y-98550000D01*
X129774965Y-101639767D01*
X129774821Y-101804971D01*
X129932058Y-102185515D01*
X130222954Y-102476919D01*
X130603223Y-102634820D01*
X131014971Y-102635179D01*
X131395515Y-102477942D01*
X131686919Y-102187046D01*
X131844820Y-101806777D01*
X131845179Y-101395029D01*
X131687942Y-101014485D01*
X131397046Y-100723081D01*
X131229944Y-100653694D01*
X150765226Y-100653694D01*
X151013538Y-101254655D01*
X151472927Y-101714846D01*
X152073453Y-101964206D01*
X152723694Y-101964774D01*
X152823115Y-101923694D01*
X155845226Y-101923694D01*
X156093538Y-102524655D01*
X156552927Y-102984846D01*
X157153453Y-103234206D01*
X157803694Y-103234774D01*
X158404655Y-102986462D01*
X158864846Y-102527073D01*
X159114206Y-101926547D01*
X159114774Y-101276306D01*
X158866462Y-100675345D01*
X158844849Y-100653694D01*
X182515226Y-100653694D01*
X182763538Y-101254655D01*
X183222927Y-101714846D01*
X183823453Y-101964206D01*
X184473694Y-101964774D01*
X184573115Y-101923694D01*
X187595226Y-101923694D01*
X187843538Y-102524655D01*
X188302927Y-102984846D01*
X188903453Y-103234206D01*
X189553694Y-103234774D01*
X190154655Y-102986462D01*
X190614846Y-102527073D01*
X190864206Y-101926547D01*
X190864774Y-101276306D01*
X190616462Y-100675345D01*
X190157073Y-100215154D01*
X189556547Y-99965794D01*
X188906306Y-99965226D01*
X188305345Y-100213538D01*
X187845154Y-100672927D01*
X187595794Y-101273453D01*
X187595226Y-101923694D01*
X184573115Y-101923694D01*
X185074655Y-101716462D01*
X185534846Y-101257073D01*
X185784206Y-100656547D01*
X185784774Y-100006306D01*
X185536462Y-99405345D01*
X185077073Y-98945154D01*
X184476547Y-98695794D01*
X183826306Y-98695226D01*
X183225345Y-98943538D01*
X182765154Y-99402927D01*
X182515794Y-100003453D01*
X182515226Y-100653694D01*
X158844849Y-100653694D01*
X158407073Y-100215154D01*
X157806547Y-99965794D01*
X157156306Y-99965226D01*
X156555345Y-100213538D01*
X156095154Y-100672927D01*
X155845794Y-101273453D01*
X155845226Y-101923694D01*
X152823115Y-101923694D01*
X153324655Y-101716462D01*
X153784846Y-101257073D01*
X154034206Y-100656547D01*
X154034774Y-100006306D01*
X153786462Y-99405345D01*
X153327073Y-98945154D01*
X152726547Y-98695794D01*
X152076306Y-98695226D01*
X151475345Y-98943538D01*
X151015154Y-99402927D01*
X150765794Y-100003453D01*
X150765226Y-100653694D01*
X131229944Y-100653694D01*
X131016777Y-100565180D01*
X130849836Y-100565034D01*
X127537401Y-97252599D01*
X127290839Y-97087852D01*
X127000000Y-97030000D01*
X121138602Y-97030000D01*
X121041254Y-96794398D01*
X134504190Y-96794398D01*
X134714686Y-97303837D01*
X135104113Y-97693944D01*
X135613184Y-97905329D01*
X136164398Y-97905810D01*
X136673837Y-97695314D01*
X137063944Y-97305887D01*
X137275329Y-96796816D01*
X137275331Y-96794398D01*
X142124190Y-96794398D01*
X142334686Y-97303837D01*
X142724113Y-97693944D01*
X143233184Y-97905329D01*
X143784398Y-97905810D01*
X144293837Y-97695314D01*
X144683944Y-97305887D01*
X144694693Y-97280000D01*
X145735198Y-97280000D01*
X145825470Y-97370272D01*
X145825470Y-98640150D01*
X145874753Y-98887915D01*
X146015101Y-99097959D01*
X146225145Y-99238307D01*
X146472910Y-99287590D01*
X148172170Y-99287590D01*
X148419935Y-99238307D01*
X148629979Y-99097959D01*
X148770327Y-98887915D01*
X148819610Y-98640150D01*
X148819610Y-98504327D01*
X148880839Y-98492148D01*
X149127401Y-98327401D01*
X150638527Y-96816275D01*
X150803352Y-96884716D01*
X151453795Y-96885284D01*
X152054943Y-96636894D01*
X152120847Y-96571105D01*
X152212191Y-96707809D01*
X152422235Y-96848157D01*
X152670000Y-96897440D01*
X154670000Y-96897440D01*
X154917765Y-96848157D01*
X154998220Y-96794398D01*
X166254190Y-96794398D01*
X166464686Y-97303837D01*
X166854113Y-97693944D01*
X167363184Y-97905329D01*
X167914398Y-97905810D01*
X168423837Y-97695314D01*
X168813944Y-97305887D01*
X169025329Y-96796816D01*
X169025331Y-96794398D01*
X173874190Y-96794398D01*
X174084686Y-97303837D01*
X174474113Y-97693944D01*
X174983184Y-97905329D01*
X175534398Y-97905810D01*
X175560304Y-97895106D01*
X175992599Y-98327401D01*
X176239160Y-98492148D01*
X176530000Y-98550000D01*
X177575470Y-98550000D01*
X177575470Y-98640150D01*
X177624753Y-98887915D01*
X177765101Y-99097959D01*
X177975145Y-99238307D01*
X178222910Y-99287590D01*
X179922170Y-99287590D01*
X180169935Y-99238307D01*
X180379979Y-99097959D01*
X180520327Y-98887915D01*
X180569610Y-98640150D01*
X180569610Y-97365192D01*
X181626366Y-96308436D01*
X181952637Y-96635278D01*
X182553352Y-96884716D01*
X183203795Y-96885284D01*
X183804943Y-96636894D01*
X183870847Y-96571105D01*
X183962191Y-96707809D01*
X184172235Y-96848157D01*
X184420000Y-96897440D01*
X186420000Y-96897440D01*
X186667765Y-96848157D01*
X186877809Y-96707809D01*
X187018157Y-96497765D01*
X187067440Y-96250000D01*
X187067440Y-94303694D01*
X187595226Y-94303694D01*
X187843538Y-94904655D01*
X188302927Y-95364846D01*
X188903453Y-95614206D01*
X189553694Y-95614774D01*
X190154655Y-95366462D01*
X190614846Y-94907073D01*
X190864206Y-94306547D01*
X190864774Y-93656306D01*
X190616462Y-93055345D01*
X190157073Y-92595154D01*
X189556547Y-92345794D01*
X188906306Y-92345226D01*
X188305345Y-92593538D01*
X187845154Y-93052927D01*
X187595794Y-93653453D01*
X187595226Y-94303694D01*
X187067440Y-94303694D01*
X187067440Y-94250000D01*
X187018157Y-94002235D01*
X186877809Y-93792191D01*
X186667765Y-93651843D01*
X186420000Y-93602560D01*
X184420000Y-93602560D01*
X184172235Y-93651843D01*
X183962191Y-93792191D01*
X183871079Y-93928549D01*
X183807363Y-93864722D01*
X183206648Y-93615284D01*
X182556205Y-93614716D01*
X181955057Y-93863106D01*
X181494722Y-94322637D01*
X181408591Y-94530063D01*
X181367414Y-94538254D01*
X181319160Y-94547852D01*
X181072599Y-94712599D01*
X179491748Y-96293450D01*
X178222910Y-96293450D01*
X177975145Y-96342733D01*
X177765101Y-96483081D01*
X177624753Y-96693125D01*
X177575470Y-96940890D01*
X177575470Y-97030000D01*
X176844802Y-97030000D01*
X176635438Y-96820636D01*
X176645329Y-96796816D01*
X176645810Y-96245602D01*
X176435314Y-95736163D01*
X176045887Y-95346056D01*
X175536816Y-95134671D01*
X174985602Y-95134190D01*
X174476163Y-95344686D01*
X174086056Y-95734113D01*
X173874671Y-96243184D01*
X173874190Y-96794398D01*
X169025331Y-96794398D01*
X169025810Y-96245602D01*
X168815314Y-95736163D01*
X168425887Y-95346056D01*
X167916816Y-95134671D01*
X167365602Y-95134190D01*
X166856163Y-95344686D01*
X166466056Y-95734113D01*
X166254671Y-96243184D01*
X166254190Y-96794398D01*
X154998220Y-96794398D01*
X155127809Y-96707809D01*
X155268157Y-96497765D01*
X155317440Y-96250000D01*
X155317440Y-94740000D01*
X156025504Y-94740000D01*
X156093538Y-94904655D01*
X156552927Y-95364846D01*
X157153453Y-95614206D01*
X157803694Y-95614774D01*
X158404655Y-95366462D01*
X158864846Y-94907073D01*
X159114206Y-94306547D01*
X159114774Y-93656306D01*
X158866462Y-93055345D01*
X158407073Y-92595154D01*
X157806547Y-92345794D01*
X157156306Y-92345226D01*
X156555345Y-92593538D01*
X156095154Y-93052927D01*
X156025779Y-93220000D01*
X154940000Y-93220000D01*
X154649160Y-93277852D01*
X154402599Y-93442599D01*
X154242638Y-93602560D01*
X152670000Y-93602560D01*
X152422235Y-93651843D01*
X152212191Y-93792191D01*
X152121079Y-93928549D01*
X152057363Y-93864722D01*
X151456648Y-93615284D01*
X150806205Y-93614716D01*
X150205057Y-93863106D01*
X149744722Y-94322637D01*
X149495284Y-94923352D01*
X149494716Y-95573795D01*
X149563919Y-95741279D01*
X148706939Y-96598259D01*
X148629979Y-96483081D01*
X148419935Y-96342733D01*
X148172170Y-96293450D01*
X146898252Y-96293450D01*
X146587401Y-95982599D01*
X146340839Y-95817852D01*
X146050000Y-95760000D01*
X144695163Y-95760000D01*
X144685314Y-95736163D01*
X144295887Y-95346056D01*
X143786816Y-95134671D01*
X143235602Y-95134190D01*
X142726163Y-95344686D01*
X142336056Y-95734113D01*
X142124671Y-96243184D01*
X142124190Y-96794398D01*
X137275331Y-96794398D01*
X137275810Y-96245602D01*
X137065314Y-95736163D01*
X136675887Y-95346056D01*
X136166816Y-95134671D01*
X135615602Y-95134190D01*
X135106163Y-95344686D01*
X134716056Y-95734113D01*
X134504671Y-96243184D01*
X134504190Y-96794398D01*
X121041254Y-96794398D01*
X120978957Y-96643628D01*
X120449161Y-96112907D01*
X119756595Y-95825328D01*
X119006695Y-95824674D01*
X118313628Y-96111043D01*
X117782907Y-96640839D01*
X117495328Y-97333405D01*
X117494674Y-98083305D01*
X115697000Y-98083305D01*
X115697000Y-91460000D01*
X117482560Y-91460000D01*
X117482560Y-93960000D01*
X117531843Y-94207765D01*
X117672191Y-94417809D01*
X117882235Y-94558157D01*
X118130000Y-94607440D01*
X120630000Y-94607440D01*
X120877765Y-94558157D01*
X121087809Y-94417809D01*
X121228157Y-94207765D01*
X121277440Y-93960000D01*
X121277440Y-91460000D01*
X121228157Y-91212235D01*
X121087809Y-91002191D01*
X120877765Y-90861843D01*
X120630000Y-90812560D01*
X118130000Y-90812560D01*
X117882235Y-90861843D01*
X117672191Y-91002191D01*
X117531843Y-91212235D01*
X117482560Y-91460000D01*
X115697000Y-91460000D01*
X115697000Y-87757000D01*
X136944222Y-87757000D01*
X136918960Y-87884000D01*
X136918960Y-87884000D01*
G37*
X136918960Y-87884000D02*
X136918960Y-89916000D01*
X136968243Y-90163765D01*
X137108591Y-90373809D01*
X137318635Y-90514157D01*
X137566400Y-90563440D01*
X139293600Y-90563440D01*
X139541365Y-90514157D01*
X139751409Y-90373809D01*
X139891757Y-90163765D01*
X139909694Y-90073590D01*
X140067964Y-90250732D01*
X140595209Y-90504709D01*
X140610974Y-90507358D01*
X140843000Y-90386217D01*
X140843000Y-89027000D01*
X140823000Y-89027000D01*
X140823000Y-88773000D01*
X140843000Y-88773000D01*
X140843000Y-88753000D01*
X141097000Y-88753000D01*
X141097000Y-88773000D01*
X141117000Y-88773000D01*
X141117000Y-89027000D01*
X141097000Y-89027000D01*
X141097000Y-90386217D01*
X141329026Y-90507358D01*
X141344791Y-90504709D01*
X141872036Y-90250732D01*
X142243539Y-89834931D01*
X142450330Y-90144415D01*
X142936511Y-90469271D01*
X143510000Y-90583345D01*
X144083489Y-90469271D01*
X144569670Y-90144415D01*
X144780000Y-89829634D01*
X144990330Y-90144415D01*
X145476511Y-90469271D01*
X146050000Y-90583345D01*
X146623489Y-90469271D01*
X147109670Y-90144415D01*
X147320000Y-89829634D01*
X147530330Y-90144415D01*
X148016511Y-90469271D01*
X148590000Y-90583345D01*
X149163489Y-90469271D01*
X149649670Y-90144415D01*
X149860000Y-89829634D01*
X150070330Y-90144415D01*
X150556511Y-90469271D01*
X151130000Y-90583345D01*
X151703489Y-90469271D01*
X152189670Y-90144415D01*
X152400000Y-89829634D01*
X152610330Y-90144415D01*
X153096511Y-90469271D01*
X153670000Y-90583345D01*
X154243489Y-90469271D01*
X154729670Y-90144415D01*
X154940000Y-89829634D01*
X155150330Y-90144415D01*
X155636511Y-90469271D01*
X156210000Y-90583345D01*
X156783489Y-90469271D01*
X157269670Y-90144415D01*
X157594526Y-89658234D01*
X157708600Y-89084745D01*
X157708600Y-88715255D01*
X157594526Y-88141766D01*
X157337433Y-87757000D01*
X158534222Y-87757000D01*
X158508960Y-87884000D01*
X158508960Y-89916000D01*
X158558243Y-90163765D01*
X158698591Y-90373809D01*
X158908635Y-90514157D01*
X159156400Y-90563440D01*
X160883600Y-90563440D01*
X161131365Y-90514157D01*
X161341409Y-90373809D01*
X161481757Y-90163765D01*
X161488984Y-90127434D01*
X161500330Y-90144415D01*
X161986511Y-90469271D01*
X162560000Y-90583345D01*
X163133489Y-90469271D01*
X163619670Y-90144415D01*
X163830000Y-89829634D01*
X164040330Y-90144415D01*
X164526511Y-90469271D01*
X165100000Y-90583345D01*
X165673489Y-90469271D01*
X166159670Y-90144415D01*
X166370000Y-89829634D01*
X166580330Y-90144415D01*
X167066511Y-90469271D01*
X167640000Y-90583345D01*
X168213489Y-90469271D01*
X168699670Y-90144415D01*
X168910000Y-89829634D01*
X169120330Y-90144415D01*
X169606511Y-90469271D01*
X170180000Y-90583345D01*
X170753489Y-90469271D01*
X171239670Y-90144415D01*
X171450000Y-89829634D01*
X171660330Y-90144415D01*
X172146511Y-90469271D01*
X172720000Y-90583345D01*
X173293489Y-90469271D01*
X173779670Y-90144415D01*
X173990000Y-89829634D01*
X174200330Y-90144415D01*
X174686511Y-90469271D01*
X175260000Y-90583345D01*
X175833489Y-90469271D01*
X176319670Y-90144415D01*
X176530000Y-89829634D01*
X176740330Y-90144415D01*
X177226511Y-90469271D01*
X177800000Y-90583345D01*
X178373489Y-90469271D01*
X178859670Y-90144415D01*
X179184526Y-89658234D01*
X179298600Y-89084745D01*
X179298600Y-88715255D01*
X179184526Y-88141766D01*
X178927433Y-87757000D01*
X181394222Y-87757000D01*
X181368960Y-87884000D01*
X181368960Y-89916000D01*
X181418243Y-90163765D01*
X181558591Y-90373809D01*
X181768635Y-90514157D01*
X182016400Y-90563440D01*
X183743600Y-90563440D01*
X183991365Y-90514157D01*
X184201409Y-90373809D01*
X184341757Y-90163765D01*
X184348984Y-90127434D01*
X184360330Y-90144415D01*
X184846511Y-90469271D01*
X185420000Y-90583345D01*
X185993489Y-90469271D01*
X186479670Y-90144415D01*
X186690000Y-89829634D01*
X186900330Y-90144415D01*
X187386511Y-90469271D01*
X187960000Y-90583345D01*
X188533489Y-90469271D01*
X189019670Y-90144415D01*
X189230000Y-89829634D01*
X189440330Y-90144415D01*
X189926511Y-90469271D01*
X190500000Y-90583345D01*
X191073489Y-90469271D01*
X191559670Y-90144415D01*
X191770000Y-89829634D01*
X191980330Y-90144415D01*
X192466511Y-90469271D01*
X193040000Y-90583345D01*
X193613489Y-90469271D01*
X194099670Y-90144415D01*
X194310000Y-89829634D01*
X194520330Y-90144415D01*
X195006511Y-90469271D01*
X195580000Y-90583345D01*
X196153489Y-90469271D01*
X196639670Y-90144415D01*
X196850000Y-89829634D01*
X197060330Y-90144415D01*
X197546511Y-90469271D01*
X198120000Y-90583345D01*
X198693489Y-90469271D01*
X199179670Y-90144415D01*
X199390000Y-89829634D01*
X199600330Y-90144415D01*
X200086511Y-90469271D01*
X200660000Y-90583345D01*
X201233489Y-90469271D01*
X201719670Y-90144415D01*
X202044526Y-89658234D01*
X202158600Y-89084745D01*
X202158600Y-88715255D01*
X202044526Y-88141766D01*
X201787433Y-87757000D01*
X206686981Y-87757000D01*
X206665843Y-87788635D01*
X206616560Y-88036400D01*
X206616560Y-89763600D01*
X206665843Y-90011365D01*
X206806191Y-90221409D01*
X207016235Y-90361757D01*
X207052566Y-90368984D01*
X207035585Y-90380330D01*
X206710729Y-90866511D01*
X206596655Y-91440000D01*
X206710729Y-92013489D01*
X207035585Y-92499670D01*
X207350366Y-92710000D01*
X207035585Y-92920330D01*
X206710729Y-93406511D01*
X206596655Y-93980000D01*
X206710729Y-94553489D01*
X207035585Y-95039670D01*
X207350366Y-95250000D01*
X207035585Y-95460330D01*
X206710729Y-95946511D01*
X206596655Y-96520000D01*
X206710729Y-97093489D01*
X207035585Y-97579670D01*
X207350366Y-97790000D01*
X207035585Y-98000330D01*
X206710729Y-98486511D01*
X206596655Y-99060000D01*
X206710729Y-99633489D01*
X207035585Y-100119670D01*
X207350366Y-100330000D01*
X207035585Y-100540330D01*
X206710729Y-101026511D01*
X206596655Y-101600000D01*
X206710729Y-102173489D01*
X207035585Y-102659670D01*
X207350366Y-102870000D01*
X207035585Y-103080330D01*
X206710729Y-103566511D01*
X206596655Y-104140000D01*
X206710729Y-104713489D01*
X207035585Y-105199670D01*
X207350366Y-105410000D01*
X207035585Y-105620330D01*
X206710729Y-106106511D01*
X206596655Y-106680000D01*
X206710729Y-107253489D01*
X207035585Y-107739670D01*
X207350366Y-107950000D01*
X207035585Y-108160330D01*
X206710729Y-108646511D01*
X206596655Y-109220000D01*
X206710729Y-109793489D01*
X207035585Y-110279670D01*
X207350366Y-110490000D01*
X207035585Y-110700330D01*
X206710729Y-111186511D01*
X206596655Y-111760000D01*
X206710729Y-112333489D01*
X207035585Y-112819670D01*
X207350366Y-113030000D01*
X207035585Y-113240330D01*
X206710729Y-113726511D01*
X206596655Y-114300000D01*
X206710729Y-114873489D01*
X207035585Y-115359670D01*
X207350366Y-115570000D01*
X207035585Y-115780330D01*
X206710729Y-116266511D01*
X206596655Y-116840000D01*
X206710729Y-117413489D01*
X207035585Y-117899670D01*
X207350366Y-118110000D01*
X207035585Y-118320330D01*
X206710729Y-118806511D01*
X206596655Y-119380000D01*
X206710729Y-119953489D01*
X207035585Y-120439670D01*
X207350366Y-120650000D01*
X207035585Y-120860330D01*
X206710729Y-121346511D01*
X206596655Y-121920000D01*
X206710729Y-122493489D01*
X207035585Y-122979670D01*
X207350366Y-123190000D01*
X207035585Y-123400330D01*
X206710729Y-123886511D01*
X206596655Y-124460000D01*
X206698100Y-124970000D01*
X206054802Y-124970000D01*
X194847401Y-113762599D01*
X194600839Y-113597852D01*
X194310000Y-113540000D01*
X190684496Y-113540000D01*
X190616462Y-113375345D01*
X190157073Y-112915154D01*
X189556547Y-112665794D01*
X188906306Y-112665226D01*
X188305345Y-112913538D01*
X187845154Y-113372927D01*
X187595794Y-113973453D01*
X187595226Y-114623694D01*
X187843538Y-115224655D01*
X188302927Y-115684846D01*
X188903453Y-115934206D01*
X189553694Y-115934774D01*
X190154655Y-115686462D01*
X190614846Y-115227073D01*
X190684221Y-115060000D01*
X193995198Y-115060000D01*
X205202599Y-126267401D01*
X205449161Y-126432148D01*
X205740000Y-126490000D01*
X206695198Y-126490000D01*
X206697619Y-126492421D01*
X206596655Y-127000000D01*
X206698100Y-127510000D01*
X199704802Y-127510000D01*
X191037401Y-118842599D01*
X190790839Y-118677852D01*
X190500000Y-118620000D01*
X187004802Y-118620000D01*
X185957401Y-117572599D01*
X185710839Y-117407852D01*
X185420000Y-117350000D01*
X182880000Y-117350000D01*
X182589160Y-117407852D01*
X182342599Y-117572599D01*
X181295198Y-118620000D01*
X180904802Y-118620000D01*
X182388527Y-117136275D01*
X182553352Y-117204716D01*
X183203795Y-117205284D01*
X183804943Y-116956894D01*
X183870847Y-116891105D01*
X183962191Y-117027809D01*
X184172235Y-117168157D01*
X184420000Y-117217440D01*
X186420000Y-117217440D01*
X186667765Y-117168157D01*
X186877809Y-117027809D01*
X187018157Y-116817765D01*
X187067440Y-116570000D01*
X187067440Y-114570000D01*
X187018157Y-114322235D01*
X186877809Y-114112191D01*
X186667765Y-113971843D01*
X186420000Y-113922560D01*
X184420000Y-113922560D01*
X184172235Y-113971843D01*
X183962191Y-114112191D01*
X183871079Y-114248549D01*
X183807363Y-114184722D01*
X183206648Y-113935284D01*
X182556205Y-113934716D01*
X181955057Y-114183106D01*
X181494722Y-114642637D01*
X181245284Y-115243352D01*
X181244716Y-115893795D01*
X181313919Y-116061279D01*
X180456939Y-116918259D01*
X180379979Y-116803081D01*
X180169935Y-116662733D01*
X179922170Y-116613450D01*
X178648252Y-116613450D01*
X178337401Y-116302599D01*
X178090839Y-116137852D01*
X177800000Y-116080000D01*
X176445163Y-116080000D01*
X176435314Y-116056163D01*
X176045887Y-115666056D01*
X175536816Y-115454671D01*
X174985602Y-115454190D01*
X174476163Y-115664686D01*
X174086056Y-116054113D01*
X173874671Y-116563184D01*
X173874360Y-116919558D01*
X170717401Y-113762599D01*
X170470839Y-113597852D01*
X170180000Y-113540000D01*
X161604802Y-113540000D01*
X159287401Y-111222599D01*
X159040839Y-111057852D01*
X158750000Y-111000000D01*
X154234802Y-111000000D01*
X155254802Y-109980000D01*
X166454837Y-109980000D01*
X166464686Y-110003837D01*
X166854113Y-110393944D01*
X167363184Y-110605329D01*
X167914398Y-110605810D01*
X168423837Y-110395314D01*
X168813944Y-110005887D01*
X169025329Y-109496816D01*
X169025331Y-109494398D01*
X173874190Y-109494398D01*
X174084686Y-110003837D01*
X174474113Y-110393944D01*
X174983184Y-110605329D01*
X175534398Y-110605810D01*
X176043837Y-110395314D01*
X176433944Y-110005887D01*
X176645329Y-109496816D01*
X176645810Y-108945602D01*
X176635106Y-108919696D01*
X176844802Y-108710000D01*
X177779979Y-108710000D01*
X177813198Y-108790397D01*
X178230466Y-109208394D01*
X178775933Y-109434892D01*
X179366556Y-109435408D01*
X179912417Y-109209862D01*
X180330414Y-108792594D01*
X180364710Y-108710000D01*
X182695504Y-108710000D01*
X182763538Y-108874655D01*
X183222927Y-109334846D01*
X183823453Y-109584206D01*
X184473694Y-109584774D01*
X185074655Y-109336462D01*
X185534846Y-108877073D01*
X185784206Y-108276547D01*
X185784234Y-108243935D01*
X187885019Y-108243935D01*
X188072294Y-108627111D01*
X188396627Y-108903420D01*
X188802010Y-109034580D01*
X189103000Y-109034580D01*
X189103000Y-108077000D01*
X189357000Y-108077000D01*
X189357000Y-109034580D01*
X189657990Y-109034580D01*
X190063373Y-108903420D01*
X190387706Y-108627111D01*
X190574981Y-108243935D01*
X190448068Y-108077000D01*
X189357000Y-108077000D01*
X189103000Y-108077000D01*
X188011932Y-108077000D01*
X187885019Y-108243935D01*
X185784234Y-108243935D01*
X185784774Y-107626306D01*
X185715691Y-107459111D01*
X187004802Y-106170000D01*
X187963287Y-106170000D01*
X187899844Y-106264949D01*
X187817285Y-106680000D01*
X187899844Y-107095051D01*
X188049641Y-107319238D01*
X187885019Y-107656065D01*
X188011932Y-107823000D01*
X189103000Y-107823000D01*
X189103000Y-107803000D01*
X189357000Y-107803000D01*
X189357000Y-107823000D01*
X190448068Y-107823000D01*
X190574981Y-107656065D01*
X190410359Y-107319238D01*
X190560156Y-107095051D01*
X190642715Y-106680000D01*
X190560156Y-106264949D01*
X190413191Y-106045000D01*
X190560156Y-105825051D01*
X190642715Y-105410000D01*
X190560156Y-104994949D01*
X190325049Y-104643086D01*
X189973186Y-104407979D01*
X189558135Y-104325420D01*
X188901865Y-104325420D01*
X188486814Y-104407979D01*
X188134951Y-104643086D01*
X188130331Y-104650000D01*
X186690000Y-104650000D01*
X186447414Y-104698254D01*
X186399160Y-104707852D01*
X186152599Y-104872599D01*
X184641083Y-106384115D01*
X184476547Y-106315794D01*
X183826306Y-106315226D01*
X183225345Y-106563538D01*
X182765154Y-107022927D01*
X182695779Y-107190000D01*
X180364672Y-107190000D01*
X180331882Y-107110643D01*
X179914614Y-106692646D01*
X179369147Y-106466148D01*
X178778524Y-106465632D01*
X178232663Y-106691178D01*
X177814666Y-107108446D01*
X177780802Y-107190000D01*
X176530000Y-107190000D01*
X176239160Y-107247852D01*
X175992599Y-107412599D01*
X175560636Y-107844562D01*
X175536816Y-107834671D01*
X174985602Y-107834190D01*
X174476163Y-108044686D01*
X174086056Y-108434113D01*
X173874671Y-108943184D01*
X173874190Y-109494398D01*
X169025331Y-109494398D01*
X169025810Y-108945602D01*
X168815314Y-108436163D01*
X168425887Y-108046056D01*
X167916816Y-107834671D01*
X167365602Y-107834190D01*
X166856163Y-108044686D01*
X166466056Y-108434113D01*
X166455307Y-108460000D01*
X158719381Y-108460000D01*
X158824981Y-108243935D01*
X158698068Y-108077000D01*
X157607000Y-108077000D01*
X157607000Y-108097000D01*
X157353000Y-108097000D01*
X157353000Y-108077000D01*
X156261932Y-108077000D01*
X156135019Y-108243935D01*
X156240619Y-108460000D01*
X154940000Y-108460000D01*
X154649160Y-108517852D01*
X154402599Y-108682599D01*
X153355198Y-109730000D01*
X151694802Y-109730000D01*
X151908917Y-109515885D01*
X152073453Y-109584206D01*
X152723694Y-109584774D01*
X153324655Y-109336462D01*
X153784846Y-108877073D01*
X154034206Y-108276547D01*
X154034774Y-107626306D01*
X153786462Y-107025345D01*
X153327073Y-106565154D01*
X152726547Y-106315794D01*
X152076306Y-106315226D01*
X151475345Y-106563538D01*
X151015154Y-107022927D01*
X150765794Y-107623453D01*
X150765226Y-108273694D01*
X150834309Y-108440889D01*
X150815198Y-108460000D01*
X149860000Y-108460000D01*
X149569161Y-108517852D01*
X149322599Y-108682599D01*
X145512599Y-112492599D01*
X145347852Y-112739161D01*
X145290000Y-113030000D01*
X145290000Y-115570000D01*
X145347852Y-115860839D01*
X145512599Y-116107401D01*
X145759161Y-116272148D01*
X146050000Y-116330000D01*
X148025198Y-116330000D01*
X147741748Y-116613450D01*
X146472910Y-116613450D01*
X146225145Y-116662733D01*
X146015101Y-116803081D01*
X145874753Y-117013125D01*
X145825470Y-117260890D01*
X145825470Y-117350000D01*
X145094802Y-117350000D01*
X144885438Y-117140636D01*
X144895329Y-117116816D01*
X144895810Y-116565602D01*
X144685314Y-116056163D01*
X144295887Y-115666056D01*
X143786816Y-115454671D01*
X143235602Y-115454190D01*
X142726163Y-115664686D01*
X142336056Y-116054113D01*
X142124671Y-116563184D01*
X142124190Y-117114398D01*
X142334686Y-117623837D01*
X142724113Y-118013944D01*
X143233184Y-118225329D01*
X143784398Y-118225810D01*
X143810304Y-118215106D01*
X144242599Y-118647401D01*
X144489160Y-118812148D01*
X144780000Y-118870000D01*
X145825470Y-118870000D01*
X145825470Y-118960150D01*
X145874753Y-119207915D01*
X146015101Y-119417959D01*
X146225145Y-119558307D01*
X146472910Y-119607590D01*
X148172170Y-119607590D01*
X148419935Y-119558307D01*
X148629979Y-119417959D01*
X148770327Y-119207915D01*
X148819610Y-118960150D01*
X148819610Y-117685192D01*
X149876366Y-116628436D01*
X150202637Y-116955278D01*
X150803352Y-117204716D01*
X151453795Y-117205284D01*
X152054943Y-116956894D01*
X152120847Y-116891105D01*
X152212191Y-117027809D01*
X152422235Y-117168157D01*
X152670000Y-117217440D01*
X154670000Y-117217440D01*
X154917765Y-117168157D01*
X155127809Y-117027809D01*
X155268157Y-116817765D01*
X155317440Y-116570000D01*
X155317440Y-114570000D01*
X155268157Y-114322235D01*
X155127809Y-114112191D01*
X154917765Y-113971843D01*
X154670000Y-113922560D01*
X152670000Y-113922560D01*
X152422235Y-113971843D01*
X152212191Y-114112191D01*
X152121079Y-114248549D01*
X152057363Y-114184722D01*
X151456648Y-113935284D01*
X150806205Y-113934716D01*
X150620000Y-114011655D01*
X150620000Y-113790000D01*
X151130000Y-113790000D01*
X151420839Y-113732148D01*
X151667401Y-113567401D01*
X152714802Y-112520000D01*
X158435198Y-112520000D01*
X160725198Y-114810000D01*
X159064802Y-114810000D01*
X159045885Y-114791083D01*
X159114206Y-114626547D01*
X159114774Y-113976306D01*
X158866462Y-113375345D01*
X158407073Y-112915154D01*
X157806547Y-112665794D01*
X157156306Y-112665226D01*
X156555345Y-112913538D01*
X156095154Y-113372927D01*
X155845794Y-113973453D01*
X155845226Y-114623694D01*
X156093538Y-115224655D01*
X156552927Y-115684846D01*
X157153453Y-115934206D01*
X157803694Y-115934774D01*
X157970889Y-115865691D01*
X158212599Y-116107401D01*
X158459160Y-116272148D01*
X158750000Y-116330000D01*
X166351498Y-116330000D01*
X166254671Y-116563184D01*
X166254190Y-117114398D01*
X166264894Y-117140304D01*
X166055198Y-117350000D01*
X151130000Y-117350000D01*
X150887414Y-117398254D01*
X150839160Y-117407852D01*
X150592599Y-117572599D01*
X148275198Y-119890000D01*
X121138602Y-119890000D01*
X120978957Y-119503628D01*
X120449161Y-118972907D01*
X119756595Y-118685328D01*
X119006695Y-118684674D01*
X118313628Y-118971043D01*
X117782907Y-119500839D01*
X117495328Y-120193405D01*
X117494674Y-120943305D01*
X117781043Y-121636372D01*
X118310839Y-122167093D01*
X119003405Y-122454672D01*
X119753305Y-122455326D01*
X120446372Y-122168957D01*
X120977093Y-121639161D01*
X121072249Y-121410000D01*
X148590000Y-121410000D01*
X148880839Y-121352148D01*
X149127401Y-121187401D01*
X149341108Y-120973694D01*
X150765226Y-120973694D01*
X151013538Y-121574655D01*
X151472927Y-122034846D01*
X152073453Y-122284206D01*
X152723694Y-122284774D01*
X152823115Y-122243694D01*
X155845226Y-122243694D01*
X156093538Y-122844655D01*
X156552927Y-123304846D01*
X157153453Y-123554206D01*
X157803694Y-123554774D01*
X158404655Y-123306462D01*
X158864846Y-122847073D01*
X159114206Y-122246547D01*
X159114774Y-121596306D01*
X158866462Y-120995345D01*
X158407073Y-120535154D01*
X157806547Y-120285794D01*
X157156306Y-120285226D01*
X156555345Y-120533538D01*
X156095154Y-120992927D01*
X155845794Y-121593453D01*
X155845226Y-122243694D01*
X152823115Y-122243694D01*
X153324655Y-122036462D01*
X153784846Y-121577073D01*
X154034206Y-120976547D01*
X154034774Y-120326306D01*
X153786462Y-119725345D01*
X153327073Y-119265154D01*
X152726547Y-119015794D01*
X152076306Y-119015226D01*
X151475345Y-119263538D01*
X151015154Y-119722927D01*
X150765794Y-120323453D01*
X150765226Y-120973694D01*
X149341108Y-120973694D01*
X151444802Y-118870000D01*
X166370000Y-118870000D01*
X166660839Y-118812148D01*
X166907401Y-118647401D01*
X167339364Y-118215438D01*
X167363184Y-118225329D01*
X167914398Y-118225810D01*
X168423837Y-118015314D01*
X168813944Y-117625887D01*
X169025329Y-117116816D01*
X169025640Y-116760442D01*
X177262599Y-124997401D01*
X177509161Y-125162148D01*
X177800000Y-125220000D01*
X186125198Y-125220000D01*
X184641083Y-126704115D01*
X184476547Y-126635794D01*
X183826306Y-126635226D01*
X183225345Y-126883538D01*
X182765154Y-127342927D01*
X182695779Y-127510000D01*
X180364672Y-127510000D01*
X180331882Y-127430643D01*
X179914614Y-127012646D01*
X179369147Y-126786148D01*
X178778524Y-126785632D01*
X178232663Y-127011178D01*
X177814666Y-127428446D01*
X177780802Y-127510000D01*
X176530000Y-127510000D01*
X176239160Y-127567852D01*
X175992599Y-127732599D01*
X175560636Y-128164562D01*
X175536816Y-128154671D01*
X174985602Y-128154190D01*
X174476163Y-128364686D01*
X174086056Y-128754113D01*
X173874671Y-129263184D01*
X173874190Y-129814398D01*
X174084686Y-130323837D01*
X174474113Y-130713944D01*
X174983184Y-130925329D01*
X175534398Y-130925810D01*
X176043837Y-130715314D01*
X176433944Y-130325887D01*
X176645329Y-129816816D01*
X176645810Y-129265602D01*
X176635106Y-129239696D01*
X176844802Y-129030000D01*
X177779979Y-129030000D01*
X177813198Y-129110397D01*
X178230466Y-129528394D01*
X178775933Y-129754892D01*
X179366556Y-129755408D01*
X179912417Y-129529862D01*
X180330414Y-129112594D01*
X180364710Y-129030000D01*
X182695504Y-129030000D01*
X182763538Y-129194655D01*
X183222927Y-129654846D01*
X183823453Y-129904206D01*
X184473694Y-129904774D01*
X185074655Y-129656462D01*
X185534846Y-129197073D01*
X185784206Y-128596547D01*
X185784234Y-128563935D01*
X187885019Y-128563935D01*
X188072294Y-128947111D01*
X188396627Y-129223420D01*
X188802010Y-129354580D01*
X189103000Y-129354580D01*
X189103000Y-128397000D01*
X189357000Y-128397000D01*
X189357000Y-129354580D01*
X189657990Y-129354580D01*
X190063373Y-129223420D01*
X190387706Y-128947111D01*
X190574981Y-128563935D01*
X190448068Y-128397000D01*
X189357000Y-128397000D01*
X189103000Y-128397000D01*
X188011932Y-128397000D01*
X187885019Y-128563935D01*
X185784234Y-128563935D01*
X185784774Y-127946306D01*
X185715691Y-127779111D01*
X187004802Y-126490000D01*
X187963287Y-126490000D01*
X187899844Y-126584949D01*
X187817285Y-127000000D01*
X187899844Y-127415051D01*
X188049641Y-127639238D01*
X187885019Y-127976065D01*
X188011932Y-128143000D01*
X189103000Y-128143000D01*
X189103000Y-128123000D01*
X189357000Y-128123000D01*
X189357000Y-128143000D01*
X190448068Y-128143000D01*
X190574981Y-127976065D01*
X190410359Y-127639238D01*
X190560156Y-127415051D01*
X190642715Y-127000000D01*
X190560156Y-126584949D01*
X190413191Y-126365000D01*
X190560156Y-126145051D01*
X190642715Y-125730000D01*
X190629683Y-125664485D01*
X195042599Y-130077401D01*
X195289161Y-130242148D01*
X195580000Y-130300000D01*
X206835352Y-130300000D01*
X207035585Y-130599670D01*
X207345069Y-130806461D01*
X206929268Y-131177964D01*
X206675291Y-131705209D01*
X206672642Y-131720974D01*
X206793783Y-131953000D01*
X208153000Y-131953000D01*
X208153000Y-131933000D01*
X208407000Y-131933000D01*
X208407000Y-131953000D01*
X210693000Y-131953000D01*
X210693000Y-131933000D01*
X210947000Y-131933000D01*
X210947000Y-131953000D01*
X212306217Y-131953000D01*
X212427358Y-131720974D01*
X212424709Y-131705209D01*
X212170732Y-131177964D01*
X211754931Y-130806461D01*
X212064415Y-130599670D01*
X212389271Y-130113489D01*
X212503345Y-129540000D01*
X212389271Y-128966511D01*
X212064415Y-128480330D01*
X211749634Y-128270000D01*
X212064415Y-128059670D01*
X212389271Y-127573489D01*
X212503345Y-127000000D01*
X212389271Y-126426511D01*
X212064415Y-125940330D01*
X211749634Y-125730000D01*
X212064415Y-125519670D01*
X212389271Y-125033489D01*
X212503345Y-124460000D01*
X212389271Y-123886511D01*
X212064415Y-123400330D01*
X211749634Y-123190000D01*
X212064415Y-122979670D01*
X212389271Y-122493489D01*
X212503345Y-121920000D01*
X212389271Y-121346511D01*
X212064415Y-120860330D01*
X211749634Y-120650000D01*
X212064415Y-120439670D01*
X212389271Y-119953489D01*
X212503345Y-119380000D01*
X212389271Y-118806511D01*
X212064415Y-118320330D01*
X211749634Y-118110000D01*
X212064415Y-117899670D01*
X212389271Y-117413489D01*
X212503345Y-116840000D01*
X212389271Y-116266511D01*
X212064415Y-115780330D01*
X211749634Y-115570000D01*
X212064415Y-115359670D01*
X212389271Y-114873489D01*
X212503345Y-114300000D01*
X212389271Y-113726511D01*
X212064415Y-113240330D01*
X211749634Y-113030000D01*
X212064415Y-112819670D01*
X212389271Y-112333489D01*
X212503345Y-111760000D01*
X212389271Y-111186511D01*
X212064415Y-110700330D01*
X211749634Y-110490000D01*
X212064415Y-110279670D01*
X212389271Y-109793489D01*
X212503345Y-109220000D01*
X212389271Y-108646511D01*
X212064415Y-108160330D01*
X211749634Y-107950000D01*
X212064415Y-107739670D01*
X212389271Y-107253489D01*
X212503345Y-106680000D01*
X212389271Y-106106511D01*
X212064415Y-105620330D01*
X211749634Y-105410000D01*
X212064415Y-105199670D01*
X212389271Y-104713489D01*
X212503345Y-104140000D01*
X212389271Y-103566511D01*
X212064415Y-103080330D01*
X211749634Y-102870000D01*
X212064415Y-102659670D01*
X212389271Y-102173489D01*
X212503345Y-101600000D01*
X212389271Y-101026511D01*
X212064415Y-100540330D01*
X211749634Y-100330000D01*
X212064415Y-100119670D01*
X212389271Y-99633489D01*
X212404968Y-99554574D01*
X214503000Y-101652606D01*
X214503000Y-133320020D01*
X213281510Y-135763000D01*
X212090000Y-135763000D01*
X212041399Y-135772667D01*
X212000197Y-135800197D01*
X211972667Y-135841399D01*
X211963000Y-135890000D01*
X211963000Y-138303000D01*
X206867433Y-138303000D01*
X207124526Y-137918234D01*
X207238600Y-137344745D01*
X207238600Y-136975255D01*
X207124526Y-136401766D01*
X206799670Y-135915585D01*
X206313489Y-135590729D01*
X205740000Y-135476655D01*
X205166511Y-135590729D01*
X204680330Y-135915585D01*
X204470000Y-136230366D01*
X204259670Y-135915585D01*
X203773489Y-135590729D01*
X203200000Y-135476655D01*
X202626511Y-135590729D01*
X202140330Y-135915585D01*
X201930000Y-136230366D01*
X201719670Y-135915585D01*
X201233489Y-135590729D01*
X200660000Y-135476655D01*
X200086511Y-135590729D01*
X199600330Y-135915585D01*
X199390000Y-136230366D01*
X199179670Y-135915585D01*
X198693489Y-135590729D01*
X198120000Y-135476655D01*
X197546511Y-135590729D01*
X197060330Y-135915585D01*
X196850000Y-136230366D01*
X196639670Y-135915585D01*
X196153489Y-135590729D01*
X195580000Y-135476655D01*
X195006511Y-135590729D01*
X194520330Y-135915585D01*
X194310000Y-136230366D01*
X194099670Y-135915585D01*
X193613489Y-135590729D01*
X193040000Y-135476655D01*
X192466511Y-135590729D01*
X191980330Y-135915585D01*
X191770000Y-136230366D01*
X191559670Y-135915585D01*
X191073489Y-135590729D01*
X190500000Y-135476655D01*
X189926511Y-135590729D01*
X189440330Y-135915585D01*
X189428984Y-135932566D01*
X189421757Y-135896235D01*
X189281409Y-135686191D01*
X189071365Y-135545843D01*
X188823600Y-135496560D01*
X187096400Y-135496560D01*
X186848635Y-135545843D01*
X186638591Y-135686191D01*
X186498243Y-135896235D01*
X186448960Y-136144000D01*
X186448960Y-138176000D01*
X186474222Y-138303000D01*
X184007433Y-138303000D01*
X184264526Y-137918234D01*
X184378600Y-137344745D01*
X184378600Y-136975255D01*
X184264526Y-136401766D01*
X183939670Y-135915585D01*
X183453489Y-135590729D01*
X182880000Y-135476655D01*
X182306511Y-135590729D01*
X181820330Y-135915585D01*
X181610000Y-136230366D01*
X181399670Y-135915585D01*
X180913489Y-135590729D01*
X180340000Y-135476655D01*
X179766511Y-135590729D01*
X179280330Y-135915585D01*
X179070000Y-136230366D01*
X178859670Y-135915585D01*
X178373489Y-135590729D01*
X177800000Y-135476655D01*
X177226511Y-135590729D01*
X176740330Y-135915585D01*
X176530000Y-136230366D01*
X176319670Y-135915585D01*
X175833489Y-135590729D01*
X175260000Y-135476655D01*
X174686511Y-135590729D01*
X174200330Y-135915585D01*
X173990000Y-136230366D01*
X173779670Y-135915585D01*
X173293489Y-135590729D01*
X172720000Y-135476655D01*
X172146511Y-135590729D01*
X171660330Y-135915585D01*
X171450000Y-136230366D01*
X171239670Y-135915585D01*
X170753489Y-135590729D01*
X170180000Y-135476655D01*
X169606511Y-135590729D01*
X169120330Y-135915585D01*
X168910000Y-136230366D01*
X168699670Y-135915585D01*
X168213489Y-135590729D01*
X167640000Y-135476655D01*
X167066511Y-135590729D01*
X166580330Y-135915585D01*
X166568984Y-135932566D01*
X166561757Y-135896235D01*
X166421409Y-135686191D01*
X166211365Y-135545843D01*
X165963600Y-135496560D01*
X164236400Y-135496560D01*
X163988635Y-135545843D01*
X163778591Y-135686191D01*
X163638243Y-135896235D01*
X163588960Y-136144000D01*
X163588960Y-138176000D01*
X163614222Y-138303000D01*
X161147433Y-138303000D01*
X161404526Y-137918234D01*
X161518600Y-137344745D01*
X161518600Y-136975255D01*
X161404526Y-136401766D01*
X161079670Y-135915585D01*
X160593489Y-135590729D01*
X160020000Y-135476655D01*
X159446511Y-135590729D01*
X158960330Y-135915585D01*
X158753539Y-136225069D01*
X158382036Y-135809268D01*
X157854791Y-135555291D01*
X157839026Y-135552642D01*
X157607000Y-135673783D01*
X157607000Y-137033000D01*
X157627000Y-137033000D01*
X157627000Y-137287000D01*
X157607000Y-137287000D01*
X157607000Y-137307000D01*
X157353000Y-137307000D01*
X157353000Y-137287000D01*
X155067000Y-137287000D01*
X155067000Y-137307000D01*
X154813000Y-137307000D01*
X154813000Y-137287000D01*
X154793000Y-137287000D01*
X154793000Y-137033000D01*
X154813000Y-137033000D01*
X154813000Y-135673783D01*
X155067000Y-135673783D01*
X155067000Y-137033000D01*
X157353000Y-137033000D01*
X157353000Y-135673783D01*
X157120974Y-135552642D01*
X157105209Y-135555291D01*
X156577964Y-135809268D01*
X156210000Y-136221108D01*
X155842036Y-135809268D01*
X155314791Y-135555291D01*
X155299026Y-135552642D01*
X155067000Y-135673783D01*
X154813000Y-135673783D01*
X154580974Y-135552642D01*
X154565209Y-135555291D01*
X154037964Y-135809268D01*
X153666461Y-136225069D01*
X153459670Y-135915585D01*
X152973489Y-135590729D01*
X152400000Y-135476655D01*
X151826511Y-135590729D01*
X151340330Y-135915585D01*
X151130000Y-136230366D01*
X150919670Y-135915585D01*
X150433489Y-135590729D01*
X149860000Y-135476655D01*
X149286511Y-135590729D01*
X148800330Y-135915585D01*
X148788984Y-135932566D01*
X148781757Y-135896235D01*
X148641409Y-135686191D01*
X148431365Y-135545843D01*
X148183600Y-135496560D01*
X146456400Y-135496560D01*
X146208635Y-135545843D01*
X145998591Y-135686191D01*
X145858243Y-135896235D01*
X145808960Y-136144000D01*
X145808960Y-138176000D01*
X145834222Y-138303000D01*
X115697000Y-138303000D01*
X115697000Y-132373305D01*
X117494674Y-132373305D01*
X117781043Y-133066372D01*
X118310839Y-133597093D01*
X119003405Y-133884672D01*
X119753305Y-133885326D01*
X120446372Y-133598957D01*
X120977093Y-133069161D01*
X121072249Y-132840000D01*
X146616239Y-132840000D01*
X146732954Y-132956919D01*
X147113223Y-133114820D01*
X147524971Y-133115179D01*
X147905515Y-132957942D01*
X148196919Y-132667046D01*
X148291600Y-132439026D01*
X206672642Y-132439026D01*
X206675291Y-132454791D01*
X206929268Y-132982036D01*
X207365680Y-133371954D01*
X207918087Y-133565184D01*
X208153000Y-133420924D01*
X208153000Y-132207000D01*
X208407000Y-132207000D01*
X208407000Y-133420924D01*
X208641913Y-133565184D01*
X209194320Y-133371954D01*
X209550000Y-133054167D01*
X209905680Y-133371954D01*
X210458087Y-133565184D01*
X210693000Y-133420924D01*
X210693000Y-132207000D01*
X210947000Y-132207000D01*
X210947000Y-133420924D01*
X211181913Y-133565184D01*
X211734320Y-133371954D01*
X212170732Y-132982036D01*
X212424709Y-132454791D01*
X212427358Y-132439026D01*
X212306217Y-132207000D01*
X210947000Y-132207000D01*
X210693000Y-132207000D01*
X208407000Y-132207000D01*
X208153000Y-132207000D01*
X206793783Y-132207000D01*
X206672642Y-132439026D01*
X148291600Y-132439026D01*
X148354820Y-132286777D01*
X148355179Y-131875029D01*
X148197942Y-131494485D01*
X147907046Y-131203081D01*
X147526777Y-131045180D01*
X147115029Y-131044821D01*
X146734485Y-131202058D01*
X146616337Y-131320000D01*
X121138602Y-131320000D01*
X120978957Y-130933628D01*
X120449161Y-130402907D01*
X119756595Y-130115328D01*
X119006695Y-130114674D01*
X118313628Y-130401043D01*
X117782907Y-130930839D01*
X117495328Y-131623405D01*
X117494674Y-132373305D01*
X115697000Y-132373305D01*
X115697000Y-129814398D01*
X134504190Y-129814398D01*
X134714686Y-130323837D01*
X135104113Y-130713944D01*
X135613184Y-130925329D01*
X136164398Y-130925810D01*
X136673837Y-130715314D01*
X137063944Y-130325887D01*
X137275329Y-129816816D01*
X137275810Y-129265602D01*
X137065314Y-128756163D01*
X136675887Y-128366056D01*
X136166816Y-128154671D01*
X135615602Y-128154190D01*
X135106163Y-128364686D01*
X134716056Y-128754113D01*
X134504671Y-129263184D01*
X134504190Y-129814398D01*
X115697000Y-129814398D01*
X115697000Y-125750000D01*
X117482560Y-125750000D01*
X117482560Y-128250000D01*
X117531843Y-128497765D01*
X117672191Y-128707809D01*
X117882235Y-128848157D01*
X118130000Y-128897440D01*
X120630000Y-128897440D01*
X120877765Y-128848157D01*
X121087809Y-128707809D01*
X121228157Y-128497765D01*
X121277440Y-128250000D01*
X121277440Y-127760000D01*
X137726239Y-127760000D01*
X137842954Y-127876919D01*
X138223223Y-128034820D01*
X138634971Y-128035179D01*
X139015515Y-127877942D01*
X139306919Y-127587046D01*
X139464820Y-127206777D01*
X139465179Y-126795029D01*
X139307942Y-126414485D01*
X139017046Y-126123081D01*
X138636777Y-125965180D01*
X138225029Y-125964821D01*
X137844485Y-126122058D01*
X137726337Y-126240000D01*
X121277440Y-126240000D01*
X121277440Y-125750000D01*
X121228157Y-125502235D01*
X121087809Y-125292191D01*
X120877765Y-125151843D01*
X120630000Y-125102560D01*
X118130000Y-125102560D01*
X117882235Y-125151843D01*
X117672191Y-125292191D01*
X117531843Y-125502235D01*
X117482560Y-125750000D01*
X115697000Y-125750000D01*
X115697000Y-123394971D01*
X125964821Y-123394971D01*
X126122058Y-123775515D01*
X126412954Y-124066919D01*
X126793223Y-124224820D01*
X127204971Y-124225179D01*
X127585515Y-124067942D01*
X127703663Y-123950000D01*
X134601498Y-123950000D01*
X134504671Y-124183184D01*
X134504190Y-124734398D01*
X134714686Y-125243837D01*
X135104113Y-125633944D01*
X135613184Y-125845329D01*
X136164398Y-125845810D01*
X136673837Y-125635314D01*
X137063944Y-125245887D01*
X137275329Y-124736816D01*
X137275810Y-124185602D01*
X137178461Y-123950000D01*
X154625198Y-123950000D01*
X155645198Y-124970000D01*
X154940000Y-124970000D01*
X154697414Y-125018254D01*
X154649160Y-125027852D01*
X154402599Y-125192599D01*
X152891083Y-126704115D01*
X152726547Y-126635794D01*
X152076306Y-126635226D01*
X151475345Y-126883538D01*
X151015154Y-127342927D01*
X150945779Y-127510000D01*
X148614672Y-127510000D01*
X148581882Y-127430643D01*
X148164614Y-127012646D01*
X147619147Y-126786148D01*
X147028524Y-126785632D01*
X146482663Y-127011178D01*
X146064666Y-127428446D01*
X145838168Y-127973913D01*
X145837652Y-128564536D01*
X145870694Y-128644504D01*
X145735198Y-128780000D01*
X144695163Y-128780000D01*
X144685314Y-128756163D01*
X144295887Y-128366056D01*
X143786816Y-128154671D01*
X143235602Y-128154190D01*
X142726163Y-128364686D01*
X142336056Y-128754113D01*
X142124671Y-129263184D01*
X142124190Y-129814398D01*
X142334686Y-130323837D01*
X142724113Y-130713944D01*
X143233184Y-130925329D01*
X143784398Y-130925810D01*
X144293837Y-130715314D01*
X144683944Y-130325887D01*
X144694693Y-130300000D01*
X146050000Y-130300000D01*
X146340839Y-130242148D01*
X146587401Y-130077401D01*
X146943952Y-129720850D01*
X147025933Y-129754892D01*
X147616556Y-129755408D01*
X148162417Y-129529862D01*
X148580414Y-129112594D01*
X148614710Y-129030000D01*
X150945504Y-129030000D01*
X151013538Y-129194655D01*
X151472927Y-129654846D01*
X152073453Y-129904206D01*
X152723694Y-129904774D01*
X153324655Y-129656462D01*
X153784846Y-129197073D01*
X154034206Y-128596547D01*
X154034234Y-128563935D01*
X156135019Y-128563935D01*
X156322294Y-128947111D01*
X156646627Y-129223420D01*
X157052010Y-129354580D01*
X157353000Y-129354580D01*
X157353000Y-128397000D01*
X157607000Y-128397000D01*
X157607000Y-129354580D01*
X157907990Y-129354580D01*
X158313373Y-129223420D01*
X158637706Y-128947111D01*
X158824981Y-128563935D01*
X158698068Y-128397000D01*
X157607000Y-128397000D01*
X157353000Y-128397000D01*
X156261932Y-128397000D01*
X156135019Y-128563935D01*
X154034234Y-128563935D01*
X154034774Y-127946306D01*
X153965691Y-127779111D01*
X155254802Y-126490000D01*
X156213287Y-126490000D01*
X156149844Y-126584949D01*
X156067285Y-127000000D01*
X156149844Y-127415051D01*
X156299641Y-127639238D01*
X156135019Y-127976065D01*
X156261932Y-128143000D01*
X157353000Y-128143000D01*
X157353000Y-128123000D01*
X157607000Y-128123000D01*
X157607000Y-128143000D01*
X158698068Y-128143000D01*
X158824981Y-127976065D01*
X158660359Y-127639238D01*
X158810156Y-127415051D01*
X158892715Y-127000000D01*
X158810156Y-126584949D01*
X158663191Y-126365000D01*
X158810156Y-126145051D01*
X158892715Y-125730000D01*
X158810156Y-125314949D01*
X158746713Y-125220000D01*
X162245198Y-125220000D01*
X166264562Y-129239364D01*
X166254671Y-129263184D01*
X166254190Y-129814398D01*
X166464686Y-130323837D01*
X166854113Y-130713944D01*
X167363184Y-130925329D01*
X167914398Y-130925810D01*
X168423837Y-130715314D01*
X168813944Y-130325887D01*
X169025329Y-129816816D01*
X169025810Y-129265602D01*
X168815314Y-128756163D01*
X168425887Y-128366056D01*
X167916816Y-128154671D01*
X167365602Y-128154190D01*
X167339696Y-128164894D01*
X163909200Y-124734398D01*
X166254190Y-124734398D01*
X166464686Y-125243837D01*
X166854113Y-125633944D01*
X167363184Y-125845329D01*
X167914398Y-125845810D01*
X168423837Y-125635314D01*
X168813944Y-125245887D01*
X169025329Y-124736816D01*
X169025810Y-124185602D01*
X168815314Y-123676163D01*
X168425887Y-123286056D01*
X167916816Y-123074671D01*
X167365602Y-123074190D01*
X166856163Y-123284686D01*
X166466056Y-123674113D01*
X166254671Y-124183184D01*
X166254190Y-124734398D01*
X163909200Y-124734398D01*
X163097401Y-123922599D01*
X162850839Y-123757852D01*
X162560000Y-123700000D01*
X156524802Y-123700000D01*
X155477401Y-122652599D01*
X155230839Y-122487852D01*
X154940000Y-122430000D01*
X127703761Y-122430000D01*
X127587046Y-122313081D01*
X127206777Y-122155180D01*
X126795029Y-122154821D01*
X126414485Y-122312058D01*
X126123081Y-122602954D01*
X125965180Y-122983223D01*
X125964821Y-123394971D01*
X115697000Y-123394971D01*
X115697000Y-114320000D01*
X117482560Y-114320000D01*
X117482560Y-116820000D01*
X117531843Y-117067765D01*
X117672191Y-117277809D01*
X117882235Y-117418157D01*
X118130000Y-117467440D01*
X120630000Y-117467440D01*
X120877765Y-117418157D01*
X121087809Y-117277809D01*
X121196997Y-117114398D01*
X134504190Y-117114398D01*
X134714686Y-117623837D01*
X135104113Y-118013944D01*
X135613184Y-118225329D01*
X136164398Y-118225810D01*
X136673837Y-118015314D01*
X137063944Y-117625887D01*
X137275329Y-117116816D01*
X137275810Y-116565602D01*
X137065314Y-116056163D01*
X136675887Y-115666056D01*
X136166816Y-115454671D01*
X135615602Y-115454190D01*
X135106163Y-115664686D01*
X134716056Y-116054113D01*
X134504671Y-116563184D01*
X134504190Y-117114398D01*
X121196997Y-117114398D01*
X121228157Y-117067765D01*
X121277440Y-116820000D01*
X121277440Y-114320000D01*
X121228157Y-114072235D01*
X121087809Y-113862191D01*
X120877765Y-113721843D01*
X120630000Y-113672560D01*
X118130000Y-113672560D01*
X117882235Y-113721843D01*
X117672191Y-113862191D01*
X117531843Y-114072235D01*
X117482560Y-114320000D01*
X115697000Y-114320000D01*
X115697000Y-109513305D01*
X117494674Y-109513305D01*
X117781043Y-110206372D01*
X118310839Y-110737093D01*
X119003405Y-111024672D01*
X119753305Y-111025326D01*
X120446372Y-110738957D01*
X120977093Y-110209161D01*
X121264672Y-109516595D01*
X121265326Y-108766695D01*
X120978957Y-108073628D01*
X120449161Y-107542907D01*
X119756595Y-107255328D01*
X119006695Y-107254674D01*
X118313628Y-107541043D01*
X117782907Y-108070839D01*
X117495328Y-108763405D01*
X117494674Y-109513305D01*
X115697000Y-109513305D01*
X115697000Y-102890000D01*
X117482560Y-102890000D01*
X117482560Y-105390000D01*
X117531843Y-105637765D01*
X117672191Y-105847809D01*
X117882235Y-105988157D01*
X118130000Y-106037440D01*
X120630000Y-106037440D01*
X120877765Y-105988157D01*
X121087809Y-105847809D01*
X121228157Y-105637765D01*
X121277440Y-105390000D01*
X121277440Y-104900000D01*
X130495198Y-104900000D01*
X134514562Y-108919364D01*
X134504671Y-108943184D01*
X134504190Y-109494398D01*
X134714686Y-110003837D01*
X135104113Y-110393944D01*
X135613184Y-110605329D01*
X136164398Y-110605810D01*
X136673837Y-110395314D01*
X137063944Y-110005887D01*
X137275329Y-109496816D01*
X137275331Y-109494398D01*
X142124190Y-109494398D01*
X142334686Y-110003837D01*
X142724113Y-110393944D01*
X143233184Y-110605329D01*
X143784398Y-110605810D01*
X144293837Y-110395314D01*
X144683944Y-110005887D01*
X144694693Y-109980000D01*
X146050000Y-109980000D01*
X146340839Y-109922148D01*
X146587401Y-109757401D01*
X146943952Y-109400850D01*
X147025933Y-109434892D01*
X147616556Y-109435408D01*
X148162417Y-109209862D01*
X148580414Y-108792594D01*
X148806912Y-108247127D01*
X148807428Y-107656504D01*
X148772596Y-107572206D01*
X150174802Y-106170000D01*
X156213287Y-106170000D01*
X156149844Y-106264949D01*
X156067285Y-106680000D01*
X156149844Y-107095051D01*
X156299641Y-107319238D01*
X156135019Y-107656065D01*
X156261932Y-107823000D01*
X157353000Y-107823000D01*
X157353000Y-107803000D01*
X157607000Y-107803000D01*
X157607000Y-107823000D01*
X158698068Y-107823000D01*
X158824981Y-107656065D01*
X158660359Y-107319238D01*
X158810156Y-107095051D01*
X158892715Y-106680000D01*
X158810156Y-106264949D01*
X158663191Y-106045000D01*
X158810156Y-105825051D01*
X158892715Y-105410000D01*
X158810156Y-104994949D01*
X158575049Y-104643086D01*
X158232793Y-104414398D01*
X166254190Y-104414398D01*
X166464686Y-104923837D01*
X166854113Y-105313944D01*
X167363184Y-105525329D01*
X167914398Y-105525810D01*
X168423837Y-105315314D01*
X168813944Y-104925887D01*
X169025329Y-104416816D01*
X169025810Y-103865602D01*
X168815314Y-103356163D01*
X168425887Y-102966056D01*
X167916816Y-102754671D01*
X167365602Y-102754190D01*
X166856163Y-102964686D01*
X166466056Y-103354113D01*
X166254671Y-103863184D01*
X166254190Y-104414398D01*
X158232793Y-104414398D01*
X158223186Y-104407979D01*
X157808135Y-104325420D01*
X157151865Y-104325420D01*
X156736814Y-104407979D01*
X156384951Y-104643086D01*
X156380331Y-104650000D01*
X149860000Y-104650000D01*
X149617414Y-104698254D01*
X149569160Y-104707852D01*
X149322599Y-104872599D01*
X147696804Y-106498394D01*
X147619147Y-106466148D01*
X147028524Y-106465632D01*
X146482663Y-106691178D01*
X146064666Y-107108446D01*
X145838168Y-107653913D01*
X145837652Y-108244536D01*
X145870694Y-108324504D01*
X145735198Y-108460000D01*
X144695163Y-108460000D01*
X144685314Y-108436163D01*
X144295887Y-108046056D01*
X143786816Y-107834671D01*
X143235602Y-107834190D01*
X142726163Y-108044686D01*
X142336056Y-108434113D01*
X142124671Y-108943184D01*
X142124190Y-109494398D01*
X137275331Y-109494398D01*
X137275810Y-108945602D01*
X137065314Y-108436163D01*
X136675887Y-108046056D01*
X136166816Y-107834671D01*
X135615602Y-107834190D01*
X135589696Y-107844894D01*
X132159200Y-104414398D01*
X134504190Y-104414398D01*
X134714686Y-104923837D01*
X135104113Y-105313944D01*
X135613184Y-105525329D01*
X136164398Y-105525810D01*
X136673837Y-105315314D01*
X137063944Y-104925887D01*
X137275329Y-104416816D01*
X137275810Y-103865602D01*
X137065314Y-103356163D01*
X136675887Y-102966056D01*
X136166816Y-102754671D01*
X135615602Y-102754190D01*
X135106163Y-102964686D01*
X134716056Y-103354113D01*
X134504671Y-103863184D01*
X134504190Y-104414398D01*
X132159200Y-104414398D01*
X131347401Y-103602599D01*
X131100839Y-103437852D01*
X130810000Y-103380000D01*
X121277440Y-103380000D01*
X121277440Y-102890000D01*
X121228157Y-102642235D01*
X121087809Y-102432191D01*
X120877765Y-102291843D01*
X120630000Y-102242560D01*
X118130000Y-102242560D01*
X117882235Y-102291843D01*
X117672191Y-102432191D01*
X117531843Y-102642235D01*
X117482560Y-102890000D01*
X115697000Y-102890000D01*
X115697000Y-98083305D01*
X117494674Y-98083305D01*
X117781043Y-98776372D01*
X118310839Y-99307093D01*
X119003405Y-99594672D01*
X119753305Y-99595326D01*
X120446372Y-99308957D01*
X120977093Y-98779161D01*
X121072249Y-98550000D01*
X126685198Y-98550000D01*
X129774965Y-101639767D01*
X129774821Y-101804971D01*
X129932058Y-102185515D01*
X130222954Y-102476919D01*
X130603223Y-102634820D01*
X131014971Y-102635179D01*
X131395515Y-102477942D01*
X131686919Y-102187046D01*
X131844820Y-101806777D01*
X131845179Y-101395029D01*
X131687942Y-101014485D01*
X131397046Y-100723081D01*
X131229944Y-100653694D01*
X150765226Y-100653694D01*
X151013538Y-101254655D01*
X151472927Y-101714846D01*
X152073453Y-101964206D01*
X152723694Y-101964774D01*
X152823115Y-101923694D01*
X155845226Y-101923694D01*
X156093538Y-102524655D01*
X156552927Y-102984846D01*
X157153453Y-103234206D01*
X157803694Y-103234774D01*
X158404655Y-102986462D01*
X158864846Y-102527073D01*
X159114206Y-101926547D01*
X159114774Y-101276306D01*
X158866462Y-100675345D01*
X158844849Y-100653694D01*
X182515226Y-100653694D01*
X182763538Y-101254655D01*
X183222927Y-101714846D01*
X183823453Y-101964206D01*
X184473694Y-101964774D01*
X184573115Y-101923694D01*
X187595226Y-101923694D01*
X187843538Y-102524655D01*
X188302927Y-102984846D01*
X188903453Y-103234206D01*
X189553694Y-103234774D01*
X190154655Y-102986462D01*
X190614846Y-102527073D01*
X190864206Y-101926547D01*
X190864774Y-101276306D01*
X190616462Y-100675345D01*
X190157073Y-100215154D01*
X189556547Y-99965794D01*
X188906306Y-99965226D01*
X188305345Y-100213538D01*
X187845154Y-100672927D01*
X187595794Y-101273453D01*
X187595226Y-101923694D01*
X184573115Y-101923694D01*
X185074655Y-101716462D01*
X185534846Y-101257073D01*
X185784206Y-100656547D01*
X185784774Y-100006306D01*
X185536462Y-99405345D01*
X185077073Y-98945154D01*
X184476547Y-98695794D01*
X183826306Y-98695226D01*
X183225345Y-98943538D01*
X182765154Y-99402927D01*
X182515794Y-100003453D01*
X182515226Y-100653694D01*
X158844849Y-100653694D01*
X158407073Y-100215154D01*
X157806547Y-99965794D01*
X157156306Y-99965226D01*
X156555345Y-100213538D01*
X156095154Y-100672927D01*
X155845794Y-101273453D01*
X155845226Y-101923694D01*
X152823115Y-101923694D01*
X153324655Y-101716462D01*
X153784846Y-101257073D01*
X154034206Y-100656547D01*
X154034774Y-100006306D01*
X153786462Y-99405345D01*
X153327073Y-98945154D01*
X152726547Y-98695794D01*
X152076306Y-98695226D01*
X151475345Y-98943538D01*
X151015154Y-99402927D01*
X150765794Y-100003453D01*
X150765226Y-100653694D01*
X131229944Y-100653694D01*
X131016777Y-100565180D01*
X130849836Y-100565034D01*
X127537401Y-97252599D01*
X127290839Y-97087852D01*
X127000000Y-97030000D01*
X121138602Y-97030000D01*
X121041254Y-96794398D01*
X134504190Y-96794398D01*
X134714686Y-97303837D01*
X135104113Y-97693944D01*
X135613184Y-97905329D01*
X136164398Y-97905810D01*
X136673837Y-97695314D01*
X137063944Y-97305887D01*
X137275329Y-96796816D01*
X137275331Y-96794398D01*
X142124190Y-96794398D01*
X142334686Y-97303837D01*
X142724113Y-97693944D01*
X143233184Y-97905329D01*
X143784398Y-97905810D01*
X144293837Y-97695314D01*
X144683944Y-97305887D01*
X144694693Y-97280000D01*
X145735198Y-97280000D01*
X145825470Y-97370272D01*
X145825470Y-98640150D01*
X145874753Y-98887915D01*
X146015101Y-99097959D01*
X146225145Y-99238307D01*
X146472910Y-99287590D01*
X148172170Y-99287590D01*
X148419935Y-99238307D01*
X148629979Y-99097959D01*
X148770327Y-98887915D01*
X148819610Y-98640150D01*
X148819610Y-98504327D01*
X148880839Y-98492148D01*
X149127401Y-98327401D01*
X150638527Y-96816275D01*
X150803352Y-96884716D01*
X151453795Y-96885284D01*
X152054943Y-96636894D01*
X152120847Y-96571105D01*
X152212191Y-96707809D01*
X152422235Y-96848157D01*
X152670000Y-96897440D01*
X154670000Y-96897440D01*
X154917765Y-96848157D01*
X154998220Y-96794398D01*
X166254190Y-96794398D01*
X166464686Y-97303837D01*
X166854113Y-97693944D01*
X167363184Y-97905329D01*
X167914398Y-97905810D01*
X168423837Y-97695314D01*
X168813944Y-97305887D01*
X169025329Y-96796816D01*
X169025331Y-96794398D01*
X173874190Y-96794398D01*
X174084686Y-97303837D01*
X174474113Y-97693944D01*
X174983184Y-97905329D01*
X175534398Y-97905810D01*
X175560304Y-97895106D01*
X175992599Y-98327401D01*
X176239160Y-98492148D01*
X176530000Y-98550000D01*
X177575470Y-98550000D01*
X177575470Y-98640150D01*
X177624753Y-98887915D01*
X177765101Y-99097959D01*
X177975145Y-99238307D01*
X178222910Y-99287590D01*
X179922170Y-99287590D01*
X180169935Y-99238307D01*
X180379979Y-99097959D01*
X180520327Y-98887915D01*
X180569610Y-98640150D01*
X180569610Y-97365192D01*
X181626366Y-96308436D01*
X181952637Y-96635278D01*
X182553352Y-96884716D01*
X183203795Y-96885284D01*
X183804943Y-96636894D01*
X183870847Y-96571105D01*
X183962191Y-96707809D01*
X184172235Y-96848157D01*
X184420000Y-96897440D01*
X186420000Y-96897440D01*
X186667765Y-96848157D01*
X186877809Y-96707809D01*
X187018157Y-96497765D01*
X187067440Y-96250000D01*
X187067440Y-94303694D01*
X187595226Y-94303694D01*
X187843538Y-94904655D01*
X188302927Y-95364846D01*
X188903453Y-95614206D01*
X189553694Y-95614774D01*
X190154655Y-95366462D01*
X190614846Y-94907073D01*
X190864206Y-94306547D01*
X190864774Y-93656306D01*
X190616462Y-93055345D01*
X190157073Y-92595154D01*
X189556547Y-92345794D01*
X188906306Y-92345226D01*
X188305345Y-92593538D01*
X187845154Y-93052927D01*
X187595794Y-93653453D01*
X187595226Y-94303694D01*
X187067440Y-94303694D01*
X187067440Y-94250000D01*
X187018157Y-94002235D01*
X186877809Y-93792191D01*
X186667765Y-93651843D01*
X186420000Y-93602560D01*
X184420000Y-93602560D01*
X184172235Y-93651843D01*
X183962191Y-93792191D01*
X183871079Y-93928549D01*
X183807363Y-93864722D01*
X183206648Y-93615284D01*
X182556205Y-93614716D01*
X181955057Y-93863106D01*
X181494722Y-94322637D01*
X181408591Y-94530063D01*
X181367414Y-94538254D01*
X181319160Y-94547852D01*
X181072599Y-94712599D01*
X179491748Y-96293450D01*
X178222910Y-96293450D01*
X177975145Y-96342733D01*
X177765101Y-96483081D01*
X177624753Y-96693125D01*
X177575470Y-96940890D01*
X177575470Y-97030000D01*
X176844802Y-97030000D01*
X176635438Y-96820636D01*
X176645329Y-96796816D01*
X176645810Y-96245602D01*
X176435314Y-95736163D01*
X176045887Y-95346056D01*
X175536816Y-95134671D01*
X174985602Y-95134190D01*
X174476163Y-95344686D01*
X174086056Y-95734113D01*
X173874671Y-96243184D01*
X173874190Y-96794398D01*
X169025331Y-96794398D01*
X169025810Y-96245602D01*
X168815314Y-95736163D01*
X168425887Y-95346056D01*
X167916816Y-95134671D01*
X167365602Y-95134190D01*
X166856163Y-95344686D01*
X166466056Y-95734113D01*
X166254671Y-96243184D01*
X166254190Y-96794398D01*
X154998220Y-96794398D01*
X155127809Y-96707809D01*
X155268157Y-96497765D01*
X155317440Y-96250000D01*
X155317440Y-94740000D01*
X156025504Y-94740000D01*
X156093538Y-94904655D01*
X156552927Y-95364846D01*
X157153453Y-95614206D01*
X157803694Y-95614774D01*
X158404655Y-95366462D01*
X158864846Y-94907073D01*
X159114206Y-94306547D01*
X159114774Y-93656306D01*
X158866462Y-93055345D01*
X158407073Y-92595154D01*
X157806547Y-92345794D01*
X157156306Y-92345226D01*
X156555345Y-92593538D01*
X156095154Y-93052927D01*
X156025779Y-93220000D01*
X154940000Y-93220000D01*
X154649160Y-93277852D01*
X154402599Y-93442599D01*
X154242638Y-93602560D01*
X152670000Y-93602560D01*
X152422235Y-93651843D01*
X152212191Y-93792191D01*
X152121079Y-93928549D01*
X152057363Y-93864722D01*
X151456648Y-93615284D01*
X150806205Y-93614716D01*
X150205057Y-93863106D01*
X149744722Y-94322637D01*
X149495284Y-94923352D01*
X149494716Y-95573795D01*
X149563919Y-95741279D01*
X148706939Y-96598259D01*
X148629979Y-96483081D01*
X148419935Y-96342733D01*
X148172170Y-96293450D01*
X146898252Y-96293450D01*
X146587401Y-95982599D01*
X146340839Y-95817852D01*
X146050000Y-95760000D01*
X144695163Y-95760000D01*
X144685314Y-95736163D01*
X144295887Y-95346056D01*
X143786816Y-95134671D01*
X143235602Y-95134190D01*
X142726163Y-95344686D01*
X142336056Y-95734113D01*
X142124671Y-96243184D01*
X142124190Y-96794398D01*
X137275331Y-96794398D01*
X137275810Y-96245602D01*
X137065314Y-95736163D01*
X136675887Y-95346056D01*
X136166816Y-95134671D01*
X135615602Y-95134190D01*
X135106163Y-95344686D01*
X134716056Y-95734113D01*
X134504671Y-96243184D01*
X134504190Y-96794398D01*
X121041254Y-96794398D01*
X120978957Y-96643628D01*
X120449161Y-96112907D01*
X119756595Y-95825328D01*
X119006695Y-95824674D01*
X118313628Y-96111043D01*
X117782907Y-96640839D01*
X117495328Y-97333405D01*
X117494674Y-98083305D01*
X115697000Y-98083305D01*
X115697000Y-91460000D01*
X117482560Y-91460000D01*
X117482560Y-93960000D01*
X117531843Y-94207765D01*
X117672191Y-94417809D01*
X117882235Y-94558157D01*
X118130000Y-94607440D01*
X120630000Y-94607440D01*
X120877765Y-94558157D01*
X121087809Y-94417809D01*
X121228157Y-94207765D01*
X121277440Y-93960000D01*
X121277440Y-91460000D01*
X121228157Y-91212235D01*
X121087809Y-91002191D01*
X120877765Y-90861843D01*
X120630000Y-90812560D01*
X118130000Y-90812560D01*
X117882235Y-90861843D01*
X117672191Y-91002191D01*
X117531843Y-91212235D01*
X117482560Y-91460000D01*
X115697000Y-91460000D01*
X115697000Y-87757000D01*
X136944222Y-87757000D01*
X136918960Y-87884000D01*
M02*
