G04 #@! TF.FileFunction,Legend,Top*
%FSLAX46Y46*%
G04 Gerber Fmt 4.6, Leading zero omitted, Abs format (unit mm)*
G04 Created by KiCad (PCBNEW no-vcs-found-undefined) date Sun Oct 23 11:40:43 2016*
%MOMM*%
%LPD*%
G01*
G04 APERTURE LIST*
%ADD10C,0.100000*%
%ADD11C,0.381000*%
%ADD12C,0.150000*%
G04 APERTURE END LIST*
D10*
D11*
X213360000Y-139700000D02*
X114300000Y-139700000D01*
X212090000Y-86360000D02*
X114300000Y-86360000D01*
X213360000Y-99060000D02*
X213360000Y-87630000D01*
X213360000Y-87630000D02*
X212090000Y-86360000D01*
X114300000Y-139700000D02*
X114300000Y-86360000D01*
X213360000Y-99060000D02*
X215900000Y-101600000D01*
X215900000Y-101600000D02*
X215900000Y-134620000D01*
X215900000Y-134620000D02*
X213360000Y-137160000D01*
X213360000Y-137160000D02*
X213360000Y-139700000D01*
D12*
X124580000Y-90210000D02*
X114780000Y-90210000D01*
X124580000Y-100210000D02*
X124580000Y-90210000D01*
X114780000Y-100210000D02*
X124580000Y-100210000D01*
X114780000Y-90210000D02*
X114780000Y-100210000D01*
X115280000Y-90210000D02*
X115280000Y-100210000D01*
X121680000Y-90210000D02*
X121680000Y-100210000D01*
X116780000Y-90210000D02*
X116780000Y-100210000D01*
X121280000Y-92710000D02*
G75*
G03X121280000Y-92710000I-2000000J0D01*
G01*
X121280000Y-97710000D02*
G75*
G03X121280000Y-97710000I-2000000J0D01*
G01*
X115280000Y-95210000D02*
X114780000Y-95210000D01*
X115280000Y-106640000D02*
X114780000Y-106640000D01*
X121280000Y-109140000D02*
G75*
G03X121280000Y-109140000I-2000000J0D01*
G01*
X121280000Y-104140000D02*
G75*
G03X121280000Y-104140000I-2000000J0D01*
G01*
X116780000Y-101640000D02*
X116780000Y-111640000D01*
X121680000Y-101640000D02*
X121680000Y-111640000D01*
X115280000Y-101640000D02*
X115280000Y-111640000D01*
X114780000Y-101640000D02*
X114780000Y-111640000D01*
X114780000Y-111640000D02*
X124580000Y-111640000D01*
X124580000Y-111640000D02*
X124580000Y-101640000D01*
X124580000Y-101640000D02*
X114780000Y-101640000D01*
X124580000Y-113070000D02*
X114780000Y-113070000D01*
X124580000Y-123070000D02*
X124580000Y-113070000D01*
X114780000Y-123070000D02*
X124580000Y-123070000D01*
X114780000Y-113070000D02*
X114780000Y-123070000D01*
X115280000Y-113070000D02*
X115280000Y-123070000D01*
X121680000Y-113070000D02*
X121680000Y-123070000D01*
X116780000Y-113070000D02*
X116780000Y-123070000D01*
X121280000Y-115570000D02*
G75*
G03X121280000Y-115570000I-2000000J0D01*
G01*
X121280000Y-120570000D02*
G75*
G03X121280000Y-120570000I-2000000J0D01*
G01*
X115280000Y-118070000D02*
X114780000Y-118070000D01*
X115280000Y-129500000D02*
X114780000Y-129500000D01*
X121280000Y-132000000D02*
G75*
G03X121280000Y-132000000I-2000000J0D01*
G01*
X121280000Y-127000000D02*
G75*
G03X121280000Y-127000000I-2000000J0D01*
G01*
X116780000Y-124500000D02*
X116780000Y-134500000D01*
X121680000Y-124500000D02*
X121680000Y-134500000D01*
X115280000Y-124500000D02*
X115280000Y-134500000D01*
X114780000Y-124500000D02*
X114780000Y-134500000D01*
X114780000Y-134500000D02*
X124580000Y-134500000D01*
X124580000Y-134500000D02*
X124580000Y-124500000D01*
X124580000Y-124500000D02*
X114780000Y-124500000D01*
X136880000Y-90450000D02*
X136880000Y-87350000D01*
X138430000Y-90450000D02*
X136880000Y-90450000D01*
X139700000Y-87630000D02*
X139700000Y-90170000D01*
X136880000Y-87350000D02*
X138430000Y-87350000D01*
X157480000Y-90170000D02*
X139700000Y-90170000D01*
X157480000Y-87630000D02*
X157480000Y-90170000D01*
X139700000Y-87630000D02*
X157480000Y-87630000D01*
X161290000Y-87630000D02*
X179070000Y-87630000D01*
X179070000Y-87630000D02*
X179070000Y-90170000D01*
X179070000Y-90170000D02*
X161290000Y-90170000D01*
X158470000Y-87350000D02*
X160020000Y-87350000D01*
X161290000Y-87630000D02*
X161290000Y-90170000D01*
X160020000Y-90450000D02*
X158470000Y-90450000D01*
X158470000Y-90450000D02*
X158470000Y-87350000D01*
X181330000Y-90450000D02*
X181330000Y-87350000D01*
X182880000Y-90450000D02*
X181330000Y-90450000D01*
X184150000Y-87630000D02*
X184150000Y-90170000D01*
X181330000Y-87350000D02*
X182880000Y-87350000D01*
X201930000Y-90170000D02*
X184150000Y-90170000D01*
X201930000Y-87630000D02*
X201930000Y-90170000D01*
X184150000Y-87630000D02*
X201930000Y-87630000D01*
X166370000Y-135890000D02*
X184150000Y-135890000D01*
X184150000Y-135890000D02*
X184150000Y-138430000D01*
X184150000Y-138430000D02*
X166370000Y-138430000D01*
X163550000Y-135610000D02*
X165100000Y-135610000D01*
X166370000Y-135890000D02*
X166370000Y-138430000D01*
X165100000Y-138710000D02*
X163550000Y-138710000D01*
X163550000Y-138710000D02*
X163550000Y-135610000D01*
X186410000Y-138710000D02*
X186410000Y-135610000D01*
X187960000Y-138710000D02*
X186410000Y-138710000D01*
X189230000Y-135890000D02*
X189230000Y-138430000D01*
X186410000Y-135610000D02*
X187960000Y-135610000D01*
X207010000Y-138430000D02*
X189230000Y-138430000D01*
X207010000Y-135890000D02*
X207010000Y-138430000D01*
X189230000Y-135890000D02*
X207010000Y-135890000D01*
X206730000Y-87350000D02*
X209830000Y-87350000D01*
X206730000Y-88900000D02*
X206730000Y-87350000D01*
X209550000Y-90170000D02*
X207010000Y-90170000D01*
X209830000Y-87350000D02*
X209830000Y-88900000D01*
X207010000Y-133350000D02*
X207010000Y-90170000D01*
X209550000Y-133350000D02*
X207010000Y-133350000D01*
X209550000Y-90170000D02*
X209550000Y-133350000D01*
X212090000Y-90170000D02*
X212090000Y-133350000D01*
X212090000Y-133350000D02*
X209550000Y-133350000D01*
X209550000Y-133350000D02*
X209550000Y-90170000D01*
X212370000Y-87350000D02*
X212370000Y-88900000D01*
X212090000Y-90170000D02*
X209550000Y-90170000D01*
X209270000Y-88900000D02*
X209270000Y-87350000D01*
X209270000Y-87350000D02*
X212370000Y-87350000D01*
X145770000Y-138710000D02*
X145770000Y-135610000D01*
X147320000Y-138710000D02*
X145770000Y-138710000D01*
X148590000Y-135890000D02*
X148590000Y-138430000D01*
X145770000Y-135610000D02*
X147320000Y-135610000D01*
X161290000Y-138430000D02*
X148590000Y-138430000D01*
X161290000Y-135890000D02*
X161290000Y-138430000D01*
X148590000Y-135890000D02*
X161290000Y-135890000D01*
X155139000Y-114256000D02*
X155139000Y-114456000D01*
X155139000Y-116850000D02*
X155139000Y-116670000D01*
X151911256Y-116539643D02*
G75*
G03X155139000Y-116856000I1727744J1003643D01*
G01*
X152586994Y-116669068D02*
G75*
G03X154690000Y-116670000I1052006J1133068D01*
G01*
X155126220Y-114229274D02*
G75*
G03X151889000Y-114576000I-1497220J-1306726D01*
G01*
X154652889Y-114456747D02*
G75*
G03X152605000Y-114476000I-1013889J-1079253D01*
G01*
X149354540Y-120904520D02*
X148592540Y-120904520D01*
X149354540Y-125476520D02*
X149354540Y-120904520D01*
X147830540Y-125476520D02*
X149354540Y-125476520D01*
X147830540Y-120904520D02*
X147830540Y-125476520D01*
X148592540Y-120904520D02*
X147830540Y-120904520D01*
X149354540Y-121158520D02*
X147830540Y-121158520D01*
X149354540Y-121412520D02*
X147830540Y-121412520D01*
X148592540Y-121031520D02*
X148592540Y-119507520D01*
X148592540Y-125476520D02*
X148592540Y-126873520D01*
X186889000Y-96476000D02*
X186889000Y-96676000D01*
X186889000Y-99070000D02*
X186889000Y-98890000D01*
X183661256Y-98759643D02*
G75*
G03X186889000Y-99076000I1727744J1003643D01*
G01*
X184336994Y-98889068D02*
G75*
G03X186440000Y-98890000I1052006J1133068D01*
G01*
X186876220Y-96449274D02*
G75*
G03X183639000Y-96796000I-1497220J-1306726D01*
G01*
X186402889Y-96676747D02*
G75*
G03X184355000Y-96696000I-1013889J-1079253D01*
G01*
X180342540Y-107696520D02*
X180342540Y-109093520D01*
X180342540Y-103251520D02*
X180342540Y-101727520D01*
X181104540Y-103632520D02*
X179580540Y-103632520D01*
X181104540Y-103378520D02*
X179580540Y-103378520D01*
X180342540Y-103124520D02*
X179580540Y-103124520D01*
X179580540Y-103124520D02*
X179580540Y-107696520D01*
X179580540Y-107696520D02*
X181104540Y-107696520D01*
X181104540Y-107696520D02*
X181104540Y-103124520D01*
X181104540Y-103124520D02*
X180342540Y-103124520D01*
X152400000Y-121920000D02*
X154940000Y-121920000D01*
X152400000Y-127000000D02*
X152400000Y-121920000D01*
X154940000Y-127000000D02*
X152400000Y-127000000D01*
X154940000Y-121920000D02*
X154940000Y-127000000D01*
X153869000Y-93936000D02*
X153869000Y-94136000D01*
X153869000Y-96530000D02*
X153869000Y-96350000D01*
X150641256Y-96219643D02*
G75*
G03X153869000Y-96536000I1727744J1003643D01*
G01*
X151316994Y-96349068D02*
G75*
G03X153420000Y-96350000I1052006J1133068D01*
G01*
X153856220Y-93909274D02*
G75*
G03X150619000Y-94256000I-1497220J-1306726D01*
G01*
X153382889Y-94136747D02*
G75*
G03X151335000Y-94156000I-1013889J-1079253D01*
G01*
X149354540Y-101854520D02*
X148592540Y-101854520D01*
X149354540Y-106426520D02*
X149354540Y-101854520D01*
X147830540Y-106426520D02*
X149354540Y-106426520D01*
X147830540Y-101854520D02*
X147830540Y-106426520D01*
X148592540Y-101854520D02*
X147830540Y-101854520D01*
X149354540Y-102108520D02*
X147830540Y-102108520D01*
X149354540Y-102362520D02*
X147830540Y-102362520D01*
X148592540Y-101981520D02*
X148592540Y-100457520D01*
X148592540Y-106426520D02*
X148592540Y-107823520D01*
X186402889Y-114456747D02*
G75*
G03X184355000Y-114476000I-1013889J-1079253D01*
G01*
X186876220Y-114229274D02*
G75*
G03X183639000Y-114576000I-1497220J-1306726D01*
G01*
X184336994Y-116669068D02*
G75*
G03X186440000Y-116670000I1052006J1133068D01*
G01*
X183661256Y-116539643D02*
G75*
G03X186889000Y-116856000I1727744J1003643D01*
G01*
X186889000Y-116850000D02*
X186889000Y-116670000D01*
X186889000Y-114256000D02*
X186889000Y-114456000D01*
X181104540Y-120904520D02*
X180342540Y-120904520D01*
X181104540Y-125476520D02*
X181104540Y-120904520D01*
X179580540Y-125476520D02*
X181104540Y-125476520D01*
X179580540Y-120904520D02*
X179580540Y-125476520D01*
X180342540Y-120904520D02*
X179580540Y-120904520D01*
X181104540Y-121158520D02*
X179580540Y-121158520D01*
X181104540Y-121412520D02*
X179580540Y-121412520D01*
X180342540Y-121031520D02*
X180342540Y-119507520D01*
X180342540Y-125476520D02*
X180342540Y-126873520D01*
X160450000Y-129970000D02*
X160450000Y-126570000D01*
X160447056Y-129967056D02*
G75*
G02X156350000Y-128270000I-1697056J1697056D01*
G01*
X160447056Y-126572944D02*
G75*
G03X156350000Y-128270000I-1697056J-1697056D01*
G01*
X160447056Y-106252944D02*
G75*
G03X156350000Y-107950000I-1697056J-1697056D01*
G01*
X160447056Y-109647056D02*
G75*
G02X156350000Y-107950000I-1697056J1697056D01*
G01*
X160450000Y-109650000D02*
X160450000Y-106250000D01*
X197277056Y-125302944D02*
G75*
G03X193180000Y-127000000I-1697056J-1697056D01*
G01*
X197277056Y-128697056D02*
G75*
G02X193180000Y-127000000I-1697056J1697056D01*
G01*
X197280000Y-128700000D02*
X197280000Y-125300000D01*
X197280000Y-110920000D02*
X197280000Y-107520000D01*
X197277056Y-110917056D02*
G75*
G02X193180000Y-109220000I-1697056J1697056D01*
G01*
X197277056Y-107522944D02*
G75*
G03X193180000Y-109220000I-1697056J-1697056D01*
G01*
X157480000Y-120650000D02*
X157480000Y-115570000D01*
X157480000Y-115570000D02*
X160020000Y-115570000D01*
X160020000Y-115570000D02*
X160020000Y-120650000D01*
X160020000Y-120650000D02*
X157480000Y-120650000D01*
X151130000Y-101600000D02*
X153670000Y-101600000D01*
X151130000Y-106680000D02*
X151130000Y-101600000D01*
X153670000Y-106680000D02*
X151130000Y-106680000D01*
X153670000Y-101600000D02*
X153670000Y-106680000D01*
X160020000Y-96520000D02*
X160020000Y-101600000D01*
X160020000Y-101600000D02*
X157480000Y-101600000D01*
X157480000Y-101600000D02*
X157480000Y-96520000D01*
X157480000Y-96520000D02*
X160020000Y-96520000D01*
X190500000Y-127000000D02*
X187960000Y-127000000D01*
X190500000Y-121920000D02*
X190500000Y-127000000D01*
X187960000Y-121920000D02*
X190500000Y-121920000D01*
X187960000Y-127000000D02*
X187960000Y-121920000D01*
X190500000Y-109220000D02*
X187960000Y-109220000D01*
X190500000Y-104140000D02*
X190500000Y-109220000D01*
X187960000Y-104140000D02*
X190500000Y-104140000D01*
X187960000Y-109220000D02*
X187960000Y-104140000D01*
X185420000Y-121920000D02*
X185420000Y-127000000D01*
X185420000Y-127000000D02*
X182880000Y-127000000D01*
X182880000Y-127000000D02*
X182880000Y-121920000D01*
X182880000Y-121920000D02*
X185420000Y-121920000D01*
X185420000Y-104140000D02*
X185420000Y-109220000D01*
X185420000Y-109220000D02*
X182880000Y-109220000D01*
X182880000Y-109220000D02*
X182880000Y-104140000D01*
X182880000Y-104140000D02*
X185420000Y-104140000D01*
X134620000Y-115570000D02*
X134620000Y-130810000D01*
X144780000Y-115570000D02*
X134620000Y-115570000D01*
X144780000Y-130810000D02*
X144780000Y-115570000D01*
X134620000Y-130810000D02*
X144780000Y-130810000D01*
X142494000Y-121666000D02*
X142494000Y-125603000D01*
X141224000Y-121666000D02*
X142494000Y-121666000D01*
X141224000Y-125603000D02*
X141224000Y-121666000D01*
X142494000Y-125603000D02*
X141224000Y-125603000D01*
X142367000Y-124206000D02*
X141224000Y-123063000D01*
X141859000Y-116967000D02*
X142113000Y-116967000D01*
X141859000Y-121666000D02*
X141859000Y-116967000D01*
X141859000Y-129540000D02*
X142240000Y-129540000D01*
X141859000Y-125730000D02*
X141859000Y-129540000D01*
X134620000Y-95250000D02*
X134620000Y-110490000D01*
X144780000Y-95250000D02*
X134620000Y-95250000D01*
X144780000Y-110490000D02*
X144780000Y-95250000D01*
X134620000Y-110490000D02*
X144780000Y-110490000D01*
X142494000Y-101346000D02*
X142494000Y-105283000D01*
X141224000Y-101346000D02*
X142494000Y-101346000D01*
X141224000Y-105283000D02*
X141224000Y-101346000D01*
X142494000Y-105283000D02*
X141224000Y-105283000D01*
X142367000Y-103886000D02*
X141224000Y-102743000D01*
X141859000Y-96647000D02*
X142113000Y-96647000D01*
X141859000Y-101346000D02*
X141859000Y-96647000D01*
X141859000Y-109220000D02*
X142240000Y-109220000D01*
X141859000Y-105410000D02*
X141859000Y-109220000D01*
X173609000Y-125730000D02*
X173609000Y-129540000D01*
X173609000Y-129540000D02*
X173990000Y-129540000D01*
X173609000Y-121666000D02*
X173609000Y-116967000D01*
X173609000Y-116967000D02*
X173863000Y-116967000D01*
X174117000Y-124206000D02*
X172974000Y-123063000D01*
X174244000Y-125603000D02*
X172974000Y-125603000D01*
X172974000Y-125603000D02*
X172974000Y-121666000D01*
X172974000Y-121666000D02*
X174244000Y-121666000D01*
X174244000Y-121666000D02*
X174244000Y-125603000D01*
X166370000Y-130810000D02*
X176530000Y-130810000D01*
X176530000Y-130810000D02*
X176530000Y-115570000D01*
X176530000Y-115570000D02*
X166370000Y-115570000D01*
X166370000Y-115570000D02*
X166370000Y-130810000D01*
X173609000Y-105410000D02*
X173609000Y-109220000D01*
X173609000Y-109220000D02*
X173990000Y-109220000D01*
X173609000Y-101346000D02*
X173609000Y-96647000D01*
X173609000Y-96647000D02*
X173863000Y-96647000D01*
X174117000Y-103886000D02*
X172974000Y-102743000D01*
X174244000Y-105283000D02*
X172974000Y-105283000D01*
X172974000Y-105283000D02*
X172974000Y-101346000D01*
X172974000Y-101346000D02*
X174244000Y-101346000D01*
X174244000Y-101346000D02*
X174244000Y-105283000D01*
X166370000Y-110490000D02*
X176530000Y-110490000D01*
X176530000Y-110490000D02*
X176530000Y-95250000D01*
X176530000Y-95250000D02*
X166370000Y-95250000D01*
X166370000Y-95250000D02*
X166370000Y-110490000D01*
X126182380Y-90908095D02*
X125182380Y-90908095D01*
X125182380Y-90527142D01*
X125230000Y-90431904D01*
X125277619Y-90384285D01*
X125372857Y-90336666D01*
X125515714Y-90336666D01*
X125610952Y-90384285D01*
X125658571Y-90431904D01*
X125706190Y-90527142D01*
X125706190Y-90908095D01*
X126182380Y-89384285D02*
X126182380Y-89955714D01*
X126182380Y-89670000D02*
X125182380Y-89670000D01*
X125325238Y-89765238D01*
X125420476Y-89860476D01*
X125468095Y-89955714D01*
X126432380Y-97281428D02*
X125956190Y-97614761D01*
X126432380Y-97852857D02*
X125432380Y-97852857D01*
X125432380Y-97471904D01*
X125480000Y-97376666D01*
X125527619Y-97329047D01*
X125622857Y-97281428D01*
X125765714Y-97281428D01*
X125860952Y-97329047D01*
X125908571Y-97376666D01*
X125956190Y-97471904D01*
X125956190Y-97852857D01*
X126384761Y-96471904D02*
X126432380Y-96567142D01*
X126432380Y-96757619D01*
X126384761Y-96852857D01*
X126289523Y-96900476D01*
X125908571Y-96900476D01*
X125813333Y-96852857D01*
X125765714Y-96757619D01*
X125765714Y-96567142D01*
X125813333Y-96471904D01*
X125908571Y-96424285D01*
X126003809Y-96424285D01*
X126099047Y-96900476D01*
X126432380Y-95852857D02*
X126384761Y-95948095D01*
X126289523Y-95995714D01*
X125432380Y-95995714D01*
X126432380Y-95043333D02*
X125908571Y-95043333D01*
X125813333Y-95090952D01*
X125765714Y-95186190D01*
X125765714Y-95376666D01*
X125813333Y-95471904D01*
X126384761Y-95043333D02*
X126432380Y-95138571D01*
X126432380Y-95376666D01*
X126384761Y-95471904D01*
X126289523Y-95519523D01*
X126194285Y-95519523D01*
X126099047Y-95471904D01*
X126051428Y-95376666D01*
X126051428Y-95138571D01*
X126003809Y-95043333D01*
X125765714Y-94662380D02*
X126432380Y-94424285D01*
X125765714Y-94186190D02*
X126432380Y-94424285D01*
X126670476Y-94519523D01*
X126718095Y-94567142D01*
X126765714Y-94662380D01*
X126432380Y-92519523D02*
X126432380Y-93090952D01*
X126432380Y-92805238D02*
X125432380Y-92805238D01*
X125575238Y-92900476D01*
X125670476Y-92995714D01*
X125718095Y-93090952D01*
X126182380Y-102338095D02*
X125182380Y-102338095D01*
X125182380Y-101957142D01*
X125230000Y-101861904D01*
X125277619Y-101814285D01*
X125372857Y-101766666D01*
X125515714Y-101766666D01*
X125610952Y-101814285D01*
X125658571Y-101861904D01*
X125706190Y-101957142D01*
X125706190Y-102338095D01*
X125277619Y-101385714D02*
X125230000Y-101338095D01*
X125182380Y-101242857D01*
X125182380Y-101004761D01*
X125230000Y-100909523D01*
X125277619Y-100861904D01*
X125372857Y-100814285D01*
X125468095Y-100814285D01*
X125610952Y-100861904D01*
X126182380Y-101433333D01*
X126182380Y-100814285D01*
X126432380Y-108711428D02*
X125956190Y-109044761D01*
X126432380Y-109282857D02*
X125432380Y-109282857D01*
X125432380Y-108901904D01*
X125480000Y-108806666D01*
X125527619Y-108759047D01*
X125622857Y-108711428D01*
X125765714Y-108711428D01*
X125860952Y-108759047D01*
X125908571Y-108806666D01*
X125956190Y-108901904D01*
X125956190Y-109282857D01*
X126384761Y-107901904D02*
X126432380Y-107997142D01*
X126432380Y-108187619D01*
X126384761Y-108282857D01*
X126289523Y-108330476D01*
X125908571Y-108330476D01*
X125813333Y-108282857D01*
X125765714Y-108187619D01*
X125765714Y-107997142D01*
X125813333Y-107901904D01*
X125908571Y-107854285D01*
X126003809Y-107854285D01*
X126099047Y-108330476D01*
X126432380Y-107282857D02*
X126384761Y-107378095D01*
X126289523Y-107425714D01*
X125432380Y-107425714D01*
X126432380Y-106473333D02*
X125908571Y-106473333D01*
X125813333Y-106520952D01*
X125765714Y-106616190D01*
X125765714Y-106806666D01*
X125813333Y-106901904D01*
X126384761Y-106473333D02*
X126432380Y-106568571D01*
X126432380Y-106806666D01*
X126384761Y-106901904D01*
X126289523Y-106949523D01*
X126194285Y-106949523D01*
X126099047Y-106901904D01*
X126051428Y-106806666D01*
X126051428Y-106568571D01*
X126003809Y-106473333D01*
X125765714Y-106092380D02*
X126432380Y-105854285D01*
X125765714Y-105616190D02*
X126432380Y-105854285D01*
X126670476Y-105949523D01*
X126718095Y-105997142D01*
X126765714Y-106092380D01*
X125527619Y-104520952D02*
X125480000Y-104473333D01*
X125432380Y-104378095D01*
X125432380Y-104140000D01*
X125480000Y-104044761D01*
X125527619Y-103997142D01*
X125622857Y-103949523D01*
X125718095Y-103949523D01*
X125860952Y-103997142D01*
X126432380Y-104568571D01*
X126432380Y-103949523D01*
X126182380Y-113768095D02*
X125182380Y-113768095D01*
X125182380Y-113387142D01*
X125230000Y-113291904D01*
X125277619Y-113244285D01*
X125372857Y-113196666D01*
X125515714Y-113196666D01*
X125610952Y-113244285D01*
X125658571Y-113291904D01*
X125706190Y-113387142D01*
X125706190Y-113768095D01*
X125182380Y-112863333D02*
X125182380Y-112244285D01*
X125563333Y-112577619D01*
X125563333Y-112434761D01*
X125610952Y-112339523D01*
X125658571Y-112291904D01*
X125753809Y-112244285D01*
X125991904Y-112244285D01*
X126087142Y-112291904D01*
X126134761Y-112339523D01*
X126182380Y-112434761D01*
X126182380Y-112720476D01*
X126134761Y-112815714D01*
X126087142Y-112863333D01*
X126432380Y-120141428D02*
X125956190Y-120474761D01*
X126432380Y-120712857D02*
X125432380Y-120712857D01*
X125432380Y-120331904D01*
X125480000Y-120236666D01*
X125527619Y-120189047D01*
X125622857Y-120141428D01*
X125765714Y-120141428D01*
X125860952Y-120189047D01*
X125908571Y-120236666D01*
X125956190Y-120331904D01*
X125956190Y-120712857D01*
X126384761Y-119331904D02*
X126432380Y-119427142D01*
X126432380Y-119617619D01*
X126384761Y-119712857D01*
X126289523Y-119760476D01*
X125908571Y-119760476D01*
X125813333Y-119712857D01*
X125765714Y-119617619D01*
X125765714Y-119427142D01*
X125813333Y-119331904D01*
X125908571Y-119284285D01*
X126003809Y-119284285D01*
X126099047Y-119760476D01*
X126432380Y-118712857D02*
X126384761Y-118808095D01*
X126289523Y-118855714D01*
X125432380Y-118855714D01*
X126432380Y-117903333D02*
X125908571Y-117903333D01*
X125813333Y-117950952D01*
X125765714Y-118046190D01*
X125765714Y-118236666D01*
X125813333Y-118331904D01*
X126384761Y-117903333D02*
X126432380Y-117998571D01*
X126432380Y-118236666D01*
X126384761Y-118331904D01*
X126289523Y-118379523D01*
X126194285Y-118379523D01*
X126099047Y-118331904D01*
X126051428Y-118236666D01*
X126051428Y-117998571D01*
X126003809Y-117903333D01*
X125765714Y-117522380D02*
X126432380Y-117284285D01*
X125765714Y-117046190D02*
X126432380Y-117284285D01*
X126670476Y-117379523D01*
X126718095Y-117427142D01*
X126765714Y-117522380D01*
X125765714Y-115474761D02*
X126432380Y-115474761D01*
X125384761Y-115712857D02*
X126099047Y-115950952D01*
X126099047Y-115331904D01*
X126182380Y-125198095D02*
X125182380Y-125198095D01*
X125182380Y-124817142D01*
X125230000Y-124721904D01*
X125277619Y-124674285D01*
X125372857Y-124626666D01*
X125515714Y-124626666D01*
X125610952Y-124674285D01*
X125658571Y-124721904D01*
X125706190Y-124817142D01*
X125706190Y-125198095D01*
X125515714Y-123769523D02*
X126182380Y-123769523D01*
X125134761Y-124007619D02*
X125849047Y-124245714D01*
X125849047Y-123626666D01*
X126432380Y-131571428D02*
X125956190Y-131904761D01*
X126432380Y-132142857D02*
X125432380Y-132142857D01*
X125432380Y-131761904D01*
X125480000Y-131666666D01*
X125527619Y-131619047D01*
X125622857Y-131571428D01*
X125765714Y-131571428D01*
X125860952Y-131619047D01*
X125908571Y-131666666D01*
X125956190Y-131761904D01*
X125956190Y-132142857D01*
X126384761Y-130761904D02*
X126432380Y-130857142D01*
X126432380Y-131047619D01*
X126384761Y-131142857D01*
X126289523Y-131190476D01*
X125908571Y-131190476D01*
X125813333Y-131142857D01*
X125765714Y-131047619D01*
X125765714Y-130857142D01*
X125813333Y-130761904D01*
X125908571Y-130714285D01*
X126003809Y-130714285D01*
X126099047Y-131190476D01*
X126432380Y-130142857D02*
X126384761Y-130238095D01*
X126289523Y-130285714D01*
X125432380Y-130285714D01*
X126432380Y-129333333D02*
X125908571Y-129333333D01*
X125813333Y-129380952D01*
X125765714Y-129476190D01*
X125765714Y-129666666D01*
X125813333Y-129761904D01*
X126384761Y-129333333D02*
X126432380Y-129428571D01*
X126432380Y-129666666D01*
X126384761Y-129761904D01*
X126289523Y-129809523D01*
X126194285Y-129809523D01*
X126099047Y-129761904D01*
X126051428Y-129666666D01*
X126051428Y-129428571D01*
X126003809Y-129333333D01*
X125765714Y-128952380D02*
X126432380Y-128714285D01*
X125765714Y-128476190D02*
X126432380Y-128714285D01*
X126670476Y-128809523D01*
X126718095Y-128857142D01*
X126765714Y-128952380D01*
X125432380Y-127428571D02*
X125432380Y-126809523D01*
X125813333Y-127142857D01*
X125813333Y-127000000D01*
X125860952Y-126904761D01*
X125908571Y-126857142D01*
X126003809Y-126809523D01*
X126241904Y-126809523D01*
X126337142Y-126857142D01*
X126384761Y-126904761D01*
X126432380Y-127000000D01*
X126432380Y-127285714D01*
X126384761Y-127380952D01*
X126337142Y-127428571D01*
X136421904Y-91892380D02*
X136421904Y-90892380D01*
X136802857Y-90892380D01*
X136898095Y-90940000D01*
X136945714Y-90987619D01*
X136993333Y-91082857D01*
X136993333Y-91225714D01*
X136945714Y-91320952D01*
X136898095Y-91368571D01*
X136802857Y-91416190D01*
X136421904Y-91416190D01*
X137898095Y-90892380D02*
X137421904Y-90892380D01*
X137374285Y-91368571D01*
X137421904Y-91320952D01*
X137517142Y-91273333D01*
X137755238Y-91273333D01*
X137850476Y-91320952D01*
X137898095Y-91368571D01*
X137945714Y-91463809D01*
X137945714Y-91701904D01*
X137898095Y-91797142D01*
X137850476Y-91844761D01*
X137755238Y-91892380D01*
X137517142Y-91892380D01*
X137421904Y-91844761D01*
X137374285Y-91797142D01*
X158011904Y-91892380D02*
X158011904Y-90892380D01*
X158392857Y-90892380D01*
X158488095Y-90940000D01*
X158535714Y-90987619D01*
X158583333Y-91082857D01*
X158583333Y-91225714D01*
X158535714Y-91320952D01*
X158488095Y-91368571D01*
X158392857Y-91416190D01*
X158011904Y-91416190D01*
X159440476Y-90892380D02*
X159250000Y-90892380D01*
X159154761Y-90940000D01*
X159107142Y-90987619D01*
X159011904Y-91130476D01*
X158964285Y-91320952D01*
X158964285Y-91701904D01*
X159011904Y-91797142D01*
X159059523Y-91844761D01*
X159154761Y-91892380D01*
X159345238Y-91892380D01*
X159440476Y-91844761D01*
X159488095Y-91797142D01*
X159535714Y-91701904D01*
X159535714Y-91463809D01*
X159488095Y-91368571D01*
X159440476Y-91320952D01*
X159345238Y-91273333D01*
X159154761Y-91273333D01*
X159059523Y-91320952D01*
X159011904Y-91368571D01*
X158964285Y-91463809D01*
X180871904Y-91892380D02*
X180871904Y-90892380D01*
X181252857Y-90892380D01*
X181348095Y-90940000D01*
X181395714Y-90987619D01*
X181443333Y-91082857D01*
X181443333Y-91225714D01*
X181395714Y-91320952D01*
X181348095Y-91368571D01*
X181252857Y-91416190D01*
X180871904Y-91416190D01*
X181776666Y-90892380D02*
X182443333Y-90892380D01*
X182014761Y-91892380D01*
X164361904Y-135072380D02*
X164361904Y-134072380D01*
X164742857Y-134072380D01*
X164838095Y-134120000D01*
X164885714Y-134167619D01*
X164933333Y-134262857D01*
X164933333Y-134405714D01*
X164885714Y-134500952D01*
X164838095Y-134548571D01*
X164742857Y-134596190D01*
X164361904Y-134596190D01*
X165504761Y-134500952D02*
X165409523Y-134453333D01*
X165361904Y-134405714D01*
X165314285Y-134310476D01*
X165314285Y-134262857D01*
X165361904Y-134167619D01*
X165409523Y-134120000D01*
X165504761Y-134072380D01*
X165695238Y-134072380D01*
X165790476Y-134120000D01*
X165838095Y-134167619D01*
X165885714Y-134262857D01*
X165885714Y-134310476D01*
X165838095Y-134405714D01*
X165790476Y-134453333D01*
X165695238Y-134500952D01*
X165504761Y-134500952D01*
X165409523Y-134548571D01*
X165361904Y-134596190D01*
X165314285Y-134691428D01*
X165314285Y-134881904D01*
X165361904Y-134977142D01*
X165409523Y-135024761D01*
X165504761Y-135072380D01*
X165695238Y-135072380D01*
X165790476Y-135024761D01*
X165838095Y-134977142D01*
X165885714Y-134881904D01*
X165885714Y-134691428D01*
X165838095Y-134596190D01*
X165790476Y-134548571D01*
X165695238Y-134500952D01*
X187221904Y-135072380D02*
X187221904Y-134072380D01*
X187602857Y-134072380D01*
X187698095Y-134120000D01*
X187745714Y-134167619D01*
X187793333Y-134262857D01*
X187793333Y-134405714D01*
X187745714Y-134500952D01*
X187698095Y-134548571D01*
X187602857Y-134596190D01*
X187221904Y-134596190D01*
X188269523Y-135072380D02*
X188460000Y-135072380D01*
X188555238Y-135024761D01*
X188602857Y-134977142D01*
X188698095Y-134834285D01*
X188745714Y-134643809D01*
X188745714Y-134262857D01*
X188698095Y-134167619D01*
X188650476Y-134120000D01*
X188555238Y-134072380D01*
X188364761Y-134072380D01*
X188269523Y-134120000D01*
X188221904Y-134167619D01*
X188174285Y-134262857D01*
X188174285Y-134500952D01*
X188221904Y-134596190D01*
X188269523Y-134643809D01*
X188364761Y-134691428D01*
X188555238Y-134691428D01*
X188650476Y-134643809D01*
X188698095Y-134596190D01*
X188745714Y-134500952D01*
X206192380Y-97734285D02*
X205192380Y-97734285D01*
X205192380Y-97353333D01*
X205240000Y-97258095D01*
X205287619Y-97210476D01*
X205382857Y-97162857D01*
X205525714Y-97162857D01*
X205620952Y-97210476D01*
X205668571Y-97258095D01*
X205716190Y-97353333D01*
X205716190Y-97734285D01*
X206192380Y-96210476D02*
X206192380Y-96781904D01*
X206192380Y-96496190D02*
X205192380Y-96496190D01*
X205335238Y-96591428D01*
X205430476Y-96686666D01*
X205478095Y-96781904D01*
X205192380Y-95591428D02*
X205192380Y-95496190D01*
X205240000Y-95400952D01*
X205287619Y-95353333D01*
X205382857Y-95305714D01*
X205573333Y-95258095D01*
X205811428Y-95258095D01*
X206001904Y-95305714D01*
X206097142Y-95353333D01*
X206144761Y-95400952D01*
X206192380Y-95496190D01*
X206192380Y-95591428D01*
X206144761Y-95686666D01*
X206097142Y-95734285D01*
X206001904Y-95781904D01*
X205811428Y-95829523D01*
X205573333Y-95829523D01*
X205382857Y-95781904D01*
X205287619Y-95734285D01*
X205240000Y-95686666D01*
X205192380Y-95591428D01*
X206192380Y-93924285D02*
X205192380Y-93924285D01*
X205192380Y-93543333D01*
X205240000Y-93448095D01*
X205287619Y-93400476D01*
X205382857Y-93352857D01*
X205525714Y-93352857D01*
X205620952Y-93400476D01*
X205668571Y-93448095D01*
X205716190Y-93543333D01*
X205716190Y-93924285D01*
X206192380Y-92400476D02*
X206192380Y-92971904D01*
X206192380Y-92686190D02*
X205192380Y-92686190D01*
X205335238Y-92781428D01*
X205430476Y-92876666D01*
X205478095Y-92971904D01*
X206192380Y-91448095D02*
X206192380Y-92019523D01*
X206192380Y-91733809D02*
X205192380Y-91733809D01*
X205335238Y-91829047D01*
X205430476Y-91924285D01*
X205478095Y-92019523D01*
X146105714Y-135072380D02*
X146105714Y-134072380D01*
X146486666Y-134072380D01*
X146581904Y-134120000D01*
X146629523Y-134167619D01*
X146677142Y-134262857D01*
X146677142Y-134405714D01*
X146629523Y-134500952D01*
X146581904Y-134548571D01*
X146486666Y-134596190D01*
X146105714Y-134596190D01*
X147629523Y-135072380D02*
X147058095Y-135072380D01*
X147343809Y-135072380D02*
X147343809Y-134072380D01*
X147248571Y-134215238D01*
X147153333Y-134310476D01*
X147058095Y-134358095D01*
X148010476Y-134167619D02*
X148058095Y-134120000D01*
X148153333Y-134072380D01*
X148391428Y-134072380D01*
X148486666Y-134120000D01*
X148534285Y-134167619D01*
X148581904Y-134262857D01*
X148581904Y-134358095D01*
X148534285Y-134500952D01*
X147962857Y-135072380D01*
X148581904Y-135072380D01*
X152291904Y-112962380D02*
X152291904Y-111962380D01*
X152530000Y-111962380D01*
X152672857Y-112010000D01*
X152768095Y-112105238D01*
X152815714Y-112200476D01*
X152863333Y-112390952D01*
X152863333Y-112533809D01*
X152815714Y-112724285D01*
X152768095Y-112819523D01*
X152672857Y-112914761D01*
X152530000Y-112962380D01*
X152291904Y-112962380D01*
X153815714Y-112962380D02*
X153244285Y-112962380D01*
X153530000Y-112962380D02*
X153530000Y-111962380D01*
X153434761Y-112105238D01*
X153339523Y-112200476D01*
X153244285Y-112248095D01*
X152997142Y-118922380D02*
X152663809Y-118446190D01*
X152425714Y-118922380D02*
X152425714Y-117922380D01*
X152806666Y-117922380D01*
X152901904Y-117970000D01*
X152949523Y-118017619D01*
X152997142Y-118112857D01*
X152997142Y-118255714D01*
X152949523Y-118350952D01*
X152901904Y-118398571D01*
X152806666Y-118446190D01*
X152425714Y-118446190D01*
X153425714Y-118398571D02*
X153759047Y-118398571D01*
X153901904Y-118922380D02*
X153425714Y-118922380D01*
X153425714Y-117922380D01*
X153901904Y-117922380D01*
X154330476Y-118922380D02*
X154330476Y-117922380D01*
X154568571Y-117922380D01*
X154711428Y-117970000D01*
X154806666Y-118065238D01*
X154854285Y-118160476D01*
X154901904Y-118350952D01*
X154901904Y-118493809D01*
X154854285Y-118684285D01*
X154806666Y-118779523D01*
X154711428Y-118874761D01*
X154568571Y-118922380D01*
X154330476Y-118922380D01*
X149042380Y-123928095D02*
X148042380Y-123928095D01*
X148042380Y-123690000D01*
X148090000Y-123547142D01*
X148185238Y-123451904D01*
X148280476Y-123404285D01*
X148470952Y-123356666D01*
X148613809Y-123356666D01*
X148804285Y-123404285D01*
X148899523Y-123451904D01*
X148994761Y-123547142D01*
X149042380Y-123690000D01*
X149042380Y-123928095D01*
X148137619Y-122975714D02*
X148090000Y-122928095D01*
X148042380Y-122832857D01*
X148042380Y-122594761D01*
X148090000Y-122499523D01*
X148137619Y-122451904D01*
X148232857Y-122404285D01*
X148328095Y-122404285D01*
X148470952Y-122451904D01*
X149042380Y-123023333D01*
X149042380Y-122404285D01*
X184041904Y-95182380D02*
X184041904Y-94182380D01*
X184280000Y-94182380D01*
X184422857Y-94230000D01*
X184518095Y-94325238D01*
X184565714Y-94420476D01*
X184613333Y-94610952D01*
X184613333Y-94753809D01*
X184565714Y-94944285D01*
X184518095Y-95039523D01*
X184422857Y-95134761D01*
X184280000Y-95182380D01*
X184041904Y-95182380D01*
X185470476Y-94182380D02*
X185280000Y-94182380D01*
X185184761Y-94230000D01*
X185137142Y-94277619D01*
X185041904Y-94420476D01*
X184994285Y-94610952D01*
X184994285Y-94991904D01*
X185041904Y-95087142D01*
X185089523Y-95134761D01*
X185184761Y-95182380D01*
X185375238Y-95182380D01*
X185470476Y-95134761D01*
X185518095Y-95087142D01*
X185565714Y-94991904D01*
X185565714Y-94753809D01*
X185518095Y-94658571D01*
X185470476Y-94610952D01*
X185375238Y-94563333D01*
X185184761Y-94563333D01*
X185089523Y-94610952D01*
X185041904Y-94658571D01*
X184994285Y-94753809D01*
X184747142Y-101142380D02*
X184413809Y-100666190D01*
X184175714Y-101142380D02*
X184175714Y-100142380D01*
X184556666Y-100142380D01*
X184651904Y-100190000D01*
X184699523Y-100237619D01*
X184747142Y-100332857D01*
X184747142Y-100475714D01*
X184699523Y-100570952D01*
X184651904Y-100618571D01*
X184556666Y-100666190D01*
X184175714Y-100666190D01*
X185175714Y-100618571D02*
X185509047Y-100618571D01*
X185651904Y-101142380D02*
X185175714Y-101142380D01*
X185175714Y-100142380D01*
X185651904Y-100142380D01*
X186080476Y-101142380D02*
X186080476Y-100142380D01*
X186318571Y-100142380D01*
X186461428Y-100190000D01*
X186556666Y-100285238D01*
X186604285Y-100380476D01*
X186651904Y-100570952D01*
X186651904Y-100713809D01*
X186604285Y-100904285D01*
X186556666Y-100999523D01*
X186461428Y-101094761D01*
X186318571Y-101142380D01*
X186080476Y-101142380D01*
X180792380Y-106148095D02*
X179792380Y-106148095D01*
X179792380Y-105910000D01*
X179840000Y-105767142D01*
X179935238Y-105671904D01*
X180030476Y-105624285D01*
X180220952Y-105576666D01*
X180363809Y-105576666D01*
X180554285Y-105624285D01*
X180649523Y-105671904D01*
X180744761Y-105767142D01*
X180792380Y-105910000D01*
X180792380Y-106148095D01*
X180220952Y-105005238D02*
X180173333Y-105100476D01*
X180125714Y-105148095D01*
X180030476Y-105195714D01*
X179982857Y-105195714D01*
X179887619Y-105148095D01*
X179840000Y-105100476D01*
X179792380Y-105005238D01*
X179792380Y-104814761D01*
X179840000Y-104719523D01*
X179887619Y-104671904D01*
X179982857Y-104624285D01*
X180030476Y-104624285D01*
X180125714Y-104671904D01*
X180173333Y-104719523D01*
X180220952Y-104814761D01*
X180220952Y-105005238D01*
X180268571Y-105100476D01*
X180316190Y-105148095D01*
X180411428Y-105195714D01*
X180601904Y-105195714D01*
X180697142Y-105148095D01*
X180744761Y-105100476D01*
X180792380Y-105005238D01*
X180792380Y-104814761D01*
X180744761Y-104719523D01*
X180697142Y-104671904D01*
X180601904Y-104624285D01*
X180411428Y-104624285D01*
X180316190Y-104671904D01*
X180268571Y-104719523D01*
X180220952Y-104814761D01*
X154122380Y-124626666D02*
X153646190Y-124960000D01*
X154122380Y-125198095D02*
X153122380Y-125198095D01*
X153122380Y-124817142D01*
X153170000Y-124721904D01*
X153217619Y-124674285D01*
X153312857Y-124626666D01*
X153455714Y-124626666D01*
X153550952Y-124674285D01*
X153598571Y-124721904D01*
X153646190Y-124817142D01*
X153646190Y-125198095D01*
X154122380Y-123674285D02*
X154122380Y-124245714D01*
X154122380Y-123960000D02*
X153122380Y-123960000D01*
X153265238Y-124055238D01*
X153360476Y-124150476D01*
X153408095Y-124245714D01*
X151021904Y-92642380D02*
X151021904Y-91642380D01*
X151260000Y-91642380D01*
X151402857Y-91690000D01*
X151498095Y-91785238D01*
X151545714Y-91880476D01*
X151593333Y-92070952D01*
X151593333Y-92213809D01*
X151545714Y-92404285D01*
X151498095Y-92499523D01*
X151402857Y-92594761D01*
X151260000Y-92642380D01*
X151021904Y-92642380D01*
X151926666Y-91642380D02*
X152545714Y-91642380D01*
X152212380Y-92023333D01*
X152355238Y-92023333D01*
X152450476Y-92070952D01*
X152498095Y-92118571D01*
X152545714Y-92213809D01*
X152545714Y-92451904D01*
X152498095Y-92547142D01*
X152450476Y-92594761D01*
X152355238Y-92642380D01*
X152069523Y-92642380D01*
X151974285Y-92594761D01*
X151926666Y-92547142D01*
X151727142Y-98602380D02*
X151393809Y-98126190D01*
X151155714Y-98602380D02*
X151155714Y-97602380D01*
X151536666Y-97602380D01*
X151631904Y-97650000D01*
X151679523Y-97697619D01*
X151727142Y-97792857D01*
X151727142Y-97935714D01*
X151679523Y-98030952D01*
X151631904Y-98078571D01*
X151536666Y-98126190D01*
X151155714Y-98126190D01*
X152155714Y-98078571D02*
X152489047Y-98078571D01*
X152631904Y-98602380D02*
X152155714Y-98602380D01*
X152155714Y-97602380D01*
X152631904Y-97602380D01*
X153060476Y-98602380D02*
X153060476Y-97602380D01*
X153298571Y-97602380D01*
X153441428Y-97650000D01*
X153536666Y-97745238D01*
X153584285Y-97840476D01*
X153631904Y-98030952D01*
X153631904Y-98173809D01*
X153584285Y-98364285D01*
X153536666Y-98459523D01*
X153441428Y-98554761D01*
X153298571Y-98602380D01*
X153060476Y-98602380D01*
X149042380Y-104878095D02*
X148042380Y-104878095D01*
X148042380Y-104640000D01*
X148090000Y-104497142D01*
X148185238Y-104401904D01*
X148280476Y-104354285D01*
X148470952Y-104306666D01*
X148613809Y-104306666D01*
X148804285Y-104354285D01*
X148899523Y-104401904D01*
X148994761Y-104497142D01*
X149042380Y-104640000D01*
X149042380Y-104878095D01*
X148375714Y-103449523D02*
X149042380Y-103449523D01*
X147994761Y-103687619D02*
X148709047Y-103925714D01*
X148709047Y-103306666D01*
X184041904Y-112962380D02*
X184041904Y-111962380D01*
X184280000Y-111962380D01*
X184422857Y-112010000D01*
X184518095Y-112105238D01*
X184565714Y-112200476D01*
X184613333Y-112390952D01*
X184613333Y-112533809D01*
X184565714Y-112724285D01*
X184518095Y-112819523D01*
X184422857Y-112914761D01*
X184280000Y-112962380D01*
X184041904Y-112962380D01*
X185518095Y-111962380D02*
X185041904Y-111962380D01*
X184994285Y-112438571D01*
X185041904Y-112390952D01*
X185137142Y-112343333D01*
X185375238Y-112343333D01*
X185470476Y-112390952D01*
X185518095Y-112438571D01*
X185565714Y-112533809D01*
X185565714Y-112771904D01*
X185518095Y-112867142D01*
X185470476Y-112914761D01*
X185375238Y-112962380D01*
X185137142Y-112962380D01*
X185041904Y-112914761D01*
X184994285Y-112867142D01*
X184747142Y-118922380D02*
X184413809Y-118446190D01*
X184175714Y-118922380D02*
X184175714Y-117922380D01*
X184556666Y-117922380D01*
X184651904Y-117970000D01*
X184699523Y-118017619D01*
X184747142Y-118112857D01*
X184747142Y-118255714D01*
X184699523Y-118350952D01*
X184651904Y-118398571D01*
X184556666Y-118446190D01*
X184175714Y-118446190D01*
X185175714Y-118398571D02*
X185509047Y-118398571D01*
X185651904Y-118922380D02*
X185175714Y-118922380D01*
X185175714Y-117922380D01*
X185651904Y-117922380D01*
X186080476Y-118922380D02*
X186080476Y-117922380D01*
X186318571Y-117922380D01*
X186461428Y-117970000D01*
X186556666Y-118065238D01*
X186604285Y-118160476D01*
X186651904Y-118350952D01*
X186651904Y-118493809D01*
X186604285Y-118684285D01*
X186556666Y-118779523D01*
X186461428Y-118874761D01*
X186318571Y-118922380D01*
X186080476Y-118922380D01*
X180792380Y-123928095D02*
X179792380Y-123928095D01*
X179792380Y-123690000D01*
X179840000Y-123547142D01*
X179935238Y-123451904D01*
X180030476Y-123404285D01*
X180220952Y-123356666D01*
X180363809Y-123356666D01*
X180554285Y-123404285D01*
X180649523Y-123451904D01*
X180744761Y-123547142D01*
X180792380Y-123690000D01*
X180792380Y-123928095D01*
X179792380Y-123023333D02*
X179792380Y-122356666D01*
X180792380Y-122785238D01*
X161837619Y-128365238D02*
X161790000Y-128460476D01*
X161694761Y-128555714D01*
X161551904Y-128698571D01*
X161504285Y-128793809D01*
X161504285Y-128889047D01*
X161742380Y-128841428D02*
X161694761Y-128936666D01*
X161599523Y-129031904D01*
X161409047Y-129079523D01*
X161075714Y-129079523D01*
X160885238Y-129031904D01*
X160790000Y-128936666D01*
X160742380Y-128841428D01*
X160742380Y-128650952D01*
X160790000Y-128555714D01*
X160885238Y-128460476D01*
X161075714Y-128412857D01*
X161409047Y-128412857D01*
X161599523Y-128460476D01*
X161694761Y-128555714D01*
X161742380Y-128650952D01*
X161742380Y-128841428D01*
X161742380Y-127460476D02*
X161742380Y-128031904D01*
X161742380Y-127746190D02*
X160742380Y-127746190D01*
X160885238Y-127841428D01*
X160980476Y-127936666D01*
X161028095Y-128031904D01*
X161837619Y-108045238D02*
X161790000Y-108140476D01*
X161694761Y-108235714D01*
X161551904Y-108378571D01*
X161504285Y-108473809D01*
X161504285Y-108569047D01*
X161742380Y-108521428D02*
X161694761Y-108616666D01*
X161599523Y-108711904D01*
X161409047Y-108759523D01*
X161075714Y-108759523D01*
X160885238Y-108711904D01*
X160790000Y-108616666D01*
X160742380Y-108521428D01*
X160742380Y-108330952D01*
X160790000Y-108235714D01*
X160885238Y-108140476D01*
X161075714Y-108092857D01*
X161409047Y-108092857D01*
X161599523Y-108140476D01*
X161694761Y-108235714D01*
X161742380Y-108330952D01*
X161742380Y-108521428D01*
X160837619Y-107711904D02*
X160790000Y-107664285D01*
X160742380Y-107569047D01*
X160742380Y-107330952D01*
X160790000Y-107235714D01*
X160837619Y-107188095D01*
X160932857Y-107140476D01*
X161028095Y-107140476D01*
X161170952Y-107188095D01*
X161742380Y-107759523D01*
X161742380Y-107140476D01*
X198667619Y-127095238D02*
X198620000Y-127190476D01*
X198524761Y-127285714D01*
X198381904Y-127428571D01*
X198334285Y-127523809D01*
X198334285Y-127619047D01*
X198572380Y-127571428D02*
X198524761Y-127666666D01*
X198429523Y-127761904D01*
X198239047Y-127809523D01*
X197905714Y-127809523D01*
X197715238Y-127761904D01*
X197620000Y-127666666D01*
X197572380Y-127571428D01*
X197572380Y-127380952D01*
X197620000Y-127285714D01*
X197715238Y-127190476D01*
X197905714Y-127142857D01*
X198239047Y-127142857D01*
X198429523Y-127190476D01*
X198524761Y-127285714D01*
X198572380Y-127380952D01*
X198572380Y-127571428D01*
X197572380Y-126809523D02*
X197572380Y-126190476D01*
X197953333Y-126523809D01*
X197953333Y-126380952D01*
X198000952Y-126285714D01*
X198048571Y-126238095D01*
X198143809Y-126190476D01*
X198381904Y-126190476D01*
X198477142Y-126238095D01*
X198524761Y-126285714D01*
X198572380Y-126380952D01*
X198572380Y-126666666D01*
X198524761Y-126761904D01*
X198477142Y-126809523D01*
X198667619Y-109315238D02*
X198620000Y-109410476D01*
X198524761Y-109505714D01*
X198381904Y-109648571D01*
X198334285Y-109743809D01*
X198334285Y-109839047D01*
X198572380Y-109791428D02*
X198524761Y-109886666D01*
X198429523Y-109981904D01*
X198239047Y-110029523D01*
X197905714Y-110029523D01*
X197715238Y-109981904D01*
X197620000Y-109886666D01*
X197572380Y-109791428D01*
X197572380Y-109600952D01*
X197620000Y-109505714D01*
X197715238Y-109410476D01*
X197905714Y-109362857D01*
X198239047Y-109362857D01*
X198429523Y-109410476D01*
X198524761Y-109505714D01*
X198572380Y-109600952D01*
X198572380Y-109791428D01*
X197905714Y-108505714D02*
X198572380Y-108505714D01*
X197524761Y-108743809D02*
X198239047Y-108981904D01*
X198239047Y-108362857D01*
X159202380Y-118276666D02*
X158726190Y-118610000D01*
X159202380Y-118848095D02*
X158202380Y-118848095D01*
X158202380Y-118467142D01*
X158250000Y-118371904D01*
X158297619Y-118324285D01*
X158392857Y-118276666D01*
X158535714Y-118276666D01*
X158630952Y-118324285D01*
X158678571Y-118371904D01*
X158726190Y-118467142D01*
X158726190Y-118848095D01*
X158297619Y-117895714D02*
X158250000Y-117848095D01*
X158202380Y-117752857D01*
X158202380Y-117514761D01*
X158250000Y-117419523D01*
X158297619Y-117371904D01*
X158392857Y-117324285D01*
X158488095Y-117324285D01*
X158630952Y-117371904D01*
X159202380Y-117943333D01*
X159202380Y-117324285D01*
X152852380Y-104306666D02*
X152376190Y-104640000D01*
X152852380Y-104878095D02*
X151852380Y-104878095D01*
X151852380Y-104497142D01*
X151900000Y-104401904D01*
X151947619Y-104354285D01*
X152042857Y-104306666D01*
X152185714Y-104306666D01*
X152280952Y-104354285D01*
X152328571Y-104401904D01*
X152376190Y-104497142D01*
X152376190Y-104878095D01*
X151852380Y-103973333D02*
X151852380Y-103354285D01*
X152233333Y-103687619D01*
X152233333Y-103544761D01*
X152280952Y-103449523D01*
X152328571Y-103401904D01*
X152423809Y-103354285D01*
X152661904Y-103354285D01*
X152757142Y-103401904D01*
X152804761Y-103449523D01*
X152852380Y-103544761D01*
X152852380Y-103830476D01*
X152804761Y-103925714D01*
X152757142Y-103973333D01*
X159202380Y-99226666D02*
X158726190Y-99560000D01*
X159202380Y-99798095D02*
X158202380Y-99798095D01*
X158202380Y-99417142D01*
X158250000Y-99321904D01*
X158297619Y-99274285D01*
X158392857Y-99226666D01*
X158535714Y-99226666D01*
X158630952Y-99274285D01*
X158678571Y-99321904D01*
X158726190Y-99417142D01*
X158726190Y-99798095D01*
X158535714Y-98369523D02*
X159202380Y-98369523D01*
X158154761Y-98607619D02*
X158869047Y-98845714D01*
X158869047Y-98226666D01*
X189682380Y-124626666D02*
X189206190Y-124960000D01*
X189682380Y-125198095D02*
X188682380Y-125198095D01*
X188682380Y-124817142D01*
X188730000Y-124721904D01*
X188777619Y-124674285D01*
X188872857Y-124626666D01*
X189015714Y-124626666D01*
X189110952Y-124674285D01*
X189158571Y-124721904D01*
X189206190Y-124817142D01*
X189206190Y-125198095D01*
X188682380Y-123721904D02*
X188682380Y-124198095D01*
X189158571Y-124245714D01*
X189110952Y-124198095D01*
X189063333Y-124102857D01*
X189063333Y-123864761D01*
X189110952Y-123769523D01*
X189158571Y-123721904D01*
X189253809Y-123674285D01*
X189491904Y-123674285D01*
X189587142Y-123721904D01*
X189634761Y-123769523D01*
X189682380Y-123864761D01*
X189682380Y-124102857D01*
X189634761Y-124198095D01*
X189587142Y-124245714D01*
X189682380Y-106846666D02*
X189206190Y-107180000D01*
X189682380Y-107418095D02*
X188682380Y-107418095D01*
X188682380Y-107037142D01*
X188730000Y-106941904D01*
X188777619Y-106894285D01*
X188872857Y-106846666D01*
X189015714Y-106846666D01*
X189110952Y-106894285D01*
X189158571Y-106941904D01*
X189206190Y-107037142D01*
X189206190Y-107418095D01*
X188682380Y-105989523D02*
X188682380Y-106180000D01*
X188730000Y-106275238D01*
X188777619Y-106322857D01*
X188920476Y-106418095D01*
X189110952Y-106465714D01*
X189491904Y-106465714D01*
X189587142Y-106418095D01*
X189634761Y-106370476D01*
X189682380Y-106275238D01*
X189682380Y-106084761D01*
X189634761Y-105989523D01*
X189587142Y-105941904D01*
X189491904Y-105894285D01*
X189253809Y-105894285D01*
X189158571Y-105941904D01*
X189110952Y-105989523D01*
X189063333Y-106084761D01*
X189063333Y-106275238D01*
X189110952Y-106370476D01*
X189158571Y-106418095D01*
X189253809Y-106465714D01*
X184602380Y-124626666D02*
X184126190Y-124960000D01*
X184602380Y-125198095D02*
X183602380Y-125198095D01*
X183602380Y-124817142D01*
X183650000Y-124721904D01*
X183697619Y-124674285D01*
X183792857Y-124626666D01*
X183935714Y-124626666D01*
X184030952Y-124674285D01*
X184078571Y-124721904D01*
X184126190Y-124817142D01*
X184126190Y-125198095D01*
X183602380Y-124293333D02*
X183602380Y-123626666D01*
X184602380Y-124055238D01*
X184602380Y-106846666D02*
X184126190Y-107180000D01*
X184602380Y-107418095D02*
X183602380Y-107418095D01*
X183602380Y-107037142D01*
X183650000Y-106941904D01*
X183697619Y-106894285D01*
X183792857Y-106846666D01*
X183935714Y-106846666D01*
X184030952Y-106894285D01*
X184078571Y-106941904D01*
X184126190Y-107037142D01*
X184126190Y-107418095D01*
X184030952Y-106275238D02*
X183983333Y-106370476D01*
X183935714Y-106418095D01*
X183840476Y-106465714D01*
X183792857Y-106465714D01*
X183697619Y-106418095D01*
X183650000Y-106370476D01*
X183602380Y-106275238D01*
X183602380Y-106084761D01*
X183650000Y-105989523D01*
X183697619Y-105941904D01*
X183792857Y-105894285D01*
X183840476Y-105894285D01*
X183935714Y-105941904D01*
X183983333Y-105989523D01*
X184030952Y-106084761D01*
X184030952Y-106275238D01*
X184078571Y-106370476D01*
X184126190Y-106418095D01*
X184221428Y-106465714D01*
X184411904Y-106465714D01*
X184507142Y-106418095D01*
X184554761Y-106370476D01*
X184602380Y-106275238D01*
X184602380Y-106084761D01*
X184554761Y-105989523D01*
X184507142Y-105941904D01*
X184411904Y-105894285D01*
X184221428Y-105894285D01*
X184126190Y-105941904D01*
X184078571Y-105989523D01*
X184030952Y-106084761D01*
X134135120Y-124230640D02*
X133658930Y-124563973D01*
X134135120Y-124802068D02*
X133135120Y-124802068D01*
X133135120Y-124421116D01*
X133182740Y-124325878D01*
X133230359Y-124278259D01*
X133325597Y-124230640D01*
X133468454Y-124230640D01*
X133563692Y-124278259D01*
X133611311Y-124325878D01*
X133658930Y-124421116D01*
X133658930Y-124802068D01*
X134135120Y-123325878D02*
X134135120Y-123802068D01*
X133135120Y-123802068D01*
X133658930Y-122802068D02*
X134135120Y-122802068D01*
X133135120Y-123135401D02*
X133658930Y-122802068D01*
X133135120Y-122468735D01*
X134135120Y-121611592D02*
X134135120Y-122183020D01*
X134135120Y-121897306D02*
X133135120Y-121897306D01*
X133277978Y-121992544D01*
X133373216Y-122087782D01*
X133420835Y-122183020D01*
X138787142Y-116530476D02*
X138834761Y-116578095D01*
X138882380Y-116720952D01*
X138882380Y-116816190D01*
X138834761Y-116959047D01*
X138739523Y-117054285D01*
X138644285Y-117101904D01*
X138453809Y-117149523D01*
X138310952Y-117149523D01*
X138120476Y-117101904D01*
X138025238Y-117054285D01*
X137930000Y-116959047D01*
X137882380Y-116816190D01*
X137882380Y-116720952D01*
X137930000Y-116578095D01*
X137977619Y-116530476D01*
X138882380Y-125245714D02*
X137882380Y-125245714D01*
X138882380Y-124674285D01*
X137882380Y-124674285D01*
X138787142Y-123626666D02*
X138834761Y-123674285D01*
X138882380Y-123817142D01*
X138882380Y-123912380D01*
X138834761Y-124055238D01*
X138739523Y-124150476D01*
X138644285Y-124198095D01*
X138453809Y-124245714D01*
X138310952Y-124245714D01*
X138120476Y-124198095D01*
X138025238Y-124150476D01*
X137930000Y-124055238D01*
X137882380Y-123912380D01*
X137882380Y-123817142D01*
X137930000Y-123674285D01*
X137977619Y-123626666D01*
X138882380Y-130349523D02*
X137882380Y-130349523D01*
X138882380Y-129778095D01*
X137882380Y-129778095D01*
X137882380Y-129111428D02*
X137882380Y-128920952D01*
X137930000Y-128825714D01*
X138025238Y-128730476D01*
X138215714Y-128682857D01*
X138549047Y-128682857D01*
X138739523Y-128730476D01*
X138834761Y-128825714D01*
X138882380Y-128920952D01*
X138882380Y-129111428D01*
X138834761Y-129206666D01*
X138739523Y-129301904D01*
X138549047Y-129349523D01*
X138215714Y-129349523D01*
X138025238Y-129301904D01*
X137930000Y-129206666D01*
X137882380Y-129111428D01*
X134135120Y-103910640D02*
X133658930Y-104243973D01*
X134135120Y-104482068D02*
X133135120Y-104482068D01*
X133135120Y-104101116D01*
X133182740Y-104005878D01*
X133230359Y-103958259D01*
X133325597Y-103910640D01*
X133468454Y-103910640D01*
X133563692Y-103958259D01*
X133611311Y-104005878D01*
X133658930Y-104101116D01*
X133658930Y-104482068D01*
X134135120Y-103005878D02*
X134135120Y-103482068D01*
X133135120Y-103482068D01*
X133658930Y-102482068D02*
X134135120Y-102482068D01*
X133135120Y-102815401D02*
X133658930Y-102482068D01*
X133135120Y-102148735D01*
X133230359Y-101863020D02*
X133182740Y-101815401D01*
X133135120Y-101720163D01*
X133135120Y-101482068D01*
X133182740Y-101386830D01*
X133230359Y-101339211D01*
X133325597Y-101291592D01*
X133420835Y-101291592D01*
X133563692Y-101339211D01*
X134135120Y-101910640D01*
X134135120Y-101291592D01*
X138787142Y-96210476D02*
X138834761Y-96258095D01*
X138882380Y-96400952D01*
X138882380Y-96496190D01*
X138834761Y-96639047D01*
X138739523Y-96734285D01*
X138644285Y-96781904D01*
X138453809Y-96829523D01*
X138310952Y-96829523D01*
X138120476Y-96781904D01*
X138025238Y-96734285D01*
X137930000Y-96639047D01*
X137882380Y-96496190D01*
X137882380Y-96400952D01*
X137930000Y-96258095D01*
X137977619Y-96210476D01*
X138882380Y-104925714D02*
X137882380Y-104925714D01*
X138882380Y-104354285D01*
X137882380Y-104354285D01*
X138787142Y-103306666D02*
X138834761Y-103354285D01*
X138882380Y-103497142D01*
X138882380Y-103592380D01*
X138834761Y-103735238D01*
X138739523Y-103830476D01*
X138644285Y-103878095D01*
X138453809Y-103925714D01*
X138310952Y-103925714D01*
X138120476Y-103878095D01*
X138025238Y-103830476D01*
X137930000Y-103735238D01*
X137882380Y-103592380D01*
X137882380Y-103497142D01*
X137930000Y-103354285D01*
X137977619Y-103306666D01*
X138882380Y-110029523D02*
X137882380Y-110029523D01*
X138882380Y-109458095D01*
X137882380Y-109458095D01*
X137882380Y-108791428D02*
X137882380Y-108600952D01*
X137930000Y-108505714D01*
X138025238Y-108410476D01*
X138215714Y-108362857D01*
X138549047Y-108362857D01*
X138739523Y-108410476D01*
X138834761Y-108505714D01*
X138882380Y-108600952D01*
X138882380Y-108791428D01*
X138834761Y-108886666D01*
X138739523Y-108981904D01*
X138549047Y-109029523D01*
X138215714Y-109029523D01*
X138025238Y-108981904D01*
X137930000Y-108886666D01*
X137882380Y-108791428D01*
X165885120Y-124230640D02*
X165408930Y-124563973D01*
X165885120Y-124802068D02*
X164885120Y-124802068D01*
X164885120Y-124421116D01*
X164932740Y-124325878D01*
X164980359Y-124278259D01*
X165075597Y-124230640D01*
X165218454Y-124230640D01*
X165313692Y-124278259D01*
X165361311Y-124325878D01*
X165408930Y-124421116D01*
X165408930Y-124802068D01*
X165885120Y-123325878D02*
X165885120Y-123802068D01*
X164885120Y-123802068D01*
X165408930Y-122802068D02*
X165885120Y-122802068D01*
X164885120Y-123135401D02*
X165408930Y-122802068D01*
X164885120Y-122468735D01*
X164885120Y-122230640D02*
X164885120Y-121611592D01*
X165266073Y-121944925D01*
X165266073Y-121802068D01*
X165313692Y-121706830D01*
X165361311Y-121659211D01*
X165456549Y-121611592D01*
X165694644Y-121611592D01*
X165789882Y-121659211D01*
X165837501Y-121706830D01*
X165885120Y-121802068D01*
X165885120Y-122087782D01*
X165837501Y-122183020D01*
X165789882Y-122230640D01*
X170632380Y-130349523D02*
X169632380Y-130349523D01*
X170632380Y-129778095D01*
X169632380Y-129778095D01*
X169632380Y-129111428D02*
X169632380Y-128920952D01*
X169680000Y-128825714D01*
X169775238Y-128730476D01*
X169965714Y-128682857D01*
X170299047Y-128682857D01*
X170489523Y-128730476D01*
X170584761Y-128825714D01*
X170632380Y-128920952D01*
X170632380Y-129111428D01*
X170584761Y-129206666D01*
X170489523Y-129301904D01*
X170299047Y-129349523D01*
X169965714Y-129349523D01*
X169775238Y-129301904D01*
X169680000Y-129206666D01*
X169632380Y-129111428D01*
X170632380Y-125245714D02*
X169632380Y-125245714D01*
X170632380Y-124674285D01*
X169632380Y-124674285D01*
X170537142Y-123626666D02*
X170584761Y-123674285D01*
X170632380Y-123817142D01*
X170632380Y-123912380D01*
X170584761Y-124055238D01*
X170489523Y-124150476D01*
X170394285Y-124198095D01*
X170203809Y-124245714D01*
X170060952Y-124245714D01*
X169870476Y-124198095D01*
X169775238Y-124150476D01*
X169680000Y-124055238D01*
X169632380Y-123912380D01*
X169632380Y-123817142D01*
X169680000Y-123674285D01*
X169727619Y-123626666D01*
X170537142Y-116530476D02*
X170584761Y-116578095D01*
X170632380Y-116720952D01*
X170632380Y-116816190D01*
X170584761Y-116959047D01*
X170489523Y-117054285D01*
X170394285Y-117101904D01*
X170203809Y-117149523D01*
X170060952Y-117149523D01*
X169870476Y-117101904D01*
X169775238Y-117054285D01*
X169680000Y-116959047D01*
X169632380Y-116816190D01*
X169632380Y-116720952D01*
X169680000Y-116578095D01*
X169727619Y-116530476D01*
X165885120Y-103910640D02*
X165408930Y-104243973D01*
X165885120Y-104482068D02*
X164885120Y-104482068D01*
X164885120Y-104101116D01*
X164932740Y-104005878D01*
X164980359Y-103958259D01*
X165075597Y-103910640D01*
X165218454Y-103910640D01*
X165313692Y-103958259D01*
X165361311Y-104005878D01*
X165408930Y-104101116D01*
X165408930Y-104482068D01*
X165885120Y-103005878D02*
X165885120Y-103482068D01*
X164885120Y-103482068D01*
X165408930Y-102482068D02*
X165885120Y-102482068D01*
X164885120Y-102815401D02*
X165408930Y-102482068D01*
X164885120Y-102148735D01*
X165218454Y-101386830D02*
X165885120Y-101386830D01*
X164837501Y-101624925D02*
X165551787Y-101863020D01*
X165551787Y-101243973D01*
X170632380Y-110029523D02*
X169632380Y-110029523D01*
X170632380Y-109458095D01*
X169632380Y-109458095D01*
X169632380Y-108791428D02*
X169632380Y-108600952D01*
X169680000Y-108505714D01*
X169775238Y-108410476D01*
X169965714Y-108362857D01*
X170299047Y-108362857D01*
X170489523Y-108410476D01*
X170584761Y-108505714D01*
X170632380Y-108600952D01*
X170632380Y-108791428D01*
X170584761Y-108886666D01*
X170489523Y-108981904D01*
X170299047Y-109029523D01*
X169965714Y-109029523D01*
X169775238Y-108981904D01*
X169680000Y-108886666D01*
X169632380Y-108791428D01*
X170632380Y-104925714D02*
X169632380Y-104925714D01*
X170632380Y-104354285D01*
X169632380Y-104354285D01*
X170537142Y-103306666D02*
X170584761Y-103354285D01*
X170632380Y-103497142D01*
X170632380Y-103592380D01*
X170584761Y-103735238D01*
X170489523Y-103830476D01*
X170394285Y-103878095D01*
X170203809Y-103925714D01*
X170060952Y-103925714D01*
X169870476Y-103878095D01*
X169775238Y-103830476D01*
X169680000Y-103735238D01*
X169632380Y-103592380D01*
X169632380Y-103497142D01*
X169680000Y-103354285D01*
X169727619Y-103306666D01*
X170537142Y-96210476D02*
X170584761Y-96258095D01*
X170632380Y-96400952D01*
X170632380Y-96496190D01*
X170584761Y-96639047D01*
X170489523Y-96734285D01*
X170394285Y-96781904D01*
X170203809Y-96829523D01*
X170060952Y-96829523D01*
X169870476Y-96781904D01*
X169775238Y-96734285D01*
X169680000Y-96639047D01*
X169632380Y-96496190D01*
X169632380Y-96400952D01*
X169680000Y-96258095D01*
X169727619Y-96210476D01*
M02*
