M48
;DRILL file {KiCad no-vcs-found-undefined} date Sun Oct 16 17:26:39 2016
;FORMAT={3:3/ absolute / metric / keep zeros}
FMAT,2
METRIC,TZ
T1C0.400
T2C0.813
T3C1.300
T4C3.175
%
G90
G05
M71
T1
X173990Y-096520
X177800Y-092710
X201930Y-120650
X203200Y-124460
T2
X138176Y-088900
X140716Y-088900
X143256Y-088900
X145796Y-088900
X147320Y-137160
X148336Y-088900
X149860Y-137160
X150876Y-088900
X152400Y-137160
X153416Y-088900
X154940Y-137160
X155956Y-088900
X157480Y-137160
X160020Y-088900
X160020Y-137160
X162560Y-088900
X165100Y-088900
X165100Y-137160
X167640Y-088900
X167640Y-137160
X170180Y-088900
X170180Y-137160
X172720Y-088900
X172720Y-137160
X175260Y-088900
X175260Y-137160
X177800Y-088900
X177800Y-137160
X180340Y-137160
X182880Y-088900
X182880Y-137160
X185420Y-088900
X187960Y-088900
X187960Y-137160
X190500Y-088900
X190500Y-137160
X193040Y-088900
X193040Y-137160
X195580Y-088900
X195580Y-137160
X198120Y-088900
X198120Y-137160
X200660Y-088900
X200660Y-137160
X203200Y-137160
X205740Y-137160
X208280Y-088900
X208280Y-091440
X208280Y-093980
X208280Y-096520
X208280Y-099060
X208280Y-101600
X208280Y-104140
X208280Y-106680
X208280Y-109220
X208280Y-111760
X208280Y-114300
X208280Y-116840
X208280Y-119380
X208280Y-121920
X208280Y-124460
X208280Y-127000
X208280Y-129540
X208280Y-132080
X210820Y-088900
X210820Y-091440
X210820Y-093980
X210820Y-096520
X210820Y-099060
X210820Y-101600
X210820Y-104140
X210820Y-106680
X210820Y-109220
X210820Y-111760
X210820Y-114300
X210820Y-116840
X210820Y-119380
X210820Y-121920
X210820Y-124460
X210820Y-127000
X210820Y-129540
X210820Y-132080
T3
X119380Y-092710
X119380Y-097710
X119380Y-104140
X119380Y-109140
X119380Y-115570
X119380Y-120570
X119380Y-127000
X119380Y-132000
T4
X128270Y-137160
X129540Y-088900
X204470Y-088900
X210820Y-137160
T0
M30
